G04 #@! TF.GenerationSoftware,KiCad,Pcbnew,7.0.2-6a45011f42~172~ubuntu20.04.1*
G04 #@! TF.CreationDate,2023-05-22T19:25:16+03:00*
G04 #@! TF.ProjectId,BLDC_4,424c4443-5f34-42e6-9b69-6361645f7063,rev?*
G04 #@! TF.SameCoordinates,PX40d9900PYa21fe80*
G04 #@! TF.FileFunction,Soldermask,Bot*
G04 #@! TF.FilePolarity,Negative*
%FSLAX46Y46*%
G04 Gerber Fmt 4.6, Leading zero omitted, Abs format (unit mm)*
G04 Created by KiCad (PCBNEW 7.0.2-6a45011f42~172~ubuntu20.04.1) date 2023-05-22 19:25:16*
%MOMM*%
%LPD*%
G01*
G04 APERTURE LIST*
G04 Aperture macros list*
%AMRoundRect*
0 Rectangle with rounded corners*
0 $1 Rounding radius*
0 $2 $3 $4 $5 $6 $7 $8 $9 X,Y pos of 4 corners*
0 Add a 4 corners polygon primitive as box body*
4,1,4,$2,$3,$4,$5,$6,$7,$8,$9,$2,$3,0*
0 Add four circle primitives for the rounded corners*
1,1,$1+$1,$2,$3*
1,1,$1+$1,$4,$5*
1,1,$1+$1,$6,$7*
1,1,$1+$1,$8,$9*
0 Add four rect primitives between the rounded corners*
20,1,$1+$1,$2,$3,$4,$5,0*
20,1,$1+$1,$4,$5,$6,$7,0*
20,1,$1+$1,$6,$7,$8,$9,0*
20,1,$1+$1,$8,$9,$2,$3,0*%
G04 Aperture macros list end*
%ADD10C,6.400000*%
%ADD11C,0.650000*%
%ADD12O,1.000000X2.100000*%
%ADD13O,1.000000X1.600000*%
%ADD14RoundRect,0.218750X0.218750X0.256250X-0.218750X0.256250X-0.218750X-0.256250X0.218750X-0.256250X0*%
%ADD15R,1.700000X1.700000*%
%ADD16O,1.700000X1.700000*%
%ADD17RoundRect,0.200000X0.200000X0.275000X-0.200000X0.275000X-0.200000X-0.275000X0.200000X-0.275000X0*%
%ADD18R,0.850000X1.100000*%
%ADD19R,0.750000X1.100000*%
%ADD20R,1.200000X1.000000*%
%ADD21R,1.550000X1.350000*%
%ADD22R,1.900000X1.350000*%
%ADD23R,1.170000X1.800000*%
%ADD24RoundRect,0.250000X1.950000X1.000000X-1.950000X1.000000X-1.950000X-1.000000X1.950000X-1.000000X0*%
%ADD25RoundRect,0.250000X-0.650000X0.325000X-0.650000X-0.325000X0.650000X-0.325000X0.650000X0.325000X0*%
%ADD26RoundRect,0.250000X-1.950000X-1.000000X1.950000X-1.000000X1.950000X1.000000X-1.950000X1.000000X0*%
%ADD27R,3.000000X3.000000*%
%ADD28C,3.000000*%
%ADD29RoundRect,0.250000X0.325000X0.650000X-0.325000X0.650000X-0.325000X-0.650000X0.325000X-0.650000X0*%
%ADD30RoundRect,0.250000X0.650000X-0.325000X0.650000X0.325000X-0.650000X0.325000X-0.650000X-0.325000X0*%
G04 APERTURE END LIST*
D10*
G04 #@! TO.C,H1*
X103500000Y116500000D03*
G04 #@! TD*
G04 #@! TO.C,H5*
X33500000Y116500000D03*
G04 #@! TD*
G04 #@! TO.C,H2*
X103500000Y93500000D03*
G04 #@! TD*
G04 #@! TO.C,H4*
X73500000Y116500000D03*
G04 #@! TD*
D11*
G04 #@! TO.C,J401*
X47190000Y114395000D03*
X41410000Y114395000D03*
D12*
X48620000Y113895000D03*
D13*
X48620000Y118075000D03*
D12*
X39980000Y113895000D03*
D13*
X39980000Y118075000D03*
G04 #@! TD*
D10*
G04 #@! TO.C,H3*
X73500000Y93500000D03*
G04 #@! TD*
D14*
G04 #@! TO.C,D1*
X62175000Y101800000D03*
X60600000Y101800000D03*
G04 #@! TD*
G04 #@! TO.C,D2*
X62187500Y103400000D03*
X60612500Y103400000D03*
G04 #@! TD*
G04 #@! TO.C,D3*
X62187500Y99800000D03*
X60612500Y99800000D03*
G04 #@! TD*
D15*
G04 #@! TO.C,P1*
X68060000Y92800000D03*
D16*
X65520000Y92800000D03*
X62980000Y92800000D03*
X60440000Y92800000D03*
X57900000Y92800000D03*
X55360000Y92800000D03*
G04 #@! TD*
D15*
G04 #@! TO.C,P2*
X35600000Y110585000D03*
D16*
X35600000Y108045000D03*
X35600000Y105505000D03*
X35600000Y102965000D03*
X35600000Y100425000D03*
X35600000Y97885000D03*
G04 #@! TD*
D15*
G04 #@! TO.C,P11*
X45500000Y92800000D03*
D16*
X42960000Y92800000D03*
X40420000Y92800000D03*
X37880000Y92800000D03*
G04 #@! TD*
D15*
G04 #@! TO.C,P12*
X51700000Y92800000D03*
D16*
X49160000Y92800000D03*
G04 #@! TD*
D15*
G04 #@! TO.C,P13*
X31750000Y92800000D03*
D16*
X34290000Y92800000D03*
G04 #@! TD*
D15*
G04 #@! TO.C,P14*
X32000000Y110575000D03*
D16*
X32000000Y108035000D03*
X32000000Y105495000D03*
X32000000Y102955000D03*
X32000000Y100415000D03*
X32000000Y97875000D03*
G04 #@! TD*
D17*
G04 #@! TO.C,R22*
X59225000Y99800000D03*
X57575000Y99800000D03*
G04 #@! TD*
G04 #@! TO.C,R37*
X59250000Y101800000D03*
X57600000Y101800000D03*
G04 #@! TD*
G04 #@! TO.C,R38*
X59250000Y103400000D03*
X57600000Y103400000D03*
G04 #@! TD*
D18*
G04 #@! TO.C,U5*
X65640000Y116225000D03*
X64540000Y116225000D03*
X63440000Y116225000D03*
X62340000Y116225000D03*
X61240000Y116225000D03*
X60140000Y116225000D03*
X59040000Y116225000D03*
D19*
X57990000Y116225000D03*
D20*
X68275000Y110075000D03*
X68275000Y106375000D03*
D21*
X68100000Y116100000D03*
D22*
X64775000Y105400000D03*
X58805000Y105400000D03*
D23*
X56780000Y115875000D03*
G04 #@! TD*
D24*
G04 #@! TO.C,C33*
X51100000Y105400000D03*
X42700000Y105400000D03*
G04 #@! TD*
D25*
G04 #@! TO.C,C9*
X97600000Y101000000D03*
X97600000Y98050000D03*
G04 #@! TD*
G04 #@! TO.C,C56*
X79500000Y95175000D03*
X79500000Y92225000D03*
G04 #@! TD*
D26*
G04 #@! TO.C,C57*
X85500000Y95400000D03*
X93900000Y95400000D03*
G04 #@! TD*
D27*
G04 #@! TO.C,J2*
X91020000Y115900000D03*
D28*
X96100000Y115900000D03*
G04 #@! TD*
D27*
G04 #@! TO.C,J3*
X80460000Y115900000D03*
D28*
X85540000Y115900000D03*
G04 #@! TD*
D26*
G04 #@! TO.C,C59*
X85500000Y106400000D03*
X93900000Y106400000D03*
G04 #@! TD*
D29*
G04 #@! TO.C,C49*
X78475000Y99500000D03*
X75525000Y99500000D03*
G04 #@! TD*
D30*
G04 #@! TO.C,C50*
X97600000Y93400000D03*
X97600000Y96350000D03*
G04 #@! TD*
G04 #@! TO.C,C44*
X97600000Y102725000D03*
X97600000Y105675000D03*
G04 #@! TD*
D25*
G04 #@! TO.C,C54*
X97600000Y110475000D03*
X97600000Y107525000D03*
G04 #@! TD*
D27*
G04 #@! TO.C,J1*
X103000000Y110160000D03*
D28*
X103000000Y105080000D03*
X103000000Y100000000D03*
G04 #@! TD*
D25*
G04 #@! TO.C,C55*
X81800000Y95175000D03*
X81800000Y92225000D03*
G04 #@! TD*
D24*
G04 #@! TO.C,C58*
X80600000Y106400000D03*
X72200000Y106400000D03*
G04 #@! TD*
M02*
