G04 #@! TF.GenerationSoftware,KiCad,Pcbnew,7.0.2-6a45011f42~172~ubuntu20.04.1*
G04 #@! TF.CreationDate,2023-05-22T19:25:16+03:00*
G04 #@! TF.ProjectId,BLDC_4,424c4443-5f34-42e6-9b69-6361645f7063,rev?*
G04 #@! TF.SameCoordinates,PX40d9900PYa21fe80*
G04 #@! TF.FileFunction,Copper,L2,Inr*
G04 #@! TF.FilePolarity,Positive*
%FSLAX46Y46*%
G04 Gerber Fmt 4.6, Leading zero omitted, Abs format (unit mm)*
G04 Created by KiCad (PCBNEW 7.0.2-6a45011f42~172~ubuntu20.04.1) date 2023-05-22 19:25:16*
%MOMM*%
%LPD*%
G01*
G04 APERTURE LIST*
%ADD10C,0.300000*%
G04 #@! TA.AperFunction,NonConductor*
%ADD11C,0.300000*%
G04 #@! TD*
G04 #@! TA.AperFunction,ComponentPad*
%ADD12C,6.400000*%
G04 #@! TD*
G04 #@! TA.AperFunction,ComponentPad*
%ADD13O,1.000000X2.100000*%
G04 #@! TD*
G04 #@! TA.AperFunction,ComponentPad*
%ADD14O,1.000000X1.600000*%
G04 #@! TD*
G04 #@! TA.AperFunction,ComponentPad*
%ADD15R,1.700000X1.700000*%
G04 #@! TD*
G04 #@! TA.AperFunction,ComponentPad*
%ADD16O,1.700000X1.700000*%
G04 #@! TD*
G04 #@! TA.AperFunction,ComponentPad*
%ADD17R,3.000000X3.000000*%
G04 #@! TD*
G04 #@! TA.AperFunction,ComponentPad*
%ADD18C,3.000000*%
G04 #@! TD*
G04 #@! TA.AperFunction,ViaPad*
%ADD19C,0.700000*%
G04 #@! TD*
G04 APERTURE END LIST*
D10*
D11*
X27178571Y10384286D02*
X27273809Y10479524D01*
X27273809Y10479524D02*
X27464285Y10574762D01*
X27464285Y10574762D02*
X27940476Y10574762D01*
X27940476Y10574762D02*
X28130952Y10479524D01*
X28130952Y10479524D02*
X28226190Y10384286D01*
X28226190Y10384286D02*
X28321428Y10193810D01*
X28321428Y10193810D02*
X28321428Y10003334D01*
X28321428Y10003334D02*
X28226190Y9717620D01*
X28226190Y9717620D02*
X27083333Y8574762D01*
X27083333Y8574762D02*
X28321428Y8574762D01*
D12*
G04 #@! TO.N,GND*
G04 #@! TO.C,H1*
X103500000Y116500000D03*
G04 #@! TD*
G04 #@! TO.N,GND*
G04 #@! TO.C,H5*
X33500000Y116500000D03*
G04 #@! TD*
G04 #@! TO.N,GND*
G04 #@! TO.C,H2*
X103500000Y93500000D03*
G04 #@! TD*
G04 #@! TO.N,GND*
G04 #@! TO.C,H4*
X73500000Y116500000D03*
G04 #@! TD*
D13*
G04 #@! TO.N,GND*
G04 #@! TO.C,J401*
X48620000Y113895000D03*
D14*
X48620000Y118075000D03*
D13*
X39980000Y113895000D03*
D14*
X39980000Y118075000D03*
G04 #@! TD*
D12*
G04 #@! TO.N,GND*
G04 #@! TO.C,H3*
X73500000Y93500000D03*
G04 #@! TD*
D15*
G04 #@! TO.N,+5V*
G04 #@! TO.C,P1*
X68060000Y92800000D03*
D16*
G04 #@! TO.N,/Filters/WHEEL_IN*
X65520000Y92800000D03*
G04 #@! TO.N,/Filters/HALL1_IN*
X62980000Y92800000D03*
G04 #@! TO.N,/Filters/HALL2_IN*
X60440000Y92800000D03*
G04 #@! TO.N,/Filters/HALL3_IN*
X57900000Y92800000D03*
G04 #@! TO.N,GND*
X55360000Y92800000D03*
G04 #@! TD*
D15*
G04 #@! TO.N,VCC*
G04 #@! TO.C,P2*
X35600000Y110585000D03*
D16*
G04 #@! TO.N,SWCLK*
X35600000Y108045000D03*
G04 #@! TO.N,GND*
X35600000Y105505000D03*
G04 #@! TO.N,SWDIO*
X35600000Y102965000D03*
G04 #@! TO.N,NRST*
X35600000Y100425000D03*
G04 #@! TO.N,TRACESWO*
X35600000Y97885000D03*
G04 #@! TD*
D15*
G04 #@! TO.N,GND*
G04 #@! TO.C,P11*
X45500000Y92800000D03*
D16*
G04 #@! TO.N,+5V*
X42960000Y92800000D03*
G04 #@! TO.N,/MCU/OLED_I2C_SDA*
X40420000Y92800000D03*
G04 #@! TO.N,/MCU/OLED_I2C_SCL*
X37880000Y92800000D03*
G04 #@! TD*
D15*
G04 #@! TO.N,/MCU/BRAKE_IN*
G04 #@! TO.C,P12*
X51700000Y92800000D03*
D16*
G04 #@! TO.N,VCC*
X49160000Y92800000D03*
G04 #@! TD*
D15*
G04 #@! TO.N,/MCU/BUTTONS_IN*
G04 #@! TO.C,P13*
X31750000Y92800000D03*
D16*
G04 #@! TO.N,VCC*
X34290000Y92800000D03*
G04 #@! TD*
D15*
G04 #@! TO.N,+5V*
G04 #@! TO.C,P14*
X32000000Y110575000D03*
D16*
G04 #@! TO.N,VCC*
X32000000Y108035000D03*
G04 #@! TO.N,/MCU/PC3*
X32000000Y105495000D03*
G04 #@! TO.N,/MCU/PC8*
X32000000Y102955000D03*
G04 #@! TO.N,/MCU/PC9*
X32000000Y100415000D03*
G04 #@! TO.N,GND*
X32000000Y97875000D03*
G04 #@! TD*
D17*
G04 #@! TO.N,+5V*
G04 #@! TO.C,J2*
X91020000Y115900000D03*
D18*
G04 #@! TO.N,GND*
X96100000Y115900000D03*
G04 #@! TD*
D17*
G04 #@! TO.N,V_SUPPLY*
G04 #@! TO.C,J3*
X80460000Y115900000D03*
D18*
G04 #@! TO.N,GND*
X85540000Y115900000D03*
G04 #@! TD*
D17*
G04 #@! TO.N,/Mosfet driver/H1_VS*
G04 #@! TO.C,J1*
X103000000Y110160000D03*
D18*
G04 #@! TO.N,/Mosfet driver/H2_VS*
X103000000Y105080000D03*
G04 #@! TO.N,/Mosfet driver/H3_VS*
X103000000Y100000000D03*
G04 #@! TD*
D19*
G04 #@! TO.N,GND*
X95100000Y104400000D03*
X53700000Y99800000D03*
X67100000Y105400000D03*
X99500000Y103000000D03*
X66300000Y98459500D03*
X51400000Y116600000D03*
X62900000Y109800000D03*
X65800000Y112800000D03*
X35700000Y92000000D03*
X99500000Y105800000D03*
X88200000Y119200000D03*
X60341606Y112358394D03*
X68500000Y118400000D03*
X59800000Y115100000D03*
X69500000Y105400000D03*
X60079001Y100712970D03*
X69500000Y101500000D03*
X95100000Y103100000D03*
X67100000Y111300000D03*
X31800000Y91100000D03*
X92100000Y119200000D03*
X96700000Y104400000D03*
X66600000Y90600000D03*
X64200000Y93500000D03*
X33900000Y94800000D03*
X98200000Y104400000D03*
X99600000Y118700000D03*
X57340500Y100790498D03*
X89100000Y95200000D03*
X30900000Y112200000D03*
X68000000Y101500000D03*
X44800000Y105900000D03*
X37180000Y119200000D03*
X37896837Y109700000D03*
X56000000Y112000000D03*
X106400000Y96100000D03*
X69500000Y107300000D03*
X59100000Y93600000D03*
X69500000Y104400000D03*
X61036335Y108871061D03*
X49900000Y94100000D03*
X69500000Y102900000D03*
X55329674Y106640500D03*
X75200000Y111534500D03*
X63600000Y106900000D03*
X98826706Y96673295D03*
X71100000Y102600000D03*
X79500000Y92225000D03*
X68000000Y102900000D03*
X58500000Y98459500D03*
X67100000Y107300000D03*
X68000000Y104400000D03*
X56200000Y114300000D03*
X91500000Y94000000D03*
X81800000Y92225000D03*
X50200000Y112759500D03*
X42700000Y100000000D03*
X99500000Y104400000D03*
X76788013Y99285017D03*
G04 #@! TO.N,V_SUPPLY*
X81800000Y103100000D03*
X83800000Y106600000D03*
X85000000Y95500000D03*
X83800000Y111000000D03*
X80000000Y106600000D03*
X83800000Y98800000D03*
X83800000Y103100000D03*
X73700000Y97300000D03*
X81800000Y97000000D03*
X83800000Y109200000D03*
X80000000Y97000000D03*
X80000000Y103100000D03*
X81800000Y100700000D03*
X70600000Y111200000D03*
X80000000Y100700000D03*
X78496464Y96465500D03*
X70500000Y110600000D03*
X83800000Y100700000D03*
X80000000Y98800000D03*
X81800000Y111000000D03*
X81800000Y104500000D03*
X96800000Y118700000D03*
X81800000Y112800000D03*
X83800000Y112800000D03*
X92800000Y118500000D03*
X80000000Y112800000D03*
X83800000Y104500000D03*
X80000000Y111000000D03*
X81800000Y98800000D03*
X81800000Y106600000D03*
X80000000Y104500000D03*
X80000000Y109200000D03*
X81800000Y109200000D03*
X87400000Y117500000D03*
X83800000Y97500000D03*
G04 #@! TO.N,/MCU/AN_IN*
X76762952Y113237048D03*
X47600000Y96500000D03*
G04 #@! TO.N,VCC*
X39918472Y109684887D03*
X37841951Y103274625D03*
X76580982Y98380982D03*
X49061696Y99438304D03*
X52400000Y112425000D03*
X57695223Y98761291D03*
X64700000Y118400000D03*
X69701134Y100124067D03*
X43000000Y96900000D03*
G04 #@! TO.N,/Mosfet driver/H1_VS*
X75400000Y107850168D03*
X88000000Y112750000D03*
X88000000Y111000000D03*
X92000000Y109000000D03*
X92000000Y111000000D03*
X90000000Y112750000D03*
X90000000Y111000000D03*
X88000000Y109000000D03*
X92000000Y112750000D03*
X90000000Y109000000D03*
G04 #@! TO.N,/Mosfet driver/H2_VS*
X89800000Y107200000D03*
X91200000Y103100000D03*
X91100000Y107200000D03*
X75350000Y103800000D03*
X89800000Y105100000D03*
X91200000Y105100000D03*
X88300000Y103100000D03*
X88300000Y107200000D03*
X88300000Y105100000D03*
X89800000Y103100000D03*
G04 #@! TO.N,/Mosfet driver/H3_VS*
X91600000Y97300000D03*
X88000000Y98900000D03*
X89900000Y100700000D03*
X89955000Y98905000D03*
X88000000Y97100000D03*
X91900000Y100700000D03*
X91900000Y98900000D03*
X74550000Y100700000D03*
X88000000Y100700000D03*
X89900000Y97100000D03*
G04 #@! TO.N,NRST*
X45840585Y99568290D03*
G04 #@! TO.N,+5V*
X64013806Y113481131D03*
X53308309Y114400000D03*
X67400000Y98500000D03*
X64750000Y113600000D03*
G04 #@! TO.N,/Filters/WHEEL_OUT*
X46700000Y99580500D03*
X67362500Y94980500D03*
G04 #@! TO.N,/MCU/BRAKE_IN*
X48100000Y104659500D03*
X54600000Y94980500D03*
G04 #@! TO.N,/MCU/BUTTONS_IN*
X47000000Y92300000D03*
G04 #@! TO.N,SWDIO*
X41936427Y108536427D03*
G04 #@! TO.N,/MCU/OLED_I2C_SDA*
X46059500Y104000000D03*
X39400000Y97800000D03*
G04 #@! TO.N,/MCU/OLED_I2C_SCL*
X39400000Y96900000D03*
X46719000Y103340500D03*
G04 #@! TO.N,/Mosfet driver/H1_LOW*
X71100000Y104500000D03*
X93523837Y108159500D03*
G04 #@! TO.N,/Mosfet driver/H3_LOW*
X71100000Y100100000D03*
X96200000Y101800000D03*
G04 #@! TO.N,/MCU/SENS1*
X104780997Y98572546D03*
X52100000Y96575000D03*
G04 #@! TO.N,/MCU/SENS2*
X50600000Y96575000D03*
X105440497Y99300000D03*
G04 #@! TO.N,/MCU/SENS3*
X49100000Y96575000D03*
X105500000Y100500000D03*
G04 #@! TO.N,/MCU/LED_GREEN*
X54935295Y104069500D03*
G04 #@! TO.N,/MCU/LED_RED*
X54216337Y104540500D03*
G04 #@! TO.N,SPI3_SDCARD_CS*
X48264023Y106664958D03*
G04 #@! TO.N,SPI3_MOSI*
X47423488Y106844530D03*
G04 #@! TO.N,SPI3_MISO*
X45773913Y106539343D03*
G04 #@! TO.N,SPI1_SENSOR_CS*
X50433496Y102573889D03*
X56535424Y102294949D03*
G04 #@! TO.N,SPI1_SCK*
X51119222Y103092080D03*
X55684994Y102419500D03*
G04 #@! TO.N,/MCU/L3*
X50108659Y107159500D03*
X63429857Y100975597D03*
G04 #@! TO.N,/MCU/L2*
X49550820Y107840500D03*
X63686283Y101795957D03*
G04 #@! TO.N,/MCU/L1*
X63483663Y102783663D03*
X48891320Y108440500D03*
G04 #@! TO.N,/MCU/DC_CAL*
X62800000Y105800000D03*
X43119500Y107470500D03*
G04 #@! TO.N,SPI3_SCK*
X46632442Y106498455D03*
G04 #@! TO.N,/MCU/EN_GATE*
X66234451Y103932875D03*
X50300000Y103500000D03*
G04 #@! TO.N,/MCU/H3*
X66102374Y101097683D03*
X46212099Y107867292D03*
G04 #@! TO.N,/MCU/H2*
X45352638Y107858843D03*
X66095286Y102090028D03*
G04 #@! TO.N,/MCU/H1*
X66165364Y102996264D03*
X44512172Y108038733D03*
G04 #@! TO.N,SENSOR_IRQ*
X49900000Y101900000D03*
X54800000Y100900000D03*
G04 #@! TO.N,/MCU/FAULT*
X43500000Y100500000D03*
X62900000Y108400000D03*
G04 #@! TO.N,/MCU/PC3*
X48061696Y99438304D03*
G04 #@! TO.N,/MCU/PC8*
X46393785Y111759500D03*
G04 #@! TO.N,/MCU/PC9*
X45709440Y111100000D03*
G04 #@! TO.N,/MCU/BOOT0*
X37180000Y111344500D03*
X42841854Y102090820D03*
G04 #@! TO.N,/Mosfet driver/DVDD*
X60700000Y106755500D03*
X67152235Y100119561D03*
G04 #@! TO.N,TEMPERATURE*
X52850000Y99450000D03*
X77370241Y97670241D03*
X69660690Y99265517D03*
G04 #@! TD*
G04 #@! TA.AperFunction,Conductor*
G04 #@! TO.N,GND*
G36*
X32279163Y119906018D02*
G01*
X32306183Y119859218D01*
X32296799Y119806000D01*
X32256694Y119771747D01*
X32076392Y119702536D01*
X32072625Y119700859D01*
X31749454Y119536194D01*
X31745855Y119534116D01*
X31441666Y119336574D01*
X31438314Y119334139D01*
X31156451Y119105890D01*
X31153357Y119103105D01*
X31131192Y119080941D01*
X31131192Y119080939D01*
X32479543Y117732588D01*
X32365130Y117634870D01*
X32267412Y117520458D01*
X30919061Y118868808D01*
X30919060Y118868808D01*
X30896895Y118846643D01*
X30894110Y118843549D01*
X30665861Y118561686D01*
X30663426Y118558334D01*
X30465884Y118254145D01*
X30463806Y118250546D01*
X30299141Y117927375D01*
X30297464Y117923608D01*
X30228253Y117743307D01*
X30192800Y117702523D01*
X30139426Y117694069D01*
X30093105Y117721902D01*
X30075500Y117771618D01*
X30075500Y118996556D01*
X30075801Y119003441D01*
X30078678Y119036331D01*
X30088942Y119153657D01*
X30091331Y119167207D01*
X30129466Y119309528D01*
X30134175Y119322463D01*
X30139620Y119334139D01*
X30196441Y119455992D01*
X30203321Y119467908D01*
X30287833Y119588604D01*
X30296674Y119599140D01*
X30400860Y119703326D01*
X30411396Y119712167D01*
X30532092Y119796679D01*
X30544008Y119803559D01*
X30677541Y119865827D01*
X30690472Y119870534D01*
X30832793Y119908669D01*
X30846343Y119911058D01*
X30996559Y119924200D01*
X31003444Y119924500D01*
X31024531Y119924500D01*
X32228383Y119924500D01*
X32279163Y119906018D01*
G37*
G04 #@! TD.AperFunction*
G04 #@! TA.AperFunction,Conductor*
G36*
X72279163Y119906018D02*
G01*
X72306183Y119859218D01*
X72296799Y119806000D01*
X72256694Y119771747D01*
X72076392Y119702536D01*
X72072625Y119700859D01*
X71749454Y119536194D01*
X71745855Y119534116D01*
X71441666Y119336574D01*
X71438314Y119334139D01*
X71156451Y119105890D01*
X71153357Y119103105D01*
X71131192Y119080941D01*
X71131192Y119080940D01*
X72479543Y117732589D01*
X72365130Y117634870D01*
X72267412Y117520458D01*
X70919061Y118868808D01*
X70919060Y118868808D01*
X70896895Y118846643D01*
X70894110Y118843549D01*
X70665861Y118561686D01*
X70663426Y118558334D01*
X70465884Y118254145D01*
X70463806Y118250546D01*
X70299141Y117927375D01*
X70297464Y117923608D01*
X70167475Y117584976D01*
X70166198Y117581045D01*
X70072319Y117230686D01*
X70071461Y117226646D01*
X70014722Y116868410D01*
X70014288Y116864279D01*
X69995305Y116502061D01*
X69995305Y116497940D01*
X70014288Y116135722D01*
X70014722Y116131591D01*
X70071461Y115773355D01*
X70072319Y115769315D01*
X70166198Y115418956D01*
X70167475Y115415025D01*
X70297464Y115076393D01*
X70299141Y115072626D01*
X70463806Y114749454D01*
X70465884Y114745855D01*
X70663426Y114441667D01*
X70665861Y114438315D01*
X70894121Y114156438D01*
X70896878Y114153375D01*
X70919060Y114131193D01*
X70919061Y114131193D01*
X72267411Y115479544D01*
X72365130Y115365130D01*
X72479543Y115267413D01*
X71131192Y113919062D01*
X71153374Y113896879D01*
X71156437Y113894122D01*
X71438314Y113665862D01*
X71441666Y113663427D01*
X71745854Y113465885D01*
X71749453Y113463807D01*
X72072625Y113299142D01*
X72076392Y113297465D01*
X72415024Y113167476D01*
X72418955Y113166199D01*
X72769314Y113072320D01*
X72773354Y113071462D01*
X73131590Y113014723D01*
X73135721Y113014289D01*
X73497939Y112995305D01*
X73502061Y112995305D01*
X73864278Y113014289D01*
X73868409Y113014723D01*
X74226645Y113071462D01*
X74230685Y113072320D01*
X74581044Y113166199D01*
X74584975Y113167476D01*
X74766218Y113237049D01*
X76207701Y113237049D01*
X76226621Y113093342D01*
X76226621Y113093340D01*
X76226622Y113093339D01*
X76282091Y112959423D01*
X76370331Y112844427D01*
X76485327Y112756187D01*
X76619243Y112700718D01*
X76762952Y112681798D01*
X76906661Y112700718D01*
X77040577Y112756187D01*
X77097675Y112800000D01*
X79444749Y112800000D01*
X79463669Y112656294D01*
X79463669Y112656292D01*
X79463670Y112656291D01*
X79519139Y112522375D01*
X79607379Y112407379D01*
X79722375Y112319139D01*
X79856291Y112263670D01*
X80000000Y112244750D01*
X80143709Y112263670D01*
X80277625Y112319139D01*
X80392621Y112407379D01*
X80480861Y112522375D01*
X80536330Y112656291D01*
X80555250Y112800000D01*
X81244749Y112800000D01*
X81263669Y112656294D01*
X81263669Y112656292D01*
X81263670Y112656291D01*
X81319139Y112522375D01*
X81407379Y112407379D01*
X81522375Y112319139D01*
X81656291Y112263670D01*
X81800000Y112244750D01*
X81943709Y112263670D01*
X82077625Y112319139D01*
X82192621Y112407379D01*
X82280861Y112522375D01*
X82336330Y112656291D01*
X82355250Y112800000D01*
X83244749Y112800000D01*
X83263669Y112656294D01*
X83263669Y112656292D01*
X83263670Y112656291D01*
X83319139Y112522375D01*
X83407379Y112407379D01*
X83522375Y112319139D01*
X83656291Y112263670D01*
X83800000Y112244750D01*
X83943709Y112263670D01*
X84077625Y112319139D01*
X84192621Y112407379D01*
X84280861Y112522375D01*
X84336330Y112656291D01*
X84348667Y112750001D01*
X87444749Y112750001D01*
X87463669Y112606294D01*
X87463669Y112606292D01*
X87463670Y112606291D01*
X87519139Y112472375D01*
X87607379Y112357379D01*
X87722375Y112269139D01*
X87856291Y112213670D01*
X88000000Y112194750D01*
X88143709Y112213670D01*
X88277625Y112269139D01*
X88392621Y112357379D01*
X88480861Y112472375D01*
X88536330Y112606291D01*
X88555250Y112750000D01*
X88555250Y112750001D01*
X89444749Y112750001D01*
X89463669Y112606294D01*
X89463669Y112606292D01*
X89463670Y112606291D01*
X89519139Y112472375D01*
X89607379Y112357379D01*
X89722375Y112269139D01*
X89856291Y112213670D01*
X90000000Y112194750D01*
X90143709Y112213670D01*
X90277625Y112269139D01*
X90392621Y112357379D01*
X90480861Y112472375D01*
X90536330Y112606291D01*
X90555250Y112750000D01*
X90555250Y112750001D01*
X91444749Y112750001D01*
X91463669Y112606294D01*
X91463669Y112606292D01*
X91463670Y112606291D01*
X91519139Y112472375D01*
X91607379Y112357379D01*
X91722375Y112269139D01*
X91856291Y112213670D01*
X92000000Y112194750D01*
X92143709Y112213670D01*
X92277625Y112269139D01*
X92392621Y112357379D01*
X92480861Y112472375D01*
X92536330Y112606291D01*
X92555250Y112750000D01*
X92554435Y112756187D01*
X92536330Y112893707D01*
X92536330Y112893709D01*
X92480861Y113027625D01*
X92392621Y113142621D01*
X92277625Y113230861D01*
X92143709Y113286330D01*
X92143708Y113286331D01*
X92143706Y113286331D01*
X92000000Y113305251D01*
X91856293Y113286331D01*
X91856290Y113286330D01*
X91856291Y113286330D01*
X91737315Y113237049D01*
X91722373Y113230860D01*
X91607379Y113142621D01*
X91519140Y113027627D01*
X91463669Y112893707D01*
X91444749Y112750001D01*
X90555250Y112750001D01*
X90554435Y112756187D01*
X90536330Y112893707D01*
X90536330Y112893709D01*
X90480861Y113027625D01*
X90392621Y113142621D01*
X90277625Y113230861D01*
X90143709Y113286330D01*
X90143708Y113286331D01*
X90143706Y113286331D01*
X90000000Y113305251D01*
X89856293Y113286331D01*
X89856290Y113286330D01*
X89856291Y113286330D01*
X89737315Y113237049D01*
X89722373Y113230860D01*
X89607379Y113142621D01*
X89519140Y113027627D01*
X89463669Y112893707D01*
X89444749Y112750001D01*
X88555250Y112750001D01*
X88554435Y112756187D01*
X88536330Y112893707D01*
X88536330Y112893709D01*
X88480861Y113027625D01*
X88392621Y113142621D01*
X88277625Y113230861D01*
X88143709Y113286330D01*
X88143708Y113286331D01*
X88143706Y113286331D01*
X88000000Y113305251D01*
X87856293Y113286331D01*
X87856290Y113286330D01*
X87856291Y113286330D01*
X87737315Y113237049D01*
X87722373Y113230860D01*
X87607379Y113142621D01*
X87519140Y113027627D01*
X87463669Y112893707D01*
X87444749Y112750001D01*
X84348667Y112750001D01*
X84355250Y112800000D01*
X84336330Y112943709D01*
X84280861Y113077625D01*
X84192621Y113192621D01*
X84077625Y113280861D01*
X83943709Y113336330D01*
X83943708Y113336331D01*
X83943706Y113336331D01*
X83800000Y113355251D01*
X83656293Y113336331D01*
X83589333Y113308596D01*
X83541832Y113288920D01*
X83522373Y113280860D01*
X83407379Y113192621D01*
X83319140Y113077627D01*
X83319139Y113077626D01*
X83319139Y113077625D01*
X83298429Y113027625D01*
X83263669Y112943707D01*
X83244749Y112800000D01*
X82355250Y112800000D01*
X82336330Y112943709D01*
X82280861Y113077625D01*
X82192621Y113192621D01*
X82077625Y113280861D01*
X81943709Y113336330D01*
X81943708Y113336331D01*
X81943706Y113336331D01*
X81800000Y113355251D01*
X81656293Y113336331D01*
X81589333Y113308596D01*
X81541832Y113288920D01*
X81522373Y113280860D01*
X81407379Y113192621D01*
X81319140Y113077627D01*
X81319139Y113077626D01*
X81319139Y113077625D01*
X81298429Y113027625D01*
X81263669Y112943707D01*
X81244749Y112800000D01*
X80555250Y112800000D01*
X80536330Y112943709D01*
X80480861Y113077625D01*
X80392621Y113192621D01*
X80277625Y113280861D01*
X80143709Y113336330D01*
X80143708Y113336331D01*
X80143706Y113336331D01*
X80000000Y113355251D01*
X79856293Y113336331D01*
X79789333Y113308596D01*
X79741832Y113288920D01*
X79722373Y113280860D01*
X79607379Y113192621D01*
X79519140Y113077627D01*
X79519139Y113077626D01*
X79519139Y113077625D01*
X79498429Y113027625D01*
X79463669Y112943707D01*
X79444749Y112800000D01*
X77097675Y112800000D01*
X77155573Y112844427D01*
X77243813Y112959423D01*
X77299282Y113093339D01*
X77318202Y113237048D01*
X77299282Y113380757D01*
X77243813Y113514673D01*
X77155573Y113629669D01*
X77040577Y113717909D01*
X76906661Y113773378D01*
X76906660Y113773379D01*
X76906658Y113773379D01*
X76762952Y113792299D01*
X76619245Y113773379D01*
X76485325Y113717908D01*
X76370331Y113629669D01*
X76282092Y113514675D01*
X76226621Y113380755D01*
X76207701Y113237049D01*
X74766218Y113237049D01*
X74923607Y113297465D01*
X74927374Y113299142D01*
X75250546Y113463807D01*
X75254145Y113465885D01*
X75558333Y113663427D01*
X75561685Y113665862D01*
X75843560Y113894120D01*
X75846632Y113896886D01*
X75868807Y113919062D01*
X74520456Y115267413D01*
X74634870Y115365130D01*
X74732587Y115479544D01*
X76080938Y114131193D01*
X76080939Y114131193D01*
X76103114Y114153368D01*
X76105880Y114156440D01*
X76287119Y114380252D01*
X78759500Y114380252D01*
X78771133Y114321769D01*
X78815447Y114255448D01*
X78859762Y114225838D01*
X78881769Y114211133D01*
X78940252Y114199500D01*
X81979748Y114199500D01*
X82038231Y114211133D01*
X82104552Y114255448D01*
X82148867Y114321769D01*
X82160500Y114380252D01*
X82160500Y115900001D01*
X83734952Y115900001D01*
X83755113Y115630971D01*
X83815145Y115367956D01*
X83913709Y115116819D01*
X84048598Y114883184D01*
X84165039Y114737172D01*
X84906334Y115478467D01*
X84983433Y115374906D01*
X85115890Y115263761D01*
X84376350Y114524221D01*
X84376350Y114524220D01*
X84414569Y114488759D01*
X84637473Y114336785D01*
X84880545Y114219728D01*
X85138336Y114140211D01*
X85405111Y114100000D01*
X85674889Y114100000D01*
X85941663Y114140211D01*
X86199454Y114219728D01*
X86442527Y114336785D01*
X86506281Y114380252D01*
X89319500Y114380252D01*
X89331133Y114321769D01*
X89375447Y114255448D01*
X89419762Y114225838D01*
X89441769Y114211133D01*
X89500252Y114199500D01*
X92539748Y114199500D01*
X92598231Y114211133D01*
X92664552Y114255448D01*
X92708867Y114321769D01*
X92720500Y114380252D01*
X92720500Y115900001D01*
X94294952Y115900001D01*
X94315113Y115630971D01*
X94375145Y115367956D01*
X94473709Y115116819D01*
X94608598Y114883184D01*
X94725039Y114737172D01*
X95466334Y115478467D01*
X95543433Y115374906D01*
X95675890Y115263761D01*
X94936350Y114524221D01*
X94936350Y114524220D01*
X94974569Y114488759D01*
X95197473Y114336785D01*
X95440545Y114219728D01*
X95698336Y114140211D01*
X95965111Y114100000D01*
X96234889Y114100000D01*
X96501663Y114140211D01*
X96759454Y114219728D01*
X97002527Y114336785D01*
X97225426Y114488756D01*
X97263648Y114524221D01*
X96520771Y115267098D01*
X96591844Y115313843D01*
X96713764Y115443070D01*
X96734004Y115478127D01*
X97474959Y114737172D01*
X97474960Y114737173D01*
X97591399Y114883180D01*
X97726290Y115116819D01*
X97824854Y115367956D01*
X97884886Y115630971D01*
X97905047Y115900001D01*
X97884886Y116169030D01*
X97824854Y116432045D01*
X97726290Y116683182D01*
X97591401Y116916817D01*
X97474959Y117062830D01*
X96733664Y116321535D01*
X96656567Y116425094D01*
X96524108Y116536241D01*
X97263648Y117275781D01*
X97263648Y117275782D01*
X97225432Y117311239D01*
X97002523Y117463217D01*
X96759454Y117580273D01*
X96501663Y117659790D01*
X96234889Y117700000D01*
X95965111Y117700000D01*
X95698336Y117659790D01*
X95440545Y117580273D01*
X95197473Y117463216D01*
X94974573Y117311244D01*
X94936350Y117275781D01*
X95679228Y116532902D01*
X95608156Y116486157D01*
X95486236Y116356930D01*
X95465995Y116321874D01*
X94725039Y117062830D01*
X94608598Y116916817D01*
X94473709Y116683182D01*
X94375145Y116432045D01*
X94315113Y116169030D01*
X94294952Y115900001D01*
X92720500Y115900001D01*
X92720500Y117419748D01*
X92708867Y117478231D01*
X92673308Y117531448D01*
X92664552Y117544553D01*
X92598231Y117588867D01*
X92539748Y117600500D01*
X89500252Y117600500D01*
X89441768Y117588867D01*
X89375447Y117544553D01*
X89331133Y117478232D01*
X89319500Y117419749D01*
X89319500Y114380252D01*
X86506281Y114380252D01*
X86665426Y114488756D01*
X86703648Y114524221D01*
X85960771Y115267098D01*
X86031844Y115313843D01*
X86153764Y115443070D01*
X86174004Y115478128D01*
X86914959Y114737172D01*
X86914960Y114737173D01*
X87031399Y114883180D01*
X87166290Y115116819D01*
X87264854Y115367956D01*
X87324886Y115630971D01*
X87345047Y115900001D01*
X87324886Y116169030D01*
X87264854Y116432045D01*
X87166290Y116683182D01*
X87041526Y116899281D01*
X87032142Y116952499D01*
X87059162Y116999299D01*
X87109942Y117017781D01*
X87140171Y117011768D01*
X87170274Y116999299D01*
X87256289Y116963670D01*
X87400000Y116944750D01*
X87543709Y116963670D01*
X87677625Y117019139D01*
X87792621Y117107379D01*
X87880861Y117222375D01*
X87936330Y117356291D01*
X87955250Y117500000D01*
X87936330Y117643709D01*
X87880861Y117777625D01*
X87792621Y117892621D01*
X87677625Y117980861D01*
X87543709Y118036330D01*
X87543708Y118036331D01*
X87543706Y118036331D01*
X87400000Y118055251D01*
X87256293Y118036331D01*
X87122373Y117980860D01*
X87007379Y117892621D01*
X86919140Y117777627D01*
X86863669Y117643707D01*
X86844749Y117500000D01*
X86863669Y117356294D01*
X86879324Y117318499D01*
X86881681Y117264511D01*
X86848784Y117221639D01*
X86796025Y117209943D01*
X86752603Y117230356D01*
X86665426Y117311245D01*
X86442527Y117463216D01*
X86199454Y117580273D01*
X85941663Y117659790D01*
X85674889Y117700000D01*
X85405111Y117700000D01*
X85138336Y117659790D01*
X84880545Y117580273D01*
X84637473Y117463216D01*
X84414573Y117311244D01*
X84376350Y117275781D01*
X85119229Y116532903D01*
X85048156Y116486157D01*
X84926236Y116356930D01*
X84905996Y116321874D01*
X84165039Y117062830D01*
X84048598Y116916817D01*
X83913709Y116683182D01*
X83815145Y116432045D01*
X83755113Y116169030D01*
X83734952Y115900001D01*
X82160500Y115900001D01*
X82160500Y117419748D01*
X82148867Y117478231D01*
X82113308Y117531448D01*
X82104552Y117544553D01*
X82038231Y117588867D01*
X81979748Y117600500D01*
X78940252Y117600500D01*
X78881768Y117588867D01*
X78815447Y117544553D01*
X78771133Y117478232D01*
X78759500Y117419749D01*
X78759500Y114380252D01*
X76287119Y114380252D01*
X76334138Y114438315D01*
X76336573Y114441667D01*
X76534115Y114745855D01*
X76536193Y114749454D01*
X76700858Y115072626D01*
X76702535Y115076393D01*
X76832524Y115415025D01*
X76833801Y115418956D01*
X76927680Y115769315D01*
X76928538Y115773355D01*
X76985277Y116131591D01*
X76985711Y116135722D01*
X77004695Y116497940D01*
X77004695Y116502061D01*
X76985711Y116864279D01*
X76985277Y116868410D01*
X76928538Y117226646D01*
X76927680Y117230686D01*
X76833801Y117581045D01*
X76832524Y117584976D01*
X76702535Y117923608D01*
X76700858Y117927375D01*
X76536193Y118250546D01*
X76534115Y118254145D01*
X76374455Y118500001D01*
X92244749Y118500001D01*
X92263669Y118356294D01*
X92263669Y118356292D01*
X92263670Y118356291D01*
X92319139Y118222375D01*
X92407379Y118107379D01*
X92522375Y118019139D01*
X92656291Y117963670D01*
X92800000Y117944750D01*
X92943709Y117963670D01*
X93077625Y118019139D01*
X93192621Y118107379D01*
X93280861Y118222375D01*
X93336330Y118356291D01*
X93355250Y118500000D01*
X93349495Y118543709D01*
X93336330Y118643707D01*
X93336330Y118643709D01*
X93313013Y118700001D01*
X96244749Y118700001D01*
X96263669Y118556294D01*
X96263669Y118556292D01*
X96263670Y118556291D01*
X96319139Y118422375D01*
X96407379Y118307379D01*
X96522375Y118219139D01*
X96656291Y118163670D01*
X96800000Y118144750D01*
X96943709Y118163670D01*
X97077625Y118219139D01*
X97192621Y118307379D01*
X97280861Y118422375D01*
X97336330Y118556291D01*
X97355250Y118700000D01*
X97336330Y118843709D01*
X97280861Y118977625D01*
X97192621Y119092621D01*
X97077625Y119180861D01*
X96943709Y119236330D01*
X96943708Y119236331D01*
X96943706Y119236331D01*
X96800000Y119255251D01*
X96656293Y119236331D01*
X96522373Y119180860D01*
X96407379Y119092621D01*
X96319140Y118977627D01*
X96263669Y118843707D01*
X96244749Y118700001D01*
X93313013Y118700001D01*
X93280861Y118777625D01*
X93192621Y118892621D01*
X93077625Y118980861D01*
X92943709Y119036330D01*
X92943708Y119036331D01*
X92943706Y119036331D01*
X92800000Y119055251D01*
X92656293Y119036331D01*
X92522373Y118980860D01*
X92407379Y118892621D01*
X92319140Y118777627D01*
X92263669Y118643707D01*
X92244749Y118500001D01*
X76374455Y118500001D01*
X76336573Y118558334D01*
X76334138Y118561686D01*
X76105878Y118843563D01*
X76103121Y118846626D01*
X76080939Y118868808D01*
X76080938Y118868808D01*
X74732587Y117520458D01*
X74634870Y117634870D01*
X74520455Y117732589D01*
X75868807Y119080940D01*
X75846625Y119103122D01*
X75843562Y119105879D01*
X75561685Y119334139D01*
X75558333Y119336574D01*
X75254145Y119534116D01*
X75250546Y119536194D01*
X74927374Y119700859D01*
X74923607Y119702536D01*
X74743306Y119771747D01*
X74702522Y119807200D01*
X74694068Y119860574D01*
X74721901Y119906895D01*
X74771617Y119924500D01*
X102228383Y119924500D01*
X102279163Y119906018D01*
X102306183Y119859218D01*
X102296799Y119806000D01*
X102256694Y119771747D01*
X102076392Y119702536D01*
X102072625Y119700859D01*
X101749454Y119536194D01*
X101745855Y119534116D01*
X101441666Y119336574D01*
X101438314Y119334139D01*
X101156451Y119105890D01*
X101153357Y119103105D01*
X101131192Y119080941D01*
X101131192Y119080940D01*
X102479543Y117732588D01*
X102365130Y117634870D01*
X102267412Y117520458D01*
X100919061Y118868808D01*
X100919060Y118868808D01*
X100896895Y118846643D01*
X100894110Y118843549D01*
X100665861Y118561686D01*
X100663426Y118558334D01*
X100465884Y118254145D01*
X100463806Y118250546D01*
X100299141Y117927375D01*
X100297464Y117923608D01*
X100167475Y117584976D01*
X100166198Y117581045D01*
X100072319Y117230686D01*
X100071461Y117226646D01*
X100014722Y116868410D01*
X100014288Y116864279D01*
X99995305Y116502061D01*
X99995305Y116497940D01*
X100014288Y116135722D01*
X100014722Y116131591D01*
X100071461Y115773355D01*
X100072319Y115769315D01*
X100166198Y115418956D01*
X100167475Y115415025D01*
X100297464Y115076393D01*
X100299141Y115072626D01*
X100463806Y114749454D01*
X100465884Y114745855D01*
X100663426Y114441667D01*
X100665861Y114438315D01*
X100894121Y114156438D01*
X100896878Y114153375D01*
X100919060Y114131193D01*
X100919061Y114131193D01*
X102267411Y115479544D01*
X102365130Y115365130D01*
X102479542Y115267413D01*
X101131191Y113919062D01*
X101153374Y113896879D01*
X101156437Y113894122D01*
X101438314Y113665862D01*
X101441666Y113663427D01*
X101745854Y113465885D01*
X101749453Y113463807D01*
X102072625Y113299142D01*
X102076392Y113297465D01*
X102415024Y113167476D01*
X102418955Y113166199D01*
X102769314Y113072320D01*
X102773354Y113071462D01*
X103131590Y113014723D01*
X103135721Y113014289D01*
X103497939Y112995305D01*
X103502061Y112995305D01*
X103864278Y113014289D01*
X103868409Y113014723D01*
X104226645Y113071462D01*
X104230685Y113072320D01*
X104581044Y113166199D01*
X104584975Y113167476D01*
X104923607Y113297465D01*
X104927374Y113299142D01*
X105250546Y113463807D01*
X105254145Y113465885D01*
X105558333Y113663427D01*
X105561685Y113665862D01*
X105843560Y113894120D01*
X105846632Y113896886D01*
X105868807Y113919062D01*
X105868807Y113919063D01*
X104520456Y115267413D01*
X104634870Y115365130D01*
X104732587Y115479544D01*
X106080938Y114131193D01*
X106080939Y114131193D01*
X106103114Y114153368D01*
X106105880Y114156440D01*
X106334138Y114438315D01*
X106336573Y114441667D01*
X106534115Y114745855D01*
X106536193Y114749454D01*
X106700858Y115072626D01*
X106702535Y115076393D01*
X106771747Y115256694D01*
X106807200Y115297478D01*
X106860574Y115305932D01*
X106906895Y115278099D01*
X106924500Y115228383D01*
X106924500Y94771618D01*
X106906018Y94720838D01*
X106859218Y94693818D01*
X106806000Y94703202D01*
X106771747Y94743307D01*
X106702535Y94923608D01*
X106700858Y94927375D01*
X106536193Y95250546D01*
X106534115Y95254145D01*
X106336573Y95558334D01*
X106334138Y95561686D01*
X106105878Y95843563D01*
X106103121Y95846626D01*
X106080939Y95868808D01*
X106080938Y95868808D01*
X104732587Y94520458D01*
X104634870Y94634870D01*
X104520456Y94732588D01*
X105868807Y96080939D01*
X105868807Y96080940D01*
X105846625Y96103122D01*
X105843562Y96105879D01*
X105561685Y96334139D01*
X105558333Y96336574D01*
X105254145Y96534116D01*
X105250546Y96536194D01*
X104927374Y96700859D01*
X104923607Y96702536D01*
X104584975Y96832525D01*
X104581044Y96833802D01*
X104230685Y96927681D01*
X104226645Y96928539D01*
X103868409Y96985278D01*
X103864278Y96985712D01*
X103502061Y97004695D01*
X103497939Y97004695D01*
X103135721Y96985712D01*
X103131590Y96985278D01*
X102773354Y96928539D01*
X102769314Y96927681D01*
X102418955Y96833802D01*
X102415024Y96832525D01*
X102076392Y96702536D01*
X102072625Y96700859D01*
X101749454Y96536194D01*
X101745855Y96534116D01*
X101441666Y96336574D01*
X101438314Y96334139D01*
X101156451Y96105890D01*
X101153357Y96103105D01*
X101131192Y96080941D01*
X101131192Y96080940D01*
X102479543Y94732588D01*
X102365130Y94634870D01*
X102267412Y94520457D01*
X100919061Y95868808D01*
X100919060Y95868808D01*
X100896895Y95846643D01*
X100894110Y95843549D01*
X100665861Y95561686D01*
X100663426Y95558334D01*
X100465884Y95254145D01*
X100463806Y95250546D01*
X100299141Y94927375D01*
X100297464Y94923608D01*
X100167475Y94584976D01*
X100166198Y94581045D01*
X100072319Y94230686D01*
X100071461Y94226646D01*
X100014722Y93868410D01*
X100014288Y93864279D01*
X99995305Y93502061D01*
X99995305Y93497940D01*
X100014288Y93135722D01*
X100014722Y93131591D01*
X100071461Y92773355D01*
X100072319Y92769315D01*
X100166198Y92418956D01*
X100167475Y92415025D01*
X100297464Y92076393D01*
X100299141Y92072626D01*
X100463806Y91749454D01*
X100465884Y91745855D01*
X100663426Y91441667D01*
X100665861Y91438315D01*
X100894121Y91156438D01*
X100896878Y91153375D01*
X100919060Y91131193D01*
X100919061Y91131193D01*
X102267411Y92479544D01*
X102365130Y92365130D01*
X102479543Y92267413D01*
X101131192Y90919062D01*
X101153374Y90896879D01*
X101156437Y90894122D01*
X101438314Y90665862D01*
X101441666Y90663427D01*
X101745854Y90465885D01*
X101749453Y90463807D01*
X102072625Y90299142D01*
X102076392Y90297465D01*
X102256694Y90228253D01*
X102297478Y90192800D01*
X102305932Y90139426D01*
X102278099Y90093105D01*
X102228383Y90075500D01*
X74771617Y90075500D01*
X74720837Y90093982D01*
X74693817Y90140782D01*
X74703201Y90194000D01*
X74743306Y90228253D01*
X74923607Y90297465D01*
X74927374Y90299142D01*
X75250546Y90463807D01*
X75254145Y90465885D01*
X75558333Y90663427D01*
X75561685Y90665862D01*
X75843560Y90894120D01*
X75846632Y90896886D01*
X75868807Y90919062D01*
X74520456Y92267413D01*
X74634870Y92365130D01*
X74732587Y92479544D01*
X76080938Y91131193D01*
X76080939Y91131193D01*
X76103114Y91153368D01*
X76105880Y91156440D01*
X76334138Y91438315D01*
X76336573Y91441667D01*
X76534115Y91745855D01*
X76536193Y91749454D01*
X76700858Y92072626D01*
X76702535Y92076393D01*
X76832524Y92415025D01*
X76833801Y92418956D01*
X76927680Y92769315D01*
X76928538Y92773355D01*
X76985277Y93131591D01*
X76985711Y93135722D01*
X77004695Y93497940D01*
X77004695Y93502061D01*
X76985711Y93864279D01*
X76985277Y93868410D01*
X76928538Y94226646D01*
X76927680Y94230686D01*
X76833801Y94581045D01*
X76832524Y94584976D01*
X76702535Y94923608D01*
X76700858Y94927375D01*
X76536193Y95250546D01*
X76534115Y95254145D01*
X76374455Y95500000D01*
X84444749Y95500000D01*
X84463669Y95356294D01*
X84463669Y95356292D01*
X84463670Y95356291D01*
X84519139Y95222375D01*
X84607379Y95107379D01*
X84722375Y95019139D01*
X84856291Y94963670D01*
X85000000Y94944750D01*
X85143709Y94963670D01*
X85277625Y95019139D01*
X85392621Y95107379D01*
X85480861Y95222375D01*
X85536330Y95356291D01*
X85555250Y95500000D01*
X85536330Y95643709D01*
X85480861Y95777625D01*
X85392621Y95892621D01*
X85277625Y95980861D01*
X85143709Y96036330D01*
X85143708Y96036331D01*
X85143706Y96036331D01*
X85000000Y96055251D01*
X84856293Y96036331D01*
X84722373Y95980860D01*
X84607379Y95892621D01*
X84519140Y95777627D01*
X84463669Y95643707D01*
X84444749Y95500000D01*
X76374455Y95500000D01*
X76336573Y95558334D01*
X76334138Y95561686D01*
X76105878Y95843563D01*
X76103121Y95846626D01*
X76080939Y95868808D01*
X76080938Y95868808D01*
X74732587Y94520458D01*
X74634870Y94634870D01*
X74520456Y94732588D01*
X75868807Y96080939D01*
X75868807Y96080940D01*
X75846625Y96103122D01*
X75843562Y96105879D01*
X75561685Y96334139D01*
X75558333Y96336574D01*
X75359804Y96465500D01*
X77941213Y96465500D01*
X77960133Y96321794D01*
X77960133Y96321792D01*
X77960134Y96321791D01*
X78015603Y96187875D01*
X78103843Y96072879D01*
X78218839Y95984639D01*
X78352755Y95929170D01*
X78448561Y95916557D01*
X78496463Y95910250D01*
X78496463Y95910251D01*
X78496464Y95910250D01*
X78640173Y95929170D01*
X78774089Y95984639D01*
X78889085Y96072879D01*
X78977325Y96187875D01*
X79032794Y96321791D01*
X79051714Y96465500D01*
X79032794Y96609209D01*
X78977325Y96743125D01*
X78889085Y96858121D01*
X78774089Y96946361D01*
X78644591Y97000000D01*
X79444749Y97000000D01*
X79463669Y96856294D01*
X79463669Y96856292D01*
X79463670Y96856291D01*
X79519139Y96722375D01*
X79607379Y96607379D01*
X79722375Y96519139D01*
X79856291Y96463670D01*
X79952097Y96451057D01*
X79999999Y96444750D01*
X79999999Y96444751D01*
X80000000Y96444750D01*
X80143709Y96463670D01*
X80277625Y96519139D01*
X80392621Y96607379D01*
X80480861Y96722375D01*
X80536330Y96856291D01*
X80555250Y97000000D01*
X81244749Y97000000D01*
X81263669Y96856294D01*
X81263669Y96856292D01*
X81263670Y96856291D01*
X81319139Y96722375D01*
X81407379Y96607379D01*
X81522375Y96519139D01*
X81656291Y96463670D01*
X81800000Y96444750D01*
X81943709Y96463670D01*
X82077625Y96519139D01*
X82192621Y96607379D01*
X82280861Y96722375D01*
X82336330Y96856291D01*
X82355250Y97000000D01*
X82336330Y97143709D01*
X82280861Y97277625D01*
X82192621Y97392621D01*
X82077625Y97480861D01*
X82031419Y97500000D01*
X83244749Y97500000D01*
X83263669Y97356294D01*
X83263669Y97356292D01*
X83263670Y97356291D01*
X83319139Y97222375D01*
X83407379Y97107379D01*
X83522375Y97019139D01*
X83656291Y96963670D01*
X83800000Y96944750D01*
X83943709Y96963670D01*
X84077625Y97019139D01*
X84183005Y97100000D01*
X87444749Y97100000D01*
X87463669Y96956294D01*
X87463669Y96956292D01*
X87463670Y96956291D01*
X87519139Y96822375D01*
X87607379Y96707379D01*
X87722375Y96619139D01*
X87856291Y96563670D01*
X87952096Y96551057D01*
X87999999Y96544750D01*
X87999999Y96544751D01*
X88000000Y96544750D01*
X88143709Y96563670D01*
X88277625Y96619139D01*
X88392621Y96707379D01*
X88480861Y96822375D01*
X88536330Y96956291D01*
X88555250Y97100000D01*
X89344749Y97100000D01*
X89363669Y96956294D01*
X89363669Y96956292D01*
X89363670Y96956291D01*
X89419139Y96822375D01*
X89507379Y96707379D01*
X89622375Y96619139D01*
X89756291Y96563670D01*
X89900000Y96544750D01*
X90043709Y96563670D01*
X90177625Y96619139D01*
X90292621Y96707379D01*
X90380861Y96822375D01*
X90436330Y96956291D01*
X90455250Y97100000D01*
X90436330Y97243709D01*
X90413013Y97300001D01*
X91044749Y97300001D01*
X91063669Y97156294D01*
X91063669Y97156292D01*
X91063670Y97156291D01*
X91119139Y97022375D01*
X91207379Y96907379D01*
X91322375Y96819139D01*
X91456291Y96763670D01*
X91552096Y96751057D01*
X91599999Y96744750D01*
X91599999Y96744751D01*
X91600000Y96744750D01*
X91743709Y96763670D01*
X91877625Y96819139D01*
X91992621Y96907379D01*
X92080861Y97022375D01*
X92136330Y97156291D01*
X92155250Y97300000D01*
X92136330Y97443709D01*
X92080861Y97577625D01*
X91992621Y97692621D01*
X91877625Y97780861D01*
X91743709Y97836330D01*
X91743708Y97836331D01*
X91743706Y97836331D01*
X91600000Y97855251D01*
X91456293Y97836331D01*
X91322373Y97780860D01*
X91207379Y97692621D01*
X91119140Y97577627D01*
X91063669Y97443707D01*
X91044749Y97300001D01*
X90413013Y97300001D01*
X90380861Y97377625D01*
X90292621Y97492621D01*
X90177625Y97580861D01*
X90043709Y97636330D01*
X90043708Y97636331D01*
X90043706Y97636331D01*
X89899999Y97655251D01*
X89756293Y97636331D01*
X89622373Y97580860D01*
X89507379Y97492621D01*
X89419140Y97377627D01*
X89419139Y97377626D01*
X89419139Y97377625D01*
X89410304Y97356294D01*
X89363669Y97243707D01*
X89344749Y97100000D01*
X88555250Y97100000D01*
X88536330Y97243709D01*
X88480861Y97377625D01*
X88392621Y97492621D01*
X88277625Y97580861D01*
X88143709Y97636330D01*
X88143708Y97636331D01*
X88143706Y97636331D01*
X88000000Y97655251D01*
X87856293Y97636331D01*
X87722373Y97580860D01*
X87607379Y97492621D01*
X87519140Y97377627D01*
X87519139Y97377626D01*
X87519139Y97377625D01*
X87510304Y97356294D01*
X87463669Y97243707D01*
X87444749Y97100000D01*
X84183005Y97100000D01*
X84192621Y97107379D01*
X84280861Y97222375D01*
X84336330Y97356291D01*
X84355250Y97500000D01*
X84336330Y97643709D01*
X84280861Y97777625D01*
X84192621Y97892621D01*
X84077625Y97980861D01*
X83943709Y98036330D01*
X83943708Y98036331D01*
X83943706Y98036331D01*
X83800000Y98055251D01*
X83656293Y98036331D01*
X83610338Y98017296D01*
X83540485Y97988362D01*
X83522373Y97980860D01*
X83407379Y97892621D01*
X83319140Y97777627D01*
X83263669Y97643707D01*
X83244749Y97500000D01*
X82031419Y97500000D01*
X81943709Y97536330D01*
X81943708Y97536331D01*
X81943706Y97536331D01*
X81800000Y97555251D01*
X81656293Y97536331D01*
X81522373Y97480860D01*
X81407379Y97392621D01*
X81319140Y97277627D01*
X81319139Y97277626D01*
X81319139Y97277625D01*
X81305091Y97243709D01*
X81263669Y97143707D01*
X81244749Y97000000D01*
X80555250Y97000000D01*
X80536330Y97143709D01*
X80480861Y97277625D01*
X80392621Y97392621D01*
X80277625Y97480861D01*
X80143709Y97536330D01*
X80143708Y97536331D01*
X80143706Y97536331D01*
X80000000Y97555251D01*
X79856293Y97536331D01*
X79722373Y97480860D01*
X79607379Y97392621D01*
X79519140Y97277627D01*
X79519139Y97277626D01*
X79519139Y97277625D01*
X79505091Y97243709D01*
X79463669Y97143707D01*
X79444749Y97000000D01*
X78644591Y97000000D01*
X78640173Y97001830D01*
X78640172Y97001831D01*
X78640170Y97001831D01*
X78496463Y97020751D01*
X78352757Y97001831D01*
X78352754Y97001830D01*
X78352755Y97001830D01*
X78242813Y96956291D01*
X78218837Y96946360D01*
X78103843Y96858121D01*
X78015604Y96743127D01*
X77960133Y96609207D01*
X77941213Y96465500D01*
X75359804Y96465500D01*
X75254145Y96534116D01*
X75250546Y96536194D01*
X74927374Y96700859D01*
X74923607Y96702536D01*
X74584975Y96832525D01*
X74581043Y96833802D01*
X74237545Y96925843D01*
X74193279Y96956839D01*
X74179293Y97009036D01*
X74185006Y97032383D01*
X74186642Y97036331D01*
X74231118Y97143707D01*
X74236330Y97156290D01*
X74250906Y97267008D01*
X74255250Y97300000D01*
X74236330Y97443709D01*
X74180861Y97577625D01*
X74092621Y97692621D01*
X73977625Y97780861D01*
X73843709Y97836330D01*
X73843708Y97836331D01*
X73843706Y97836331D01*
X73700000Y97855251D01*
X73556293Y97836331D01*
X73422373Y97780860D01*
X73307379Y97692621D01*
X73219140Y97577627D01*
X73163669Y97443707D01*
X73144749Y97300001D01*
X73163669Y97156292D01*
X73189820Y97093156D01*
X73192176Y97039168D01*
X73159279Y96996297D01*
X73129191Y96984898D01*
X72773354Y96928539D01*
X72769314Y96927681D01*
X72418955Y96833802D01*
X72415024Y96832525D01*
X72076392Y96702536D01*
X72072625Y96700859D01*
X71749454Y96536194D01*
X71745855Y96534116D01*
X71441666Y96336574D01*
X71438314Y96334139D01*
X71156451Y96105890D01*
X71153357Y96103105D01*
X71131192Y96080941D01*
X71131192Y96080940D01*
X72479543Y94732588D01*
X72365130Y94634870D01*
X72267412Y94520457D01*
X70919061Y95868808D01*
X70919060Y95868808D01*
X70896895Y95846643D01*
X70894110Y95843549D01*
X70665861Y95561686D01*
X70663426Y95558334D01*
X70465884Y95254145D01*
X70463806Y95250546D01*
X70299141Y94927375D01*
X70297464Y94923608D01*
X70167475Y94584976D01*
X70166198Y94581045D01*
X70072319Y94230686D01*
X70071461Y94226646D01*
X70014722Y93868410D01*
X70014288Y93864279D01*
X69995305Y93502061D01*
X69995305Y93497940D01*
X70014288Y93135722D01*
X70014722Y93131591D01*
X70071461Y92773355D01*
X70072319Y92769315D01*
X70166198Y92418956D01*
X70167475Y92415025D01*
X70297464Y92076393D01*
X70299141Y92072626D01*
X70463806Y91749454D01*
X70465884Y91745855D01*
X70663426Y91441667D01*
X70665861Y91438315D01*
X70894121Y91156438D01*
X70896878Y91153375D01*
X70919060Y91131193D01*
X70919061Y91131193D01*
X72267411Y92479544D01*
X72365130Y92365130D01*
X72479543Y92267413D01*
X71131192Y90919062D01*
X71153374Y90896879D01*
X71156437Y90894122D01*
X71438314Y90665862D01*
X71441666Y90663427D01*
X71745854Y90465885D01*
X71749453Y90463807D01*
X72072625Y90299142D01*
X72076392Y90297465D01*
X72256694Y90228253D01*
X72297478Y90192800D01*
X72305932Y90139426D01*
X72278099Y90093105D01*
X72228383Y90075500D01*
X31003444Y90075500D01*
X30996559Y90075801D01*
X30846349Y90088943D01*
X30832787Y90091334D01*
X30690477Y90129466D01*
X30677537Y90134176D01*
X30544013Y90196440D01*
X30532088Y90203325D01*
X30411403Y90287829D01*
X30400854Y90296681D01*
X30296680Y90400855D01*
X30287828Y90411404D01*
X30203324Y90532089D01*
X30196439Y90544014D01*
X30134175Y90677538D01*
X30129465Y90690478D01*
X30091333Y90832788D01*
X30088942Y90846350D01*
X30075801Y90996560D01*
X30075500Y91003445D01*
X30075500Y91930252D01*
X30699500Y91930252D01*
X30711133Y91871769D01*
X30755447Y91805448D01*
X30799761Y91775838D01*
X30821769Y91761133D01*
X30880252Y91749500D01*
X32619748Y91749500D01*
X32678231Y91761133D01*
X32744552Y91805448D01*
X32788867Y91871769D01*
X32800500Y91930252D01*
X32800500Y92800000D01*
X33234417Y92800000D01*
X33254700Y92594062D01*
X33314765Y92396051D01*
X33412316Y92213549D01*
X33543589Y92053590D01*
X33582163Y92021934D01*
X33703550Y91922315D01*
X33886046Y91824768D01*
X33886050Y91824766D01*
X34084061Y91764701D01*
X34084063Y91764701D01*
X34084066Y91764700D01*
X34290000Y91744417D01*
X34495934Y91764700D01*
X34495936Y91764701D01*
X34495938Y91764701D01*
X34693949Y91824766D01*
X34693951Y91824768D01*
X34693954Y91824768D01*
X34876450Y91922315D01*
X35036410Y92053590D01*
X35167685Y92213550D01*
X35265232Y92396046D01*
X35270990Y92415025D01*
X35325299Y92594062D01*
X35325299Y92594064D01*
X35325300Y92594066D01*
X35345583Y92800000D01*
X36824417Y92800000D01*
X36844700Y92594062D01*
X36904765Y92396051D01*
X37002316Y92213549D01*
X37133589Y92053590D01*
X37172163Y92021934D01*
X37293550Y91922315D01*
X37476046Y91824768D01*
X37476050Y91824766D01*
X37674061Y91764701D01*
X37674063Y91764701D01*
X37674066Y91764700D01*
X37880000Y91744417D01*
X38085934Y91764700D01*
X38085936Y91764701D01*
X38085938Y91764701D01*
X38283949Y91824766D01*
X38283951Y91824768D01*
X38283954Y91824768D01*
X38466450Y91922315D01*
X38626410Y92053590D01*
X38757685Y92213550D01*
X38855232Y92396046D01*
X38860990Y92415025D01*
X38915299Y92594062D01*
X38915299Y92594064D01*
X38915300Y92594066D01*
X38935583Y92800000D01*
X39364417Y92800000D01*
X39384700Y92594062D01*
X39444765Y92396051D01*
X39542316Y92213549D01*
X39673589Y92053590D01*
X39712163Y92021934D01*
X39833550Y91922315D01*
X40016046Y91824768D01*
X40016050Y91824766D01*
X40214061Y91764701D01*
X40214063Y91764701D01*
X40214066Y91764700D01*
X40420000Y91744417D01*
X40625934Y91764700D01*
X40625936Y91764701D01*
X40625938Y91764701D01*
X40823949Y91824766D01*
X40823951Y91824768D01*
X40823954Y91824768D01*
X41006450Y91922315D01*
X41166410Y92053590D01*
X41297685Y92213550D01*
X41395232Y92396046D01*
X41400990Y92415025D01*
X41455299Y92594062D01*
X41455299Y92594064D01*
X41455300Y92594066D01*
X41475583Y92800000D01*
X41904417Y92800000D01*
X41924700Y92594062D01*
X41984765Y92396051D01*
X42082316Y92213549D01*
X42213589Y92053590D01*
X42252163Y92021934D01*
X42373550Y91922315D01*
X42556046Y91824768D01*
X42556050Y91824766D01*
X42754061Y91764701D01*
X42754063Y91764701D01*
X42754066Y91764700D01*
X42960000Y91744417D01*
X43165934Y91764700D01*
X43165936Y91764701D01*
X43165938Y91764701D01*
X43363949Y91824766D01*
X43363951Y91824768D01*
X43363954Y91824768D01*
X43546450Y91922315D01*
X43706410Y92053590D01*
X43837685Y92213550D01*
X43935232Y92396046D01*
X43940990Y92415025D01*
X43995299Y92594062D01*
X43995299Y92594064D01*
X43995300Y92594066D01*
X44015583Y92800000D01*
X44000809Y92950000D01*
X44350000Y92950000D01*
X45022935Y92950000D01*
X45000000Y92871889D01*
X45000000Y92728111D01*
X45022935Y92650000D01*
X44350001Y92650000D01*
X44350001Y91907483D01*
X44350263Y91902949D01*
X44352910Y91880125D01*
X44398213Y91777521D01*
X44477520Y91698214D01*
X44580126Y91652910D01*
X44602940Y91650263D01*
X44607479Y91650001D01*
X45350000Y91650001D01*
X45350000Y92318830D01*
X45357685Y92315320D01*
X45464237Y92300000D01*
X45535763Y92300000D01*
X45642315Y92315320D01*
X45650000Y92318830D01*
X45650000Y91650001D01*
X46392518Y91650001D01*
X46397051Y91650264D01*
X46419875Y91652911D01*
X46522479Y91698214D01*
X46601785Y91777520D01*
X46605421Y91785754D01*
X46642837Y91824744D01*
X46696563Y91830561D01*
X46712647Y91822834D01*
X46712766Y91823119D01*
X46722375Y91819139D01*
X46856291Y91763670D01*
X47000000Y91744750D01*
X47143709Y91763670D01*
X47277625Y91819139D01*
X47392621Y91907379D01*
X47480861Y92022375D01*
X47536330Y92156291D01*
X47555250Y92300000D01*
X47536330Y92443709D01*
X47480861Y92577625D01*
X47392621Y92692621D01*
X47277625Y92780861D01*
X47231419Y92800000D01*
X48104417Y92800000D01*
X48124700Y92594062D01*
X48184765Y92396051D01*
X48282316Y92213549D01*
X48413589Y92053590D01*
X48452163Y92021934D01*
X48573550Y91922315D01*
X48756046Y91824768D01*
X48756050Y91824766D01*
X48954061Y91764701D01*
X48954063Y91764701D01*
X48954066Y91764700D01*
X49160000Y91744417D01*
X49365934Y91764700D01*
X49365936Y91764701D01*
X49365938Y91764701D01*
X49563949Y91824766D01*
X49563951Y91824768D01*
X49563954Y91824768D01*
X49746450Y91922315D01*
X49756121Y91930252D01*
X50649500Y91930252D01*
X50661133Y91871769D01*
X50705447Y91805448D01*
X50749762Y91775838D01*
X50771769Y91761133D01*
X50830252Y91749500D01*
X52569748Y91749500D01*
X52628231Y91761133D01*
X52694552Y91805448D01*
X52738867Y91871769D01*
X52750500Y91930252D01*
X52750500Y92650000D01*
X54218973Y92650000D01*
X54224737Y92587782D01*
X54283062Y92382794D01*
X54378061Y92192008D01*
X54506496Y92021934D01*
X54664003Y91878347D01*
X54845205Y91766152D01*
X55043936Y91689163D01*
X55210000Y91658121D01*
X55210000Y92318830D01*
X55217685Y92315320D01*
X55324237Y92300000D01*
X55395763Y92300000D01*
X55502315Y92315320D01*
X55510000Y92318830D01*
X55510000Y91658121D01*
X55676063Y91689163D01*
X55874794Y91766152D01*
X56055996Y91878347D01*
X56213503Y92021934D01*
X56341938Y92192008D01*
X56436937Y92382794D01*
X56495262Y92587782D01*
X56501026Y92650000D01*
X55837065Y92650000D01*
X55860000Y92728111D01*
X55860000Y92800000D01*
X56844417Y92800000D01*
X56864700Y92594062D01*
X56924765Y92396051D01*
X57022316Y92213549D01*
X57153589Y92053590D01*
X57192163Y92021934D01*
X57313550Y91922315D01*
X57496046Y91824768D01*
X57496050Y91824766D01*
X57694061Y91764701D01*
X57694063Y91764701D01*
X57694066Y91764700D01*
X57900000Y91744417D01*
X58105934Y91764700D01*
X58105936Y91764701D01*
X58105938Y91764701D01*
X58303949Y91824766D01*
X58303951Y91824768D01*
X58303954Y91824768D01*
X58486450Y91922315D01*
X58646410Y92053590D01*
X58777685Y92213550D01*
X58875232Y92396046D01*
X58880990Y92415025D01*
X58935299Y92594062D01*
X58935299Y92594064D01*
X58935300Y92594066D01*
X58955583Y92800000D01*
X59384417Y92800000D01*
X59404700Y92594062D01*
X59464765Y92396051D01*
X59562316Y92213549D01*
X59693589Y92053590D01*
X59732163Y92021934D01*
X59853550Y91922315D01*
X60036046Y91824768D01*
X60036050Y91824766D01*
X60234061Y91764701D01*
X60234063Y91764701D01*
X60234066Y91764700D01*
X60440000Y91744417D01*
X60645934Y91764700D01*
X60645936Y91764701D01*
X60645938Y91764701D01*
X60843949Y91824766D01*
X60843951Y91824768D01*
X60843954Y91824768D01*
X61026450Y91922315D01*
X61186410Y92053590D01*
X61317685Y92213550D01*
X61415232Y92396046D01*
X61420990Y92415025D01*
X61475299Y92594062D01*
X61475299Y92594064D01*
X61475300Y92594066D01*
X61495583Y92800000D01*
X61924417Y92800000D01*
X61944700Y92594062D01*
X62004765Y92396051D01*
X62102316Y92213549D01*
X62233589Y92053590D01*
X62272163Y92021934D01*
X62393550Y91922315D01*
X62576046Y91824768D01*
X62576050Y91824766D01*
X62774061Y91764701D01*
X62774063Y91764701D01*
X62774066Y91764700D01*
X62980000Y91744417D01*
X63185934Y91764700D01*
X63185936Y91764701D01*
X63185938Y91764701D01*
X63383949Y91824766D01*
X63383951Y91824768D01*
X63383954Y91824768D01*
X63566450Y91922315D01*
X63726410Y92053590D01*
X63857685Y92213550D01*
X63955232Y92396046D01*
X63960990Y92415025D01*
X64015299Y92594062D01*
X64015299Y92594064D01*
X64015300Y92594066D01*
X64035583Y92800000D01*
X64464417Y92800000D01*
X64484700Y92594062D01*
X64544765Y92396051D01*
X64642316Y92213549D01*
X64773589Y92053590D01*
X64812163Y92021934D01*
X64933550Y91922315D01*
X65116046Y91824768D01*
X65116050Y91824766D01*
X65314061Y91764701D01*
X65314063Y91764701D01*
X65314066Y91764700D01*
X65520000Y91744417D01*
X65725934Y91764700D01*
X65725936Y91764701D01*
X65725938Y91764701D01*
X65923949Y91824766D01*
X65923951Y91824768D01*
X65923954Y91824768D01*
X66106450Y91922315D01*
X66116121Y91930252D01*
X67009500Y91930252D01*
X67021133Y91871769D01*
X67065447Y91805448D01*
X67109761Y91775838D01*
X67131769Y91761133D01*
X67190252Y91749500D01*
X68929748Y91749500D01*
X68988231Y91761133D01*
X69054552Y91805448D01*
X69098867Y91871769D01*
X69110500Y91930252D01*
X69110500Y93669748D01*
X69098867Y93728231D01*
X69083607Y93751069D01*
X69054552Y93794553D01*
X68988231Y93838867D01*
X68929748Y93850500D01*
X67190252Y93850500D01*
X67131768Y93838867D01*
X67065447Y93794553D01*
X67021133Y93728232D01*
X67009500Y93669749D01*
X67009500Y91930252D01*
X66116121Y91930252D01*
X66266410Y92053590D01*
X66397685Y92213550D01*
X66495232Y92396046D01*
X66500990Y92415025D01*
X66555299Y92594062D01*
X66555299Y92594064D01*
X66555300Y92594066D01*
X66575583Y92800000D01*
X66555300Y93005934D01*
X66555299Y93005937D01*
X66555299Y93005939D01*
X66495234Y93203950D01*
X66471191Y93248931D01*
X66397685Y93386450D01*
X66357760Y93435099D01*
X66266410Y93546411D01*
X66106451Y93677684D01*
X66106450Y93677685D01*
X65999311Y93734953D01*
X65923949Y93775235D01*
X65725938Y93835300D01*
X65520000Y93855583D01*
X65314061Y93835300D01*
X65116050Y93775235D01*
X64933548Y93677684D01*
X64773589Y93546411D01*
X64642316Y93386452D01*
X64544765Y93203950D01*
X64484700Y93005939D01*
X64464417Y92800000D01*
X64035583Y92800000D01*
X64015300Y93005934D01*
X64015299Y93005937D01*
X64015299Y93005939D01*
X63955234Y93203950D01*
X63931191Y93248931D01*
X63857685Y93386450D01*
X63817760Y93435099D01*
X63726410Y93546411D01*
X63566451Y93677684D01*
X63566450Y93677685D01*
X63459311Y93734953D01*
X63383949Y93775235D01*
X63185938Y93835300D01*
X62980000Y93855583D01*
X62774061Y93835300D01*
X62576050Y93775235D01*
X62393548Y93677684D01*
X62233589Y93546411D01*
X62102316Y93386452D01*
X62004765Y93203950D01*
X61944700Y93005939D01*
X61924417Y92800000D01*
X61495583Y92800000D01*
X61475300Y93005934D01*
X61475299Y93005937D01*
X61475299Y93005939D01*
X61415234Y93203950D01*
X61391191Y93248931D01*
X61317685Y93386450D01*
X61277760Y93435099D01*
X61186410Y93546411D01*
X61026451Y93677684D01*
X61026450Y93677685D01*
X60919311Y93734953D01*
X60843949Y93775235D01*
X60645938Y93835300D01*
X60440000Y93855583D01*
X60234061Y93835300D01*
X60036050Y93775235D01*
X59853548Y93677684D01*
X59693589Y93546411D01*
X59562316Y93386452D01*
X59464765Y93203950D01*
X59404700Y93005939D01*
X59384417Y92800000D01*
X58955583Y92800000D01*
X58935300Y93005934D01*
X58935299Y93005937D01*
X58935299Y93005939D01*
X58875234Y93203950D01*
X58851191Y93248931D01*
X58777685Y93386450D01*
X58737760Y93435099D01*
X58646410Y93546411D01*
X58486451Y93677684D01*
X58486450Y93677685D01*
X58379311Y93734953D01*
X58303949Y93775235D01*
X58105938Y93835300D01*
X57900000Y93855583D01*
X57694061Y93835300D01*
X57496050Y93775235D01*
X57313548Y93677684D01*
X57153589Y93546411D01*
X57022316Y93386452D01*
X56924765Y93203950D01*
X56864700Y93005939D01*
X56844417Y92800000D01*
X55860000Y92800000D01*
X55860000Y92871889D01*
X55837065Y92950000D01*
X56501027Y92950000D01*
X56501026Y92950001D01*
X56495262Y93012219D01*
X56436937Y93217207D01*
X56341938Y93407993D01*
X56213503Y93578067D01*
X56055996Y93721654D01*
X55874794Y93833849D01*
X55676063Y93910838D01*
X55510000Y93941881D01*
X55510000Y93281171D01*
X55502315Y93284680D01*
X55395763Y93300000D01*
X55324237Y93300000D01*
X55217685Y93284680D01*
X55210000Y93281171D01*
X55210000Y93941881D01*
X55043936Y93910838D01*
X54845205Y93833849D01*
X54664003Y93721654D01*
X54506496Y93578067D01*
X54378061Y93407993D01*
X54283062Y93217207D01*
X54224737Y93012219D01*
X54218973Y92950001D01*
X54218973Y92950000D01*
X54882935Y92950000D01*
X54860000Y92871889D01*
X54860000Y92728111D01*
X54882935Y92650000D01*
X54218973Y92650000D01*
X52750500Y92650000D01*
X52750500Y93669748D01*
X52738867Y93728231D01*
X52723607Y93751069D01*
X52694552Y93794553D01*
X52628231Y93838867D01*
X52569748Y93850500D01*
X50830252Y93850500D01*
X50771768Y93838867D01*
X50705447Y93794553D01*
X50661133Y93728232D01*
X50649500Y93669749D01*
X50649500Y91930252D01*
X49756121Y91930252D01*
X49906410Y92053590D01*
X50037685Y92213550D01*
X50135232Y92396046D01*
X50140990Y92415025D01*
X50195299Y92594062D01*
X50195299Y92594064D01*
X50195300Y92594066D01*
X50215583Y92800000D01*
X50195300Y93005934D01*
X50195299Y93005937D01*
X50195299Y93005939D01*
X50135234Y93203950D01*
X50111191Y93248931D01*
X50037685Y93386450D01*
X49997760Y93435099D01*
X49906410Y93546411D01*
X49746451Y93677684D01*
X49746450Y93677685D01*
X49639311Y93734953D01*
X49563949Y93775235D01*
X49365938Y93835300D01*
X49160000Y93855583D01*
X48954061Y93835300D01*
X48756050Y93775235D01*
X48573548Y93677684D01*
X48413589Y93546411D01*
X48282316Y93386452D01*
X48184765Y93203950D01*
X48124700Y93005939D01*
X48104417Y92800000D01*
X47231419Y92800000D01*
X47143709Y92836330D01*
X47143708Y92836331D01*
X47143706Y92836331D01*
X47000000Y92855251D01*
X46856293Y92836331D01*
X46759231Y92796127D01*
X46705243Y92793771D01*
X46662371Y92826668D01*
X46649999Y92869114D01*
X46649999Y93692518D01*
X46649736Y93697052D01*
X46647089Y93719876D01*
X46601786Y93822480D01*
X46522479Y93901787D01*
X46419873Y93947091D01*
X46397059Y93949738D01*
X46392521Y93950000D01*
X45650000Y93950000D01*
X45650000Y93281171D01*
X45642315Y93284680D01*
X45535763Y93300000D01*
X45464237Y93300000D01*
X45357685Y93284680D01*
X45350000Y93281171D01*
X45350000Y93950000D01*
X44607482Y93950000D01*
X44602948Y93949737D01*
X44580124Y93947090D01*
X44477520Y93901787D01*
X44398213Y93822480D01*
X44352909Y93719874D01*
X44350262Y93697060D01*
X44350000Y93692521D01*
X44350000Y92950000D01*
X44000809Y92950000D01*
X43995300Y93005934D01*
X43995299Y93005937D01*
X43995299Y93005939D01*
X43935234Y93203950D01*
X43911191Y93248931D01*
X43837685Y93386450D01*
X43797760Y93435099D01*
X43706410Y93546411D01*
X43546451Y93677684D01*
X43546450Y93677685D01*
X43439311Y93734953D01*
X43363949Y93775235D01*
X43165938Y93835300D01*
X42960000Y93855583D01*
X42754061Y93835300D01*
X42556050Y93775235D01*
X42373548Y93677684D01*
X42213589Y93546411D01*
X42082316Y93386452D01*
X41984765Y93203950D01*
X41924700Y93005939D01*
X41904417Y92800000D01*
X41475583Y92800000D01*
X41455300Y93005934D01*
X41455299Y93005937D01*
X41455299Y93005939D01*
X41395234Y93203950D01*
X41371191Y93248931D01*
X41297685Y93386450D01*
X41257760Y93435099D01*
X41166410Y93546411D01*
X41006451Y93677684D01*
X41006450Y93677685D01*
X40899311Y93734953D01*
X40823949Y93775235D01*
X40625938Y93835300D01*
X40420000Y93855583D01*
X40214061Y93835300D01*
X40016050Y93775235D01*
X39833548Y93677684D01*
X39673589Y93546411D01*
X39542316Y93386452D01*
X39444765Y93203950D01*
X39384700Y93005939D01*
X39364417Y92800000D01*
X38935583Y92800000D01*
X38915300Y93005934D01*
X38915299Y93005937D01*
X38915299Y93005939D01*
X38855234Y93203950D01*
X38831191Y93248931D01*
X38757685Y93386450D01*
X38717760Y93435099D01*
X38626410Y93546411D01*
X38466451Y93677684D01*
X38466450Y93677685D01*
X38359311Y93734953D01*
X38283949Y93775235D01*
X38085938Y93835300D01*
X37880000Y93855583D01*
X37674061Y93835300D01*
X37476050Y93775235D01*
X37293548Y93677684D01*
X37133589Y93546411D01*
X37002316Y93386452D01*
X36904765Y93203950D01*
X36844700Y93005939D01*
X36824417Y92800000D01*
X35345583Y92800000D01*
X35325300Y93005934D01*
X35325299Y93005937D01*
X35325299Y93005939D01*
X35265234Y93203950D01*
X35241191Y93248931D01*
X35167685Y93386450D01*
X35127760Y93435099D01*
X35036410Y93546411D01*
X34876451Y93677684D01*
X34876450Y93677685D01*
X34769311Y93734953D01*
X34693949Y93775235D01*
X34495938Y93835300D01*
X34290000Y93855583D01*
X34084061Y93835300D01*
X33886050Y93775235D01*
X33703548Y93677684D01*
X33543589Y93546411D01*
X33412316Y93386452D01*
X33314765Y93203950D01*
X33254700Y93005939D01*
X33234417Y92800000D01*
X32800500Y92800000D01*
X32800500Y93669748D01*
X32788867Y93728231D01*
X32773607Y93751069D01*
X32744552Y93794553D01*
X32678231Y93838867D01*
X32619748Y93850500D01*
X30880252Y93850500D01*
X30821768Y93838867D01*
X30755447Y93794553D01*
X30711133Y93728232D01*
X30699500Y93669749D01*
X30699500Y91930252D01*
X30075500Y91930252D01*
X30075500Y94980500D01*
X54044749Y94980500D01*
X54063669Y94836794D01*
X54063669Y94836792D01*
X54063670Y94836791D01*
X54119139Y94702875D01*
X54207379Y94587879D01*
X54322375Y94499639D01*
X54456291Y94444170D01*
X54552096Y94431557D01*
X54599999Y94425250D01*
X54599999Y94425251D01*
X54600000Y94425250D01*
X54743709Y94444170D01*
X54877625Y94499639D01*
X54992621Y94587879D01*
X55080861Y94702875D01*
X55136330Y94836791D01*
X55155250Y94980500D01*
X66807249Y94980500D01*
X66826169Y94836794D01*
X66826169Y94836792D01*
X66826170Y94836791D01*
X66881639Y94702875D01*
X66969879Y94587879D01*
X67084875Y94499639D01*
X67218791Y94444170D01*
X67362500Y94425250D01*
X67506209Y94444170D01*
X67640125Y94499639D01*
X67755121Y94587879D01*
X67843361Y94702875D01*
X67898830Y94836791D01*
X67917750Y94980500D01*
X67898830Y95124209D01*
X67843361Y95258125D01*
X67755121Y95373121D01*
X67640125Y95461361D01*
X67506209Y95516830D01*
X67506208Y95516831D01*
X67506206Y95516831D01*
X67362500Y95535751D01*
X67218793Y95516831D01*
X67084873Y95461360D01*
X66969879Y95373121D01*
X66881640Y95258127D01*
X66881639Y95258126D01*
X66881639Y95258125D01*
X66878500Y95250546D01*
X66826169Y95124207D01*
X66807249Y94980500D01*
X55155250Y94980500D01*
X55136330Y95124209D01*
X55080861Y95258125D01*
X54992621Y95373121D01*
X54877625Y95461361D01*
X54743709Y95516830D01*
X54743708Y95516831D01*
X54743706Y95516831D01*
X54599999Y95535751D01*
X54456293Y95516831D01*
X54322373Y95461360D01*
X54207379Y95373121D01*
X54119140Y95258127D01*
X54119139Y95258126D01*
X54119139Y95258125D01*
X54116000Y95250546D01*
X54063669Y95124207D01*
X54044749Y94980500D01*
X30075500Y94980500D01*
X30075500Y97725000D01*
X30858973Y97725000D01*
X30864737Y97662782D01*
X30923062Y97457794D01*
X31018061Y97267008D01*
X31146496Y97096934D01*
X31304003Y96953347D01*
X31485205Y96841152D01*
X31683936Y96764163D01*
X31850000Y96733121D01*
X31850000Y97393830D01*
X31857685Y97390320D01*
X31964237Y97375000D01*
X32035763Y97375000D01*
X32142315Y97390320D01*
X32150000Y97393830D01*
X32150000Y96733121D01*
X32316063Y96764163D01*
X32514794Y96841152D01*
X32695996Y96953347D01*
X32853503Y97096934D01*
X32981938Y97267008D01*
X33076937Y97457794D01*
X33135262Y97662782D01*
X33141026Y97725000D01*
X32477065Y97725000D01*
X32500000Y97803111D01*
X32500000Y97885001D01*
X34544417Y97885001D01*
X34564700Y97679062D01*
X34624765Y97481051D01*
X34638556Y97455251D01*
X34721539Y97300001D01*
X34722316Y97298549D01*
X34853589Y97138590D01*
X34954396Y97055861D01*
X35013550Y97007315D01*
X35196046Y96909768D01*
X35196050Y96909766D01*
X35394061Y96849701D01*
X35394063Y96849701D01*
X35394066Y96849700D01*
X35600000Y96829417D01*
X35805934Y96849700D01*
X35805936Y96849701D01*
X35805938Y96849701D01*
X35971758Y96900001D01*
X38844749Y96900001D01*
X38863669Y96756294D01*
X38863669Y96756292D01*
X38863670Y96756291D01*
X38919139Y96622375D01*
X39007379Y96507379D01*
X39122375Y96419139D01*
X39256291Y96363670D01*
X39400000Y96344750D01*
X39543709Y96363670D01*
X39677625Y96419139D01*
X39792621Y96507379D01*
X39880861Y96622375D01*
X39936330Y96756291D01*
X39955250Y96900000D01*
X39955250Y96900001D01*
X42444749Y96900001D01*
X42463669Y96756294D01*
X42463669Y96756292D01*
X42463670Y96756291D01*
X42519139Y96622375D01*
X42607379Y96507379D01*
X42722375Y96419139D01*
X42856291Y96363670D01*
X43000000Y96344750D01*
X43143709Y96363670D01*
X43277625Y96419139D01*
X43383006Y96500001D01*
X47044749Y96500001D01*
X47063669Y96356294D01*
X47063669Y96356292D01*
X47063670Y96356291D01*
X47119139Y96222375D01*
X47207379Y96107379D01*
X47322375Y96019139D01*
X47456291Y95963670D01*
X47552097Y95951057D01*
X47599999Y95944750D01*
X47599999Y95944751D01*
X47600000Y95944750D01*
X47743709Y95963670D01*
X47877625Y96019139D01*
X47992621Y96107379D01*
X48080861Y96222375D01*
X48136330Y96356291D01*
X48155250Y96500000D01*
X48145376Y96575001D01*
X48544749Y96575001D01*
X48563669Y96431294D01*
X48563669Y96431292D01*
X48563670Y96431291D01*
X48619139Y96297375D01*
X48707379Y96182379D01*
X48822375Y96094139D01*
X48956291Y96038670D01*
X49052097Y96026057D01*
X49099999Y96019750D01*
X49099999Y96019751D01*
X49100000Y96019750D01*
X49243709Y96038670D01*
X49377625Y96094139D01*
X49492621Y96182379D01*
X49580861Y96297375D01*
X49636330Y96431291D01*
X49655250Y96575000D01*
X49655250Y96575001D01*
X50044749Y96575001D01*
X50063669Y96431294D01*
X50063669Y96431292D01*
X50063670Y96431291D01*
X50119139Y96297375D01*
X50207379Y96182379D01*
X50322375Y96094139D01*
X50456291Y96038670D01*
X50600000Y96019750D01*
X50743709Y96038670D01*
X50877625Y96094139D01*
X50992621Y96182379D01*
X51080861Y96297375D01*
X51136330Y96431291D01*
X51155250Y96575000D01*
X51155250Y96575001D01*
X51544749Y96575001D01*
X51563669Y96431294D01*
X51563669Y96431292D01*
X51563670Y96431291D01*
X51619139Y96297375D01*
X51707379Y96182379D01*
X51822375Y96094139D01*
X51956291Y96038670D01*
X52100000Y96019750D01*
X52243709Y96038670D01*
X52377625Y96094139D01*
X52492621Y96182379D01*
X52580861Y96297375D01*
X52636330Y96431291D01*
X52655250Y96575000D01*
X52650746Y96609207D01*
X52638459Y96702536D01*
X52636330Y96718709D01*
X52580861Y96852625D01*
X52492621Y96967621D01*
X52377625Y97055861D01*
X52243709Y97111330D01*
X52243708Y97111331D01*
X52243706Y97111331D01*
X52100000Y97130251D01*
X51956293Y97111331D01*
X51822373Y97055860D01*
X51707379Y96967621D01*
X51619140Y96852627D01*
X51619139Y96852626D01*
X51619139Y96852625D01*
X51609526Y96829417D01*
X51563669Y96718707D01*
X51544749Y96575001D01*
X51155250Y96575001D01*
X51150746Y96609207D01*
X51138459Y96702536D01*
X51136330Y96718709D01*
X51080861Y96852625D01*
X50992621Y96967621D01*
X50877625Y97055861D01*
X50743709Y97111330D01*
X50743708Y97111331D01*
X50743706Y97111331D01*
X50599999Y97130251D01*
X50456293Y97111331D01*
X50322373Y97055860D01*
X50207379Y96967621D01*
X50119140Y96852627D01*
X50119139Y96852626D01*
X50119139Y96852625D01*
X50109526Y96829417D01*
X50063669Y96718707D01*
X50044749Y96575001D01*
X49655250Y96575001D01*
X49650746Y96609207D01*
X49638459Y96702536D01*
X49636330Y96718709D01*
X49580861Y96852625D01*
X49492621Y96967621D01*
X49377625Y97055861D01*
X49243709Y97111330D01*
X49243708Y97111331D01*
X49243706Y97111331D01*
X49100000Y97130251D01*
X48956293Y97111331D01*
X48822373Y97055860D01*
X48707379Y96967621D01*
X48619140Y96852627D01*
X48619139Y96852626D01*
X48619139Y96852625D01*
X48609526Y96829417D01*
X48563669Y96718707D01*
X48544749Y96575001D01*
X48145376Y96575001D01*
X48136330Y96643709D01*
X48080861Y96777625D01*
X47992621Y96892621D01*
X47877625Y96980861D01*
X47743709Y97036330D01*
X47743708Y97036331D01*
X47743706Y97036331D01*
X47600000Y97055251D01*
X47456293Y97036331D01*
X47390396Y97009036D01*
X47332122Y96984898D01*
X47322373Y96980860D01*
X47207379Y96892621D01*
X47119140Y96777627D01*
X47063669Y96643707D01*
X47044749Y96500001D01*
X43383006Y96500001D01*
X43392621Y96507379D01*
X43480861Y96622375D01*
X43536330Y96756291D01*
X43555250Y96900000D01*
X43536330Y97043709D01*
X43480861Y97177625D01*
X43392621Y97292621D01*
X43277625Y97380861D01*
X43143709Y97436330D01*
X43143708Y97436331D01*
X43143706Y97436331D01*
X43000000Y97455251D01*
X42856293Y97436331D01*
X42856290Y97436330D01*
X42856291Y97436330D01*
X42735927Y97386474D01*
X42722373Y97380860D01*
X42607379Y97292621D01*
X42519140Y97177627D01*
X42463669Y97043707D01*
X42444749Y96900001D01*
X39955250Y96900001D01*
X39936330Y97043709D01*
X39880861Y97177625D01*
X39792621Y97292621D01*
X39792620Y97292622D01*
X39786289Y97300873D01*
X39789380Y97303246D01*
X39770489Y97332897D01*
X39777539Y97386474D01*
X39787424Y97398256D01*
X39786289Y97399127D01*
X39814836Y97436330D01*
X39880861Y97522375D01*
X39936330Y97656291D01*
X39955250Y97800000D01*
X39936330Y97943709D01*
X39880861Y98077625D01*
X39792621Y98192621D01*
X39677625Y98280861D01*
X39543709Y98336330D01*
X39543708Y98336331D01*
X39543706Y98336331D01*
X39400000Y98355251D01*
X39256293Y98336331D01*
X39189333Y98308596D01*
X39156320Y98294921D01*
X39122373Y98280860D01*
X39007379Y98192621D01*
X38919140Y98077627D01*
X38919139Y98077626D01*
X38919139Y98077625D01*
X38894914Y98019139D01*
X38863669Y97943707D01*
X38844749Y97800000D01*
X38863669Y97656294D01*
X38863669Y97656292D01*
X38863670Y97656291D01*
X38919139Y97522375D01*
X38919140Y97522374D01*
X39013710Y97399128D01*
X39010618Y97396756D01*
X39029513Y97367095D01*
X39022457Y97313518D01*
X39012575Y97301743D01*
X39013710Y97300872D01*
X38919140Y97177627D01*
X38863669Y97043707D01*
X38844749Y96900001D01*
X35971758Y96900001D01*
X36003949Y96909766D01*
X36003951Y96909768D01*
X36003954Y96909768D01*
X36186450Y97007315D01*
X36346410Y97138590D01*
X36477685Y97298550D01*
X36575232Y97481046D01*
X36578744Y97492621D01*
X36635299Y97679062D01*
X36635299Y97679064D01*
X36635300Y97679066D01*
X36655583Y97885000D01*
X36635300Y98090934D01*
X36635299Y98090937D01*
X36635299Y98090939D01*
X36575234Y98288950D01*
X36572043Y98294920D01*
X36477685Y98471450D01*
X36433993Y98524689D01*
X36346410Y98631411D01*
X36194241Y98756291D01*
X36188147Y98761292D01*
X57139972Y98761292D01*
X57158892Y98617585D01*
X57158892Y98617583D01*
X57158893Y98617582D01*
X57214362Y98483666D01*
X57302602Y98368670D01*
X57417598Y98280430D01*
X57551514Y98224961D01*
X57647319Y98212348D01*
X57695222Y98206041D01*
X57695222Y98206042D01*
X57695223Y98206041D01*
X57838932Y98224961D01*
X57972848Y98280430D01*
X58087844Y98368670D01*
X58176084Y98483666D01*
X58182850Y98500001D01*
X66844749Y98500001D01*
X66863669Y98356294D01*
X66863669Y98356292D01*
X66863670Y98356291D01*
X66919139Y98222375D01*
X67007379Y98107379D01*
X67122375Y98019139D01*
X67256291Y97963670D01*
X67400000Y97944750D01*
X67543709Y97963670D01*
X67677625Y98019139D01*
X67792621Y98107379D01*
X67880861Y98222375D01*
X67936330Y98356291D01*
X67939581Y98380982D01*
X76025731Y98380982D01*
X76044651Y98237276D01*
X76044651Y98237274D01*
X76044652Y98237273D01*
X76100121Y98103357D01*
X76188361Y97988361D01*
X76303357Y97900121D01*
X76437273Y97844652D01*
X76500484Y97836330D01*
X76580981Y97825732D01*
X76580981Y97825733D01*
X76580982Y97825732D01*
X76613385Y97829999D01*
X76735002Y97846009D01*
X76735442Y97842665D01*
X76772031Y97844274D01*
X76814914Y97811392D01*
X76826628Y97758637D01*
X76826624Y97758612D01*
X76814990Y97670242D01*
X76833910Y97526535D01*
X76833910Y97526533D01*
X76833911Y97526532D01*
X76889380Y97392616D01*
X76977620Y97277620D01*
X77092616Y97189380D01*
X77226532Y97133911D01*
X77370241Y97114991D01*
X77513950Y97133911D01*
X77647866Y97189380D01*
X77762862Y97277620D01*
X77851102Y97392616D01*
X77906571Y97526532D01*
X77925491Y97670241D01*
X77906571Y97813950D01*
X77851102Y97947866D01*
X77762862Y98062862D01*
X77647866Y98151102D01*
X77513950Y98206571D01*
X77513949Y98206572D01*
X77513947Y98206572D01*
X77370241Y98225492D01*
X77216221Y98205214D01*
X77215781Y98208556D01*
X77179161Y98206959D01*
X77136291Y98239859D01*
X77124598Y98292613D01*
X77136232Y98380983D01*
X77122713Y98483666D01*
X77117312Y98524691D01*
X77061843Y98658607D01*
X76973603Y98773603D01*
X76939202Y98800000D01*
X79444749Y98800000D01*
X79463669Y98656294D01*
X79463669Y98656292D01*
X79463670Y98656291D01*
X79519139Y98522375D01*
X79607379Y98407379D01*
X79722375Y98319139D01*
X79856291Y98263670D01*
X79952097Y98251057D01*
X79999999Y98244750D01*
X79999999Y98244751D01*
X80000000Y98244750D01*
X80143709Y98263670D01*
X80277625Y98319139D01*
X80392621Y98407379D01*
X80480861Y98522375D01*
X80536330Y98656291D01*
X80555250Y98800000D01*
X81244749Y98800000D01*
X81263669Y98656294D01*
X81263669Y98656292D01*
X81263670Y98656291D01*
X81319139Y98522375D01*
X81407379Y98407379D01*
X81522375Y98319139D01*
X81656291Y98263670D01*
X81800000Y98244750D01*
X81943709Y98263670D01*
X82077625Y98319139D01*
X82192621Y98407379D01*
X82280861Y98522375D01*
X82336330Y98656291D01*
X82355250Y98800000D01*
X83244749Y98800000D01*
X83263669Y98656294D01*
X83263669Y98656292D01*
X83263670Y98656291D01*
X83319139Y98522375D01*
X83407379Y98407379D01*
X83522375Y98319139D01*
X83656291Y98263670D01*
X83800000Y98244750D01*
X83943709Y98263670D01*
X84077625Y98319139D01*
X84192621Y98407379D01*
X84280861Y98522375D01*
X84336330Y98656291D01*
X84355250Y98800000D01*
X84342084Y98900001D01*
X87444749Y98900001D01*
X87463669Y98756294D01*
X87463669Y98756292D01*
X87463670Y98756291D01*
X87519139Y98622375D01*
X87607379Y98507379D01*
X87722375Y98419139D01*
X87856291Y98363670D01*
X87952096Y98351057D01*
X87999999Y98344750D01*
X87999999Y98344751D01*
X88000000Y98344750D01*
X88143709Y98363670D01*
X88277625Y98419139D01*
X88392621Y98507379D01*
X88480861Y98622375D01*
X88536330Y98756291D01*
X88555250Y98900000D01*
X88554592Y98905001D01*
X89399749Y98905001D01*
X89418669Y98761294D01*
X89418669Y98761292D01*
X89418670Y98761291D01*
X89474139Y98627375D01*
X89562379Y98512379D01*
X89677375Y98424139D01*
X89811291Y98368670D01*
X89955000Y98349750D01*
X90098709Y98368670D01*
X90232625Y98424139D01*
X90347621Y98512379D01*
X90435861Y98627375D01*
X90491330Y98761291D01*
X90509592Y98900001D01*
X91344749Y98900001D01*
X91363669Y98756294D01*
X91363669Y98756292D01*
X91363670Y98756291D01*
X91419139Y98622375D01*
X91507379Y98507379D01*
X91622375Y98419139D01*
X91756291Y98363670D01*
X91900000Y98344750D01*
X92043709Y98363670D01*
X92177625Y98419139D01*
X92292621Y98507379D01*
X92380861Y98622375D01*
X92436330Y98756291D01*
X92455250Y98900000D01*
X92449495Y98943709D01*
X92446670Y98965167D01*
X92436330Y99043709D01*
X92380861Y99177625D01*
X92292621Y99292621D01*
X92177625Y99380861D01*
X92043709Y99436330D01*
X92043708Y99436331D01*
X92043706Y99436331D01*
X91899999Y99455251D01*
X91756293Y99436331D01*
X91756290Y99436330D01*
X91756291Y99436330D01*
X91634447Y99385861D01*
X91622373Y99380860D01*
X91507379Y99292621D01*
X91419140Y99177627D01*
X91419139Y99177626D01*
X91419139Y99177625D01*
X91397023Y99124231D01*
X91363669Y99043707D01*
X91344749Y98900001D01*
X90509592Y98900001D01*
X90510250Y98905000D01*
X90491330Y99048709D01*
X90435861Y99182625D01*
X90347621Y99297621D01*
X90232625Y99385861D01*
X90098709Y99441330D01*
X90098708Y99441331D01*
X90098706Y99441331D01*
X89955000Y99460251D01*
X89811293Y99441331D01*
X89770862Y99424584D01*
X89686644Y99389700D01*
X89677373Y99385860D01*
X89562379Y99297621D01*
X89474140Y99182627D01*
X89474139Y99182626D01*
X89474139Y99182625D01*
X89464812Y99160108D01*
X89418669Y99048707D01*
X89399749Y98905001D01*
X88554592Y98905001D01*
X88549495Y98943709D01*
X88546670Y98965167D01*
X88536330Y99043709D01*
X88480861Y99177625D01*
X88392621Y99292621D01*
X88277625Y99380861D01*
X88143709Y99436330D01*
X88143708Y99436331D01*
X88143706Y99436331D01*
X88000000Y99455251D01*
X87856293Y99436331D01*
X87856290Y99436330D01*
X87856291Y99436330D01*
X87734447Y99385861D01*
X87722373Y99380860D01*
X87607379Y99292621D01*
X87519140Y99177627D01*
X87519139Y99177626D01*
X87519139Y99177625D01*
X87497023Y99124231D01*
X87463669Y99043707D01*
X87444749Y98900001D01*
X84342084Y98900001D01*
X84336330Y98943709D01*
X84280861Y99077625D01*
X84192621Y99192621D01*
X84077625Y99280861D01*
X83943709Y99336330D01*
X83943708Y99336331D01*
X83943706Y99336331D01*
X83800000Y99355251D01*
X83656293Y99336331D01*
X83656290Y99336330D01*
X83656291Y99336330D01*
X83546045Y99290665D01*
X83522373Y99280860D01*
X83407379Y99192621D01*
X83319140Y99077627D01*
X83319139Y99077626D01*
X83319139Y99077625D01*
X83302035Y99036331D01*
X83263669Y98943707D01*
X83244749Y98800000D01*
X82355250Y98800000D01*
X82336330Y98943709D01*
X82280861Y99077625D01*
X82192621Y99192621D01*
X82077625Y99280861D01*
X81943709Y99336330D01*
X81943708Y99336331D01*
X81943706Y99336331D01*
X81800000Y99355251D01*
X81656293Y99336331D01*
X81656290Y99336330D01*
X81656291Y99336330D01*
X81546045Y99290665D01*
X81522373Y99280860D01*
X81407379Y99192621D01*
X81319140Y99077627D01*
X81319139Y99077626D01*
X81319139Y99077625D01*
X81302035Y99036331D01*
X81263669Y98943707D01*
X81244749Y98800000D01*
X80555250Y98800000D01*
X80536330Y98943709D01*
X80480861Y99077625D01*
X80392621Y99192621D01*
X80277625Y99280861D01*
X80143709Y99336330D01*
X80143708Y99336331D01*
X80143706Y99336331D01*
X80000000Y99355251D01*
X79856293Y99336331D01*
X79856290Y99336330D01*
X79856291Y99336330D01*
X79746045Y99290665D01*
X79722373Y99280860D01*
X79607379Y99192621D01*
X79519140Y99077627D01*
X79519139Y99077626D01*
X79519139Y99077625D01*
X79502035Y99036331D01*
X79463669Y98943707D01*
X79444749Y98800000D01*
X76939202Y98800000D01*
X76858607Y98861843D01*
X76724691Y98917312D01*
X76724690Y98917313D01*
X76724688Y98917313D01*
X76580982Y98936233D01*
X76437275Y98917313D01*
X76303355Y98861842D01*
X76188361Y98773603D01*
X76100122Y98658609D01*
X76100121Y98658608D01*
X76100121Y98658607D01*
X76085113Y98622374D01*
X76044651Y98524689D01*
X76025731Y98380982D01*
X67939581Y98380982D01*
X67955250Y98500000D01*
X67936330Y98643709D01*
X67880861Y98777625D01*
X67792621Y98892621D01*
X67677625Y98980861D01*
X67543709Y99036330D01*
X67543708Y99036331D01*
X67543706Y99036331D01*
X67400000Y99055251D01*
X67256293Y99036331D01*
X67122373Y98980860D01*
X67007379Y98892621D01*
X66919140Y98777627D01*
X66863669Y98643707D01*
X66844749Y98500001D01*
X58182850Y98500001D01*
X58231553Y98617582D01*
X58250473Y98761291D01*
X58250289Y98762685D01*
X58231553Y98905000D01*
X58226453Y98917313D01*
X58176084Y99038916D01*
X58087844Y99153912D01*
X57972848Y99242152D01*
X57916437Y99265518D01*
X69105439Y99265518D01*
X69124359Y99121811D01*
X69124359Y99121809D01*
X69124360Y99121808D01*
X69179829Y98987892D01*
X69268069Y98872896D01*
X69383065Y98784656D01*
X69516981Y98729187D01*
X69612787Y98716574D01*
X69660689Y98710267D01*
X69660689Y98710268D01*
X69660690Y98710267D01*
X69804399Y98729187D01*
X69938315Y98784656D01*
X70053311Y98872896D01*
X70141551Y98987892D01*
X70197020Y99121808D01*
X70215940Y99265517D01*
X70197020Y99409226D01*
X70141551Y99543142D01*
X70102749Y99593709D01*
X70080986Y99622072D01*
X70064736Y99673610D01*
X70085416Y99723536D01*
X70093056Y99730537D01*
X70093751Y99731444D01*
X70093755Y99731446D01*
X70181995Y99846442D01*
X70237464Y99980358D01*
X70253216Y100100001D01*
X70544749Y100100001D01*
X70563669Y99956294D01*
X70563669Y99956292D01*
X70563670Y99956291D01*
X70619139Y99822375D01*
X70707379Y99707379D01*
X70822375Y99619139D01*
X70956291Y99563670D01*
X71100000Y99544750D01*
X71243709Y99563670D01*
X71377625Y99619139D01*
X71492621Y99707379D01*
X71580861Y99822375D01*
X71636330Y99956291D01*
X71642085Y100000000D01*
X101294731Y100000000D01*
X101313777Y99745842D01*
X101361373Y99537315D01*
X101370492Y99497363D01*
X101416671Y99379701D01*
X101463607Y99260112D01*
X101587406Y99045683D01*
X101591041Y99039388D01*
X101749950Y98840123D01*
X101936783Y98666768D01*
X102008926Y98617582D01*
X102147362Y98523197D01*
X102147365Y98523196D01*
X102147366Y98523195D01*
X102376996Y98412611D01*
X102620542Y98337487D01*
X102872565Y98299500D01*
X102872568Y98299500D01*
X103127432Y98299500D01*
X103127435Y98299500D01*
X103379458Y98337487D01*
X103623004Y98412611D01*
X103852634Y98523195D01*
X104063217Y98666768D01*
X104101828Y98702595D01*
X104151624Y98723585D01*
X104203262Y98707657D01*
X104232581Y98662262D01*
X104233886Y98634371D01*
X104225746Y98572547D01*
X104244666Y98428840D01*
X104244666Y98428838D01*
X104244667Y98428837D01*
X104300136Y98294921D01*
X104388376Y98179925D01*
X104503372Y98091685D01*
X104637288Y98036216D01*
X104780997Y98017296D01*
X104924706Y98036216D01*
X105058622Y98091685D01*
X105173618Y98179925D01*
X105261858Y98294921D01*
X105317327Y98428837D01*
X105336247Y98572546D01*
X105324775Y98659682D01*
X105336471Y98712438D01*
X105379342Y98745335D01*
X105413411Y98748316D01*
X105440497Y98744750D01*
X105584206Y98763670D01*
X105718122Y98819139D01*
X105833118Y98907379D01*
X105921358Y99022375D01*
X105976827Y99156291D01*
X105995747Y99300000D01*
X105995368Y99302875D01*
X105984443Y99385861D01*
X105976827Y99443709D01*
X105921358Y99577625D01*
X105833118Y99692621D01*
X105718122Y99780861D01*
X105718120Y99780862D01*
X105636450Y99814691D01*
X105596608Y99851199D01*
X105589555Y99904776D01*
X105618590Y99950352D01*
X105636450Y99960664D01*
X105643706Y99963670D01*
X105643709Y99963670D01*
X105777625Y100019139D01*
X105892621Y100107379D01*
X105980861Y100222375D01*
X106036330Y100356291D01*
X106055250Y100500000D01*
X106049663Y100542433D01*
X106039870Y100616822D01*
X106036330Y100643709D01*
X105980861Y100777625D01*
X105892621Y100892621D01*
X105777625Y100980861D01*
X105643709Y101036330D01*
X105643708Y101036331D01*
X105643706Y101036331D01*
X105499999Y101055251D01*
X105356293Y101036331D01*
X105222373Y100980860D01*
X105107379Y100892621D01*
X105019140Y100777627D01*
X105019139Y100777626D01*
X105019139Y100777625D01*
X105003508Y100739888D01*
X104963669Y100643707D01*
X104944749Y100500000D01*
X104963669Y100356294D01*
X104963669Y100356292D01*
X104963670Y100356291D01*
X105019139Y100222375D01*
X105107379Y100107379D01*
X105222375Y100019139D01*
X105304047Y99985310D01*
X105343888Y99948802D01*
X105350941Y99895226D01*
X105321906Y99849649D01*
X105304046Y99839338D01*
X105162873Y99780862D01*
X105047876Y99692621D01*
X104959637Y99577627D01*
X104959636Y99577626D01*
X104959636Y99577625D01*
X104954121Y99564311D01*
X104904166Y99443707D01*
X104885246Y99300000D01*
X104896718Y99212867D01*
X104885022Y99160108D01*
X104842150Y99127211D01*
X104808083Y99124231D01*
X104780997Y99127797D01*
X104637288Y99108877D01*
X104604930Y99095474D01*
X104550942Y99093118D01*
X104508070Y99126016D01*
X104496375Y99178774D01*
X104506281Y99207958D01*
X104536393Y99260112D01*
X104629508Y99497363D01*
X104686222Y99745843D01*
X104705268Y100000000D01*
X104686222Y100254157D01*
X104684142Y100263268D01*
X104657865Y100378398D01*
X104629508Y100502637D01*
X104536393Y100739888D01*
X104408959Y100960612D01*
X104250050Y101159877D01*
X104063217Y101333232D01*
X103993358Y101380861D01*
X103852637Y101476804D01*
X103623000Y101587391D01*
X103379462Y101662512D01*
X103379460Y101662513D01*
X103379458Y101662513D01*
X103127435Y101700500D01*
X102872565Y101700500D01*
X102620542Y101662513D01*
X102620540Y101662513D01*
X102620537Y101662512D01*
X102376999Y101587391D01*
X102147362Y101476804D01*
X101936784Y101333233D01*
X101749951Y101159878D01*
X101591039Y100960610D01*
X101463607Y100739889D01*
X101370491Y100502635D01*
X101313777Y100254159D01*
X101294731Y100000000D01*
X71642085Y100000000D01*
X71655250Y100100000D01*
X71652081Y100124067D01*
X71648943Y100147903D01*
X71636330Y100243709D01*
X71580861Y100377625D01*
X71492621Y100492621D01*
X71377625Y100580861D01*
X71243709Y100636330D01*
X71243708Y100636331D01*
X71243706Y100636331D01*
X71099999Y100655251D01*
X70956293Y100636331D01*
X70922600Y100622375D01*
X70827482Y100582976D01*
X70822373Y100580860D01*
X70707379Y100492621D01*
X70619140Y100377627D01*
X70563669Y100243707D01*
X70544749Y100100001D01*
X70253216Y100100001D01*
X70256384Y100124067D01*
X70237464Y100267776D01*
X70181995Y100401692D01*
X70093755Y100516688D01*
X69978759Y100604928D01*
X69844843Y100660397D01*
X69844842Y100660398D01*
X69844840Y100660398D01*
X69701134Y100679318D01*
X69557427Y100660398D01*
X69546546Y100655891D01*
X69462152Y100620934D01*
X69423507Y100604927D01*
X69308513Y100516688D01*
X69220274Y100401694D01*
X69220273Y100401693D01*
X69220273Y100401692D01*
X69218407Y100397186D01*
X69164803Y100267774D01*
X69145883Y100124067D01*
X69164803Y99980361D01*
X69164803Y99980359D01*
X69164804Y99980358D01*
X69220273Y99846442D01*
X69276884Y99772665D01*
X69280838Y99767513D01*
X69297088Y99715975D01*
X69276408Y99666050D01*
X69268767Y99659047D01*
X69268070Y99658139D01*
X69268069Y99658138D01*
X69238144Y99619139D01*
X69179830Y99543144D01*
X69179829Y99543143D01*
X69179829Y99543142D01*
X69160868Y99497366D01*
X69124359Y99409224D01*
X69105439Y99265518D01*
X57916437Y99265518D01*
X57838932Y99297621D01*
X57838931Y99297622D01*
X57838929Y99297622D01*
X57695222Y99316542D01*
X57551516Y99297622D01*
X57417596Y99242151D01*
X57302602Y99153912D01*
X57214363Y99038918D01*
X57214362Y99038917D01*
X57214362Y99038916D01*
X57193227Y98987891D01*
X57158893Y98905000D01*
X57139972Y98761292D01*
X36188147Y98761292D01*
X36186450Y98762685D01*
X36022777Y98850171D01*
X36003949Y98860235D01*
X35805938Y98920300D01*
X35600000Y98940583D01*
X35394061Y98920300D01*
X35196050Y98860235D01*
X35013548Y98762684D01*
X34853589Y98631411D01*
X34722316Y98471452D01*
X34624765Y98288950D01*
X34564700Y98090939D01*
X34544417Y97885001D01*
X32500000Y97885001D01*
X32500000Y97946889D01*
X32477065Y98025000D01*
X33141027Y98025000D01*
X33141026Y98025001D01*
X33135262Y98087219D01*
X33076937Y98292207D01*
X32981938Y98482993D01*
X32853503Y98653067D01*
X32695996Y98796654D01*
X32514794Y98908849D01*
X32316063Y98985838D01*
X32149999Y99016881D01*
X32149999Y98356171D01*
X32142315Y98359680D01*
X32035763Y98375000D01*
X31964237Y98375000D01*
X31857685Y98359680D01*
X31850000Y98356171D01*
X31850000Y99016881D01*
X31683936Y98985838D01*
X31485205Y98908849D01*
X31304003Y98796654D01*
X31146496Y98653067D01*
X31018061Y98482993D01*
X30923062Y98292207D01*
X30864737Y98087219D01*
X30858973Y98025001D01*
X30858973Y98025000D01*
X31522935Y98025000D01*
X31500000Y97946889D01*
X31500000Y97803111D01*
X31522935Y97725000D01*
X30858973Y97725000D01*
X30075500Y97725000D01*
X30075500Y100415000D01*
X30944417Y100415000D01*
X30964700Y100209062D01*
X31024765Y100011051D01*
X31050091Y99963670D01*
X31122315Y99828550D01*
X31133689Y99814691D01*
X31253589Y99668590D01*
X31344833Y99593709D01*
X31413550Y99537315D01*
X31588673Y99443709D01*
X31596050Y99439766D01*
X31794061Y99379701D01*
X31794063Y99379701D01*
X31794066Y99379700D01*
X32000000Y99359417D01*
X32205934Y99379700D01*
X32205936Y99379701D01*
X32205938Y99379701D01*
X32403949Y99439766D01*
X32403951Y99439768D01*
X32403954Y99439768D01*
X32586450Y99537315D01*
X32746410Y99668590D01*
X32877685Y99828550D01*
X32975232Y100011046D01*
X32978266Y100021046D01*
X33035299Y100209062D01*
X33035299Y100209064D01*
X33035300Y100209066D01*
X33055583Y100415000D01*
X33054598Y100425000D01*
X34544417Y100425000D01*
X34548473Y100383814D01*
X34564700Y100219062D01*
X34624765Y100021051D01*
X34633211Y100005250D01*
X34720505Y99841936D01*
X34722316Y99838549D01*
X34853589Y99678590D01*
X34957018Y99593709D01*
X35013550Y99547315D01*
X35176434Y99460251D01*
X35196050Y99449766D01*
X35394061Y99389701D01*
X35394063Y99389701D01*
X35394066Y99389700D01*
X35600000Y99369417D01*
X35805934Y99389700D01*
X35805936Y99389701D01*
X35805938Y99389701D01*
X36003949Y99449766D01*
X36003951Y99449768D01*
X36003954Y99449768D01*
X36186450Y99547315D01*
X36212008Y99568290D01*
X45285334Y99568290D01*
X45304254Y99424584D01*
X45304254Y99424582D01*
X45304255Y99424581D01*
X45359724Y99290665D01*
X45447964Y99175669D01*
X45562960Y99087429D01*
X45696876Y99031960D01*
X45769680Y99022375D01*
X45840584Y99013040D01*
X45840584Y99013041D01*
X45840585Y99013040D01*
X45984294Y99031960D01*
X46118210Y99087429D01*
X46230158Y99173331D01*
X46281695Y99189580D01*
X46326337Y99173332D01*
X46422375Y99099639D01*
X46556291Y99044170D01*
X46700000Y99025250D01*
X46843709Y99044170D01*
X46977625Y99099639D01*
X47092621Y99187879D01*
X47180861Y99302875D01*
X47236330Y99436791D01*
X47236529Y99438304D01*
X47506445Y99438304D01*
X47525365Y99294598D01*
X47525365Y99294596D01*
X47525366Y99294595D01*
X47580835Y99160679D01*
X47669075Y99045683D01*
X47784071Y98957443D01*
X47917987Y98901974D01*
X47989029Y98892621D01*
X48061695Y98883054D01*
X48061695Y98883055D01*
X48061696Y98883054D01*
X48205405Y98901974D01*
X48339321Y98957443D01*
X48454317Y99045683D01*
X48499022Y99103944D01*
X48544598Y99132978D01*
X48598174Y99125925D01*
X48624369Y99103945D01*
X48669075Y99045683D01*
X48784071Y98957443D01*
X48917987Y98901974D01*
X49061696Y98883054D01*
X49205405Y98901974D01*
X49339321Y98957443D01*
X49454317Y99045683D01*
X49542557Y99160679D01*
X49598026Y99294595D01*
X49616946Y99438304D01*
X49615406Y99450000D01*
X52294749Y99450000D01*
X52313669Y99306294D01*
X52313669Y99306292D01*
X52313670Y99306291D01*
X52369139Y99172375D01*
X52457379Y99057379D01*
X52572375Y98969139D01*
X52706291Y98913670D01*
X52850000Y98894750D01*
X52993709Y98913670D01*
X53127625Y98969139D01*
X53242621Y99057379D01*
X53330861Y99172375D01*
X53386330Y99306291D01*
X53405250Y99450000D01*
X53386330Y99593709D01*
X53330861Y99727625D01*
X53242621Y99842621D01*
X53127625Y99930861D01*
X52993709Y99986330D01*
X52993708Y99986331D01*
X52993706Y99986331D01*
X52850000Y100005251D01*
X52706293Y99986331D01*
X52572373Y99930860D01*
X52457379Y99842621D01*
X52369140Y99727627D01*
X52369139Y99727626D01*
X52369139Y99727625D01*
X52348828Y99678590D01*
X52313669Y99593707D01*
X52294749Y99450000D01*
X49615406Y99450000D01*
X49598026Y99582013D01*
X49542557Y99715929D01*
X49454317Y99830925D01*
X49339321Y99919165D01*
X49205405Y99974634D01*
X49205404Y99974635D01*
X49205402Y99974635D01*
X49061696Y99993555D01*
X48917989Y99974635D01*
X48784069Y99919164D01*
X48669074Y99830925D01*
X48624370Y99772665D01*
X48578794Y99743630D01*
X48525217Y99750685D01*
X48499022Y99772665D01*
X48454317Y99830925D01*
X48434095Y99846442D01*
X48339321Y99919165D01*
X48205405Y99974634D01*
X48205404Y99974635D01*
X48205402Y99974635D01*
X48061696Y99993555D01*
X47917989Y99974635D01*
X47784069Y99919164D01*
X47669075Y99830925D01*
X47580836Y99715931D01*
X47525365Y99582011D01*
X47506445Y99438304D01*
X47236529Y99438304D01*
X47255250Y99580500D01*
X47254890Y99583231D01*
X47247587Y99638702D01*
X47236330Y99724209D01*
X47180861Y99858125D01*
X47092621Y99973121D01*
X46977625Y100061361D01*
X46843709Y100116830D01*
X46843708Y100116831D01*
X46843706Y100116831D01*
X46822963Y100119562D01*
X66596984Y100119562D01*
X66615904Y99975855D01*
X66615904Y99975853D01*
X66615905Y99975852D01*
X66671374Y99841936D01*
X66759614Y99726940D01*
X66874610Y99638700D01*
X67008526Y99583231D01*
X67152235Y99564311D01*
X67295944Y99583231D01*
X67429860Y99638700D01*
X67544856Y99726940D01*
X67633096Y99841936D01*
X67688565Y99975852D01*
X67707485Y100119561D01*
X67688565Y100263270D01*
X67633096Y100397186D01*
X67544856Y100512182D01*
X67429860Y100600422D01*
X67295944Y100655891D01*
X67295943Y100655892D01*
X67295941Y100655892D01*
X67152235Y100674812D01*
X67008528Y100655892D01*
X66979111Y100643707D01*
X66885487Y100604927D01*
X66874608Y100600421D01*
X66759614Y100512182D01*
X66671375Y100397188D01*
X66671374Y100397187D01*
X66671374Y100397186D01*
X66654436Y100356294D01*
X66615904Y100263268D01*
X66596984Y100119562D01*
X46822963Y100119562D01*
X46700000Y100135751D01*
X46556293Y100116831D01*
X46422373Y100061360D01*
X46310428Y99975461D01*
X46258890Y99959211D01*
X46214244Y99975461D01*
X46118210Y100049151D01*
X45984294Y100104620D01*
X45984293Y100104621D01*
X45984291Y100104621D01*
X45840585Y100123541D01*
X45696878Y100104621D01*
X45562958Y100049150D01*
X45447964Y99960911D01*
X45359725Y99845917D01*
X45359724Y99845916D01*
X45359724Y99845915D01*
X45356673Y99838549D01*
X45304254Y99711997D01*
X45285334Y99568290D01*
X36212008Y99568290D01*
X36346410Y99678590D01*
X36477685Y99838550D01*
X36575232Y100021046D01*
X36583758Y100049150D01*
X36635299Y100219062D01*
X36635299Y100219064D01*
X36635300Y100219066D01*
X36655583Y100425000D01*
X36648196Y100500001D01*
X42944749Y100500001D01*
X42963669Y100356294D01*
X42963669Y100356292D01*
X42963670Y100356291D01*
X43019139Y100222375D01*
X43107379Y100107379D01*
X43222375Y100019139D01*
X43356291Y99963670D01*
X43500000Y99944750D01*
X43643709Y99963670D01*
X43777625Y100019139D01*
X43892621Y100107379D01*
X43980861Y100222375D01*
X44036330Y100356291D01*
X44055250Y100500000D01*
X44049663Y100542433D01*
X44039870Y100616822D01*
X44036330Y100643709D01*
X43980861Y100777625D01*
X43892621Y100892621D01*
X43883003Y100900001D01*
X54244749Y100900001D01*
X54263669Y100756294D01*
X54263669Y100756292D01*
X54263670Y100756291D01*
X54319139Y100622375D01*
X54407379Y100507379D01*
X54522375Y100419139D01*
X54656291Y100363670D01*
X54752096Y100351057D01*
X54799999Y100344750D01*
X54799999Y100344751D01*
X54800000Y100344750D01*
X54943709Y100363670D01*
X55077625Y100419139D01*
X55192621Y100507379D01*
X55280861Y100622375D01*
X55336330Y100756291D01*
X55355250Y100900000D01*
X55345297Y100975598D01*
X62874606Y100975598D01*
X62893526Y100831891D01*
X62893526Y100831889D01*
X62893527Y100831888D01*
X62948996Y100697972D01*
X63037236Y100582976D01*
X63152232Y100494736D01*
X63286148Y100439267D01*
X63429857Y100420347D01*
X63573566Y100439267D01*
X63707482Y100494736D01*
X63822478Y100582976D01*
X63910718Y100697972D01*
X63966187Y100831888D01*
X63985107Y100975597D01*
X63966187Y101119306D01*
X63926862Y101214245D01*
X63924506Y101268231D01*
X63957404Y101311103D01*
X63961442Y101313205D01*
X63963904Y101315095D01*
X63963908Y101315096D01*
X64078904Y101403336D01*
X64167144Y101518332D01*
X64222613Y101652248D01*
X64241533Y101795957D01*
X64222613Y101939666D01*
X64167144Y102073582D01*
X64154524Y102090029D01*
X65540035Y102090029D01*
X65558955Y101946322D01*
X65558955Y101946320D01*
X65558956Y101946319D01*
X65614425Y101812403D01*
X65670213Y101739699D01*
X65702665Y101697407D01*
X65759481Y101653810D01*
X65788516Y101608234D01*
X65781461Y101554657D01*
X65759481Y101528462D01*
X65709753Y101490305D01*
X65621514Y101375310D01*
X65621513Y101375309D01*
X65621513Y101375308D01*
X65608856Y101344750D01*
X65566043Y101241390D01*
X65547123Y101097684D01*
X65566043Y100953977D01*
X65566043Y100953975D01*
X65566044Y100953974D01*
X65621513Y100820058D01*
X65709753Y100705062D01*
X65824749Y100616822D01*
X65958665Y100561353D01*
X66102374Y100542433D01*
X66246083Y100561353D01*
X66379999Y100616822D01*
X66488399Y100700001D01*
X73994749Y100700001D01*
X74013669Y100556294D01*
X74013669Y100556292D01*
X74013670Y100556291D01*
X74069139Y100422375D01*
X74157379Y100307379D01*
X74272375Y100219139D01*
X74406291Y100163670D01*
X74502096Y100151057D01*
X74549999Y100144750D01*
X74549999Y100144751D01*
X74550000Y100144750D01*
X74693709Y100163670D01*
X74827625Y100219139D01*
X74942621Y100307379D01*
X75030861Y100422375D01*
X75086330Y100556291D01*
X75105250Y100700000D01*
X79444749Y100700000D01*
X79463669Y100556294D01*
X79463669Y100556292D01*
X79463670Y100556291D01*
X79519139Y100422375D01*
X79607379Y100307379D01*
X79722375Y100219139D01*
X79856291Y100163670D01*
X79952096Y100151057D01*
X79999999Y100144750D01*
X79999999Y100144751D01*
X80000000Y100144750D01*
X80143709Y100163670D01*
X80277625Y100219139D01*
X80392621Y100307379D01*
X80480861Y100422375D01*
X80536330Y100556291D01*
X80555250Y100700000D01*
X81244749Y100700000D01*
X81263669Y100556294D01*
X81263669Y100556292D01*
X81263670Y100556291D01*
X81319139Y100422375D01*
X81407379Y100307379D01*
X81522375Y100219139D01*
X81656291Y100163670D01*
X81800000Y100144750D01*
X81943709Y100163670D01*
X82077625Y100219139D01*
X82192621Y100307379D01*
X82280861Y100422375D01*
X82336330Y100556291D01*
X82355250Y100700000D01*
X83244749Y100700000D01*
X83263669Y100556294D01*
X83263669Y100556292D01*
X83263670Y100556291D01*
X83319139Y100422375D01*
X83407379Y100307379D01*
X83522375Y100219139D01*
X83656291Y100163670D01*
X83800000Y100144750D01*
X83943709Y100163670D01*
X84077625Y100219139D01*
X84192621Y100307379D01*
X84280861Y100422375D01*
X84336330Y100556291D01*
X84355250Y100700000D01*
X87444749Y100700000D01*
X87463669Y100556294D01*
X87463669Y100556292D01*
X87463670Y100556291D01*
X87519139Y100422375D01*
X87607379Y100307379D01*
X87722375Y100219139D01*
X87856291Y100163670D01*
X87952096Y100151057D01*
X87999999Y100144750D01*
X87999999Y100144751D01*
X88000000Y100144750D01*
X88143709Y100163670D01*
X88277625Y100219139D01*
X88392621Y100307379D01*
X88480861Y100422375D01*
X88536330Y100556291D01*
X88555250Y100700000D01*
X89344749Y100700000D01*
X89363669Y100556294D01*
X89363669Y100556292D01*
X89363670Y100556291D01*
X89419139Y100422375D01*
X89507379Y100307379D01*
X89622375Y100219139D01*
X89756291Y100163670D01*
X89900000Y100144750D01*
X90043709Y100163670D01*
X90177625Y100219139D01*
X90292621Y100307379D01*
X90380861Y100422375D01*
X90436330Y100556291D01*
X90455250Y100700000D01*
X91344749Y100700000D01*
X91363669Y100556294D01*
X91363669Y100556292D01*
X91363670Y100556291D01*
X91419139Y100422375D01*
X91507379Y100307379D01*
X91622375Y100219139D01*
X91756291Y100163670D01*
X91900000Y100144750D01*
X92043709Y100163670D01*
X92177625Y100219139D01*
X92292621Y100307379D01*
X92380861Y100422375D01*
X92436330Y100556291D01*
X92455250Y100700000D01*
X92436330Y100843709D01*
X92380861Y100977625D01*
X92292621Y101092621D01*
X92177625Y101180861D01*
X92043709Y101236330D01*
X92043708Y101236331D01*
X92043706Y101236331D01*
X91899999Y101255251D01*
X91756293Y101236331D01*
X91622373Y101180860D01*
X91507379Y101092621D01*
X91419140Y100977627D01*
X91419139Y100977626D01*
X91419139Y100977625D01*
X91418299Y100975597D01*
X91363669Y100843707D01*
X91344749Y100700000D01*
X90455250Y100700000D01*
X90436330Y100843709D01*
X90380861Y100977625D01*
X90292621Y101092621D01*
X90177625Y101180861D01*
X90043709Y101236330D01*
X90043708Y101236331D01*
X90043706Y101236331D01*
X89899999Y101255251D01*
X89756293Y101236331D01*
X89622373Y101180860D01*
X89507379Y101092621D01*
X89419140Y100977627D01*
X89419139Y100977626D01*
X89419139Y100977625D01*
X89418299Y100975597D01*
X89363669Y100843707D01*
X89344749Y100700000D01*
X88555250Y100700000D01*
X88536330Y100843709D01*
X88480861Y100977625D01*
X88392621Y101092621D01*
X88277625Y101180861D01*
X88143709Y101236330D01*
X88143708Y101236331D01*
X88143706Y101236331D01*
X88000000Y101255251D01*
X87856293Y101236331D01*
X87722373Y101180860D01*
X87607379Y101092621D01*
X87519140Y100977627D01*
X87519139Y100977626D01*
X87519139Y100977625D01*
X87518299Y100975597D01*
X87463669Y100843707D01*
X87444749Y100700000D01*
X84355250Y100700000D01*
X84336330Y100843709D01*
X84280861Y100977625D01*
X84192621Y101092621D01*
X84077625Y101180861D01*
X83943709Y101236330D01*
X83943708Y101236331D01*
X83943706Y101236331D01*
X83800000Y101255251D01*
X83656293Y101236331D01*
X83522373Y101180860D01*
X83407379Y101092621D01*
X83319140Y100977627D01*
X83319139Y100977626D01*
X83319139Y100977625D01*
X83318299Y100975597D01*
X83263669Y100843707D01*
X83244749Y100700000D01*
X82355250Y100700000D01*
X82336330Y100843709D01*
X82280861Y100977625D01*
X82192621Y101092621D01*
X82077625Y101180861D01*
X81943709Y101236330D01*
X81943708Y101236331D01*
X81943706Y101236331D01*
X81800000Y101255251D01*
X81656293Y101236331D01*
X81522373Y101180860D01*
X81407379Y101092621D01*
X81319140Y100977627D01*
X81319139Y100977626D01*
X81319139Y100977625D01*
X81318299Y100975597D01*
X81263669Y100843707D01*
X81244749Y100700000D01*
X80555250Y100700000D01*
X80536330Y100843709D01*
X80480861Y100977625D01*
X80392621Y101092621D01*
X80277625Y101180861D01*
X80143709Y101236330D01*
X80143708Y101236331D01*
X80143706Y101236331D01*
X80000000Y101255251D01*
X79856293Y101236331D01*
X79722373Y101180860D01*
X79607379Y101092621D01*
X79519140Y100977627D01*
X79519139Y100977626D01*
X79519139Y100977625D01*
X79518299Y100975597D01*
X79463669Y100843707D01*
X79444749Y100700000D01*
X75105250Y100700000D01*
X75104583Y100705063D01*
X75095030Y100777627D01*
X75086330Y100843709D01*
X75030861Y100977625D01*
X74942621Y101092621D01*
X74827625Y101180861D01*
X74693709Y101236330D01*
X74693708Y101236331D01*
X74693706Y101236331D01*
X74549999Y101255251D01*
X74406293Y101236331D01*
X74272373Y101180860D01*
X74157379Y101092621D01*
X74069140Y100977627D01*
X74069139Y100977626D01*
X74069139Y100977625D01*
X74068299Y100975597D01*
X74013669Y100843707D01*
X73994749Y100700001D01*
X66488399Y100700001D01*
X66494995Y100705062D01*
X66583235Y100820058D01*
X66638704Y100953974D01*
X66657624Y101097683D01*
X66638704Y101241392D01*
X66583235Y101375308D01*
X66494995Y101490304D01*
X66438178Y101533902D01*
X66409144Y101579477D01*
X66416197Y101633053D01*
X66438177Y101659248D01*
X66487907Y101697407D01*
X66566630Y101800000D01*
X95644749Y101800000D01*
X95663669Y101656294D01*
X95663669Y101656292D01*
X95663670Y101656291D01*
X95719139Y101522375D01*
X95807379Y101407379D01*
X95922375Y101319139D01*
X96056291Y101263670D01*
X96200000Y101244750D01*
X96343709Y101263670D01*
X96477625Y101319139D01*
X96592621Y101407379D01*
X96680861Y101522375D01*
X96736330Y101656291D01*
X96755250Y101800000D01*
X96736330Y101943709D01*
X96680861Y102077625D01*
X96592621Y102192621D01*
X96477625Y102280861D01*
X96343709Y102336330D01*
X96343708Y102336331D01*
X96343706Y102336331D01*
X96200000Y102355251D01*
X96056293Y102336331D01*
X96046530Y102332287D01*
X95975349Y102302803D01*
X95922373Y102280860D01*
X95807379Y102192621D01*
X95719140Y102077627D01*
X95719139Y102077626D01*
X95719139Y102077625D01*
X95705091Y102043709D01*
X95663669Y101943707D01*
X95644749Y101800000D01*
X66566630Y101800000D01*
X66576147Y101812403D01*
X66631616Y101946319D01*
X66650536Y102090028D01*
X66631616Y102233737D01*
X66576147Y102367653D01*
X66503533Y102462285D01*
X66487283Y102513823D01*
X66507963Y102563749D01*
X66518105Y102573043D01*
X66557985Y102603643D01*
X66646225Y102718639D01*
X66701694Y102852555D01*
X66720614Y102996264D01*
X66706957Y103100000D01*
X79444749Y103100000D01*
X79463669Y102956294D01*
X79463669Y102956292D01*
X79463670Y102956291D01*
X79519139Y102822375D01*
X79607379Y102707379D01*
X79722375Y102619139D01*
X79856291Y102563670D01*
X79927105Y102554347D01*
X79999999Y102544750D01*
X79999999Y102544751D01*
X80000000Y102544750D01*
X80143709Y102563670D01*
X80277625Y102619139D01*
X80392621Y102707379D01*
X80480861Y102822375D01*
X80536330Y102956291D01*
X80555250Y103100000D01*
X81244749Y103100000D01*
X81263669Y102956294D01*
X81263669Y102956292D01*
X81263670Y102956291D01*
X81319139Y102822375D01*
X81407379Y102707379D01*
X81522375Y102619139D01*
X81656291Y102563670D01*
X81800000Y102544750D01*
X81943709Y102563670D01*
X82077625Y102619139D01*
X82192621Y102707379D01*
X82280861Y102822375D01*
X82336330Y102956291D01*
X82355250Y103100000D01*
X83244749Y103100000D01*
X83263669Y102956294D01*
X83263669Y102956292D01*
X83263670Y102956291D01*
X83319139Y102822375D01*
X83407379Y102707379D01*
X83522375Y102619139D01*
X83656291Y102563670D01*
X83800000Y102544750D01*
X83943709Y102563670D01*
X84077625Y102619139D01*
X84192621Y102707379D01*
X84280861Y102822375D01*
X84336330Y102956291D01*
X84355250Y103100000D01*
X87744749Y103100000D01*
X87763669Y102956294D01*
X87763669Y102956292D01*
X87763670Y102956291D01*
X87819139Y102822375D01*
X87907379Y102707379D01*
X88022375Y102619139D01*
X88156291Y102563670D01*
X88300000Y102544750D01*
X88443709Y102563670D01*
X88577625Y102619139D01*
X88692621Y102707379D01*
X88780861Y102822375D01*
X88836330Y102956291D01*
X88855250Y103100000D01*
X89244749Y103100000D01*
X89263669Y102956294D01*
X89263669Y102956292D01*
X89263670Y102956291D01*
X89319139Y102822375D01*
X89407379Y102707379D01*
X89522375Y102619139D01*
X89656291Y102563670D01*
X89800000Y102544750D01*
X89943709Y102563670D01*
X90077625Y102619139D01*
X90192621Y102707379D01*
X90280861Y102822375D01*
X90336330Y102956291D01*
X90355250Y103100000D01*
X90644749Y103100000D01*
X90663669Y102956294D01*
X90663669Y102956292D01*
X90663670Y102956291D01*
X90719139Y102822375D01*
X90807379Y102707379D01*
X90922375Y102619139D01*
X91056291Y102563670D01*
X91127105Y102554347D01*
X91199999Y102544750D01*
X91199999Y102544751D01*
X91200000Y102544750D01*
X91343709Y102563670D01*
X91477625Y102619139D01*
X91592621Y102707379D01*
X91680861Y102822375D01*
X91736330Y102956291D01*
X91755250Y103100000D01*
X91736330Y103243709D01*
X91680861Y103377625D01*
X91592621Y103492621D01*
X91477625Y103580861D01*
X91343709Y103636330D01*
X91343708Y103636331D01*
X91343706Y103636331D01*
X91200000Y103655251D01*
X91056293Y103636331D01*
X90922373Y103580860D01*
X90807379Y103492621D01*
X90719140Y103377627D01*
X90719139Y103377626D01*
X90719139Y103377625D01*
X90694914Y103319139D01*
X90663669Y103243707D01*
X90644749Y103100000D01*
X90355250Y103100000D01*
X90336330Y103243709D01*
X90280861Y103377625D01*
X90192621Y103492621D01*
X90077625Y103580861D01*
X89943709Y103636330D01*
X89943708Y103636331D01*
X89943706Y103636331D01*
X89800000Y103655251D01*
X89656293Y103636331D01*
X89522373Y103580860D01*
X89407379Y103492621D01*
X89319140Y103377627D01*
X89319139Y103377626D01*
X89319139Y103377625D01*
X89294914Y103319139D01*
X89263669Y103243707D01*
X89244749Y103100000D01*
X88855250Y103100000D01*
X88836330Y103243709D01*
X88780861Y103377625D01*
X88692621Y103492621D01*
X88577625Y103580861D01*
X88443709Y103636330D01*
X88443708Y103636331D01*
X88443706Y103636331D01*
X88299999Y103655251D01*
X88156293Y103636331D01*
X88022373Y103580860D01*
X87907379Y103492621D01*
X87819140Y103377627D01*
X87819139Y103377626D01*
X87819139Y103377625D01*
X87794914Y103319139D01*
X87763669Y103243707D01*
X87744749Y103100000D01*
X84355250Y103100000D01*
X84336330Y103243709D01*
X84280861Y103377625D01*
X84192621Y103492621D01*
X84077625Y103580861D01*
X83943709Y103636330D01*
X83943708Y103636331D01*
X83943706Y103636331D01*
X83800000Y103655251D01*
X83656293Y103636331D01*
X83522373Y103580860D01*
X83407379Y103492621D01*
X83319140Y103377627D01*
X83319139Y103377626D01*
X83319139Y103377625D01*
X83294914Y103319139D01*
X83263669Y103243707D01*
X83244749Y103100000D01*
X82355250Y103100000D01*
X82336330Y103243709D01*
X82280861Y103377625D01*
X82192621Y103492621D01*
X82077625Y103580861D01*
X81943709Y103636330D01*
X81943708Y103636331D01*
X81943706Y103636331D01*
X81800000Y103655251D01*
X81656293Y103636331D01*
X81522373Y103580860D01*
X81407379Y103492621D01*
X81319140Y103377627D01*
X81319139Y103377626D01*
X81319139Y103377625D01*
X81294914Y103319139D01*
X81263669Y103243707D01*
X81244749Y103100000D01*
X80555250Y103100000D01*
X80536330Y103243709D01*
X80480861Y103377625D01*
X80392621Y103492621D01*
X80277625Y103580861D01*
X80143709Y103636330D01*
X80143708Y103636331D01*
X80143706Y103636331D01*
X80000000Y103655251D01*
X79856293Y103636331D01*
X79722373Y103580860D01*
X79607379Y103492621D01*
X79519140Y103377627D01*
X79519139Y103377626D01*
X79519139Y103377625D01*
X79494914Y103319139D01*
X79463669Y103243707D01*
X79444749Y103100000D01*
X66706957Y103100000D01*
X66701694Y103139973D01*
X66646225Y103273889D01*
X66558571Y103388121D01*
X66542323Y103439654D01*
X66563003Y103489580D01*
X66573146Y103498876D01*
X66627072Y103540254D01*
X66715312Y103655250D01*
X66770781Y103789166D01*
X66772207Y103800000D01*
X74794749Y103800000D01*
X74813669Y103656294D01*
X74813669Y103656292D01*
X74813670Y103656291D01*
X74869139Y103522375D01*
X74957379Y103407379D01*
X75072375Y103319139D01*
X75206291Y103263670D01*
X75302097Y103251057D01*
X75349999Y103244750D01*
X75349999Y103244751D01*
X75350000Y103244750D01*
X75493709Y103263670D01*
X75627625Y103319139D01*
X75742621Y103407379D01*
X75830861Y103522375D01*
X75886330Y103656291D01*
X75905250Y103800000D01*
X75886330Y103943709D01*
X75830861Y104077625D01*
X75742621Y104192621D01*
X75627625Y104280861D01*
X75493709Y104336330D01*
X75493708Y104336331D01*
X75493706Y104336331D01*
X75350000Y104355251D01*
X75206293Y104336331D01*
X75072373Y104280860D01*
X74957379Y104192621D01*
X74869140Y104077627D01*
X74869139Y104077626D01*
X74869139Y104077625D01*
X74844914Y104019139D01*
X74813669Y103943707D01*
X74794749Y103800000D01*
X66772207Y103800000D01*
X66789701Y103932875D01*
X66770781Y104076584D01*
X66715312Y104210500D01*
X66627072Y104325496D01*
X66512076Y104413736D01*
X66378160Y104469205D01*
X66378159Y104469206D01*
X66378157Y104469206D01*
X66234451Y104488126D01*
X66090744Y104469206D01*
X65956824Y104413735D01*
X65841830Y104325496D01*
X65753591Y104210502D01*
X65753590Y104210501D01*
X65753590Y104210500D01*
X65740394Y104178641D01*
X65698120Y104076582D01*
X65679200Y103932876D01*
X65698120Y103789169D01*
X65698120Y103789167D01*
X65698121Y103789166D01*
X65753590Y103655250D01*
X65841242Y103541020D01*
X65857491Y103489486D01*
X65836811Y103439560D01*
X65826659Y103430257D01*
X65777523Y103392553D01*
X65772743Y103388885D01*
X65764103Y103377625D01*
X65684504Y103273891D01*
X65684503Y103273890D01*
X65684503Y103273889D01*
X65672002Y103243709D01*
X65629033Y103139971D01*
X65610113Y102996264D01*
X65629033Y102852558D01*
X65629033Y102852556D01*
X65629034Y102852555D01*
X65684503Y102718639D01*
X65754705Y102627150D01*
X65757116Y102624009D01*
X65773366Y102572471D01*
X65752686Y102522546D01*
X65742534Y102513243D01*
X65702665Y102482650D01*
X65614426Y102367655D01*
X65558955Y102233735D01*
X65540035Y102090029D01*
X64154524Y102090029D01*
X64078904Y102188578D01*
X63963908Y102276818D01*
X63926025Y102292510D01*
X63886184Y102329016D01*
X63879130Y102382593D01*
X63893583Y102413587D01*
X63964524Y102506038D01*
X64019993Y102639954D01*
X64038913Y102783663D01*
X64019993Y102927372D01*
X63964524Y103061288D01*
X63876284Y103176284D01*
X63761288Y103264524D01*
X63627372Y103319993D01*
X63627371Y103319994D01*
X63627369Y103319994D01*
X63483663Y103338914D01*
X63339956Y103319994D01*
X63339953Y103319993D01*
X63339954Y103319993D01*
X63228648Y103273889D01*
X63206036Y103264523D01*
X63091042Y103176284D01*
X63002803Y103061290D01*
X62947332Y102927370D01*
X62928412Y102783663D01*
X62947332Y102639957D01*
X62947332Y102639955D01*
X62947333Y102639954D01*
X63002802Y102506038D01*
X63091042Y102391042D01*
X63206038Y102302802D01*
X63243920Y102287111D01*
X63283760Y102250605D01*
X63290815Y102197029D01*
X63276362Y102166034D01*
X63205423Y102073585D01*
X63149952Y101939664D01*
X63131032Y101795957D01*
X63149952Y101652249D01*
X63189276Y101557310D01*
X63191632Y101503322D01*
X63158735Y101460451D01*
X63154694Y101458348D01*
X63037236Y101368218D01*
X62948997Y101253224D01*
X62893526Y101119304D01*
X62874606Y100975598D01*
X55345297Y100975598D01*
X55336330Y101043709D01*
X55280861Y101177625D01*
X55192621Y101292621D01*
X55077625Y101380861D01*
X54943709Y101436330D01*
X54943708Y101436331D01*
X54943706Y101436331D01*
X54800000Y101455251D01*
X54656293Y101436331D01*
X54589333Y101408596D01*
X54569142Y101400232D01*
X54522373Y101380860D01*
X54407379Y101292621D01*
X54319140Y101177627D01*
X54263669Y101043707D01*
X54244749Y100900001D01*
X43883003Y100900001D01*
X43777625Y100980861D01*
X43643709Y101036330D01*
X43643708Y101036331D01*
X43643706Y101036331D01*
X43500000Y101055251D01*
X43356293Y101036331D01*
X43222373Y100980860D01*
X43107379Y100892621D01*
X43019140Y100777627D01*
X43019139Y100777626D01*
X43019139Y100777625D01*
X43003508Y100739888D01*
X42963669Y100643707D01*
X42944749Y100500001D01*
X36648196Y100500001D01*
X36635300Y100630934D01*
X36635299Y100630937D01*
X36635299Y100630939D01*
X36575234Y100828950D01*
X36541201Y100892621D01*
X36477685Y101011450D01*
X36389172Y101119304D01*
X36346410Y101171411D01*
X36186451Y101302684D01*
X36186450Y101302685D01*
X36072356Y101363670D01*
X36003949Y101400235D01*
X35805938Y101460300D01*
X35600000Y101480583D01*
X35394061Y101460300D01*
X35196050Y101400235D01*
X35013548Y101302684D01*
X34853589Y101171411D01*
X34722316Y101011452D01*
X34624765Y100828950D01*
X34564700Y100630939D01*
X34551285Y100494736D01*
X34544417Y100425000D01*
X33054598Y100425000D01*
X33035300Y100620934D01*
X33035299Y100620937D01*
X33035299Y100620939D01*
X32975234Y100818950D01*
X32969887Y100828954D01*
X32877685Y101001450D01*
X32833532Y101055251D01*
X32746410Y101161411D01*
X32586451Y101292684D01*
X32586450Y101292685D01*
X32421486Y101380861D01*
X32403949Y101390235D01*
X32205938Y101450300D01*
X32000000Y101470583D01*
X31794061Y101450300D01*
X31596050Y101390235D01*
X31413548Y101292684D01*
X31253589Y101161411D01*
X31122316Y101001452D01*
X31024765Y100818950D01*
X30964700Y100620939D01*
X30944417Y100415000D01*
X30075500Y100415000D01*
X30075500Y102955001D01*
X30944417Y102955001D01*
X30964700Y102749062D01*
X31024765Y102551051D01*
X31044664Y102513823D01*
X31116970Y102378549D01*
X31122316Y102368549D01*
X31253589Y102208590D01*
X31334883Y102141875D01*
X31413550Y102077315D01*
X31594931Y101980364D01*
X31596050Y101979766D01*
X31794061Y101919701D01*
X31794063Y101919701D01*
X31794066Y101919700D01*
X32000000Y101899417D01*
X32205934Y101919700D01*
X32205936Y101919701D01*
X32205938Y101919701D01*
X32403949Y101979766D01*
X32403951Y101979768D01*
X32403954Y101979768D01*
X32586450Y102077315D01*
X32746410Y102208590D01*
X32877685Y102368550D01*
X32975232Y102551046D01*
X32976234Y102554347D01*
X33035299Y102749062D01*
X33035299Y102749064D01*
X33035300Y102749066D01*
X33055583Y102955000D01*
X33054598Y102965000D01*
X34544417Y102965000D01*
X34545275Y102956291D01*
X34564700Y102759062D01*
X34624765Y102561051D01*
X34644594Y102523955D01*
X34721080Y102380860D01*
X34722316Y102378549D01*
X34853589Y102218590D01*
X34947068Y102141875D01*
X35013550Y102087315D01*
X35196046Y101989768D01*
X35196050Y101989766D01*
X35394061Y101929701D01*
X35394063Y101929701D01*
X35394066Y101929700D01*
X35600000Y101909417D01*
X35805934Y101929700D01*
X35805936Y101929701D01*
X35805938Y101929701D01*
X36003949Y101989766D01*
X36003951Y101989768D01*
X36003954Y101989768D01*
X36186450Y102087315D01*
X36190721Y102090820D01*
X42286603Y102090820D01*
X42305523Y101947114D01*
X42305523Y101947112D01*
X42305524Y101947111D01*
X42360993Y101813195D01*
X42449233Y101698199D01*
X42564229Y101609959D01*
X42698145Y101554490D01*
X42841854Y101535570D01*
X42985563Y101554490D01*
X43119479Y101609959D01*
X43234475Y101698199D01*
X43322715Y101813195D01*
X43358670Y101900000D01*
X49344749Y101900000D01*
X49363669Y101756294D01*
X49363669Y101756292D01*
X49363670Y101756291D01*
X49419139Y101622375D01*
X49507379Y101507379D01*
X49622375Y101419139D01*
X49756291Y101363670D01*
X49900000Y101344750D01*
X50043709Y101363670D01*
X50177625Y101419139D01*
X50292621Y101507379D01*
X50380861Y101622375D01*
X50436330Y101756291D01*
X50455250Y101900000D01*
X50449837Y101941109D01*
X50461534Y101993867D01*
X50504406Y102026765D01*
X50517848Y102029745D01*
X50577205Y102037559D01*
X50711121Y102093028D01*
X50826117Y102181268D01*
X50914357Y102296264D01*
X50965403Y102419501D01*
X55129743Y102419501D01*
X55148663Y102275794D01*
X55148663Y102275792D01*
X55148664Y102275791D01*
X55204133Y102141875D01*
X55292373Y102026879D01*
X55407369Y101938639D01*
X55541285Y101883170D01*
X55684994Y101864250D01*
X55828703Y101883170D01*
X55962619Y101938639D01*
X55995819Y101964115D01*
X56047352Y101980364D01*
X56097278Y101959685D01*
X56106576Y101949540D01*
X56142803Y101902328D01*
X56257799Y101814088D01*
X56391715Y101758619D01*
X56535424Y101739699D01*
X56679133Y101758619D01*
X56813049Y101814088D01*
X56928045Y101902328D01*
X57016285Y102017324D01*
X57071754Y102151240D01*
X57090674Y102294949D01*
X57071754Y102438658D01*
X57016285Y102572574D01*
X56928045Y102687570D01*
X56813049Y102775810D01*
X56679133Y102831279D01*
X56679132Y102831280D01*
X56679130Y102831280D01*
X56535424Y102850200D01*
X56391717Y102831280D01*
X56257797Y102775810D01*
X56224599Y102750336D01*
X56173060Y102734087D01*
X56123135Y102754768D01*
X56113837Y102764916D01*
X56077615Y102812121D01*
X55962619Y102900361D01*
X55828703Y102955830D01*
X55828702Y102955831D01*
X55828700Y102955831D01*
X55684994Y102974751D01*
X55541287Y102955831D01*
X55407367Y102900360D01*
X55292373Y102812121D01*
X55204134Y102697127D01*
X55148663Y102563207D01*
X55129743Y102419501D01*
X50965403Y102419501D01*
X50969826Y102430180D01*
X50975861Y102476022D01*
X51000813Y102523955D01*
X51050738Y102544636D01*
X51064496Y102544036D01*
X51119222Y102536830D01*
X51262931Y102555750D01*
X51396847Y102611219D01*
X51511843Y102699459D01*
X51600083Y102814455D01*
X51655552Y102948371D01*
X51674472Y103092080D01*
X51655552Y103235789D01*
X51600083Y103369705D01*
X51511843Y103484701D01*
X51396847Y103572941D01*
X51262931Y103628410D01*
X51262930Y103628411D01*
X51262928Y103628411D01*
X51119221Y103647331D01*
X50975511Y103628411D01*
X50935106Y103611675D01*
X50881118Y103609319D01*
X50838247Y103642217D01*
X50831889Y103654430D01*
X50831550Y103655249D01*
X50780861Y103777625D01*
X50692621Y103892621D01*
X50577625Y103980861D01*
X50443709Y104036330D01*
X50443708Y104036331D01*
X50443706Y104036331D01*
X50300000Y104055251D01*
X50156293Y104036331D01*
X50105770Y104015404D01*
X50025181Y103982023D01*
X50022373Y103980860D01*
X49907379Y103892621D01*
X49819140Y103777627D01*
X49819139Y103777626D01*
X49819139Y103777625D01*
X49806358Y103746768D01*
X49763669Y103643707D01*
X49744749Y103500000D01*
X49763669Y103356294D01*
X49763669Y103356292D01*
X49763670Y103356291D01*
X49819139Y103222375D01*
X49858611Y103170934D01*
X49907379Y103107379D01*
X49996762Y103038792D01*
X50025797Y102993216D01*
X50018742Y102939639D01*
X50011344Y102928026D01*
X49952636Y102851517D01*
X49897165Y102717596D01*
X49878245Y102573888D01*
X49883657Y102532780D01*
X49871960Y102480022D01*
X49829088Y102447125D01*
X49815646Y102444145D01*
X49791145Y102440920D01*
X49756291Y102436330D01*
X49622375Y102380861D01*
X49622373Y102380860D01*
X49507379Y102292621D01*
X49419140Y102177627D01*
X49363669Y102043707D01*
X49344749Y101900000D01*
X43358670Y101900000D01*
X43378184Y101947111D01*
X43397104Y102090820D01*
X43378184Y102234529D01*
X43322715Y102368445D01*
X43234475Y102483441D01*
X43119479Y102571681D01*
X42985563Y102627150D01*
X42985562Y102627151D01*
X42985560Y102627151D01*
X42841854Y102646071D01*
X42698147Y102627151D01*
X42641396Y102603644D01*
X42566137Y102572471D01*
X42564227Y102571680D01*
X42449233Y102483441D01*
X42360994Y102368447D01*
X42305523Y102234527D01*
X42286603Y102090820D01*
X36190721Y102090820D01*
X36346410Y102218590D01*
X36477685Y102378550D01*
X36575232Y102561046D01*
X36575889Y102563209D01*
X36635299Y102759062D01*
X36635299Y102759064D01*
X36635300Y102759066D01*
X36655583Y102965000D01*
X36635300Y103170934D01*
X36635299Y103170937D01*
X36635299Y103170939D01*
X36603846Y103274626D01*
X37286700Y103274626D01*
X37305620Y103130919D01*
X37305620Y103130917D01*
X37305621Y103130916D01*
X37361090Y102997000D01*
X37449330Y102882004D01*
X37564326Y102793764D01*
X37698242Y102738295D01*
X37794048Y102725682D01*
X37841950Y102719375D01*
X37841950Y102719376D01*
X37841951Y102719375D01*
X37985660Y102738295D01*
X38119576Y102793764D01*
X38234572Y102882004D01*
X38322812Y102997000D01*
X38378281Y103130916D01*
X38397201Y103274625D01*
X38378281Y103418334D01*
X38322812Y103552250D01*
X38234572Y103667246D01*
X38119576Y103755486D01*
X37985660Y103810955D01*
X37985659Y103810956D01*
X37985657Y103810956D01*
X37841950Y103829876D01*
X37698244Y103810956D01*
X37564324Y103755485D01*
X37449330Y103667246D01*
X37361091Y103552252D01*
X37361090Y103552251D01*
X37361090Y103552250D01*
X37356617Y103541450D01*
X37305620Y103418332D01*
X37286700Y103274626D01*
X36603846Y103274626D01*
X36575234Y103368950D01*
X36575232Y103368954D01*
X36477685Y103551450D01*
X36408026Y103636330D01*
X36346410Y103711411D01*
X36186451Y103842684D01*
X36186450Y103842685D01*
X36079311Y103899953D01*
X36003949Y103940235D01*
X35806927Y104000000D01*
X45504249Y104000000D01*
X45523169Y103856294D01*
X45523169Y103856292D01*
X45523170Y103856291D01*
X45578639Y103722375D01*
X45666879Y103607379D01*
X45781875Y103519139D01*
X45915791Y103463670D01*
X46059500Y103444750D01*
X46077480Y103447118D01*
X46130236Y103435424D01*
X46163135Y103392553D01*
X46166116Y103358485D01*
X46163749Y103340503D01*
X46182669Y103196794D01*
X46182669Y103196792D01*
X46182670Y103196791D01*
X46238139Y103062875D01*
X46326379Y102947879D01*
X46441375Y102859639D01*
X46575291Y102804170D01*
X46719000Y102785250D01*
X46862709Y102804170D01*
X46996625Y102859639D01*
X47111621Y102947879D01*
X47199861Y103062875D01*
X47255330Y103196791D01*
X47274250Y103340500D01*
X47255330Y103484209D01*
X47199861Y103618125D01*
X47111621Y103733121D01*
X46996625Y103821361D01*
X46862709Y103876830D01*
X46862708Y103876831D01*
X46862706Y103876831D01*
X46718997Y103895751D01*
X46701015Y103893384D01*
X46648257Y103905082D01*
X46615362Y103947955D01*
X46612382Y103982018D01*
X46614750Y104000000D01*
X46595830Y104143709D01*
X46540361Y104277625D01*
X46452121Y104392621D01*
X46337125Y104480861D01*
X46203209Y104536330D01*
X46203208Y104536331D01*
X46203206Y104536331D01*
X46059500Y104555251D01*
X45915793Y104536331D01*
X45781873Y104480860D01*
X45666879Y104392621D01*
X45578640Y104277627D01*
X45578639Y104277626D01*
X45578639Y104277625D01*
X45572529Y104262874D01*
X45523169Y104143707D01*
X45504249Y104000000D01*
X35806927Y104000000D01*
X35805938Y104000300D01*
X35600000Y104020583D01*
X35394061Y104000300D01*
X35196050Y103940235D01*
X35013548Y103842684D01*
X34853589Y103711411D01*
X34722316Y103551452D01*
X34624765Y103368950D01*
X34564700Y103170939D01*
X34551685Y103038792D01*
X34544417Y102965000D01*
X33054598Y102965000D01*
X33035300Y103160934D01*
X33035299Y103160937D01*
X33035299Y103160939D01*
X32975234Y103358950D01*
X32949348Y103407379D01*
X32877685Y103541450D01*
X32837760Y103590099D01*
X32746410Y103701411D01*
X32586451Y103832684D01*
X32586450Y103832685D01*
X32451006Y103905082D01*
X32403949Y103930235D01*
X32205938Y103990300D01*
X32000000Y104010583D01*
X31794061Y103990300D01*
X31596050Y103930235D01*
X31413548Y103832684D01*
X31253589Y103701411D01*
X31122316Y103541452D01*
X31024765Y103358950D01*
X30964700Y103160939D01*
X30944417Y102955001D01*
X30075500Y102955001D01*
X30075500Y105495000D01*
X30944417Y105495000D01*
X30964700Y105289062D01*
X31024765Y105091051D01*
X31062016Y105021361D01*
X31109181Y104933121D01*
X31122316Y104908549D01*
X31253589Y104748590D01*
X31332039Y104684209D01*
X31413550Y104617315D01*
X31565061Y104536330D01*
X31596050Y104519766D01*
X31794061Y104459701D01*
X31794063Y104459701D01*
X31794066Y104459700D01*
X32000000Y104439417D01*
X32205934Y104459700D01*
X32205936Y104459701D01*
X32205938Y104459701D01*
X32403949Y104519766D01*
X32403951Y104519768D01*
X32403954Y104519768D01*
X32586450Y104617315D01*
X32746410Y104748590D01*
X32877685Y104908550D01*
X32975232Y105091046D01*
X32976660Y105095751D01*
X33035299Y105289062D01*
X33035299Y105289064D01*
X33035300Y105289066D01*
X33041794Y105355000D01*
X34458973Y105355000D01*
X34464737Y105292782D01*
X34523062Y105087794D01*
X34618061Y104897008D01*
X34746496Y104726934D01*
X34904003Y104583347D01*
X35085205Y104471152D01*
X35283936Y104394163D01*
X35450000Y104363121D01*
X35450000Y105023830D01*
X35457685Y105020320D01*
X35564237Y105005000D01*
X35635763Y105005000D01*
X35742315Y105020320D01*
X35750000Y105023830D01*
X35750000Y104363122D01*
X35916063Y104394163D01*
X36114794Y104471152D01*
X36295996Y104583347D01*
X36379532Y104659500D01*
X47544749Y104659500D01*
X47563669Y104515794D01*
X47563669Y104515792D01*
X47563670Y104515791D01*
X47619139Y104381875D01*
X47707379Y104266879D01*
X47822375Y104178639D01*
X47956291Y104123170D01*
X48100000Y104104250D01*
X48243709Y104123170D01*
X48377625Y104178639D01*
X48492621Y104266879D01*
X48580861Y104381875D01*
X48636330Y104515791D01*
X48639583Y104540500D01*
X53661086Y104540500D01*
X53680006Y104396794D01*
X53680006Y104396792D01*
X53680007Y104396791D01*
X53735476Y104262875D01*
X53823716Y104147879D01*
X53938712Y104059639D01*
X54072628Y104004170D01*
X54168434Y103991557D01*
X54216336Y103985250D01*
X54216336Y103985251D01*
X54216337Y103985250D01*
X54254695Y103990300D01*
X54309834Y103997559D01*
X54362592Y103985863D01*
X54395490Y103942991D01*
X54398470Y103929547D01*
X54398964Y103925794D01*
X54398964Y103925792D01*
X54398965Y103925791D01*
X54454434Y103791875D01*
X54542674Y103676879D01*
X54657670Y103588639D01*
X54791586Y103533170D01*
X54887392Y103520557D01*
X54935294Y103514250D01*
X54935294Y103514251D01*
X54935295Y103514250D01*
X55079004Y103533170D01*
X55212920Y103588639D01*
X55327916Y103676879D01*
X55416156Y103791875D01*
X55471625Y103925791D01*
X55490545Y104069500D01*
X55471625Y104213209D01*
X55416156Y104347125D01*
X55327916Y104462121D01*
X55278550Y104500001D01*
X70544749Y104500001D01*
X70563669Y104356294D01*
X70563669Y104356292D01*
X70563670Y104356291D01*
X70619139Y104222375D01*
X70707379Y104107379D01*
X70822375Y104019139D01*
X70956291Y103963670D01*
X71100000Y103944750D01*
X71243709Y103963670D01*
X71377625Y104019139D01*
X71492621Y104107379D01*
X71580861Y104222375D01*
X71636330Y104356291D01*
X71655250Y104500000D01*
X71655250Y104500001D01*
X79444749Y104500001D01*
X79463669Y104356294D01*
X79463669Y104356292D01*
X79463670Y104356291D01*
X79519139Y104222375D01*
X79607379Y104107379D01*
X79722375Y104019139D01*
X79856291Y103963670D01*
X79952096Y103951057D01*
X79999999Y103944750D01*
X79999999Y103944751D01*
X80000000Y103944750D01*
X80143709Y103963670D01*
X80277625Y104019139D01*
X80392621Y104107379D01*
X80480861Y104222375D01*
X80536330Y104356291D01*
X80555250Y104500000D01*
X80555250Y104500001D01*
X81244749Y104500001D01*
X81263669Y104356294D01*
X81263669Y104356292D01*
X81263670Y104356291D01*
X81319139Y104222375D01*
X81407379Y104107379D01*
X81522375Y104019139D01*
X81656291Y103963670D01*
X81800000Y103944750D01*
X81943709Y103963670D01*
X82077625Y104019139D01*
X82192621Y104107379D01*
X82280861Y104222375D01*
X82336330Y104356291D01*
X82355250Y104500000D01*
X82355250Y104500001D01*
X83244749Y104500001D01*
X83263669Y104356294D01*
X83263669Y104356292D01*
X83263670Y104356291D01*
X83319139Y104222375D01*
X83407379Y104107379D01*
X83522375Y104019139D01*
X83656291Y103963670D01*
X83800000Y103944750D01*
X83943709Y103963670D01*
X84077625Y104019139D01*
X84192621Y104107379D01*
X84280861Y104222375D01*
X84336330Y104356291D01*
X84355250Y104500000D01*
X84352647Y104519768D01*
X84347976Y104555251D01*
X84336330Y104643709D01*
X84280861Y104777625D01*
X84192621Y104892621D01*
X84077625Y104980861D01*
X83943709Y105036330D01*
X83943708Y105036331D01*
X83943706Y105036331D01*
X83800000Y105055251D01*
X83656293Y105036331D01*
X83522373Y104980860D01*
X83407379Y104892621D01*
X83319140Y104777627D01*
X83319139Y104777626D01*
X83319139Y104777625D01*
X83298142Y104726934D01*
X83263669Y104643707D01*
X83244749Y104500001D01*
X82355250Y104500001D01*
X82352647Y104519768D01*
X82347976Y104555251D01*
X82336330Y104643709D01*
X82280861Y104777625D01*
X82192621Y104892621D01*
X82077625Y104980861D01*
X81943709Y105036330D01*
X81943708Y105036331D01*
X81943706Y105036331D01*
X81800000Y105055251D01*
X81656293Y105036331D01*
X81522373Y104980860D01*
X81407379Y104892621D01*
X81319140Y104777627D01*
X81319139Y104777626D01*
X81319139Y104777625D01*
X81298142Y104726934D01*
X81263669Y104643707D01*
X81244749Y104500001D01*
X80555250Y104500001D01*
X80552647Y104519768D01*
X80547976Y104555251D01*
X80536330Y104643709D01*
X80480861Y104777625D01*
X80392621Y104892621D01*
X80277625Y104980861D01*
X80143709Y105036330D01*
X80143708Y105036331D01*
X80143706Y105036331D01*
X80000000Y105055251D01*
X79856293Y105036331D01*
X79722373Y104980860D01*
X79607379Y104892621D01*
X79519140Y104777627D01*
X79519139Y104777626D01*
X79519139Y104777625D01*
X79498142Y104726934D01*
X79463669Y104643707D01*
X79444749Y104500001D01*
X71655250Y104500001D01*
X71652647Y104519768D01*
X71647976Y104555251D01*
X71636330Y104643709D01*
X71580861Y104777625D01*
X71492621Y104892621D01*
X71377625Y104980861D01*
X71243709Y105036330D01*
X71243708Y105036331D01*
X71243706Y105036331D01*
X71100000Y105055251D01*
X70956293Y105036331D01*
X70822373Y104980860D01*
X70707379Y104892621D01*
X70619140Y104777627D01*
X70619139Y104777626D01*
X70619139Y104777625D01*
X70598142Y104726934D01*
X70563669Y104643707D01*
X70544749Y104500001D01*
X55278550Y104500001D01*
X55212920Y104550361D01*
X55079004Y104605830D01*
X55079003Y104605831D01*
X55079001Y104605831D01*
X54935294Y104624751D01*
X54841797Y104612441D01*
X54789038Y104624137D01*
X54756141Y104667009D01*
X54753161Y104680452D01*
X54752667Y104684209D01*
X54697198Y104818125D01*
X54608958Y104933121D01*
X54493962Y105021361D01*
X54360046Y105076830D01*
X54360045Y105076831D01*
X54360043Y105076831D01*
X54216337Y105095751D01*
X54072630Y105076831D01*
X54072627Y105076830D01*
X54072628Y105076830D01*
X53974854Y105036331D01*
X53938710Y105021360D01*
X53823716Y104933121D01*
X53735477Y104818127D01*
X53680006Y104684207D01*
X53661086Y104540500D01*
X48639583Y104540500D01*
X48655250Y104659500D01*
X48636330Y104803209D01*
X48580861Y104937125D01*
X48492621Y105052121D01*
X48430224Y105100000D01*
X87744749Y105100000D01*
X87763669Y104956294D01*
X87763669Y104956292D01*
X87763670Y104956291D01*
X87819139Y104822375D01*
X87907379Y104707379D01*
X88022375Y104619139D01*
X88156291Y104563670D01*
X88300000Y104544750D01*
X88443709Y104563670D01*
X88577625Y104619139D01*
X88692621Y104707379D01*
X88780861Y104822375D01*
X88836330Y104956291D01*
X88855250Y105100000D01*
X89244749Y105100000D01*
X89263669Y104956294D01*
X89263669Y104956292D01*
X89263670Y104956291D01*
X89319139Y104822375D01*
X89407379Y104707379D01*
X89522375Y104619139D01*
X89656291Y104563670D01*
X89800000Y104544750D01*
X89943709Y104563670D01*
X90077625Y104619139D01*
X90192621Y104707379D01*
X90280861Y104822375D01*
X90336330Y104956291D01*
X90355250Y105100000D01*
X90644749Y105100000D01*
X90663669Y104956294D01*
X90663669Y104956292D01*
X90663670Y104956291D01*
X90719139Y104822375D01*
X90807379Y104707379D01*
X90922375Y104619139D01*
X91056291Y104563670D01*
X91152096Y104551057D01*
X91199999Y104544750D01*
X91199999Y104544751D01*
X91200000Y104544750D01*
X91343709Y104563670D01*
X91477625Y104619139D01*
X91592621Y104707379D01*
X91680861Y104822375D01*
X91736330Y104956291D01*
X91752617Y105080000D01*
X101294731Y105080000D01*
X101313777Y104825842D01*
X101366558Y104594597D01*
X101370492Y104577363D01*
X101454576Y104363122D01*
X101463607Y104340112D01*
X101577000Y104143707D01*
X101591041Y104119388D01*
X101749950Y103920123D01*
X101936783Y103746768D01*
X101988644Y103711410D01*
X102147362Y103603197D01*
X102147365Y103603196D01*
X102147366Y103603195D01*
X102376996Y103492611D01*
X102620542Y103417487D01*
X102872565Y103379500D01*
X102872568Y103379500D01*
X103127432Y103379500D01*
X103127435Y103379500D01*
X103379458Y103417487D01*
X103623004Y103492611D01*
X103852634Y103603195D01*
X104063217Y103746768D01*
X104250050Y103920123D01*
X104408959Y104119388D01*
X104536393Y104340112D01*
X104629508Y104577363D01*
X104675217Y104777627D01*
X104686222Y104825842D01*
X104705268Y105080000D01*
X104686222Y105334159D01*
X104657865Y105458398D01*
X104629508Y105582637D01*
X104536393Y105819888D01*
X104408959Y106040612D01*
X104250050Y106239877D01*
X104063217Y106413232D01*
X104000057Y106456294D01*
X103852637Y106556804D01*
X103623000Y106667391D01*
X103379462Y106742512D01*
X103379460Y106742513D01*
X103379458Y106742513D01*
X103127435Y106780500D01*
X102872565Y106780500D01*
X102620542Y106742513D01*
X102620540Y106742513D01*
X102620537Y106742512D01*
X102376999Y106667391D01*
X102147362Y106556804D01*
X101936784Y106413233D01*
X101867980Y106349392D01*
X101749950Y106239877D01*
X101705468Y106184099D01*
X101591039Y106040610D01*
X101463607Y105819889D01*
X101370491Y105582635D01*
X101313777Y105334159D01*
X101294731Y105080000D01*
X91752617Y105080000D01*
X91755250Y105100000D01*
X91736330Y105243709D01*
X91680861Y105377625D01*
X91592621Y105492621D01*
X91477625Y105580861D01*
X91343709Y105636330D01*
X91343708Y105636331D01*
X91343706Y105636331D01*
X91200000Y105655251D01*
X91056293Y105636331D01*
X90922373Y105580860D01*
X90807379Y105492621D01*
X90719140Y105377627D01*
X90719139Y105377626D01*
X90719139Y105377625D01*
X90694914Y105319139D01*
X90663669Y105243707D01*
X90644749Y105100000D01*
X90355250Y105100000D01*
X90336330Y105243709D01*
X90280861Y105377625D01*
X90192621Y105492621D01*
X90077625Y105580861D01*
X89943709Y105636330D01*
X89943708Y105636331D01*
X89943706Y105636331D01*
X89800000Y105655251D01*
X89656293Y105636331D01*
X89522373Y105580860D01*
X89407379Y105492621D01*
X89319140Y105377627D01*
X89319139Y105377626D01*
X89319139Y105377625D01*
X89294914Y105319139D01*
X89263669Y105243707D01*
X89244749Y105100000D01*
X88855250Y105100000D01*
X88836330Y105243709D01*
X88780861Y105377625D01*
X88692621Y105492621D01*
X88577625Y105580861D01*
X88443709Y105636330D01*
X88443708Y105636331D01*
X88443706Y105636331D01*
X88300000Y105655251D01*
X88156293Y105636331D01*
X88022373Y105580860D01*
X87907379Y105492621D01*
X87819140Y105377627D01*
X87819139Y105377626D01*
X87819139Y105377625D01*
X87794914Y105319139D01*
X87763669Y105243707D01*
X87744749Y105100000D01*
X48430224Y105100000D01*
X48377625Y105140361D01*
X48243709Y105195830D01*
X48243708Y105195831D01*
X48243706Y105195831D01*
X48100000Y105214751D01*
X47956293Y105195831D01*
X47822373Y105140360D01*
X47707379Y105052121D01*
X47619140Y104937127D01*
X47563669Y104803207D01*
X47544749Y104659500D01*
X36379532Y104659500D01*
X36453503Y104726934D01*
X36581938Y104897008D01*
X36676937Y105087794D01*
X36735262Y105292782D01*
X36741026Y105355000D01*
X36077065Y105355000D01*
X36100000Y105433111D01*
X36100000Y105576889D01*
X36077065Y105655000D01*
X36741027Y105655000D01*
X36741026Y105655001D01*
X36735262Y105717219D01*
X36711708Y105800000D01*
X62244749Y105800000D01*
X62263669Y105656294D01*
X62263669Y105656292D01*
X62263670Y105656291D01*
X62319139Y105522375D01*
X62407379Y105407379D01*
X62522375Y105319139D01*
X62656291Y105263670D01*
X62800000Y105244750D01*
X62943709Y105263670D01*
X63077625Y105319139D01*
X63192621Y105407379D01*
X63280861Y105522375D01*
X63336330Y105656291D01*
X63355250Y105800000D01*
X63336330Y105943709D01*
X63280861Y106077625D01*
X63192621Y106192621D01*
X63077625Y106280861D01*
X62943709Y106336330D01*
X62943708Y106336331D01*
X62943706Y106336331D01*
X62800000Y106355251D01*
X62656293Y106336331D01*
X62656290Y106336330D01*
X62656291Y106336330D01*
X62523375Y106281275D01*
X62522373Y106280860D01*
X62407379Y106192621D01*
X62319140Y106077627D01*
X62263669Y105943707D01*
X62244749Y105800000D01*
X36711708Y105800000D01*
X36676937Y105922207D01*
X36581938Y106112993D01*
X36453503Y106283067D01*
X36295996Y106426654D01*
X36114794Y106538849D01*
X36113516Y106539344D01*
X45218662Y106539344D01*
X45237582Y106395637D01*
X45237582Y106395635D01*
X45237583Y106395634D01*
X45293052Y106261718D01*
X45381292Y106146722D01*
X45496288Y106058482D01*
X45630204Y106003013D01*
X45773913Y105984093D01*
X45917622Y106003013D01*
X46051538Y106058482D01*
X46130240Y106118873D01*
X46181776Y106135123D01*
X46231702Y106114443D01*
X46239044Y106106430D01*
X46239821Y106105834D01*
X46354817Y106017594D01*
X46488733Y105962125D01*
X46584539Y105949512D01*
X46632441Y105943205D01*
X46632441Y105943206D01*
X46632442Y105943205D01*
X46776151Y105962125D01*
X46910067Y106017594D01*
X47025063Y106105834D01*
X47113303Y106220830D01*
X47138339Y106281276D01*
X47174846Y106321118D01*
X47228423Y106328173D01*
X47241558Y106324031D01*
X47279777Y106308200D01*
X47423488Y106289280D01*
X47567197Y106308200D01*
X47701113Y106363669D01*
X47701507Y106363972D01*
X47702909Y106364414D01*
X47710722Y106367650D01*
X47711004Y106366967D01*
X47753042Y106380224D01*
X47802969Y106359547D01*
X47812275Y106349392D01*
X47871401Y106272338D01*
X47871402Y106272337D01*
X47986398Y106184097D01*
X48120314Y106128628D01*
X48264023Y106109708D01*
X48407732Y106128628D01*
X48541648Y106184097D01*
X48656644Y106272337D01*
X48744884Y106387333D01*
X48800353Y106521249D01*
X48819273Y106664958D01*
X48800353Y106808667D01*
X48744884Y106942583D01*
X48656644Y107057579D01*
X48541648Y107145819D01*
X48407732Y107201288D01*
X48407731Y107201289D01*
X48407729Y107201289D01*
X48264022Y107220209D01*
X48120316Y107201289D01*
X47986394Y107145818D01*
X47985998Y107145513D01*
X47984582Y107145067D01*
X47976790Y107141839D01*
X47976507Y107142522D01*
X47934460Y107129265D01*
X47884535Y107149947D01*
X47875239Y107160091D01*
X47816109Y107237151D01*
X47701113Y107325391D01*
X47567197Y107380860D01*
X47567196Y107380861D01*
X47567194Y107380861D01*
X47423488Y107399781D01*
X47279781Y107380861D01*
X47251892Y107369309D01*
X47149251Y107326794D01*
X47145861Y107325390D01*
X47030867Y107237151D01*
X46942626Y107122155D01*
X46917589Y107061709D01*
X46881081Y107021868D01*
X46827504Y107014815D01*
X46814373Y107018955D01*
X46776152Y107034786D01*
X46632442Y107053706D01*
X46488735Y107034786D01*
X46354814Y106979315D01*
X46276115Y106918927D01*
X46224576Y106902677D01*
X46174651Y106923358D01*
X46167308Y106931370D01*
X46152695Y106942583D01*
X46051538Y107020204D01*
X45917622Y107075673D01*
X45917621Y107075674D01*
X45917619Y107075674D01*
X45773912Y107094594D01*
X45630206Y107075674D01*
X45583418Y107056294D01*
X45500306Y107021868D01*
X45496286Y107020203D01*
X45381292Y106931964D01*
X45293053Y106816970D01*
X45293052Y106816969D01*
X45293052Y106816968D01*
X45265317Y106750010D01*
X45237582Y106683050D01*
X45218662Y106539344D01*
X36113516Y106539344D01*
X35916063Y106615838D01*
X35750000Y106646881D01*
X35750000Y105986171D01*
X35742315Y105989680D01*
X35635763Y106005000D01*
X35564237Y106005000D01*
X35457685Y105989680D01*
X35450000Y105986171D01*
X35450000Y106646881D01*
X35283936Y106615838D01*
X35085205Y106538849D01*
X34904003Y106426654D01*
X34746496Y106283067D01*
X34618061Y106112993D01*
X34523062Y105922207D01*
X34464737Y105717219D01*
X34458973Y105655001D01*
X34458973Y105655000D01*
X35122935Y105655000D01*
X35100000Y105576889D01*
X35100000Y105433111D01*
X35122935Y105355000D01*
X34458973Y105355000D01*
X33041794Y105355000D01*
X33055583Y105495000D01*
X33035300Y105700934D01*
X33035299Y105700937D01*
X33035299Y105700939D01*
X32975234Y105898950D01*
X32951579Y105943205D01*
X32877685Y106081450D01*
X32801705Y106174033D01*
X32746410Y106241411D01*
X32607695Y106355250D01*
X32586450Y106372685D01*
X32430030Y106456294D01*
X32403949Y106470235D01*
X32205938Y106530300D01*
X32000000Y106550583D01*
X31794061Y106530300D01*
X31596050Y106470235D01*
X31413548Y106372684D01*
X31253589Y106241411D01*
X31122316Y106081452D01*
X31024765Y105898950D01*
X30964700Y105700939D01*
X30944417Y105495000D01*
X30075500Y105495000D01*
X30075500Y108035001D01*
X30944417Y108035001D01*
X30964700Y107829062D01*
X31024765Y107631051D01*
X31035356Y107611237D01*
X31117505Y107457548D01*
X31122316Y107448549D01*
X31253589Y107288590D01*
X31356117Y107204449D01*
X31413550Y107157315D01*
X31592415Y107061709D01*
X31596050Y107059766D01*
X31794061Y106999701D01*
X31794063Y106999701D01*
X31794066Y106999700D01*
X32000000Y106979417D01*
X32205934Y106999700D01*
X32205936Y106999701D01*
X32205938Y106999701D01*
X32403949Y107059766D01*
X32403951Y107059768D01*
X32403954Y107059768D01*
X32586450Y107157315D01*
X32746410Y107288590D01*
X32877685Y107448550D01*
X32975232Y107631046D01*
X32978058Y107640360D01*
X33035299Y107829062D01*
X33035299Y107829064D01*
X33035300Y107829066D01*
X33055583Y108035000D01*
X33054598Y108045001D01*
X34544417Y108045001D01*
X34564700Y107839062D01*
X34624765Y107641051D01*
X34630110Y107631051D01*
X34722315Y107458550D01*
X34739896Y107437127D01*
X34853589Y107298590D01*
X34929418Y107236360D01*
X35013550Y107167315D01*
X35153821Y107092338D01*
X35196050Y107069766D01*
X35394061Y107009701D01*
X35394063Y107009701D01*
X35394066Y107009700D01*
X35600000Y106989417D01*
X35805934Y107009700D01*
X35805936Y107009701D01*
X35805938Y107009701D01*
X36003949Y107069766D01*
X36003951Y107069768D01*
X36003954Y107069768D01*
X36186450Y107167315D01*
X36346410Y107298590D01*
X36477685Y107458550D01*
X36484073Y107470501D01*
X42564249Y107470501D01*
X42583169Y107326794D01*
X42583169Y107326792D01*
X42583170Y107326791D01*
X42638639Y107192875D01*
X42726879Y107077879D01*
X42841875Y106989639D01*
X42975791Y106934170D01*
X43119500Y106915250D01*
X43263209Y106934170D01*
X43397125Y106989639D01*
X43512121Y107077879D01*
X43600361Y107192875D01*
X43655830Y107326791D01*
X43674750Y107470500D01*
X43655830Y107614209D01*
X43600361Y107748125D01*
X43512121Y107863121D01*
X43397125Y107951361D01*
X43263209Y108006830D01*
X43263208Y108006831D01*
X43263206Y108006831D01*
X43119499Y108025751D01*
X42975793Y108006831D01*
X42841873Y107951360D01*
X42726879Y107863121D01*
X42638640Y107748127D01*
X42638639Y107748126D01*
X42638639Y107748125D01*
X42631905Y107731868D01*
X42583169Y107614207D01*
X42564249Y107470501D01*
X36484073Y107470501D01*
X36575232Y107641046D01*
X36576770Y107646113D01*
X36635299Y107839062D01*
X36635299Y107839064D01*
X36635300Y107839066D01*
X36655583Y108045000D01*
X36635300Y108250934D01*
X36635299Y108250937D01*
X36635299Y108250939D01*
X36575234Y108448950D01*
X36563376Y108471134D01*
X36528476Y108536428D01*
X41381176Y108536428D01*
X41400096Y108392721D01*
X41400096Y108392719D01*
X41400097Y108392718D01*
X41455566Y108258802D01*
X41543806Y108143806D01*
X41658802Y108055566D01*
X41792718Y108000097D01*
X41936427Y107981177D01*
X42080136Y108000097D01*
X42173413Y108038733D01*
X43956921Y108038733D01*
X43975841Y107895027D01*
X43975841Y107895025D01*
X43975842Y107895024D01*
X44031311Y107761108D01*
X44119551Y107646112D01*
X44234547Y107557872D01*
X44368463Y107502403D01*
X44464269Y107489790D01*
X44512171Y107483483D01*
X44512171Y107483484D01*
X44512172Y107483483D01*
X44655881Y107502403D01*
X44789797Y107557872D01*
X44789993Y107558023D01*
X44790687Y107558242D01*
X44799406Y107561853D01*
X44799721Y107561091D01*
X44841528Y107574276D01*
X44891455Y107553600D01*
X44900757Y107543450D01*
X44960017Y107466222D01*
X45075013Y107377982D01*
X45208929Y107322513D01*
X45352638Y107303593D01*
X45496347Y107322513D01*
X45630263Y107377982D01*
X45739782Y107462020D01*
X45791318Y107478270D01*
X45835965Y107462020D01*
X45934474Y107386431D01*
X46068390Y107330962D01*
X46164196Y107318349D01*
X46212098Y107312042D01*
X46212098Y107312043D01*
X46212099Y107312042D01*
X46355808Y107330962D01*
X46489724Y107386431D01*
X46604720Y107474671D01*
X46692960Y107589667D01*
X46748429Y107723583D01*
X46767349Y107867292D01*
X46748429Y108011001D01*
X46692960Y108144917D01*
X46604720Y108259913D01*
X46489724Y108348153D01*
X46355808Y108403622D01*
X46355807Y108403623D01*
X46355805Y108403623D01*
X46212099Y108422543D01*
X46068392Y108403623D01*
X45934472Y108348152D01*
X45824954Y108264116D01*
X45773416Y108247866D01*
X45728771Y108264116D01*
X45630263Y108339704D01*
X45496347Y108395173D01*
X45496346Y108395174D01*
X45496344Y108395174D01*
X45352638Y108414094D01*
X45208931Y108395174D01*
X45075006Y108339702D01*
X45074805Y108339547D01*
X45074088Y108339322D01*
X45065404Y108335724D01*
X45065088Y108336485D01*
X45023266Y108323303D01*
X44973342Y108343988D01*
X44964048Y108354132D01*
X44904793Y108431354D01*
X44892872Y108440501D01*
X48336069Y108440501D01*
X48354989Y108296794D01*
X48354989Y108296792D01*
X48354990Y108296791D01*
X48410459Y108162875D01*
X48498699Y108047879D01*
X48613695Y107959639D01*
X48747611Y107904170D01*
X48819465Y107894710D01*
X48891318Y107885250D01*
X48891318Y107885251D01*
X48891320Y107885250D01*
X48909676Y107887667D01*
X48962434Y107875972D01*
X48995332Y107833100D01*
X48998313Y107819655D01*
X49014489Y107696794D01*
X49014489Y107696792D01*
X49014490Y107696791D01*
X49069959Y107562875D01*
X49158199Y107447879D01*
X49273195Y107359639D01*
X49407111Y107304170D01*
X49449495Y107298590D01*
X49491314Y107293084D01*
X49539247Y107268132D01*
X49559927Y107218206D01*
X49559326Y107204449D01*
X49553408Y107159501D01*
X49572328Y107015794D01*
X49572328Y107015792D01*
X49572329Y107015791D01*
X49627798Y106881875D01*
X49716038Y106766879D01*
X49831034Y106678639D01*
X49964950Y106623170D01*
X50108659Y106604250D01*
X50252368Y106623170D01*
X50386284Y106678639D01*
X50486451Y106755500D01*
X60144749Y106755500D01*
X60163669Y106611794D01*
X60163669Y106611792D01*
X60163670Y106611791D01*
X60219139Y106477875D01*
X60307379Y106362879D01*
X60422375Y106274639D01*
X60556291Y106219170D01*
X60700000Y106200250D01*
X60843709Y106219170D01*
X60977625Y106274639D01*
X61092621Y106362879D01*
X61180861Y106477875D01*
X61231446Y106600000D01*
X79444749Y106600000D01*
X79463669Y106456294D01*
X79463669Y106456292D01*
X79463670Y106456291D01*
X79519139Y106322375D01*
X79607379Y106207379D01*
X79722375Y106119139D01*
X79856291Y106063670D01*
X80000000Y106044750D01*
X80143709Y106063670D01*
X80277625Y106119139D01*
X80392621Y106207379D01*
X80480861Y106322375D01*
X80536330Y106456291D01*
X80555250Y106600000D01*
X81244749Y106600000D01*
X81263669Y106456294D01*
X81263669Y106456292D01*
X81263670Y106456291D01*
X81319139Y106322375D01*
X81407379Y106207379D01*
X81522375Y106119139D01*
X81656291Y106063670D01*
X81800000Y106044750D01*
X81943709Y106063670D01*
X82077625Y106119139D01*
X82192621Y106207379D01*
X82280861Y106322375D01*
X82336330Y106456291D01*
X82355250Y106600000D01*
X83244749Y106600000D01*
X83263669Y106456294D01*
X83263669Y106456292D01*
X83263670Y106456291D01*
X83319139Y106322375D01*
X83407379Y106207379D01*
X83522375Y106119139D01*
X83656291Y106063670D01*
X83800000Y106044750D01*
X83943709Y106063670D01*
X84077625Y106119139D01*
X84192621Y106207379D01*
X84280861Y106322375D01*
X84336330Y106456291D01*
X84355250Y106600000D01*
X84336330Y106743709D01*
X84280861Y106877625D01*
X84192621Y106992621D01*
X84077625Y107080861D01*
X83943709Y107136330D01*
X83943708Y107136331D01*
X83943706Y107136331D01*
X83800000Y107155251D01*
X83656293Y107136331D01*
X83656290Y107136330D01*
X83656291Y107136330D01*
X83550084Y107092338D01*
X83522373Y107080860D01*
X83407379Y106992621D01*
X83319140Y106877627D01*
X83319139Y106877626D01*
X83319139Y106877625D01*
X83294015Y106816970D01*
X83263669Y106743707D01*
X83244749Y106600000D01*
X82355250Y106600000D01*
X82336330Y106743709D01*
X82280861Y106877625D01*
X82192621Y106992621D01*
X82077625Y107080861D01*
X81943709Y107136330D01*
X81943708Y107136331D01*
X81943706Y107136331D01*
X81800000Y107155251D01*
X81656293Y107136331D01*
X81656290Y107136330D01*
X81656291Y107136330D01*
X81550084Y107092338D01*
X81522373Y107080860D01*
X81407379Y106992621D01*
X81319140Y106877627D01*
X81319139Y106877626D01*
X81319139Y106877625D01*
X81294015Y106816970D01*
X81263669Y106743707D01*
X81244749Y106600000D01*
X80555250Y106600000D01*
X80536330Y106743709D01*
X80480861Y106877625D01*
X80392621Y106992621D01*
X80277625Y107080861D01*
X80143709Y107136330D01*
X80143708Y107136331D01*
X80143706Y107136331D01*
X80000000Y107155251D01*
X79856293Y107136331D01*
X79856290Y107136330D01*
X79856291Y107136330D01*
X79750084Y107092338D01*
X79722373Y107080860D01*
X79607379Y106992621D01*
X79519140Y106877627D01*
X79519139Y106877626D01*
X79519139Y106877625D01*
X79494015Y106816970D01*
X79463669Y106743707D01*
X79444749Y106600000D01*
X61231446Y106600000D01*
X61236330Y106611791D01*
X61255250Y106755500D01*
X61236330Y106899209D01*
X61180861Y107033125D01*
X61092621Y107148121D01*
X61025011Y107200000D01*
X87744749Y107200000D01*
X87763669Y107056294D01*
X87763669Y107056292D01*
X87763670Y107056291D01*
X87819139Y106922375D01*
X87907379Y106807379D01*
X88022375Y106719139D01*
X88156291Y106663670D01*
X88300000Y106644750D01*
X88443709Y106663670D01*
X88577625Y106719139D01*
X88692621Y106807379D01*
X88780861Y106922375D01*
X88836330Y107056291D01*
X88855250Y107200000D01*
X89244749Y107200000D01*
X89263669Y107056294D01*
X89263669Y107056292D01*
X89263670Y107056291D01*
X89319139Y106922375D01*
X89407379Y106807379D01*
X89522375Y106719139D01*
X89656291Y106663670D01*
X89800000Y106644750D01*
X89943709Y106663670D01*
X90077625Y106719139D01*
X90192621Y106807379D01*
X90280861Y106922375D01*
X90336330Y107056291D01*
X90355250Y107200000D01*
X90544749Y107200000D01*
X90563669Y107056294D01*
X90563669Y107056292D01*
X90563670Y107056291D01*
X90619139Y106922375D01*
X90707379Y106807379D01*
X90822375Y106719139D01*
X90956291Y106663670D01*
X91052097Y106651057D01*
X91099999Y106644750D01*
X91099999Y106644751D01*
X91100000Y106644750D01*
X91243709Y106663670D01*
X91377625Y106719139D01*
X91492621Y106807379D01*
X91580861Y106922375D01*
X91636330Y107056291D01*
X91655250Y107200000D01*
X91636330Y107343709D01*
X91580861Y107477625D01*
X91492621Y107592621D01*
X91377625Y107680861D01*
X91243709Y107736330D01*
X91243708Y107736331D01*
X91243706Y107736331D01*
X91100000Y107755251D01*
X90956293Y107736331D01*
X90904191Y107714750D01*
X90858517Y107695831D01*
X90822373Y107680860D01*
X90707379Y107592621D01*
X90619140Y107477627D01*
X90619139Y107477626D01*
X90619139Y107477625D01*
X90616188Y107470501D01*
X90563669Y107343707D01*
X90544749Y107200000D01*
X90355250Y107200000D01*
X90336330Y107343709D01*
X90280861Y107477625D01*
X90192621Y107592621D01*
X90077625Y107680861D01*
X89943709Y107736330D01*
X89943708Y107736331D01*
X89943706Y107736331D01*
X89800000Y107755251D01*
X89656293Y107736331D01*
X89604191Y107714750D01*
X89558517Y107695831D01*
X89522373Y107680860D01*
X89407379Y107592621D01*
X89319140Y107477627D01*
X89319139Y107477626D01*
X89319139Y107477625D01*
X89316188Y107470501D01*
X89263669Y107343707D01*
X89244749Y107200000D01*
X88855250Y107200000D01*
X88836330Y107343709D01*
X88780861Y107477625D01*
X88692621Y107592621D01*
X88577625Y107680861D01*
X88443709Y107736330D01*
X88443708Y107736331D01*
X88443706Y107736331D01*
X88300000Y107755251D01*
X88156293Y107736331D01*
X88104191Y107714750D01*
X88058517Y107695831D01*
X88022373Y107680860D01*
X87907379Y107592621D01*
X87819140Y107477627D01*
X87819139Y107477626D01*
X87819139Y107477625D01*
X87816188Y107470501D01*
X87763669Y107343707D01*
X87744749Y107200000D01*
X61025011Y107200000D01*
X60977625Y107236361D01*
X60843709Y107291830D01*
X60843708Y107291831D01*
X60843706Y107291831D01*
X60700000Y107310751D01*
X60556293Y107291831D01*
X60540405Y107285250D01*
X60424283Y107237151D01*
X60422373Y107236360D01*
X60307379Y107148121D01*
X60219140Y107033127D01*
X60219139Y107033126D01*
X60219139Y107033125D01*
X60191404Y106966168D01*
X60163669Y106899207D01*
X60144749Y106755500D01*
X50486451Y106755500D01*
X50501280Y106766879D01*
X50589520Y106881875D01*
X50644989Y107015791D01*
X50663909Y107159500D01*
X50644989Y107303209D01*
X50589520Y107437125D01*
X50501280Y107552121D01*
X50386284Y107640361D01*
X50252368Y107695830D01*
X50252367Y107695831D01*
X50252365Y107695831D01*
X50168165Y107706916D01*
X50120231Y107731868D01*
X50099551Y107781794D01*
X50100152Y107795553D01*
X50106070Y107840500D01*
X50105510Y107844750D01*
X50095717Y107919139D01*
X50087150Y107984209D01*
X50031681Y108118125D01*
X49943441Y108233121D01*
X49828445Y108321361D01*
X49694529Y108376830D01*
X49694528Y108376831D01*
X49694526Y108376831D01*
X49550818Y108395751D01*
X49532459Y108393334D01*
X49502393Y108400000D01*
X62344749Y108400000D01*
X62363669Y108256294D01*
X62363669Y108256292D01*
X62363670Y108256291D01*
X62419139Y108122375D01*
X62507379Y108007379D01*
X62622375Y107919139D01*
X62756291Y107863670D01*
X62900000Y107844750D01*
X62941161Y107850169D01*
X74844749Y107850169D01*
X74863669Y107706462D01*
X74863669Y107706460D01*
X74863670Y107706459D01*
X74919139Y107572543D01*
X75007379Y107457547D01*
X75122375Y107369307D01*
X75256291Y107313838D01*
X75400000Y107294918D01*
X75543709Y107313838D01*
X75677625Y107369307D01*
X75792621Y107457547D01*
X75880861Y107572543D01*
X75936330Y107706459D01*
X75955250Y107850168D01*
X75936330Y107993877D01*
X75880861Y108127793D01*
X75856531Y108159500D01*
X92968586Y108159500D01*
X92987506Y108015794D01*
X92987506Y108015792D01*
X92987507Y108015791D01*
X93042976Y107881875D01*
X93131216Y107766879D01*
X93246212Y107678639D01*
X93380128Y107623170D01*
X93523837Y107604250D01*
X93667546Y107623170D01*
X93801462Y107678639D01*
X93916458Y107766879D01*
X94004698Y107881875D01*
X94060167Y108015791D01*
X94079087Y108159500D01*
X94060167Y108303209D01*
X94004698Y108437125D01*
X93916458Y108552121D01*
X93801604Y108640252D01*
X101299500Y108640252D01*
X101311133Y108581769D01*
X101355447Y108515448D01*
X101399762Y108485838D01*
X101421769Y108471133D01*
X101480252Y108459500D01*
X104519748Y108459500D01*
X104578231Y108471133D01*
X104644552Y108515448D01*
X104688867Y108581769D01*
X104700500Y108640252D01*
X104700500Y111679748D01*
X104688867Y111738231D01*
X104674162Y111760238D01*
X104644552Y111804553D01*
X104578231Y111848867D01*
X104519748Y111860500D01*
X101480252Y111860500D01*
X101421768Y111848867D01*
X101355447Y111804553D01*
X101311133Y111738232D01*
X101299500Y111679749D01*
X101299500Y108640252D01*
X93801604Y108640252D01*
X93801462Y108640361D01*
X93667546Y108695830D01*
X93667545Y108695831D01*
X93667543Y108695831D01*
X93523837Y108714751D01*
X93380130Y108695831D01*
X93246210Y108640360D01*
X93131216Y108552121D01*
X93042977Y108437127D01*
X93042976Y108437126D01*
X93042976Y108437125D01*
X93024584Y108392721D01*
X92987506Y108303207D01*
X92968586Y108159500D01*
X75856531Y108159500D01*
X75792621Y108242789D01*
X75677625Y108331029D01*
X75543709Y108386498D01*
X75543708Y108386499D01*
X75543706Y108386499D01*
X75400000Y108405419D01*
X75256293Y108386499D01*
X75256290Y108386498D01*
X75256291Y108386498D01*
X75142397Y108339322D01*
X75122373Y108331028D01*
X75007379Y108242789D01*
X74919140Y108127795D01*
X74919139Y108127794D01*
X74919139Y108127793D01*
X74891404Y108060836D01*
X74863669Y107993875D01*
X74844749Y107850169D01*
X62941161Y107850169D01*
X63043709Y107863670D01*
X63177625Y107919139D01*
X63292621Y108007379D01*
X63380861Y108122375D01*
X63436330Y108256291D01*
X63455250Y108400000D01*
X63436330Y108543709D01*
X63380861Y108677625D01*
X63292621Y108792621D01*
X63177625Y108880861D01*
X63043709Y108936330D01*
X63043708Y108936331D01*
X63043706Y108936331D01*
X62900000Y108955251D01*
X62756293Y108936331D01*
X62622373Y108880860D01*
X62507379Y108792621D01*
X62419140Y108677627D01*
X62363669Y108543707D01*
X62344749Y108400000D01*
X49502393Y108400000D01*
X49479701Y108405031D01*
X49446805Y108447904D01*
X49443825Y108461347D01*
X49443519Y108463670D01*
X49427650Y108584209D01*
X49372181Y108718125D01*
X49283941Y108833121D01*
X49168945Y108921361D01*
X49035029Y108976830D01*
X49035028Y108976831D01*
X49035026Y108976831D01*
X48891320Y108995751D01*
X48747613Y108976831D01*
X48747610Y108976830D01*
X48747611Y108976830D01*
X48616892Y108922685D01*
X48613693Y108921360D01*
X48498699Y108833121D01*
X48410460Y108718127D01*
X48410459Y108718126D01*
X48410459Y108718125D01*
X48409061Y108714750D01*
X48354989Y108584207D01*
X48336069Y108440501D01*
X44892872Y108440501D01*
X44789797Y108519594D01*
X44655881Y108575063D01*
X44655880Y108575064D01*
X44655878Y108575064D01*
X44512171Y108593984D01*
X44368465Y108575064D01*
X44368462Y108575063D01*
X44368463Y108575063D01*
X44275189Y108536428D01*
X44234545Y108519593D01*
X44119551Y108431354D01*
X44031312Y108316360D01*
X44031311Y108316359D01*
X44031311Y108316358D01*
X44023206Y108296791D01*
X43975841Y108182440D01*
X43956921Y108038733D01*
X42173413Y108038733D01*
X42214052Y108055566D01*
X42329048Y108143806D01*
X42417288Y108258802D01*
X42472757Y108392718D01*
X42491677Y108536427D01*
X42472757Y108680136D01*
X42417288Y108814052D01*
X42329048Y108929048D01*
X42214052Y109017288D01*
X42080136Y109072757D01*
X42080135Y109072758D01*
X42080133Y109072758D01*
X41936427Y109091678D01*
X41792720Y109072758D01*
X41658800Y109017287D01*
X41543806Y108929048D01*
X41455567Y108814054D01*
X41455566Y108814053D01*
X41455566Y108814052D01*
X41427831Y108747094D01*
X41400096Y108680134D01*
X41381176Y108536428D01*
X36528476Y108536428D01*
X36477685Y108631450D01*
X36406553Y108718125D01*
X36346410Y108791411D01*
X36198635Y108912685D01*
X36186450Y108922685D01*
X36049756Y108995750D01*
X36003949Y109020235D01*
X35805938Y109080300D01*
X35600000Y109100583D01*
X35394061Y109080300D01*
X35196050Y109020235D01*
X35013548Y108922684D01*
X34853589Y108791411D01*
X34722316Y108631452D01*
X34624765Y108448950D01*
X34564700Y108250939D01*
X34544417Y108045001D01*
X33054598Y108045001D01*
X33035300Y108240934D01*
X33035299Y108240937D01*
X33035299Y108240939D01*
X32975234Y108438950D01*
X32975232Y108438954D01*
X32877685Y108621450D01*
X32816643Y108695830D01*
X32746410Y108781411D01*
X32586451Y108912684D01*
X32586450Y108912685D01*
X32423097Y109000000D01*
X32403949Y109010235D01*
X32205938Y109070300D01*
X32000000Y109090583D01*
X31794061Y109070300D01*
X31596050Y109010235D01*
X31413548Y108912684D01*
X31253589Y108781411D01*
X31122316Y108621452D01*
X31024765Y108438950D01*
X30964700Y108240939D01*
X30944417Y108035001D01*
X30075500Y108035001D01*
X30075500Y109705252D01*
X30949500Y109705252D01*
X30961133Y109646769D01*
X31005447Y109580448D01*
X31043157Y109555251D01*
X31071769Y109536133D01*
X31130252Y109524500D01*
X32869748Y109524500D01*
X32928231Y109536133D01*
X32994552Y109580448D01*
X33038867Y109646769D01*
X33050500Y109705252D01*
X33050500Y109715252D01*
X34549500Y109715252D01*
X34561133Y109656769D01*
X34605447Y109590448D01*
X34649761Y109560838D01*
X34671769Y109546133D01*
X34730252Y109534500D01*
X36469748Y109534500D01*
X36528231Y109546133D01*
X36594552Y109590448D01*
X36638867Y109656769D01*
X36644460Y109684887D01*
X39363221Y109684887D01*
X39382141Y109541181D01*
X39382141Y109541179D01*
X39382142Y109541178D01*
X39437611Y109407262D01*
X39525851Y109292266D01*
X39640847Y109204026D01*
X39774763Y109148557D01*
X39870569Y109135944D01*
X39918471Y109129637D01*
X39918471Y109129638D01*
X39918472Y109129637D01*
X40062181Y109148557D01*
X40186377Y109200000D01*
X79444749Y109200000D01*
X79463669Y109056294D01*
X79463669Y109056292D01*
X79463670Y109056291D01*
X79519139Y108922375D01*
X79607379Y108807379D01*
X79722375Y108719139D01*
X79856291Y108663670D01*
X80000000Y108644750D01*
X80143709Y108663670D01*
X80277625Y108719139D01*
X80392621Y108807379D01*
X80480861Y108922375D01*
X80536330Y109056291D01*
X80555250Y109200000D01*
X81244749Y109200000D01*
X81263669Y109056294D01*
X81263669Y109056292D01*
X81263670Y109056291D01*
X81319139Y108922375D01*
X81407379Y108807379D01*
X81522375Y108719139D01*
X81656291Y108663670D01*
X81800000Y108644750D01*
X81943709Y108663670D01*
X82077625Y108719139D01*
X82192621Y108807379D01*
X82280861Y108922375D01*
X82336330Y109056291D01*
X82355250Y109200000D01*
X83244749Y109200000D01*
X83263669Y109056294D01*
X83263669Y109056292D01*
X83263670Y109056291D01*
X83319139Y108922375D01*
X83407379Y108807379D01*
X83522375Y108719139D01*
X83656291Y108663670D01*
X83800000Y108644750D01*
X83943709Y108663670D01*
X84077625Y108719139D01*
X84192621Y108807379D01*
X84280861Y108922375D01*
X84313014Y109000000D01*
X87444749Y109000000D01*
X87463669Y108856294D01*
X87463669Y108856292D01*
X87463670Y108856291D01*
X87519139Y108722375D01*
X87607379Y108607379D01*
X87722375Y108519139D01*
X87856291Y108463670D01*
X88000000Y108444750D01*
X88143709Y108463670D01*
X88277625Y108519139D01*
X88392621Y108607379D01*
X88480861Y108722375D01*
X88536330Y108856291D01*
X88555250Y109000000D01*
X89444749Y109000000D01*
X89463669Y108856294D01*
X89463669Y108856292D01*
X89463670Y108856291D01*
X89519139Y108722375D01*
X89607379Y108607379D01*
X89722375Y108519139D01*
X89856291Y108463670D01*
X90000000Y108444750D01*
X90143709Y108463670D01*
X90277625Y108519139D01*
X90392621Y108607379D01*
X90480861Y108722375D01*
X90536330Y108856291D01*
X90555250Y109000000D01*
X91444749Y109000000D01*
X91463669Y108856294D01*
X91463669Y108856292D01*
X91463670Y108856291D01*
X91519139Y108722375D01*
X91607379Y108607379D01*
X91722375Y108519139D01*
X91856291Y108463670D01*
X92000000Y108444750D01*
X92143709Y108463670D01*
X92277625Y108519139D01*
X92392621Y108607379D01*
X92480861Y108722375D01*
X92536330Y108856291D01*
X92555250Y109000000D01*
X92536330Y109143709D01*
X92480861Y109277625D01*
X92392621Y109392621D01*
X92277625Y109480861D01*
X92143709Y109536330D01*
X92143708Y109536331D01*
X92143706Y109536331D01*
X92000000Y109555251D01*
X91856293Y109536331D01*
X91722373Y109480860D01*
X91607379Y109392621D01*
X91519140Y109277627D01*
X91463669Y109143707D01*
X91444749Y109000000D01*
X90555250Y109000000D01*
X90536330Y109143709D01*
X90480861Y109277625D01*
X90392621Y109392621D01*
X90277625Y109480861D01*
X90143709Y109536330D01*
X90143708Y109536331D01*
X90143706Y109536331D01*
X90000000Y109555251D01*
X89856293Y109536331D01*
X89722373Y109480860D01*
X89607379Y109392621D01*
X89519140Y109277627D01*
X89463669Y109143707D01*
X89444749Y109000000D01*
X88555250Y109000000D01*
X88536330Y109143709D01*
X88480861Y109277625D01*
X88392621Y109392621D01*
X88277625Y109480861D01*
X88143709Y109536330D01*
X88143708Y109536331D01*
X88143706Y109536331D01*
X88000000Y109555251D01*
X87856293Y109536331D01*
X87722373Y109480860D01*
X87607379Y109392621D01*
X87519140Y109277627D01*
X87463669Y109143707D01*
X87444749Y109000000D01*
X84313014Y109000000D01*
X84336330Y109056291D01*
X84355250Y109200000D01*
X84336330Y109343709D01*
X84280861Y109477625D01*
X84192621Y109592621D01*
X84077625Y109680861D01*
X83943709Y109736330D01*
X83943708Y109736331D01*
X83943706Y109736331D01*
X83800000Y109755251D01*
X83656293Y109736331D01*
X83656290Y109736330D01*
X83656291Y109736330D01*
X83532098Y109684888D01*
X83522373Y109680860D01*
X83407379Y109592621D01*
X83319140Y109477627D01*
X83263669Y109343707D01*
X83244749Y109200000D01*
X82355250Y109200000D01*
X82336330Y109343709D01*
X82280861Y109477625D01*
X82192621Y109592621D01*
X82077625Y109680861D01*
X81943709Y109736330D01*
X81943708Y109736331D01*
X81943706Y109736331D01*
X81800000Y109755251D01*
X81656293Y109736331D01*
X81656290Y109736330D01*
X81656291Y109736330D01*
X81532098Y109684888D01*
X81522373Y109680860D01*
X81407379Y109592621D01*
X81319140Y109477627D01*
X81263669Y109343707D01*
X81244749Y109200000D01*
X80555250Y109200000D01*
X80536330Y109343709D01*
X80480861Y109477625D01*
X80392621Y109592621D01*
X80277625Y109680861D01*
X80143709Y109736330D01*
X80143708Y109736331D01*
X80143706Y109736331D01*
X80000000Y109755251D01*
X79856293Y109736331D01*
X79856290Y109736330D01*
X79856291Y109736330D01*
X79732098Y109684888D01*
X79722373Y109680860D01*
X79607379Y109592621D01*
X79519140Y109477627D01*
X79463669Y109343707D01*
X79444749Y109200000D01*
X40186377Y109200000D01*
X40196097Y109204026D01*
X40311093Y109292266D01*
X40399333Y109407262D01*
X40454802Y109541178D01*
X40473722Y109684887D01*
X40454802Y109828596D01*
X40399333Y109962512D01*
X40311093Y110077508D01*
X40196097Y110165748D01*
X40062181Y110221217D01*
X40062180Y110221218D01*
X40062178Y110221218D01*
X39918471Y110240138D01*
X39774765Y110221218D01*
X39640845Y110165747D01*
X39525851Y110077508D01*
X39437612Y109962514D01*
X39382141Y109828594D01*
X39363221Y109684887D01*
X36644460Y109684887D01*
X36650500Y109715252D01*
X36650499Y110897540D01*
X36668981Y110948319D01*
X36715781Y110975339D01*
X36768999Y110965955D01*
X36778605Y110957531D01*
X36779128Y110958211D01*
X36787377Y110951881D01*
X36787379Y110951879D01*
X36902375Y110863639D01*
X37036291Y110808170D01*
X37180000Y110789250D01*
X37323709Y110808170D01*
X37457625Y110863639D01*
X37572621Y110951879D01*
X37660861Y111066875D01*
X37674582Y111100000D01*
X45154189Y111100000D01*
X45173109Y110956294D01*
X45173109Y110956292D01*
X45173110Y110956291D01*
X45228579Y110822375D01*
X45316819Y110707379D01*
X45431815Y110619139D01*
X45565731Y110563670D01*
X45709440Y110544750D01*
X45853149Y110563670D01*
X45940859Y110600000D01*
X69944749Y110600000D01*
X69963669Y110456294D01*
X69963669Y110456292D01*
X69963670Y110456291D01*
X70019139Y110322375D01*
X70107379Y110207379D01*
X70222375Y110119139D01*
X70356291Y110063670D01*
X70452097Y110051057D01*
X70499999Y110044750D01*
X70499999Y110044751D01*
X70500000Y110044750D01*
X70643709Y110063670D01*
X70777625Y110119139D01*
X70892621Y110207379D01*
X70980861Y110322375D01*
X71036330Y110456291D01*
X71055250Y110600000D01*
X71039139Y110722375D01*
X71036330Y110743711D01*
X71021334Y110779914D01*
X71018976Y110833901D01*
X71031644Y110858236D01*
X71080861Y110922375D01*
X71113014Y111000000D01*
X79444749Y111000000D01*
X79463669Y110856294D01*
X79463669Y110856292D01*
X79463670Y110856291D01*
X79519139Y110722375D01*
X79607379Y110607379D01*
X79722375Y110519139D01*
X79856291Y110463670D01*
X80000000Y110444750D01*
X80143709Y110463670D01*
X80277625Y110519139D01*
X80392621Y110607379D01*
X80480861Y110722375D01*
X80536330Y110856291D01*
X80555250Y111000000D01*
X81244749Y111000000D01*
X81263669Y110856294D01*
X81263669Y110856292D01*
X81263670Y110856291D01*
X81319139Y110722375D01*
X81407379Y110607379D01*
X81522375Y110519139D01*
X81656291Y110463670D01*
X81800000Y110444750D01*
X81943709Y110463670D01*
X82077625Y110519139D01*
X82192621Y110607379D01*
X82280861Y110722375D01*
X82336330Y110856291D01*
X82355250Y111000000D01*
X83244749Y111000000D01*
X83263669Y110856294D01*
X83263669Y110856292D01*
X83263670Y110856291D01*
X83319139Y110722375D01*
X83407379Y110607379D01*
X83522375Y110519139D01*
X83656291Y110463670D01*
X83800000Y110444750D01*
X83943709Y110463670D01*
X84077625Y110519139D01*
X84192621Y110607379D01*
X84280861Y110722375D01*
X84336330Y110856291D01*
X84355250Y111000000D01*
X87444749Y111000000D01*
X87463669Y110856294D01*
X87463669Y110856292D01*
X87463670Y110856291D01*
X87519139Y110722375D01*
X87607379Y110607379D01*
X87722375Y110519139D01*
X87856291Y110463670D01*
X88000000Y110444750D01*
X88143709Y110463670D01*
X88277625Y110519139D01*
X88392621Y110607379D01*
X88480861Y110722375D01*
X88536330Y110856291D01*
X88555250Y111000000D01*
X89444749Y111000000D01*
X89463669Y110856294D01*
X89463669Y110856292D01*
X89463670Y110856291D01*
X89519139Y110722375D01*
X89607379Y110607379D01*
X89722375Y110519139D01*
X89856291Y110463670D01*
X90000000Y110444750D01*
X90143709Y110463670D01*
X90277625Y110519139D01*
X90392621Y110607379D01*
X90480861Y110722375D01*
X90536330Y110856291D01*
X90555250Y111000000D01*
X91444749Y111000000D01*
X91463669Y110856294D01*
X91463669Y110856292D01*
X91463670Y110856291D01*
X91519139Y110722375D01*
X91607379Y110607379D01*
X91722375Y110519139D01*
X91856291Y110463670D01*
X92000000Y110444750D01*
X92143709Y110463670D01*
X92277625Y110519139D01*
X92392621Y110607379D01*
X92480861Y110722375D01*
X92536330Y110856291D01*
X92555250Y111000000D01*
X92536330Y111143709D01*
X92480861Y111277625D01*
X92392621Y111392621D01*
X92277625Y111480861D01*
X92143709Y111536330D01*
X92143708Y111536331D01*
X92143706Y111536331D01*
X92000000Y111555251D01*
X91856293Y111536331D01*
X91722373Y111480860D01*
X91607379Y111392621D01*
X91519140Y111277627D01*
X91463669Y111143707D01*
X91444749Y111000000D01*
X90555250Y111000000D01*
X90536330Y111143709D01*
X90480861Y111277625D01*
X90392621Y111392621D01*
X90277625Y111480861D01*
X90143709Y111536330D01*
X90143708Y111536331D01*
X90143706Y111536331D01*
X90000000Y111555251D01*
X89856293Y111536331D01*
X89722373Y111480860D01*
X89607379Y111392621D01*
X89519140Y111277627D01*
X89463669Y111143707D01*
X89444749Y111000000D01*
X88555250Y111000000D01*
X88536330Y111143709D01*
X88480861Y111277625D01*
X88392621Y111392621D01*
X88277625Y111480861D01*
X88143709Y111536330D01*
X88143708Y111536331D01*
X88143706Y111536331D01*
X88000000Y111555251D01*
X87856293Y111536331D01*
X87722373Y111480860D01*
X87607379Y111392621D01*
X87519140Y111277627D01*
X87463669Y111143707D01*
X87444749Y111000000D01*
X84355250Y111000000D01*
X84336330Y111143709D01*
X84280861Y111277625D01*
X84192621Y111392621D01*
X84077625Y111480861D01*
X83943709Y111536330D01*
X83943708Y111536331D01*
X83943706Y111536331D01*
X83800000Y111555251D01*
X83656293Y111536331D01*
X83522373Y111480860D01*
X83407379Y111392621D01*
X83319140Y111277627D01*
X83263669Y111143707D01*
X83244749Y111000000D01*
X82355250Y111000000D01*
X82336330Y111143709D01*
X82280861Y111277625D01*
X82192621Y111392621D01*
X82077625Y111480861D01*
X81943709Y111536330D01*
X81943708Y111536331D01*
X81943706Y111536331D01*
X81800000Y111555251D01*
X81656293Y111536331D01*
X81522373Y111480860D01*
X81407379Y111392621D01*
X81319140Y111277627D01*
X81263669Y111143707D01*
X81244749Y111000000D01*
X80555250Y111000000D01*
X80536330Y111143709D01*
X80480861Y111277625D01*
X80392621Y111392621D01*
X80277625Y111480861D01*
X80143709Y111536330D01*
X80143708Y111536331D01*
X80143706Y111536331D01*
X80000000Y111555251D01*
X79856293Y111536331D01*
X79722373Y111480860D01*
X79607379Y111392621D01*
X79519140Y111277627D01*
X79463669Y111143707D01*
X79444749Y111000000D01*
X71113014Y111000000D01*
X71136330Y111056291D01*
X71155250Y111200000D01*
X71136330Y111343709D01*
X71080861Y111477625D01*
X70992621Y111592621D01*
X70877625Y111680861D01*
X70743709Y111736330D01*
X70743708Y111736331D01*
X70743706Y111736331D01*
X70600000Y111755251D01*
X70456293Y111736331D01*
X70322373Y111680860D01*
X70207379Y111592621D01*
X70119140Y111477627D01*
X70063669Y111343707D01*
X70044749Y111200000D01*
X70063669Y111056292D01*
X70078665Y111020087D01*
X70081021Y110966099D01*
X70068353Y110941764D01*
X70019139Y110877628D01*
X69963669Y110743707D01*
X69944749Y110600000D01*
X45940859Y110600000D01*
X45987065Y110619139D01*
X46102061Y110707379D01*
X46190301Y110822375D01*
X46245770Y110956291D01*
X46264690Y111100000D01*
X46261884Y111121310D01*
X46273579Y111174067D01*
X46316450Y111206965D01*
X46350520Y111209946D01*
X46393785Y111204250D01*
X46537494Y111223170D01*
X46671410Y111278639D01*
X46786406Y111366879D01*
X46874646Y111481875D01*
X46930115Y111615791D01*
X46949035Y111759500D01*
X46930115Y111903209D01*
X46874646Y112037125D01*
X46786406Y112152121D01*
X46671410Y112240361D01*
X46537494Y112295830D01*
X46537493Y112295831D01*
X46537491Y112295831D01*
X46393785Y112314751D01*
X46250078Y112295831D01*
X46116158Y112240360D01*
X46001164Y112152121D01*
X45912925Y112037127D01*
X45857454Y111903207D01*
X45838534Y111759500D01*
X45841340Y111738191D01*
X45829644Y111685432D01*
X45786772Y111652535D01*
X45752705Y111649555D01*
X45709440Y111655251D01*
X45565733Y111636331D01*
X45431813Y111580860D01*
X45316819Y111492621D01*
X45228580Y111377627D01*
X45173109Y111243707D01*
X45154189Y111100000D01*
X37674582Y111100000D01*
X37716330Y111200791D01*
X37735250Y111344500D01*
X37716330Y111488209D01*
X37660861Y111622125D01*
X37572621Y111737121D01*
X37457625Y111825361D01*
X37323709Y111880830D01*
X37323708Y111880831D01*
X37323706Y111880831D01*
X37180000Y111899751D01*
X37036293Y111880831D01*
X36902373Y111825360D01*
X36875256Y111804552D01*
X36787379Y111737121D01*
X36747717Y111685432D01*
X36692808Y111613874D01*
X36691834Y111614622D01*
X36662980Y111583137D01*
X36609402Y111576088D01*
X36582617Y111587528D01*
X36528231Y111623867D01*
X36469748Y111635500D01*
X34730252Y111635500D01*
X34671768Y111623867D01*
X34605447Y111579553D01*
X34561133Y111513232D01*
X34549500Y111454749D01*
X34549500Y109715252D01*
X33050500Y109715252D01*
X33050500Y111444748D01*
X33038867Y111503231D01*
X33016750Y111536331D01*
X32994552Y111569553D01*
X32928231Y111613867D01*
X32869748Y111625500D01*
X31130252Y111625500D01*
X31071768Y111613867D01*
X31005447Y111569553D01*
X30961133Y111503232D01*
X30949500Y111444749D01*
X30949500Y109705252D01*
X30075500Y109705252D01*
X30075500Y112425001D01*
X51844749Y112425001D01*
X51863669Y112281294D01*
X51863669Y112281292D01*
X51863670Y112281291D01*
X51919139Y112147375D01*
X52007379Y112032379D01*
X52122375Y111944139D01*
X52256291Y111888670D01*
X52315841Y111880830D01*
X52399999Y111869750D01*
X52399999Y111869751D01*
X52400000Y111869750D01*
X52543709Y111888670D01*
X52677625Y111944139D01*
X52792621Y112032379D01*
X52880861Y112147375D01*
X52936330Y112281291D01*
X52955250Y112425000D01*
X52936330Y112568709D01*
X52880861Y112702625D01*
X52792621Y112817621D01*
X52677625Y112905861D01*
X52543709Y112961330D01*
X52543708Y112961331D01*
X52543706Y112961331D01*
X52400000Y112980251D01*
X52256293Y112961331D01*
X52122373Y112905860D01*
X52007379Y112817621D01*
X51919140Y112702627D01*
X51863669Y112568707D01*
X51844749Y112425001D01*
X30075500Y112425001D01*
X30075500Y115228383D01*
X30093982Y115279163D01*
X30140782Y115306183D01*
X30194000Y115296799D01*
X30228253Y115256694D01*
X30297464Y115076393D01*
X30299141Y115072626D01*
X30463806Y114749454D01*
X30465884Y114745855D01*
X30663426Y114441667D01*
X30665861Y114438315D01*
X30894121Y114156438D01*
X30896878Y114153375D01*
X30919060Y114131193D01*
X30919061Y114131193D01*
X32267411Y115479544D01*
X32365130Y115365130D01*
X32479543Y115267413D01*
X31131192Y113919062D01*
X31153374Y113896879D01*
X31156437Y113894122D01*
X31438314Y113665862D01*
X31441666Y113663427D01*
X31745854Y113465885D01*
X31749453Y113463807D01*
X32072625Y113299142D01*
X32076392Y113297465D01*
X32415024Y113167476D01*
X32418955Y113166199D01*
X32769314Y113072320D01*
X32773354Y113071462D01*
X33131590Y113014723D01*
X33135721Y113014289D01*
X33497939Y112995305D01*
X33502061Y112995305D01*
X33864278Y113014289D01*
X33868409Y113014723D01*
X34226645Y113071462D01*
X34230685Y113072320D01*
X34581044Y113166199D01*
X34584975Y113167476D01*
X34923607Y113297465D01*
X34927374Y113299142D01*
X34933572Y113302300D01*
X39180000Y113302300D01*
X39180249Y113297861D01*
X39195122Y113165860D01*
X39254665Y112995694D01*
X39350576Y112843052D01*
X39478051Y112715577D01*
X39630693Y112619666D01*
X39800860Y112560123D01*
X39829999Y112556840D01*
X39830000Y112556840D01*
X39830000Y113082343D01*
X39843962Y113071799D01*
X39951840Y113041105D01*
X40063521Y113051454D01*
X40129999Y113084557D01*
X40130000Y112556840D01*
X40159139Y112560123D01*
X40329306Y112619666D01*
X40481948Y112715577D01*
X40609423Y112843052D01*
X40705334Y112995694D01*
X40764877Y113165860D01*
X40779750Y113297861D01*
X40780000Y113302300D01*
X40780000Y113745000D01*
X40280000Y113745000D01*
X40280000Y114045000D01*
X40780001Y114045000D01*
X40784036Y114049036D01*
X40798480Y114088723D01*
X40845278Y114115744D01*
X40898496Y114106363D01*
X40921671Y114086040D01*
X40999549Y113984549D01*
X41119767Y113892302D01*
X41188890Y113863670D01*
X41259763Y113834313D01*
X41281917Y113831397D01*
X41372280Y113819500D01*
X41374870Y113819500D01*
X41445130Y113819500D01*
X41447720Y113819500D01*
X41560236Y113834313D01*
X41700233Y113892302D01*
X41820451Y113984549D01*
X41912698Y114104767D01*
X41970687Y114244764D01*
X41990466Y114395000D01*
X41990466Y114395001D01*
X46609533Y114395001D01*
X46629312Y114244763D01*
X46685955Y114108019D01*
X46687302Y114104767D01*
X46779549Y113984549D01*
X46899767Y113892302D01*
X46968890Y113863670D01*
X47039763Y113834313D01*
X47061917Y113831397D01*
X47152280Y113819500D01*
X47154870Y113819500D01*
X47225130Y113819500D01*
X47227720Y113819500D01*
X47340236Y113834313D01*
X47480233Y113892302D01*
X47600451Y113984549D01*
X47678326Y114086039D01*
X47723901Y114115072D01*
X47777478Y114108019D01*
X47813987Y114068177D01*
X47818248Y114046751D01*
X47819999Y114045000D01*
X48320000Y114045000D01*
X48320000Y113745000D01*
X47820000Y113745000D01*
X47820000Y113302300D01*
X47820249Y113297861D01*
X47835122Y113165860D01*
X47894665Y112995694D01*
X47990576Y112843052D01*
X48118051Y112715577D01*
X48270693Y112619666D01*
X48440860Y112560123D01*
X48469999Y112556840D01*
X48470000Y112556840D01*
X48470000Y113082343D01*
X48483962Y113071799D01*
X48591840Y113041105D01*
X48703521Y113051454D01*
X48769999Y113084557D01*
X48770000Y112556840D01*
X48799139Y112560123D01*
X48969306Y112619666D01*
X49121948Y112715577D01*
X49249423Y112843052D01*
X49345334Y112995694D01*
X49404877Y113165860D01*
X49419750Y113297861D01*
X49420000Y113302300D01*
X49420000Y113481131D01*
X63458555Y113481131D01*
X63477475Y113337425D01*
X63477475Y113337423D01*
X63477476Y113337422D01*
X63532945Y113203506D01*
X63621185Y113088510D01*
X63736181Y113000270D01*
X63870097Y112944801D01*
X64013806Y112925881D01*
X64157515Y112944801D01*
X64291431Y113000270D01*
X64406427Y113088510D01*
X64406427Y113088511D01*
X64414679Y113094842D01*
X64416319Y113092705D01*
X64448828Y113113422D01*
X64496169Y113109284D01*
X64531034Y113094842D01*
X64606289Y113063670D01*
X64750000Y113044750D01*
X64893709Y113063670D01*
X65027625Y113119139D01*
X65142621Y113207379D01*
X65230861Y113322375D01*
X65286330Y113456291D01*
X65305250Y113600000D01*
X65286330Y113743709D01*
X65230861Y113877625D01*
X65142621Y113992621D01*
X65027625Y114080861D01*
X64893709Y114136330D01*
X64893708Y114136331D01*
X64893706Y114136331D01*
X64750000Y114155251D01*
X64606293Y114136331D01*
X64472373Y114080860D01*
X64349128Y113986290D01*
X64347488Y113988427D01*
X64314957Y113967707D01*
X64267636Y113971849D01*
X64157514Y114017462D01*
X64013806Y114036382D01*
X63870099Y114017462D01*
X63810127Y113992621D01*
X63749979Y113967707D01*
X63736179Y113961991D01*
X63621185Y113873752D01*
X63532946Y113758758D01*
X63532945Y113758757D01*
X63532945Y113758756D01*
X63505210Y113691798D01*
X63477475Y113624838D01*
X63458555Y113481131D01*
X49420000Y113481131D01*
X49420000Y113745000D01*
X48920000Y113745000D01*
X48920000Y114045000D01*
X49420000Y114045000D01*
X49420000Y114400000D01*
X52753058Y114400000D01*
X52771978Y114256294D01*
X52771978Y114256292D01*
X52771979Y114256291D01*
X52827448Y114122375D01*
X52915688Y114007379D01*
X53030684Y113919139D01*
X53164600Y113863670D01*
X53308309Y113844750D01*
X53452018Y113863670D01*
X53585934Y113919139D01*
X53700930Y114007379D01*
X53789170Y114122375D01*
X53844639Y114256291D01*
X53863559Y114400000D01*
X53844639Y114543709D01*
X53789170Y114677625D01*
X53700930Y114792621D01*
X53585934Y114880861D01*
X53452018Y114936330D01*
X53452017Y114936331D01*
X53452015Y114936331D01*
X53308309Y114955251D01*
X53164602Y114936331D01*
X53164599Y114936330D01*
X53164600Y114936330D01*
X53036293Y114883184D01*
X53030682Y114880860D01*
X52915688Y114792621D01*
X52827449Y114677627D01*
X52771978Y114543707D01*
X52753058Y114400000D01*
X49420000Y114400000D01*
X49420000Y114487701D01*
X49419750Y114492140D01*
X49404877Y114624141D01*
X49345334Y114794307D01*
X49249423Y114946949D01*
X49121948Y115074424D01*
X48969306Y115170335D01*
X48799141Y115229877D01*
X48770000Y115233162D01*
X48770000Y114707658D01*
X48756038Y114718201D01*
X48648160Y114748895D01*
X48536479Y114738546D01*
X48470000Y114705444D01*
X48470000Y115233162D01*
X48440858Y115229877D01*
X48270693Y115170335D01*
X48118051Y115074424D01*
X47990576Y114946949D01*
X47894665Y114794306D01*
X47849844Y114666215D01*
X47815627Y114624389D01*
X47762530Y114614342D01*
X47715397Y114640776D01*
X47702291Y114662074D01*
X47692698Y114685233D01*
X47690151Y114688552D01*
X47600451Y114805451D01*
X47480233Y114897698D01*
X47474676Y114900000D01*
X47340236Y114955688D01*
X47230290Y114970162D01*
X47230284Y114970163D01*
X47227720Y114970500D01*
X47152280Y114970500D01*
X47149716Y114970163D01*
X47149709Y114970162D01*
X47039763Y114955688D01*
X46899768Y114897699D01*
X46779549Y114805451D01*
X46687301Y114685232D01*
X46629312Y114545238D01*
X46609533Y114395001D01*
X41990466Y114395001D01*
X41989808Y114400000D01*
X41970687Y114545238D01*
X41927039Y114650610D01*
X41912698Y114685233D01*
X41820451Y114805451D01*
X41700233Y114897698D01*
X41694676Y114900000D01*
X41560236Y114955688D01*
X41450290Y114970162D01*
X41450284Y114970163D01*
X41447720Y114970500D01*
X41372280Y114970500D01*
X41369716Y114970163D01*
X41369709Y114970162D01*
X41259763Y114955688D01*
X41119768Y114897699D01*
X40999549Y114805451D01*
X40907300Y114685232D01*
X40897707Y114662072D01*
X40861197Y114622232D01*
X40807620Y114615180D01*
X40762045Y114644217D01*
X40750155Y114666215D01*
X40705334Y114794307D01*
X40609423Y114946949D01*
X40481948Y115074424D01*
X40329306Y115170335D01*
X40159141Y115229877D01*
X40130000Y115233162D01*
X40130000Y114707658D01*
X40116038Y114718201D01*
X40008160Y114748895D01*
X39896479Y114738546D01*
X39829999Y114705444D01*
X39830000Y115233162D01*
X39800858Y115229877D01*
X39630693Y115170335D01*
X39478051Y115074424D01*
X39350576Y114946949D01*
X39254665Y114794307D01*
X39195122Y114624141D01*
X39180249Y114492140D01*
X39180000Y114487701D01*
X39180000Y114045000D01*
X39680000Y114045000D01*
X39680000Y113745000D01*
X39180000Y113745000D01*
X39180000Y113302300D01*
X34933572Y113302300D01*
X35250546Y113463807D01*
X35254145Y113465885D01*
X35558333Y113663427D01*
X35561685Y113665862D01*
X35843560Y113894120D01*
X35846632Y113896886D01*
X35868806Y113919062D01*
X35868807Y113919063D01*
X34520456Y115267413D01*
X34634870Y115365130D01*
X34732587Y115479544D01*
X36080938Y114131193D01*
X36080939Y114131193D01*
X36103114Y114153368D01*
X36105880Y114156440D01*
X36334138Y114438315D01*
X36336573Y114441667D01*
X36534115Y114745855D01*
X36536193Y114749454D01*
X36700858Y115072626D01*
X36702535Y115076393D01*
X36832524Y115415025D01*
X36833801Y115418956D01*
X36927680Y115769315D01*
X36928538Y115773355D01*
X36985277Y116131591D01*
X36985711Y116135722D01*
X37004695Y116497940D01*
X37004695Y116502061D01*
X36985711Y116864279D01*
X36985277Y116868410D01*
X36928538Y117226646D01*
X36927680Y117230686D01*
X36833801Y117581045D01*
X36832524Y117584976D01*
X36775971Y117732300D01*
X39180000Y117732300D01*
X39180249Y117727861D01*
X39195122Y117595860D01*
X39254665Y117425694D01*
X39350576Y117273052D01*
X39478051Y117145577D01*
X39630693Y117049666D01*
X39800860Y116990123D01*
X39829999Y116986840D01*
X39830000Y116986840D01*
X39830000Y117512343D01*
X39843962Y117501799D01*
X39951840Y117471105D01*
X40063521Y117481454D01*
X40130000Y117514557D01*
X40130000Y116986840D01*
X40159139Y116990123D01*
X40329306Y117049666D01*
X40481948Y117145577D01*
X40609423Y117273052D01*
X40705334Y117425694D01*
X40764877Y117595860D01*
X40779750Y117727861D01*
X40780000Y117732300D01*
X47820000Y117732300D01*
X47820249Y117727861D01*
X47835122Y117595860D01*
X47894665Y117425694D01*
X47990576Y117273052D01*
X48118051Y117145577D01*
X48270693Y117049666D01*
X48440860Y116990123D01*
X48469999Y116986840D01*
X48470000Y116986840D01*
X48470000Y117512343D01*
X48483962Y117501799D01*
X48591840Y117471105D01*
X48703521Y117481454D01*
X48770000Y117514557D01*
X48770000Y116986840D01*
X48799139Y116990123D01*
X48969306Y117049666D01*
X49121948Y117145577D01*
X49249423Y117273052D01*
X49345334Y117425694D01*
X49404877Y117595860D01*
X49419750Y117727861D01*
X49420000Y117732300D01*
X49420000Y117925000D01*
X48920000Y117925000D01*
X48920000Y118225000D01*
X49420000Y118225000D01*
X49420000Y118400000D01*
X64144749Y118400000D01*
X64163669Y118256294D01*
X64163669Y118256292D01*
X64163670Y118256291D01*
X64219139Y118122375D01*
X64307379Y118007379D01*
X64422375Y117919139D01*
X64556291Y117863670D01*
X64652097Y117851057D01*
X64699999Y117844750D01*
X64699999Y117844751D01*
X64700000Y117844750D01*
X64843709Y117863670D01*
X64977625Y117919139D01*
X65092621Y118007379D01*
X65180861Y118122375D01*
X65236330Y118256291D01*
X65255250Y118400000D01*
X65236330Y118543709D01*
X65180861Y118677625D01*
X65092621Y118792621D01*
X64977625Y118880861D01*
X64843709Y118936330D01*
X64843708Y118936331D01*
X64843706Y118936331D01*
X64700000Y118955251D01*
X64556293Y118936331D01*
X64422373Y118880860D01*
X64307379Y118792621D01*
X64219140Y118677627D01*
X64219139Y118677626D01*
X64219139Y118677625D01*
X64206951Y118648201D01*
X64163669Y118543707D01*
X64144749Y118400000D01*
X49420000Y118400000D01*
X49420000Y118417701D01*
X49419750Y118422140D01*
X49404877Y118554141D01*
X49345334Y118724307D01*
X49249423Y118876949D01*
X49121948Y119004424D01*
X48969306Y119100335D01*
X48799141Y119159877D01*
X48770000Y119163162D01*
X48770000Y118637658D01*
X48756038Y118648201D01*
X48648160Y118678895D01*
X48536479Y118668546D01*
X48470000Y118635444D01*
X48470000Y119163162D01*
X48440858Y119159877D01*
X48270693Y119100335D01*
X48118051Y119004424D01*
X47990576Y118876949D01*
X47894665Y118724307D01*
X47835122Y118554141D01*
X47820249Y118422140D01*
X47820000Y118417701D01*
X47820000Y118225000D01*
X48320000Y118225000D01*
X48320000Y117925000D01*
X47820000Y117925000D01*
X47820000Y117732300D01*
X40780000Y117732300D01*
X40780000Y117925000D01*
X40280000Y117925000D01*
X40280000Y118225000D01*
X40780000Y118225000D01*
X40780000Y118417701D01*
X40779750Y118422140D01*
X40764877Y118554141D01*
X40705334Y118724307D01*
X40609423Y118876949D01*
X40481948Y119004424D01*
X40329306Y119100335D01*
X40159141Y119159877D01*
X40130000Y119163162D01*
X40130000Y118637658D01*
X40116038Y118648201D01*
X40008160Y118678895D01*
X39896479Y118668546D01*
X39830000Y118635444D01*
X39830000Y119163162D01*
X39800858Y119159877D01*
X39630693Y119100335D01*
X39478051Y119004424D01*
X39350576Y118876949D01*
X39254665Y118724307D01*
X39195122Y118554141D01*
X39180249Y118422140D01*
X39180000Y118417701D01*
X39180000Y118225000D01*
X39680000Y118225000D01*
X39680000Y117925000D01*
X39180000Y117925000D01*
X39180000Y117732300D01*
X36775971Y117732300D01*
X36702535Y117923608D01*
X36700858Y117927375D01*
X36536193Y118250546D01*
X36534115Y118254145D01*
X36336573Y118558334D01*
X36334138Y118561686D01*
X36105878Y118843563D01*
X36103121Y118846626D01*
X36080939Y118868808D01*
X36080938Y118868808D01*
X34732587Y117520458D01*
X34634870Y117634870D01*
X34520456Y117732588D01*
X35868807Y119080939D01*
X35868807Y119080940D01*
X35846625Y119103122D01*
X35843562Y119105879D01*
X35561685Y119334139D01*
X35558333Y119336574D01*
X35254145Y119534116D01*
X35250546Y119536194D01*
X34927374Y119700859D01*
X34923607Y119702536D01*
X34743306Y119771747D01*
X34702522Y119807200D01*
X34694068Y119860574D01*
X34721901Y119906895D01*
X34771617Y119924500D01*
X72228383Y119924500D01*
X72279163Y119906018D01*
G37*
G04 #@! TD.AperFunction*
G04 #@! TA.AperFunction,Conductor*
G36*
X106080938Y91131193D02*
G01*
X106080939Y91131193D01*
X106103114Y91153368D01*
X106105880Y91156440D01*
X106334138Y91438315D01*
X106336573Y91441667D01*
X106534115Y91745855D01*
X106536193Y91749454D01*
X106700858Y92072626D01*
X106702535Y92076393D01*
X106771747Y92256694D01*
X106807200Y92297478D01*
X106860574Y92305932D01*
X106906895Y92278099D01*
X106924500Y92228383D01*
X106924500Y91003445D01*
X106924199Y90996560D01*
X106911057Y90846350D01*
X106908666Y90832788D01*
X106870534Y90690478D01*
X106865824Y90677538D01*
X106803560Y90544014D01*
X106796675Y90532089D01*
X106712171Y90411404D01*
X106703319Y90400855D01*
X106599145Y90296681D01*
X106588596Y90287829D01*
X106467911Y90203325D01*
X106455986Y90196440D01*
X106322462Y90134176D01*
X106309522Y90129466D01*
X106167212Y90091334D01*
X106153651Y90088943D01*
X106033417Y90078424D01*
X106003439Y90075801D01*
X105996556Y90075500D01*
X104771617Y90075500D01*
X104720837Y90093982D01*
X104693817Y90140782D01*
X104703201Y90194000D01*
X104743306Y90228253D01*
X104923607Y90297465D01*
X104927374Y90299142D01*
X105250546Y90463807D01*
X105254145Y90465885D01*
X105558333Y90663427D01*
X105561685Y90665862D01*
X105843560Y90894120D01*
X105846632Y90896886D01*
X105868807Y90919062D01*
X105868807Y90919063D01*
X104520456Y92267413D01*
X104634870Y92365130D01*
X104732587Y92479544D01*
X106080938Y91131193D01*
G37*
G04 #@! TD.AperFunction*
G04 #@! TA.AperFunction,Conductor*
G36*
X106003440Y119924200D02*
G01*
X106153654Y119911058D01*
X106167208Y119908668D01*
X106309523Y119870535D01*
X106322462Y119865825D01*
X106455986Y119803561D01*
X106467911Y119796676D01*
X106588596Y119712172D01*
X106599145Y119703320D01*
X106703319Y119599146D01*
X106712171Y119588597D01*
X106796675Y119467912D01*
X106803560Y119455987D01*
X106865824Y119322463D01*
X106870534Y119309523D01*
X106908666Y119167213D01*
X106911057Y119153651D01*
X106924199Y119003441D01*
X106924500Y118996556D01*
X106924500Y117771618D01*
X106906018Y117720838D01*
X106859218Y117693818D01*
X106806000Y117703202D01*
X106771747Y117743307D01*
X106702535Y117923608D01*
X106700858Y117927375D01*
X106536193Y118250546D01*
X106534115Y118254145D01*
X106336573Y118558334D01*
X106334138Y118561686D01*
X106105878Y118843563D01*
X106103121Y118846626D01*
X106080939Y118868808D01*
X106080938Y118868808D01*
X104732587Y117520458D01*
X104634870Y117634870D01*
X104520456Y117732588D01*
X105868807Y119080939D01*
X105868807Y119080940D01*
X105846625Y119103122D01*
X105843562Y119105879D01*
X105561685Y119334139D01*
X105558333Y119336574D01*
X105254145Y119534116D01*
X105250546Y119536194D01*
X104927374Y119700859D01*
X104923607Y119702536D01*
X104743306Y119771747D01*
X104702522Y119807200D01*
X104694068Y119860574D01*
X104721901Y119906895D01*
X104771617Y119924500D01*
X105975469Y119924500D01*
X105996556Y119924500D01*
X106003440Y119924200D01*
G37*
G04 #@! TD.AperFunction*
G04 #@! TD*
M02*
