G04 #@! TF.GenerationSoftware,KiCad,Pcbnew,7.0.2-6a45011f42~172~ubuntu20.04.1*
G04 #@! TF.CreationDate,2023-05-22T19:25:16+03:00*
G04 #@! TF.ProjectId,BLDC_4,424c4443-5f34-42e6-9b69-6361645f7063,rev?*
G04 #@! TF.SameCoordinates,PX40d9900PYa21fe80*
G04 #@! TF.FileFunction,Copper,L3,Inr*
G04 #@! TF.FilePolarity,Positive*
%FSLAX46Y46*%
G04 Gerber Fmt 4.6, Leading zero omitted, Abs format (unit mm)*
G04 Created by KiCad (PCBNEW 7.0.2-6a45011f42~172~ubuntu20.04.1) date 2023-05-22 19:25:16*
%MOMM*%
%LPD*%
G01*
G04 APERTURE LIST*
G04 #@! TA.AperFunction,ComponentPad*
%ADD10C,6.400000*%
G04 #@! TD*
G04 #@! TA.AperFunction,ComponentPad*
%ADD11O,1.000000X2.100000*%
G04 #@! TD*
G04 #@! TA.AperFunction,ComponentPad*
%ADD12O,1.000000X1.600000*%
G04 #@! TD*
G04 #@! TA.AperFunction,ComponentPad*
%ADD13R,1.700000X1.700000*%
G04 #@! TD*
G04 #@! TA.AperFunction,ComponentPad*
%ADD14O,1.700000X1.700000*%
G04 #@! TD*
G04 #@! TA.AperFunction,ComponentPad*
%ADD15R,3.000000X3.000000*%
G04 #@! TD*
G04 #@! TA.AperFunction,ComponentPad*
%ADD16C,3.000000*%
G04 #@! TD*
G04 #@! TA.AperFunction,ViaPad*
%ADD17C,0.700000*%
G04 #@! TD*
G04 #@! TA.AperFunction,Conductor*
%ADD18C,0.300000*%
G04 #@! TD*
G04 #@! TA.AperFunction,Conductor*
%ADD19C,0.500000*%
G04 #@! TD*
G04 APERTURE END LIST*
D10*
G04 #@! TO.N,GND*
G04 #@! TO.C,H1*
X103500000Y116500000D03*
G04 #@! TD*
G04 #@! TO.N,GND*
G04 #@! TO.C,H5*
X33500000Y116500000D03*
G04 #@! TD*
G04 #@! TO.N,GND*
G04 #@! TO.C,H2*
X103500000Y93500000D03*
G04 #@! TD*
G04 #@! TO.N,GND*
G04 #@! TO.C,H4*
X73500000Y116500000D03*
G04 #@! TD*
D11*
G04 #@! TO.N,GND*
G04 #@! TO.C,J401*
X48620000Y113895000D03*
D12*
X48620000Y118075000D03*
D11*
X39980000Y113895000D03*
D12*
X39980000Y118075000D03*
G04 #@! TD*
D10*
G04 #@! TO.N,GND*
G04 #@! TO.C,H3*
X73500000Y93500000D03*
G04 #@! TD*
D13*
G04 #@! TO.N,+5V*
G04 #@! TO.C,P1*
X68060000Y92800000D03*
D14*
G04 #@! TO.N,/Filters/WHEEL_IN*
X65520000Y92800000D03*
G04 #@! TO.N,/Filters/HALL1_IN*
X62980000Y92800000D03*
G04 #@! TO.N,/Filters/HALL2_IN*
X60440000Y92800000D03*
G04 #@! TO.N,/Filters/HALL3_IN*
X57900000Y92800000D03*
G04 #@! TO.N,GND*
X55360000Y92800000D03*
G04 #@! TD*
D13*
G04 #@! TO.N,VCC*
G04 #@! TO.C,P2*
X35600000Y110585000D03*
D14*
G04 #@! TO.N,SWCLK*
X35600000Y108045000D03*
G04 #@! TO.N,GND*
X35600000Y105505000D03*
G04 #@! TO.N,SWDIO*
X35600000Y102965000D03*
G04 #@! TO.N,NRST*
X35600000Y100425000D03*
G04 #@! TO.N,TRACESWO*
X35600000Y97885000D03*
G04 #@! TD*
D13*
G04 #@! TO.N,GND*
G04 #@! TO.C,P11*
X45500000Y92800000D03*
D14*
G04 #@! TO.N,+5V*
X42960000Y92800000D03*
G04 #@! TO.N,/MCU/OLED_I2C_SDA*
X40420000Y92800000D03*
G04 #@! TO.N,/MCU/OLED_I2C_SCL*
X37880000Y92800000D03*
G04 #@! TD*
D13*
G04 #@! TO.N,/MCU/BRAKE_IN*
G04 #@! TO.C,P12*
X51700000Y92800000D03*
D14*
G04 #@! TO.N,VCC*
X49160000Y92800000D03*
G04 #@! TD*
D13*
G04 #@! TO.N,/MCU/BUTTONS_IN*
G04 #@! TO.C,P13*
X31750000Y92800000D03*
D14*
G04 #@! TO.N,VCC*
X34290000Y92800000D03*
G04 #@! TD*
D13*
G04 #@! TO.N,+5V*
G04 #@! TO.C,P14*
X32000000Y110575000D03*
D14*
G04 #@! TO.N,VCC*
X32000000Y108035000D03*
G04 #@! TO.N,/MCU/PC3*
X32000000Y105495000D03*
G04 #@! TO.N,/MCU/PC8*
X32000000Y102955000D03*
G04 #@! TO.N,/MCU/PC9*
X32000000Y100415000D03*
G04 #@! TO.N,GND*
X32000000Y97875000D03*
G04 #@! TD*
D15*
G04 #@! TO.N,+5V*
G04 #@! TO.C,J2*
X91020000Y115900000D03*
D16*
G04 #@! TO.N,GND*
X96100000Y115900000D03*
G04 #@! TD*
D15*
G04 #@! TO.N,V_SUPPLY*
G04 #@! TO.C,J3*
X80460000Y115900000D03*
D16*
G04 #@! TO.N,GND*
X85540000Y115900000D03*
G04 #@! TD*
D15*
G04 #@! TO.N,/Mosfet driver/H1_VS*
G04 #@! TO.C,J1*
X103000000Y110160000D03*
D16*
G04 #@! TO.N,/Mosfet driver/H2_VS*
X103000000Y105080000D03*
G04 #@! TO.N,/Mosfet driver/H3_VS*
X103000000Y100000000D03*
G04 #@! TD*
D17*
G04 #@! TO.N,GND*
X95100000Y104400000D03*
X53700000Y99800000D03*
X67100000Y105400000D03*
X99500000Y103000000D03*
X66300000Y98459500D03*
X51400000Y116600000D03*
X62900000Y109800000D03*
X65800000Y112800000D03*
X35700000Y92000000D03*
X99500000Y105800000D03*
X88200000Y119200000D03*
X60341606Y112358394D03*
X68500000Y118400000D03*
X59800000Y115100000D03*
X69500000Y105400000D03*
X60079001Y100712970D03*
X69500000Y101500000D03*
X95100000Y103100000D03*
X67100000Y111300000D03*
X31800000Y91100000D03*
X92100000Y119200000D03*
X96700000Y104400000D03*
X66600000Y90600000D03*
X64200000Y93500000D03*
X33900000Y94800000D03*
X98200000Y104400000D03*
X99600000Y118700000D03*
X57340500Y100790498D03*
X89100000Y95200000D03*
X30900000Y112200000D03*
X68000000Y101500000D03*
X44800000Y105900000D03*
X37180000Y119200000D03*
X37896837Y109700000D03*
X56000000Y112000000D03*
X106400000Y96100000D03*
X69500000Y107300000D03*
X59100000Y93600000D03*
X69500000Y104400000D03*
X61036335Y108871061D03*
X49900000Y94100000D03*
X69500000Y102900000D03*
X55329674Y106640500D03*
X75200000Y111534500D03*
X63600000Y106900000D03*
X98826706Y96673295D03*
X71100000Y102600000D03*
X79500000Y92225000D03*
X68000000Y102900000D03*
X58500000Y98459500D03*
X67100000Y107300000D03*
X68000000Y104400000D03*
X56200000Y114300000D03*
X91500000Y94000000D03*
X81800000Y92225000D03*
X50200000Y112759500D03*
X42700000Y100000000D03*
X99500000Y104400000D03*
X76788013Y99285017D03*
G04 #@! TO.N,V_SUPPLY*
X81800000Y103100000D03*
X83800000Y106600000D03*
X85000000Y95500000D03*
X83800000Y111000000D03*
X80000000Y106600000D03*
X83800000Y98800000D03*
X83800000Y103100000D03*
X73700000Y97300000D03*
X81800000Y97000000D03*
X83800000Y109200000D03*
X80000000Y97000000D03*
X80000000Y103100000D03*
X81800000Y100700000D03*
X70600000Y111200000D03*
X80000000Y100700000D03*
X78496464Y96465500D03*
X70500000Y110600000D03*
X83800000Y100700000D03*
X80000000Y98800000D03*
X81800000Y111000000D03*
X81800000Y104500000D03*
X96800000Y118700000D03*
X81800000Y112800000D03*
X83800000Y112800000D03*
X92800000Y118500000D03*
X80000000Y112800000D03*
X83800000Y104500000D03*
X80000000Y111000000D03*
X81800000Y98800000D03*
X81800000Y106600000D03*
X80000000Y104500000D03*
X80000000Y109200000D03*
X81800000Y109200000D03*
X87400000Y117500000D03*
X83800000Y97500000D03*
G04 #@! TO.N,/MCU/AN_IN*
X76762952Y113237048D03*
X47600000Y96500000D03*
G04 #@! TO.N,VCC*
X39918472Y109684887D03*
X37841951Y103274625D03*
X76580982Y98380982D03*
X49061696Y99438304D03*
X52400000Y112425000D03*
X57695223Y98761291D03*
X64700000Y118400000D03*
X69701134Y100124067D03*
X43000000Y96900000D03*
G04 #@! TO.N,/Mosfet driver/H1_VS*
X75400000Y107850168D03*
X88000000Y112750000D03*
X88000000Y111000000D03*
X92000000Y109000000D03*
X92000000Y111000000D03*
X90000000Y112750000D03*
X90000000Y111000000D03*
X88000000Y109000000D03*
X92000000Y112750000D03*
X90000000Y109000000D03*
G04 #@! TO.N,/Mosfet driver/H2_VS*
X89800000Y107200000D03*
X91200000Y103100000D03*
X91100000Y107200000D03*
X75350000Y103800000D03*
X89800000Y105100000D03*
X91200000Y105100000D03*
X88300000Y103100000D03*
X88300000Y107200000D03*
X88300000Y105100000D03*
X89800000Y103100000D03*
G04 #@! TO.N,/Mosfet driver/H3_VS*
X91600000Y97300000D03*
X88000000Y98900000D03*
X89900000Y100700000D03*
X89955000Y98905000D03*
X88000000Y97100000D03*
X91900000Y100700000D03*
X91900000Y98900000D03*
X74550000Y100700000D03*
X88000000Y100700000D03*
X89900000Y97100000D03*
G04 #@! TO.N,NRST*
X45840585Y99568290D03*
G04 #@! TO.N,+5V*
X64013806Y113481131D03*
X53308309Y114400000D03*
X67400000Y98500000D03*
X64750000Y113600000D03*
G04 #@! TO.N,/Filters/WHEEL_OUT*
X46700000Y99580500D03*
X67362500Y94980500D03*
G04 #@! TO.N,/MCU/BRAKE_IN*
X48100000Y104659500D03*
X54600000Y94980500D03*
G04 #@! TO.N,/MCU/BUTTONS_IN*
X47000000Y92300000D03*
G04 #@! TO.N,SWDIO*
X41936427Y108536427D03*
G04 #@! TO.N,/MCU/OLED_I2C_SDA*
X46059500Y104000000D03*
X39400000Y97800000D03*
G04 #@! TO.N,/MCU/OLED_I2C_SCL*
X39400000Y96900000D03*
X46719000Y103340500D03*
G04 #@! TO.N,/Mosfet driver/H1_LOW*
X71100000Y104500000D03*
X93523837Y108159500D03*
G04 #@! TO.N,/Mosfet driver/H3_LOW*
X71100000Y100100000D03*
X96200000Y101800000D03*
G04 #@! TO.N,/MCU/SENS1*
X104780997Y98572546D03*
X52100000Y96575000D03*
G04 #@! TO.N,/MCU/SENS2*
X50600000Y96575000D03*
X105440497Y99300000D03*
G04 #@! TO.N,/MCU/SENS3*
X49100000Y96575000D03*
X105500000Y100500000D03*
G04 #@! TO.N,/MCU/LED_GREEN*
X54935295Y104069500D03*
G04 #@! TO.N,/MCU/LED_RED*
X54216337Y104540500D03*
G04 #@! TO.N,SPI3_SDCARD_CS*
X48264023Y106664958D03*
G04 #@! TO.N,SPI3_MOSI*
X47423488Y106844530D03*
G04 #@! TO.N,SPI3_MISO*
X45773913Y106539343D03*
G04 #@! TO.N,SPI1_SENSOR_CS*
X50433496Y102573889D03*
X56535424Y102294949D03*
G04 #@! TO.N,SPI1_SCK*
X51119222Y103092080D03*
X55684994Y102419500D03*
G04 #@! TO.N,/MCU/L3*
X50108659Y107159500D03*
X63429857Y100975597D03*
G04 #@! TO.N,/MCU/L2*
X49550820Y107840500D03*
X63686283Y101795957D03*
G04 #@! TO.N,/MCU/L1*
X63483663Y102783663D03*
X48891320Y108440500D03*
G04 #@! TO.N,/MCU/DC_CAL*
X62800000Y105800000D03*
X43119500Y107470500D03*
G04 #@! TO.N,SPI3_SCK*
X46632442Y106498455D03*
G04 #@! TO.N,/MCU/EN_GATE*
X66234451Y103932875D03*
X50300000Y103500000D03*
G04 #@! TO.N,/MCU/H3*
X66102374Y101097683D03*
X46212099Y107867292D03*
G04 #@! TO.N,/MCU/H2*
X45352638Y107858843D03*
X66095286Y102090028D03*
G04 #@! TO.N,/MCU/H1*
X66165364Y102996264D03*
X44512172Y108038733D03*
G04 #@! TO.N,SENSOR_IRQ*
X49900000Y101900000D03*
X54800000Y100900000D03*
G04 #@! TO.N,/MCU/FAULT*
X43500000Y100500000D03*
X62900000Y108400000D03*
G04 #@! TO.N,/MCU/PC3*
X48061696Y99438304D03*
G04 #@! TO.N,/MCU/PC8*
X46393785Y111759500D03*
G04 #@! TO.N,/MCU/PC9*
X45709440Y111100000D03*
G04 #@! TO.N,/MCU/BOOT0*
X37180000Y111344500D03*
X42841854Y102090820D03*
G04 #@! TO.N,/Mosfet driver/DVDD*
X60700000Y106755500D03*
X67152235Y100119561D03*
G04 #@! TO.N,TEMPERATURE*
X52850000Y99450000D03*
X77370241Y97670241D03*
X69660690Y99265517D03*
G04 #@! TD*
D18*
G04 #@! TO.N,V_SUPPLY*
X73700000Y97300000D02*
X75700000Y97300000D01*
X75700000Y97300000D02*
X76600000Y96400000D01*
X76600000Y96400000D02*
X78430964Y96400000D01*
X78430964Y96400000D02*
X78496464Y96465500D01*
G04 #@! TO.N,VCC*
X70999588Y98860000D02*
X69735521Y100124067D01*
X69735521Y100124067D02*
X69701134Y100124067D01*
X76101964Y98860000D02*
X70999588Y98860000D01*
X76580982Y98380982D02*
X76101964Y98860000D01*
G04 #@! TO.N,/Mosfet driver/H1_VS*
X92410000Y110160000D02*
X92500000Y110250000D01*
X91000000Y109750000D02*
X90652500Y110160000D01*
X77300000Y110200000D02*
X86800000Y110200000D01*
X75400000Y108300000D02*
X77300000Y110200000D01*
X91590000Y110160000D02*
X91000000Y109750000D01*
X92500000Y110250000D02*
X92000000Y110250000D01*
X92000000Y109750000D02*
X91590000Y110160000D01*
X86800000Y110200000D02*
X88000000Y109000000D01*
X90000000Y110812500D02*
X89955000Y110857500D01*
X90062500Y110750000D02*
X90000000Y110750000D01*
X90000000Y110750000D02*
X90000000Y110812500D01*
X92000000Y109750000D02*
X92000000Y109750000D01*
X90562500Y110250000D02*
X90750000Y110250000D01*
X103000000Y110160000D02*
X92410000Y110160000D01*
X90652500Y110160000D02*
X90562500Y110250000D01*
X90750000Y110250000D02*
X90750000Y110062500D01*
X90750000Y110062500D02*
X90062500Y110750000D01*
X75400000Y107850168D02*
X75400000Y108300000D01*
X92000000Y110250000D02*
X92000000Y109750000D01*
G04 #@! TO.N,/Mosfet driver/H2_VS*
X88850000Y103800000D02*
X79100000Y103800000D01*
X79100000Y103800000D02*
X78900000Y103600000D01*
X93200000Y105700000D02*
X90750000Y105700000D01*
X75550000Y103600000D02*
X75350000Y103800000D01*
X78900000Y103600000D02*
X75550000Y103600000D01*
X103000000Y105080000D02*
X93820000Y105080000D01*
X93820000Y105080000D02*
X93200000Y105700000D01*
X90750000Y105700000D02*
X88850000Y103800000D01*
G04 #@! TO.N,/Mosfet driver/H3_VS*
X89955000Y98905000D02*
X89060000Y99800000D01*
X76300000Y100700000D02*
X74550000Y100700000D01*
X77200000Y99800000D02*
X76300000Y100700000D01*
X89060000Y99800000D02*
X77200000Y99800000D01*
X103000000Y100000000D02*
X91050000Y100000000D01*
X91050000Y100000000D02*
X89955000Y98905000D01*
G04 #@! TO.N,NRST*
X45840585Y98340585D02*
X43740000Y96240000D01*
X35600000Y99766619D02*
X35600000Y100425000D01*
X45840585Y99568290D02*
X45840585Y98340585D01*
X43740000Y96240000D02*
X39126619Y96240000D01*
X39126619Y96240000D02*
X35600000Y99766619D01*
D19*
G04 #@! TO.N,+5V*
X78500000Y118300000D02*
X79000000Y118800000D01*
X77077048Y112477048D02*
X78500000Y113900000D01*
X79000000Y118800000D02*
X87400000Y118800000D01*
X69440000Y113560000D02*
X70522952Y112477048D01*
X87400000Y118800000D02*
X90300000Y115900000D01*
X70522952Y112477048D02*
X77077048Y112477048D01*
X90300000Y115900000D02*
X91020000Y115900000D01*
X78500000Y113900000D02*
X78500000Y118300000D01*
X64092675Y113560000D02*
X69440000Y113560000D01*
X64013806Y113481131D02*
X64092675Y113560000D01*
D18*
G04 #@! TO.N,/Filters/WHEEL_OUT*
X52952095Y95547905D02*
X54240000Y94260000D01*
X50204191Y100100000D02*
X52952095Y97352095D01*
X66642000Y94260000D02*
X67362500Y94980500D01*
X47219500Y100100000D02*
X50204191Y100100000D01*
X46700000Y99580500D02*
X47219500Y100100000D01*
X52952095Y97352095D02*
X52952095Y95547905D01*
X54240000Y94260000D02*
X66642000Y94260000D01*
G04 #@! TO.N,/MCU/BRAKE_IN*
X48100000Y101900000D02*
X49200000Y100800000D01*
X53800000Y97200000D02*
X53800000Y95800000D01*
X48100000Y104659500D02*
X48100000Y101900000D01*
X49200000Y100800000D02*
X50200000Y100800000D01*
X53800000Y95800000D02*
X53800000Y95780500D01*
X53800000Y95780500D02*
X54600000Y94980500D01*
X51800000Y99200000D02*
X53800000Y97200000D01*
X50200000Y100800000D02*
X51800000Y99200000D01*
G04 #@! TO.N,/MCU/BUTTONS_IN*
X46120000Y91100000D02*
X33400000Y91100000D01*
X33400000Y91100000D02*
X31750000Y92750000D01*
X47000000Y91980000D02*
X46120000Y91100000D01*
X31750000Y92750000D02*
X31750000Y92800000D01*
X47000000Y92300000D02*
X47000000Y91980000D01*
G04 #@! TO.N,SWDIO*
X43000000Y101200000D02*
X37300000Y101200000D01*
X35600000Y102900000D02*
X35600000Y102965000D01*
X43700000Y101900000D02*
X43000000Y101200000D01*
X43700000Y104449462D02*
X43700000Y101900000D01*
X37300000Y101200000D02*
X35600000Y102900000D01*
X41936427Y108536427D02*
X41936427Y106213035D01*
X41936427Y106213035D02*
X43700000Y104449462D01*
G04 #@! TO.N,/MCU/OLED_I2C_SDA*
X39400000Y97800000D02*
X41900000Y97800000D01*
X46059500Y101959500D02*
X46059500Y104000000D01*
X41900000Y97800000D02*
X46059500Y101959500D01*
G04 #@! TO.N,/MCU/OLED_I2C_SCL*
X41800000Y96900000D02*
X46719000Y101819000D01*
X39400000Y96900000D02*
X41800000Y96900000D01*
X46719000Y101819000D02*
X46719000Y103340500D01*
G04 #@! TO.N,/Mosfet driver/H1_LOW*
X78400000Y107900000D02*
X93264337Y107900000D01*
X71100000Y104500000D02*
X71700000Y105100000D01*
X71700000Y105100000D02*
X75600000Y105100000D01*
X93264337Y107900000D02*
X93523837Y108159500D01*
X75600000Y105100000D02*
X78400000Y107900000D01*
G04 #@! TO.N,/Mosfet driver/H3_LOW*
X96200000Y101800000D02*
X72800000Y101800000D01*
X72800000Y101800000D02*
X71100000Y100100000D01*
G04 #@! TO.N,SPI1_SENSOR_CS*
X51247885Y101759500D02*
X55999975Y101759500D01*
X50433496Y102573889D02*
X51247885Y101759500D01*
X55999975Y101759500D02*
X56535424Y102294949D01*
G04 #@! TO.N,SPI1_SCK*
X51119222Y103092080D02*
X51811302Y102400000D01*
X51811302Y102400000D02*
X55665494Y102400000D01*
X55665494Y102400000D02*
X55684994Y102419500D01*
G04 #@! TO.N,/MCU/L3*
X55700000Y107300000D02*
X50249159Y107300000D01*
X50249159Y107300000D02*
X50108659Y107159500D01*
X62024403Y100975597D02*
X55700000Y107300000D01*
X63429857Y100975597D02*
X62024403Y100975597D01*
G04 #@! TO.N,/MCU/L2*
X61904043Y101795957D02*
X55700000Y108000000D01*
X55700000Y108000000D02*
X49710320Y108000000D01*
X63686283Y101795957D02*
X61904043Y101795957D01*
X49710320Y108000000D02*
X49550820Y107840500D01*
G04 #@! TO.N,/MCU/L1*
X63483663Y102783663D02*
X61666875Y102783663D01*
X61666875Y102783663D02*
X55950538Y108500000D01*
X55950538Y108500000D02*
X48950820Y108500000D01*
X48950820Y108500000D02*
X48891320Y108440500D01*
G04 #@! TO.N,/MCU/DC_CAL*
X46747292Y109447292D02*
X48000000Y110700000D01*
X62800000Y106100000D02*
X62800000Y105800000D01*
X44987350Y109447292D02*
X46747292Y109447292D01*
X43119500Y107579442D02*
X44987350Y109447292D01*
X58200000Y110700000D02*
X62800000Y106100000D01*
X43119500Y107470500D02*
X43119500Y107579442D01*
X48000000Y110700000D02*
X58200000Y110700000D01*
G04 #@! TO.N,/MCU/EN_GATE*
X50551580Y103751580D02*
X50300000Y103500000D01*
X66234451Y103932875D02*
X66825364Y103341962D01*
X62049462Y100300000D02*
X59149462Y103200000D01*
X66825364Y103341962D02*
X66825364Y100725364D01*
X66825364Y100725364D02*
X66400000Y100300000D01*
X52089231Y103200000D02*
X51537651Y103751580D01*
X59149462Y103200000D02*
X52089231Y103200000D01*
X51537651Y103751580D02*
X50551580Y103751580D01*
X66400000Y100300000D02*
X62049462Y100300000D01*
G04 #@! TO.N,/MCU/H3*
X66102317Y101097683D02*
X63522495Y103677505D01*
X66102374Y101097683D02*
X66102317Y101097683D01*
X56001076Y109100000D02*
X48500000Y109100000D01*
X61423571Y103677505D02*
X56001076Y109100000D01*
X48500000Y109100000D02*
X47267292Y107867292D01*
X47267292Y107867292D02*
X46212099Y107867292D01*
X63522495Y103677505D02*
X61423571Y103677505D01*
G04 #@! TO.N,/MCU/H2*
X61614109Y104137505D02*
X56151614Y109600000D01*
X45938718Y108527292D02*
X45352638Y107941212D01*
X66009972Y102090028D02*
X63962495Y104137505D01*
X45352638Y107941212D02*
X45352638Y107858843D01*
X56151614Y109600000D02*
X48300000Y109600000D01*
X47227292Y108527292D02*
X45938718Y108527292D01*
X66095286Y102090028D02*
X66009972Y102090028D01*
X63962495Y104137505D02*
X61614109Y104137505D01*
X48300000Y109600000D02*
X47227292Y108527292D01*
G04 #@! TO.N,/MCU/H1*
X56204647Y110197505D02*
X48197505Y110197505D01*
X48197505Y110197505D02*
X46987292Y108987292D01*
X66165364Y102996264D02*
X64564123Y104597505D01*
X46987292Y108987292D02*
X45460731Y108987292D01*
X45460731Y108987292D02*
X44512172Y108038733D01*
X61804647Y104597505D02*
X56204647Y110197505D01*
X64564123Y104597505D02*
X61804647Y104597505D01*
G04 #@! TO.N,SENSOR_IRQ*
X51308012Y100900000D02*
X54800000Y100900000D01*
X50308012Y101900000D02*
X51308012Y100900000D01*
X49900000Y101900000D02*
X50308012Y101900000D01*
G04 #@! TO.N,/MCU/FAULT*
X43500000Y100500000D02*
X44200000Y101200000D01*
X44200000Y104600000D02*
X42460000Y106340000D01*
X47700000Y111200000D02*
X60100000Y111200000D01*
X42460000Y107744381D02*
X44622911Y109907292D01*
X60100000Y111200000D02*
X62900000Y108400000D01*
X44622911Y109907292D02*
X46407292Y109907292D01*
X42460000Y106340000D02*
X42460000Y107744381D01*
X46407292Y109907292D02*
X47700000Y111200000D01*
X44200000Y101200000D02*
X44200000Y104600000D01*
G04 #@! TO.N,/MCU/PC3*
X30500000Y96800000D02*
X30500000Y103995000D01*
X48061696Y99438304D02*
X47838304Y99438304D01*
X31520000Y95780000D02*
X30500000Y96800000D01*
X44180000Y95780000D02*
X31520000Y95780000D01*
X30500000Y103995000D02*
X32000000Y105495000D01*
X47838304Y99438304D02*
X44180000Y95780000D01*
G04 #@! TO.N,/MCU/PC8*
X39140500Y111759500D02*
X38100000Y112800000D01*
X38100000Y112800000D02*
X34800000Y112800000D01*
X33160000Y104115000D02*
X32000000Y102955000D01*
X33160000Y111160000D02*
X33160000Y104115000D01*
X46393785Y111759500D02*
X39140500Y111759500D01*
X34800000Y112800000D02*
X33160000Y111160000D01*
G04 #@! TO.N,/MCU/PC9*
X34000000Y111305000D02*
X34000000Y102415000D01*
X39000000Y111100000D02*
X37800000Y112300000D01*
X37800000Y112300000D02*
X34995000Y112300000D01*
X34995000Y112300000D02*
X34000000Y111305000D01*
X45709440Y111100000D02*
X39000000Y111100000D01*
X34000000Y102415000D02*
X32000000Y100415000D01*
G04 #@! TO.N,/MCU/BOOT0*
X41100000Y106300000D02*
X41100000Y109900000D01*
X40500000Y110500000D02*
X38024500Y110500000D01*
X38024500Y110500000D02*
X37180000Y111344500D01*
X42841854Y104558146D02*
X41100000Y106300000D01*
X41100000Y109900000D02*
X40500000Y110500000D01*
X42841854Y102090820D02*
X42841854Y104558146D01*
G04 #@! TO.N,/Mosfet driver/DVDD*
X67152235Y100119561D02*
X67300000Y100267326D01*
X66000000Y105100000D02*
X62355500Y105100000D01*
X62355500Y105100000D02*
X60700000Y106755500D01*
X67300000Y100267326D02*
X67300000Y103800000D01*
X67300000Y103800000D02*
X66000000Y105100000D01*
G04 #@! TO.N,TEMPERATURE*
X77370241Y97670241D02*
X76329759Y97670241D01*
X70526207Y98400000D02*
X69660690Y99265517D01*
X75600000Y98400000D02*
X70526207Y98400000D01*
X76329759Y97670241D02*
X75600000Y98400000D01*
G04 #@! TD*
G04 #@! TA.AperFunction,Conductor*
G04 #@! TO.N,/Mosfet driver/H3_VS*
G36*
X106883691Y101731093D02*
G01*
X106919655Y101681593D01*
X106924500Y101651000D01*
X106924500Y96592180D01*
X106905593Y96533989D01*
X106856093Y96498025D01*
X106794907Y96498025D01*
X106765233Y96513638D01*
X106677625Y96580861D01*
X106543709Y96636331D01*
X106416717Y96653049D01*
X106400000Y96655250D01*
X106399999Y96655250D01*
X106256290Y96636331D01*
X106122375Y96580861D01*
X106007378Y96492622D01*
X105919139Y96377625D01*
X105863669Y96243710D01*
X105853737Y96168268D01*
X105827395Y96113043D01*
X105773624Y96083849D01*
X105712962Y96091835D01*
X105695672Y96102378D01*
X105681642Y96113043D01*
X105411119Y96318690D01*
X105324751Y96370656D01*
X105097451Y96507418D01*
X105097447Y96507420D01*
X105095162Y96508795D01*
X105050223Y96529586D01*
X104762944Y96662496D01*
X104762938Y96662499D01*
X104760503Y96663625D01*
X104757969Y96664479D01*
X104757956Y96664484D01*
X104413596Y96780512D01*
X104413588Y96780515D01*
X104411066Y96781364D01*
X104408453Y96781940D01*
X104408450Y96781940D01*
X104070669Y96856291D01*
X104050948Y96860632D01*
X104048286Y96860922D01*
X104048277Y96860923D01*
X103687031Y96900211D01*
X103687023Y96900212D01*
X103684370Y96900500D01*
X103315630Y96900500D01*
X103312977Y96900212D01*
X103312968Y96900211D01*
X102951722Y96860923D01*
X102951710Y96860922D01*
X102949052Y96860632D01*
X102946423Y96860054D01*
X102946421Y96860053D01*
X102591549Y96781940D01*
X102591542Y96781939D01*
X102588934Y96781364D01*
X102586416Y96780516D01*
X102586403Y96780512D01*
X102242043Y96664484D01*
X102242024Y96664477D01*
X102239497Y96663625D01*
X102237067Y96662501D01*
X102237055Y96662496D01*
X101907264Y96509918D01*
X101907254Y96509914D01*
X101904838Y96508795D01*
X101902559Y96507425D01*
X101902548Y96507418D01*
X101591175Y96320071D01*
X101591165Y96320065D01*
X101588881Y96318690D01*
X101586754Y96317074D01*
X101586745Y96317067D01*
X101297470Y96097165D01*
X101295330Y96095538D01*
X101293393Y96093704D01*
X101293381Y96093693D01*
X101029576Y95843803D01*
X101029568Y95843796D01*
X101027627Y95841956D01*
X101025899Y95839923D01*
X101025886Y95839908D01*
X100790648Y95562964D01*
X100790641Y95562956D01*
X100788910Y95560917D01*
X100787411Y95558707D01*
X100787401Y95558693D01*
X100777063Y95543444D01*
X100728758Y95505890D01*
X100695121Y95500000D01*
X89612514Y95500000D01*
X89554323Y95518907D01*
X89533972Y95538732D01*
X89492619Y95592623D01*
X89426042Y95643709D01*
X89377625Y95680861D01*
X89338401Y95697108D01*
X89243709Y95736331D01*
X89116717Y95753049D01*
X89100000Y95755250D01*
X89099999Y95755250D01*
X88956290Y95736331D01*
X88822375Y95680861D01*
X88707380Y95592623D01*
X88666028Y95538732D01*
X88615603Y95504077D01*
X88587486Y95500000D01*
X85642071Y95500000D01*
X85583880Y95518907D01*
X85547916Y95568407D01*
X85543918Y95586077D01*
X85536330Y95643711D01*
X85509957Y95707379D01*
X85480861Y95777625D01*
X85430081Y95843803D01*
X85392621Y95892622D01*
X85309645Y95956291D01*
X85277625Y95980861D01*
X85238401Y95997108D01*
X85143709Y96036331D01*
X85000000Y96055250D01*
X84856290Y96036331D01*
X84722375Y95980861D01*
X84607378Y95892622D01*
X84519139Y95777625D01*
X84463669Y95643711D01*
X84456082Y95586077D01*
X84429741Y95530852D01*
X84375970Y95501658D01*
X84357929Y95500000D01*
X78899000Y95500000D01*
X78840809Y95518907D01*
X78804845Y95568407D01*
X78800000Y95599000D01*
X78800000Y95955701D01*
X78818907Y96013892D01*
X78838730Y96034241D01*
X78889085Y96072879D01*
X78977325Y96187875D01*
X79032794Y96321791D01*
X79051714Y96465500D01*
X79032794Y96609209D01*
X78977325Y96743125D01*
X78933204Y96800623D01*
X78889086Y96858121D01*
X78838732Y96896759D01*
X78804077Y96947184D01*
X78800000Y96975301D01*
X78800000Y97000001D01*
X79444750Y97000001D01*
X79463669Y96856291D01*
X79494467Y96781940D01*
X79519139Y96722375D01*
X79551334Y96680418D01*
X79607378Y96607379D01*
X79657306Y96569068D01*
X79722375Y96519139D01*
X79817067Y96479917D01*
X79856290Y96463670D01*
X79873008Y96461469D01*
X80000000Y96444750D01*
X80143709Y96463670D01*
X80277625Y96519139D01*
X80392621Y96607379D01*
X80480861Y96722375D01*
X80536330Y96856291D01*
X80555250Y97000000D01*
X81244750Y97000000D01*
X81263669Y96856291D01*
X81294467Y96781940D01*
X81319139Y96722375D01*
X81351334Y96680418D01*
X81407378Y96607379D01*
X81457306Y96569068D01*
X81522375Y96519139D01*
X81617067Y96479917D01*
X81656290Y96463670D01*
X81673008Y96461469D01*
X81800000Y96444750D01*
X81943709Y96463670D01*
X82077625Y96519139D01*
X82192621Y96607379D01*
X82243201Y96673296D01*
X98271456Y96673296D01*
X98290375Y96529586D01*
X98305687Y96492621D01*
X98345845Y96395670D01*
X98365039Y96370656D01*
X98434084Y96280674D01*
X98482257Y96243710D01*
X98549081Y96192434D01*
X98629000Y96159331D01*
X98682996Y96136965D01*
X98699714Y96134764D01*
X98826706Y96118045D01*
X98970415Y96136965D01*
X99104331Y96192434D01*
X99219327Y96280674D01*
X99307567Y96395670D01*
X99363036Y96529586D01*
X99381956Y96673295D01*
X99363036Y96817004D01*
X99307567Y96950920D01*
X99253984Y97020750D01*
X99219327Y97065917D01*
X99154258Y97115845D01*
X99104331Y97154156D01*
X99065107Y97170403D01*
X98970415Y97209626D01*
X98826706Y97228545D01*
X98682996Y97209626D01*
X98549081Y97154156D01*
X98434084Y97065917D01*
X98345845Y96950920D01*
X98290375Y96817005D01*
X98271456Y96673296D01*
X82243201Y96673296D01*
X82280861Y96722375D01*
X82336330Y96856291D01*
X82355250Y97000000D01*
X82336330Y97143709D01*
X82280861Y97277625D01*
X82220498Y97356291D01*
X82192621Y97392622D01*
X82127552Y97442550D01*
X82077625Y97480861D01*
X82031416Y97500001D01*
X83244750Y97500001D01*
X83263669Y97356291D01*
X83296254Y97277625D01*
X83319139Y97222375D01*
X83357450Y97172448D01*
X83407378Y97107379D01*
X83457306Y97069068D01*
X83522375Y97019139D01*
X83617067Y96979917D01*
X83656290Y96963670D01*
X83673008Y96961469D01*
X83800000Y96944750D01*
X83943709Y96963670D01*
X84077625Y97019139D01*
X84192621Y97107379D01*
X84280861Y97222375D01*
X84336330Y97356291D01*
X84355250Y97500000D01*
X84336330Y97643709D01*
X84280861Y97777625D01*
X84230932Y97842694D01*
X84192621Y97892622D01*
X84127552Y97942550D01*
X84077625Y97980861D01*
X84047287Y97993428D01*
X83943710Y98036331D01*
X83846918Y98049073D01*
X83825845Y98051848D01*
X83804900Y98061838D01*
X83774153Y98051848D01*
X83763304Y98050419D01*
X83656290Y98036331D01*
X83522375Y97980861D01*
X83407378Y97892622D01*
X83319139Y97777625D01*
X83263669Y97643710D01*
X83244750Y97500001D01*
X82031416Y97500001D01*
X81943709Y97536331D01*
X81800000Y97555250D01*
X81656290Y97536331D01*
X81522375Y97480861D01*
X81407378Y97392622D01*
X81319139Y97277625D01*
X81263669Y97143710D01*
X81244750Y97000000D01*
X80555250Y97000000D01*
X80536330Y97143709D01*
X80480861Y97277625D01*
X80420498Y97356291D01*
X80392621Y97392622D01*
X80327552Y97442550D01*
X80277625Y97480861D01*
X80231416Y97500001D01*
X80143709Y97536331D01*
X80000000Y97555250D01*
X79856290Y97536331D01*
X79722375Y97480861D01*
X79607378Y97392622D01*
X79519139Y97277625D01*
X79463669Y97143710D01*
X79444750Y97000001D01*
X78800000Y97000001D01*
X78800000Y98800000D01*
X79444750Y98800000D01*
X79463669Y98656291D01*
X79472969Y98633840D01*
X79519139Y98522375D01*
X79557450Y98472448D01*
X79607378Y98407379D01*
X79657306Y98369068D01*
X79722375Y98319139D01*
X79817067Y98279917D01*
X79856290Y98263670D01*
X79873008Y98261469D01*
X80000000Y98244750D01*
X80143709Y98263670D01*
X80277625Y98319139D01*
X80392621Y98407379D01*
X80480861Y98522375D01*
X80536330Y98656291D01*
X80555250Y98800000D01*
X81244750Y98800000D01*
X81263669Y98656291D01*
X81272969Y98633840D01*
X81319139Y98522375D01*
X81357450Y98472448D01*
X81407378Y98407379D01*
X81457306Y98369068D01*
X81522375Y98319139D01*
X81617067Y98279917D01*
X81656290Y98263670D01*
X81673008Y98261469D01*
X81800000Y98244750D01*
X81943709Y98263670D01*
X82077625Y98319139D01*
X82192621Y98407379D01*
X82280861Y98522375D01*
X82336330Y98656291D01*
X82355250Y98800000D01*
X82355250Y98800001D01*
X83244750Y98800001D01*
X83263669Y98656291D01*
X83272969Y98633840D01*
X83319139Y98522375D01*
X83357450Y98472448D01*
X83407378Y98407379D01*
X83457306Y98369068D01*
X83522375Y98319139D01*
X83617067Y98279917D01*
X83656290Y98263670D01*
X83719270Y98255379D01*
X83774153Y98248153D01*
X83795098Y98238163D01*
X83825844Y98248153D01*
X83902662Y98258267D01*
X83943710Y98263670D01*
X83974046Y98276237D01*
X84077625Y98319139D01*
X84192621Y98407379D01*
X84280861Y98522375D01*
X84301642Y98572546D01*
X104225747Y98572546D01*
X104244666Y98428837D01*
X104283889Y98334145D01*
X104300136Y98294921D01*
X104324116Y98263670D01*
X104388375Y98179925D01*
X104438303Y98141614D01*
X104503372Y98091685D01*
X104591335Y98055250D01*
X104637287Y98036216D01*
X104656206Y98033726D01*
X104780997Y98017296D01*
X104924706Y98036216D01*
X105058622Y98091685D01*
X105173618Y98179925D01*
X105261858Y98294921D01*
X105317327Y98428837D01*
X105336247Y98572546D01*
X105328177Y98633842D01*
X105339327Y98694000D01*
X105383709Y98736118D01*
X105439254Y98744914D01*
X105440497Y98744750D01*
X105584206Y98763670D01*
X105718122Y98819139D01*
X105833118Y98907379D01*
X105921358Y99022375D01*
X105976827Y99156291D01*
X105995747Y99300000D01*
X105976827Y99443709D01*
X105921358Y99577625D01*
X105871429Y99642694D01*
X105833118Y99692622D01*
X105718122Y99780861D01*
X105681058Y99796213D01*
X105634533Y99835950D01*
X105620249Y99895445D01*
X105643664Y99951972D01*
X105681057Y99979141D01*
X105777625Y100019139D01*
X105892621Y100107379D01*
X105980861Y100222375D01*
X106036330Y100356291D01*
X106055250Y100500000D01*
X106036330Y100643709D01*
X105980861Y100777625D01*
X105930152Y100843710D01*
X105892621Y100892622D01*
X105827552Y100942550D01*
X105777625Y100980861D01*
X105738401Y100997108D01*
X105643709Y101036331D01*
X105516717Y101053049D01*
X105500000Y101055250D01*
X105499999Y101055250D01*
X105356290Y101036331D01*
X105222375Y100980861D01*
X105107378Y100892622D01*
X105019139Y100777625D01*
X104963669Y100643710D01*
X104944750Y100500001D01*
X104963669Y100356291D01*
X105002892Y100261599D01*
X105019139Y100222375D01*
X105057450Y100172448D01*
X105107378Y100107379D01*
X105195618Y100039671D01*
X105222375Y100019139D01*
X105259437Y100003788D01*
X105305963Y99964052D01*
X105320247Y99904557D01*
X105296833Y99848029D01*
X105259438Y99820860D01*
X105162871Y99780861D01*
X105047875Y99692622D01*
X104959636Y99577625D01*
X104904166Y99443710D01*
X104885247Y99300000D01*
X104893316Y99238706D01*
X104882166Y99178546D01*
X104837783Y99136429D01*
X104782241Y99127633D01*
X104780997Y99127796D01*
X104780996Y99127796D01*
X104637287Y99108877D01*
X104503372Y99053407D01*
X104388375Y98965168D01*
X104300136Y98850171D01*
X104244666Y98716256D01*
X104225747Y98572546D01*
X84301642Y98572546D01*
X84336330Y98656291D01*
X84355250Y98800000D01*
X84336330Y98943709D01*
X84280861Y99077625D01*
X84220498Y99156291D01*
X84192621Y99192622D01*
X84127552Y99242550D01*
X84077625Y99280861D01*
X84031419Y99300000D01*
X83943709Y99336331D01*
X83800000Y99355250D01*
X83656290Y99336331D01*
X83522375Y99280861D01*
X83407378Y99192622D01*
X83319139Y99077625D01*
X83263669Y98943710D01*
X83244750Y98800001D01*
X82355250Y98800001D01*
X82336330Y98943709D01*
X82280861Y99077625D01*
X82220498Y99156291D01*
X82192621Y99192622D01*
X82127552Y99242550D01*
X82077625Y99280861D01*
X82031419Y99300000D01*
X81943709Y99336331D01*
X81816717Y99353049D01*
X81800000Y99355250D01*
X81799999Y99355250D01*
X81656290Y99336331D01*
X81522375Y99280861D01*
X81407378Y99192622D01*
X81319139Y99077625D01*
X81263669Y98943710D01*
X81244750Y98800000D01*
X80555250Y98800000D01*
X80536330Y98943709D01*
X80480861Y99077625D01*
X80420498Y99156291D01*
X80392621Y99192622D01*
X80327552Y99242550D01*
X80277625Y99280861D01*
X80231419Y99300000D01*
X80143709Y99336331D01*
X80000000Y99355250D01*
X79856290Y99336331D01*
X79722375Y99280861D01*
X79607378Y99192622D01*
X79519139Y99077625D01*
X79463669Y98943710D01*
X79444750Y98800000D01*
X78800000Y98800000D01*
X78800000Y100700001D01*
X79444750Y100700001D01*
X79463669Y100556291D01*
X79486986Y100500000D01*
X79519139Y100422375D01*
X79557450Y100372448D01*
X79607378Y100307379D01*
X79657306Y100269068D01*
X79722375Y100219139D01*
X79817067Y100179917D01*
X79856290Y100163670D01*
X79873008Y100161469D01*
X80000000Y100144750D01*
X80143709Y100163670D01*
X80277625Y100219139D01*
X80392621Y100307379D01*
X80480861Y100422375D01*
X80536330Y100556291D01*
X80555250Y100700000D01*
X80555250Y100700001D01*
X81244750Y100700001D01*
X81263669Y100556291D01*
X81286986Y100500000D01*
X81319139Y100422375D01*
X81357450Y100372448D01*
X81407378Y100307379D01*
X81457306Y100269068D01*
X81522375Y100219139D01*
X81617067Y100179917D01*
X81656290Y100163670D01*
X81675210Y100161180D01*
X81800000Y100144750D01*
X81943709Y100163670D01*
X82077625Y100219139D01*
X82192621Y100307379D01*
X82280861Y100422375D01*
X82336330Y100556291D01*
X82355250Y100700000D01*
X82355250Y100700001D01*
X83244750Y100700001D01*
X83263669Y100556291D01*
X83286986Y100500000D01*
X83319139Y100422375D01*
X83357450Y100372448D01*
X83407378Y100307379D01*
X83457306Y100269068D01*
X83522375Y100219139D01*
X83617067Y100179917D01*
X83656290Y100163670D01*
X83673008Y100161469D01*
X83800000Y100144750D01*
X83943709Y100163670D01*
X84077625Y100219139D01*
X84192621Y100307379D01*
X84280861Y100422375D01*
X84336330Y100556291D01*
X84355250Y100700000D01*
X84336330Y100843709D01*
X84280861Y100977625D01*
X84221297Y101055250D01*
X84192621Y101092622D01*
X84127552Y101142550D01*
X84077625Y101180861D01*
X84038401Y101197108D01*
X83943709Y101236331D01*
X83837007Y101250378D01*
X83822048Y101252348D01*
X83801964Y101261928D01*
X83777951Y101252348D01*
X83764540Y101250582D01*
X83656290Y101236331D01*
X83522375Y101180861D01*
X83407378Y101092622D01*
X83319139Y100977625D01*
X83263669Y100843710D01*
X83244750Y100700001D01*
X82355250Y100700001D01*
X82336330Y100843709D01*
X82280861Y100977625D01*
X82221297Y101055250D01*
X82192621Y101092622D01*
X82127552Y101142550D01*
X82077625Y101180861D01*
X82038401Y101197108D01*
X81943709Y101236331D01*
X81837007Y101250378D01*
X81822048Y101252348D01*
X81801964Y101261928D01*
X81777951Y101252348D01*
X81764540Y101250582D01*
X81656290Y101236331D01*
X81522375Y101180861D01*
X81407378Y101092622D01*
X81319139Y100977625D01*
X81263669Y100843710D01*
X81244750Y100700001D01*
X80555250Y100700001D01*
X80536330Y100843709D01*
X80480861Y100977625D01*
X80421297Y101055250D01*
X80392621Y101092622D01*
X80327552Y101142550D01*
X80277625Y101180861D01*
X80238401Y101197108D01*
X80143709Y101236331D01*
X80037007Y101250378D01*
X80022048Y101252348D01*
X80001964Y101261928D01*
X79977951Y101252348D01*
X79964540Y101250582D01*
X79856290Y101236331D01*
X79722375Y101180861D01*
X79607378Y101092622D01*
X79519139Y100977625D01*
X79463669Y100843710D01*
X79444750Y100700001D01*
X78800000Y100700001D01*
X78800000Y101350500D01*
X78818907Y101408691D01*
X78868407Y101444655D01*
X78899000Y101449500D01*
X79965029Y101449500D01*
X79995713Y101439531D01*
X80034971Y101449500D01*
X81765029Y101449500D01*
X81795713Y101439531D01*
X81834971Y101449500D01*
X83765029Y101449500D01*
X83795713Y101439531D01*
X83834971Y101449500D01*
X95726237Y101449500D01*
X95784428Y101430593D01*
X95804776Y101410771D01*
X95807379Y101407379D01*
X95807380Y101407378D01*
X95922375Y101319139D01*
X96056290Y101263670D01*
X96073008Y101261469D01*
X96200000Y101244750D01*
X96343709Y101263670D01*
X96477625Y101319139D01*
X96592621Y101407379D01*
X96680861Y101522375D01*
X96723763Y101625954D01*
X96736330Y101656290D01*
X96737335Y101663923D01*
X96763676Y101719148D01*
X96817447Y101748342D01*
X96835488Y101750000D01*
X106825500Y101750000D01*
X106883691Y101731093D01*
G37*
G04 #@! TD.AperFunction*
G04 #@! TD*
G04 #@! TA.AperFunction,Conductor*
G04 #@! TO.N,/Mosfet driver/H2_VS*
G36*
X106883691Y107681093D02*
G01*
X106919655Y107631593D01*
X106924500Y107601000D01*
X106924500Y102199000D01*
X106905593Y102140809D01*
X106856093Y102104845D01*
X106825500Y102100000D01*
X96712514Y102100000D01*
X96654323Y102118907D01*
X96633972Y102138732D01*
X96592619Y102192623D01*
X96518495Y102249500D01*
X96477625Y102280861D01*
X96438401Y102297108D01*
X96343709Y102336331D01*
X96200000Y102355250D01*
X96056290Y102336331D01*
X95922375Y102280862D01*
X95807380Y102192623D01*
X95804778Y102189231D01*
X95754353Y102154576D01*
X95726237Y102150500D01*
X78899000Y102150500D01*
X78840809Y102169407D01*
X78804845Y102218907D01*
X78800000Y102249500D01*
X78800000Y103100001D01*
X79444750Y103100001D01*
X79463669Y102956291D01*
X79502892Y102861599D01*
X79519139Y102822375D01*
X79557450Y102772448D01*
X79607378Y102707379D01*
X79657306Y102669068D01*
X79722375Y102619139D01*
X79817067Y102579917D01*
X79856290Y102563670D01*
X79873008Y102561469D01*
X80000000Y102544750D01*
X80143709Y102563670D01*
X80277625Y102619139D01*
X80392621Y102707379D01*
X80480861Y102822375D01*
X80536330Y102956291D01*
X80555250Y103100000D01*
X80555250Y103100001D01*
X81244750Y103100001D01*
X81263669Y102956291D01*
X81302892Y102861599D01*
X81319139Y102822375D01*
X81357450Y102772448D01*
X81407378Y102707379D01*
X81457306Y102669068D01*
X81522375Y102619139D01*
X81617067Y102579917D01*
X81656290Y102563670D01*
X81673008Y102561469D01*
X81800000Y102544750D01*
X81943709Y102563670D01*
X82077625Y102619139D01*
X82192621Y102707379D01*
X82280861Y102822375D01*
X82336330Y102956291D01*
X82355250Y103100000D01*
X82355250Y103100001D01*
X83244750Y103100001D01*
X83263669Y102956291D01*
X83302892Y102861599D01*
X83319139Y102822375D01*
X83357450Y102772448D01*
X83407378Y102707379D01*
X83457306Y102669068D01*
X83522375Y102619139D01*
X83617067Y102579917D01*
X83656290Y102563670D01*
X83675210Y102561180D01*
X83800000Y102544750D01*
X83943709Y102563670D01*
X84077625Y102619139D01*
X84192621Y102707379D01*
X84280861Y102822375D01*
X84336330Y102956291D01*
X84355250Y103100000D01*
X94544750Y103100000D01*
X94563669Y102956291D01*
X94602892Y102861599D01*
X94619139Y102822375D01*
X94657450Y102772448D01*
X94707378Y102707379D01*
X94757306Y102669068D01*
X94822375Y102619139D01*
X94917067Y102579917D01*
X94956290Y102563670D01*
X94973008Y102561469D01*
X95100000Y102544750D01*
X95243709Y102563670D01*
X95377625Y102619139D01*
X95492621Y102707379D01*
X95580861Y102822375D01*
X95636330Y102956291D01*
X95642085Y103000001D01*
X98944750Y103000001D01*
X98963669Y102856291D01*
X98977718Y102822375D01*
X99019139Y102722375D01*
X99030646Y102707379D01*
X99107378Y102607379D01*
X99157306Y102569068D01*
X99222375Y102519139D01*
X99317067Y102479917D01*
X99356290Y102463670D01*
X99373008Y102461469D01*
X99500000Y102444750D01*
X99643709Y102463670D01*
X99777625Y102519139D01*
X99892621Y102607379D01*
X99980861Y102722375D01*
X100036330Y102856291D01*
X100055250Y103000000D01*
X100036330Y103143709D01*
X99980861Y103277625D01*
X99904128Y103377625D01*
X99892621Y103392622D01*
X99827552Y103442550D01*
X99777625Y103480861D01*
X99738401Y103497108D01*
X99643709Y103536331D01*
X99500000Y103555250D01*
X99356290Y103536331D01*
X99222375Y103480861D01*
X99107378Y103392622D01*
X99019139Y103277625D01*
X98963669Y103143710D01*
X98944750Y103000001D01*
X95642085Y103000001D01*
X95655250Y103100000D01*
X95636330Y103243709D01*
X95580861Y103377625D01*
X95501645Y103480861D01*
X95492621Y103492622D01*
X95427552Y103542550D01*
X95377625Y103580861D01*
X95347287Y103593428D01*
X95243710Y103636331D01*
X95146918Y103649073D01*
X95125845Y103651848D01*
X95104900Y103661838D01*
X95074153Y103651848D01*
X95063304Y103650419D01*
X94956290Y103636331D01*
X94822375Y103580861D01*
X94707378Y103492622D01*
X94619139Y103377625D01*
X94563669Y103243710D01*
X94544750Y103100000D01*
X84355250Y103100000D01*
X84336330Y103243709D01*
X84280861Y103377625D01*
X84201645Y103480861D01*
X84192621Y103492622D01*
X84127552Y103542550D01*
X84077625Y103580861D01*
X84038401Y103597108D01*
X83943709Y103636331D01*
X83816717Y103653049D01*
X83800000Y103655250D01*
X83799999Y103655250D01*
X83656290Y103636331D01*
X83522375Y103580861D01*
X83407378Y103492622D01*
X83319139Y103377625D01*
X83263669Y103243710D01*
X83244750Y103100001D01*
X82355250Y103100001D01*
X82336330Y103243709D01*
X82280861Y103377625D01*
X82201645Y103480861D01*
X82192621Y103492622D01*
X82127552Y103542550D01*
X82077625Y103580861D01*
X82038401Y103597108D01*
X81943709Y103636331D01*
X81800000Y103655250D01*
X81656290Y103636331D01*
X81522375Y103580861D01*
X81407378Y103492622D01*
X81319139Y103377625D01*
X81263669Y103243710D01*
X81244750Y103100001D01*
X80555250Y103100001D01*
X80536330Y103243709D01*
X80480861Y103377625D01*
X80401645Y103480861D01*
X80392621Y103492622D01*
X80327552Y103542550D01*
X80277625Y103580861D01*
X80238401Y103597108D01*
X80143709Y103636331D01*
X80000000Y103655250D01*
X79856290Y103636331D01*
X79722375Y103580861D01*
X79607378Y103492622D01*
X79519139Y103377625D01*
X79463669Y103243710D01*
X79444750Y103100001D01*
X78800000Y103100001D01*
X78800000Y104500001D01*
X79444750Y104500001D01*
X79463669Y104356291D01*
X79502892Y104261599D01*
X79519139Y104222375D01*
X79557450Y104172448D01*
X79607378Y104107379D01*
X79657306Y104069068D01*
X79722375Y104019139D01*
X79817067Y103979917D01*
X79856290Y103963670D01*
X79873008Y103961469D01*
X80000000Y103944750D01*
X80143709Y103963670D01*
X80277625Y104019139D01*
X80392621Y104107379D01*
X80480861Y104222375D01*
X80536330Y104356291D01*
X80555250Y104500000D01*
X81244750Y104500000D01*
X81263669Y104356291D01*
X81302892Y104261599D01*
X81319139Y104222375D01*
X81357450Y104172448D01*
X81407378Y104107379D01*
X81457306Y104069068D01*
X81522375Y104019139D01*
X81617067Y103979917D01*
X81656290Y103963670D01*
X81675210Y103961180D01*
X81800000Y103944750D01*
X81943709Y103963670D01*
X82077625Y104019139D01*
X82192621Y104107379D01*
X82280861Y104222375D01*
X82336330Y104356291D01*
X82355250Y104500000D01*
X82355250Y104500001D01*
X83244750Y104500001D01*
X83263669Y104356291D01*
X83302892Y104261599D01*
X83319139Y104222375D01*
X83357450Y104172448D01*
X83407378Y104107379D01*
X83457306Y104069068D01*
X83522375Y104019139D01*
X83617067Y103979917D01*
X83656290Y103963670D01*
X83673008Y103961469D01*
X83800000Y103944750D01*
X83943709Y103963670D01*
X84077625Y104019139D01*
X84192621Y104107379D01*
X84280861Y104222375D01*
X84336330Y104356291D01*
X84342085Y104400000D01*
X94544750Y104400000D01*
X94563669Y104256291D01*
X94577718Y104222375D01*
X94619139Y104122375D01*
X94630646Y104107379D01*
X94707378Y104007379D01*
X94757306Y103969068D01*
X94822375Y103919139D01*
X94917067Y103879917D01*
X94956290Y103863670D01*
X95019270Y103855379D01*
X95074153Y103848153D01*
X95095098Y103838163D01*
X95125844Y103848153D01*
X95202662Y103858267D01*
X95243710Y103863670D01*
X95274046Y103876237D01*
X95377625Y103919139D01*
X95492621Y104007379D01*
X95580861Y104122375D01*
X95636330Y104256291D01*
X95655250Y104400000D01*
X96144750Y104400000D01*
X96163669Y104256291D01*
X96177718Y104222375D01*
X96219139Y104122375D01*
X96230646Y104107379D01*
X96307378Y104007379D01*
X96357306Y103969068D01*
X96422375Y103919139D01*
X96517067Y103879917D01*
X96556290Y103863670D01*
X96573008Y103861469D01*
X96700000Y103844750D01*
X96843709Y103863670D01*
X96977625Y103919139D01*
X97092621Y104007379D01*
X97180861Y104122375D01*
X97236330Y104256291D01*
X97255250Y104400000D01*
X97255250Y104400001D01*
X97644750Y104400001D01*
X97663669Y104256291D01*
X97677718Y104222375D01*
X97719139Y104122375D01*
X97730646Y104107379D01*
X97807378Y104007379D01*
X97857306Y103969068D01*
X97922375Y103919139D01*
X98017067Y103879917D01*
X98056290Y103863670D01*
X98073008Y103861469D01*
X98200000Y103844750D01*
X98343709Y103863670D01*
X98477625Y103919139D01*
X98592621Y104007379D01*
X98680861Y104122375D01*
X98736330Y104256291D01*
X98751847Y104374155D01*
X98761837Y104395100D01*
X98758652Y104404902D01*
X98938162Y104404902D01*
X98948153Y104374154D01*
X98963669Y104256290D01*
X99006572Y104152713D01*
X99019139Y104122375D01*
X99030646Y104107379D01*
X99107378Y104007379D01*
X99157306Y103969068D01*
X99222375Y103919139D01*
X99317067Y103879917D01*
X99356290Y103863670D01*
X99375209Y103861180D01*
X99500000Y103844750D01*
X99643709Y103863670D01*
X99777625Y103919139D01*
X99892621Y104007379D01*
X99980861Y104122375D01*
X100036330Y104256291D01*
X100055250Y104400000D01*
X100036330Y104543709D01*
X99980861Y104677625D01*
X99904128Y104777625D01*
X99892621Y104792622D01*
X99827552Y104842550D01*
X99777625Y104880861D01*
X99738401Y104897108D01*
X99643709Y104936331D01*
X99516717Y104953049D01*
X99500000Y104955250D01*
X99499999Y104955250D01*
X99356290Y104936331D01*
X99222375Y104880861D01*
X99107378Y104792622D01*
X99019139Y104677625D01*
X98963669Y104543710D01*
X98948153Y104425847D01*
X98938162Y104404902D01*
X98758652Y104404902D01*
X98751847Y104425847D01*
X98736330Y104543710D01*
X98694909Y104643709D01*
X98680861Y104677625D01*
X98604128Y104777625D01*
X98592621Y104792622D01*
X98527552Y104842550D01*
X98477625Y104880861D01*
X98438401Y104897108D01*
X98343709Y104936331D01*
X98216717Y104953049D01*
X98200000Y104955250D01*
X98199999Y104955250D01*
X98056290Y104936331D01*
X97922375Y104880861D01*
X97807378Y104792622D01*
X97719139Y104677625D01*
X97663669Y104543710D01*
X97644750Y104400001D01*
X97255250Y104400001D01*
X97236330Y104543709D01*
X97180861Y104677625D01*
X97104128Y104777625D01*
X97092621Y104792622D01*
X97027552Y104842550D01*
X96977625Y104880861D01*
X96938401Y104897108D01*
X96843709Y104936331D01*
X96700000Y104955250D01*
X96556290Y104936331D01*
X96422375Y104880861D01*
X96307378Y104792622D01*
X96219139Y104677625D01*
X96163669Y104543710D01*
X96144750Y104400000D01*
X95655250Y104400000D01*
X95636330Y104543709D01*
X95580861Y104677625D01*
X95504128Y104777625D01*
X95492621Y104792622D01*
X95427552Y104842550D01*
X95377625Y104880861D01*
X95338401Y104897108D01*
X95243709Y104936331D01*
X95100000Y104955250D01*
X94956290Y104936331D01*
X94822375Y104880861D01*
X94707378Y104792622D01*
X94619139Y104677625D01*
X94563669Y104543710D01*
X94544750Y104400000D01*
X84342085Y104400000D01*
X84355250Y104500000D01*
X84336330Y104643709D01*
X84280861Y104777625D01*
X84201645Y104880861D01*
X84192621Y104892622D01*
X84127552Y104942550D01*
X84077625Y104980861D01*
X84038401Y104997108D01*
X83943709Y105036331D01*
X83800000Y105055250D01*
X83656290Y105036331D01*
X83522375Y104980861D01*
X83407378Y104892622D01*
X83319139Y104777625D01*
X83263669Y104643710D01*
X83244750Y104500001D01*
X82355250Y104500001D01*
X82336330Y104643709D01*
X82280861Y104777625D01*
X82201645Y104880861D01*
X82192621Y104892622D01*
X82127552Y104942550D01*
X82077625Y104980861D01*
X82038401Y104997108D01*
X81943709Y105036331D01*
X81816717Y105053049D01*
X81800000Y105055250D01*
X81799999Y105055250D01*
X81656290Y105036331D01*
X81522375Y104980861D01*
X81407378Y104892622D01*
X81319139Y104777625D01*
X81263669Y104643710D01*
X81244750Y104500000D01*
X80555250Y104500000D01*
X80536330Y104643709D01*
X80480861Y104777625D01*
X80401645Y104880861D01*
X80392621Y104892622D01*
X80327552Y104942550D01*
X80277625Y104980861D01*
X80238401Y104997108D01*
X80143709Y105036331D01*
X80000000Y105055250D01*
X79856290Y105036331D01*
X79722375Y104980861D01*
X79607378Y104892622D01*
X79519139Y104777625D01*
X79463669Y104643710D01*
X79444750Y104500001D01*
X78800000Y104500001D01*
X78800000Y105800000D01*
X98944750Y105800000D01*
X98963669Y105656291D01*
X99002892Y105561599D01*
X99019139Y105522375D01*
X99057450Y105472448D01*
X99107378Y105407379D01*
X99157306Y105369068D01*
X99222375Y105319139D01*
X99317067Y105279917D01*
X99356290Y105263670D01*
X99373008Y105261469D01*
X99500000Y105244750D01*
X99643709Y105263670D01*
X99777625Y105319139D01*
X99892621Y105407379D01*
X99980861Y105522375D01*
X100036330Y105656291D01*
X100055250Y105800000D01*
X100036330Y105943709D01*
X99980861Y106077625D01*
X99930932Y106142694D01*
X99892621Y106192622D01*
X99827552Y106242550D01*
X99777625Y106280861D01*
X99738401Y106297108D01*
X99643709Y106336331D01*
X99516717Y106353049D01*
X99500000Y106355250D01*
X99499999Y106355250D01*
X99356290Y106336331D01*
X99222375Y106280861D01*
X99107378Y106192622D01*
X99019139Y106077625D01*
X98963669Y105943710D01*
X98944750Y105800000D01*
X78800000Y105800000D01*
X78800000Y106600001D01*
X79444750Y106600001D01*
X79463669Y106456291D01*
X79502892Y106361599D01*
X79519139Y106322375D01*
X79550994Y106280861D01*
X79607378Y106207379D01*
X79657306Y106169068D01*
X79722375Y106119139D01*
X79817067Y106079917D01*
X79856290Y106063670D01*
X79873008Y106061469D01*
X80000000Y106044750D01*
X80143709Y106063670D01*
X80277625Y106119139D01*
X80392621Y106207379D01*
X80480861Y106322375D01*
X80536330Y106456291D01*
X80555250Y106600000D01*
X81244750Y106600000D01*
X81263669Y106456291D01*
X81302892Y106361599D01*
X81319139Y106322375D01*
X81350994Y106280861D01*
X81407378Y106207379D01*
X81457306Y106169068D01*
X81522375Y106119139D01*
X81617067Y106079917D01*
X81656290Y106063670D01*
X81673008Y106061469D01*
X81800000Y106044750D01*
X81943709Y106063670D01*
X82077625Y106119139D01*
X82192621Y106207379D01*
X82280861Y106322375D01*
X82336330Y106456291D01*
X82355250Y106600000D01*
X82355250Y106600001D01*
X83244750Y106600001D01*
X83263669Y106456291D01*
X83302892Y106361599D01*
X83319139Y106322375D01*
X83350994Y106280861D01*
X83407378Y106207379D01*
X83457306Y106169068D01*
X83522375Y106119139D01*
X83617067Y106079917D01*
X83656290Y106063670D01*
X83675209Y106061180D01*
X83800000Y106044750D01*
X83943709Y106063670D01*
X84077625Y106119139D01*
X84192621Y106207379D01*
X84280861Y106322375D01*
X84336330Y106456291D01*
X84355250Y106600000D01*
X84336330Y106743709D01*
X84280861Y106877625D01*
X84230932Y106942694D01*
X84192621Y106992622D01*
X84127552Y107042550D01*
X84077625Y107080861D01*
X84038401Y107097108D01*
X83943709Y107136331D01*
X83816717Y107153049D01*
X83800000Y107155250D01*
X83799999Y107155250D01*
X83656290Y107136331D01*
X83522375Y107080861D01*
X83407378Y106992622D01*
X83319139Y106877625D01*
X83263669Y106743710D01*
X83244750Y106600001D01*
X82355250Y106600001D01*
X82336330Y106743709D01*
X82280861Y106877625D01*
X82230932Y106942694D01*
X82192621Y106992622D01*
X82127552Y107042550D01*
X82077625Y107080861D01*
X82038401Y107097108D01*
X81943709Y107136331D01*
X81800000Y107155250D01*
X81656290Y107136331D01*
X81522375Y107080861D01*
X81407378Y106992622D01*
X81319139Y106877625D01*
X81263669Y106743710D01*
X81244750Y106600000D01*
X80555250Y106600000D01*
X80536330Y106743709D01*
X80480861Y106877625D01*
X80430932Y106942694D01*
X80392621Y106992622D01*
X80327552Y107042550D01*
X80277625Y107080861D01*
X80238401Y107097108D01*
X80143709Y107136331D01*
X80000000Y107155250D01*
X79856290Y107136331D01*
X79722375Y107080861D01*
X79607378Y106992622D01*
X79519139Y106877625D01*
X79463669Y106743710D01*
X79444750Y106600001D01*
X78800000Y106600001D01*
X78800000Y107450500D01*
X78818907Y107508691D01*
X78868407Y107544655D01*
X78899000Y107549500D01*
X93217718Y107549500D01*
X93238034Y107547393D01*
X93249652Y107544957D01*
X93277730Y107548458D01*
X93280000Y107548740D01*
X93292245Y107549500D01*
X93293379Y107549500D01*
X93312858Y107552751D01*
X93316882Y107553339D01*
X93365730Y107559427D01*
X93365730Y107559428D01*
X93371159Y107560104D01*
X93374909Y107561306D01*
X93379716Y107563908D01*
X93379718Y107563908D01*
X93422992Y107587329D01*
X93426596Y107589184D01*
X93444700Y107598034D01*
X93501099Y107607244D01*
X93523837Y107604250D01*
X93667546Y107623170D01*
X93801462Y107678639D01*
X93802640Y107679544D01*
X93809560Y107681994D01*
X93813504Y107683627D01*
X93813589Y107683421D01*
X93860316Y107699966D01*
X93862906Y107700000D01*
X106825500Y107700000D01*
X106883691Y107681093D01*
G37*
G04 #@! TD.AperFunction*
G04 #@! TD*
G04 #@! TA.AperFunction,Conductor*
G04 #@! TO.N,/Mosfet driver/H1_VS*
G36*
X85134233Y114245603D02*
G01*
X85160542Y114237487D01*
X85379552Y114204476D01*
X85412564Y114199500D01*
X85412565Y114199500D01*
X85667436Y114199500D01*
X85696623Y114203900D01*
X85919458Y114237487D01*
X85945766Y114245603D01*
X85974946Y114250000D01*
X89353570Y114250000D01*
X89408571Y114233316D01*
X89441769Y114211133D01*
X89500252Y114199500D01*
X89500253Y114199500D01*
X92539747Y114199500D01*
X92539748Y114199500D01*
X92598231Y114211133D01*
X92631428Y114233316D01*
X92686430Y114250000D01*
X95665054Y114250000D01*
X95694233Y114245603D01*
X95720542Y114237487D01*
X95939552Y114204476D01*
X95972564Y114199500D01*
X95972565Y114199500D01*
X96227436Y114199500D01*
X96256623Y114203900D01*
X96479458Y114237487D01*
X96505766Y114245603D01*
X96534946Y114250000D01*
X100903717Y114250000D01*
X100961908Y114231093D01*
X100979171Y114215091D01*
X101025886Y114160093D01*
X101025891Y114160088D01*
X101027627Y114158044D01*
X101295330Y113904462D01*
X101588881Y113681310D01*
X101904838Y113491205D01*
X102239497Y113336375D01*
X102588934Y113218636D01*
X102949052Y113139368D01*
X103315630Y113099500D01*
X103318310Y113099500D01*
X103681690Y113099500D01*
X103684370Y113099500D01*
X104050948Y113139368D01*
X104411066Y113218636D01*
X104760503Y113336375D01*
X105095162Y113491205D01*
X105411119Y113681310D01*
X105704670Y113904462D01*
X105972373Y114158044D01*
X106020829Y114215092D01*
X106072911Y114247202D01*
X106096283Y114250000D01*
X106825500Y114250000D01*
X106883691Y114231093D01*
X106919655Y114181593D01*
X106924500Y114151000D01*
X106924500Y108099000D01*
X106905593Y108040809D01*
X106856093Y108004845D01*
X106825500Y108000000D01*
X94170976Y108000000D01*
X94112785Y108018907D01*
X94076821Y108068407D01*
X94072823Y108111922D01*
X94076878Y108142725D01*
X94079087Y108159500D01*
X94060167Y108303209D01*
X94004698Y108437125D01*
X93954769Y108502194D01*
X93916458Y108552122D01*
X93851389Y108602050D01*
X93801462Y108640361D01*
X93762238Y108656608D01*
X93667546Y108695831D01*
X93540554Y108712549D01*
X93523837Y108714750D01*
X93523836Y108714750D01*
X93380127Y108695831D01*
X93246212Y108640361D01*
X93131215Y108552122D01*
X93042976Y108437126D01*
X92990988Y108311614D01*
X92951251Y108265089D01*
X92899524Y108250500D01*
X78899000Y108250500D01*
X78840809Y108269407D01*
X78804845Y108318907D01*
X78800000Y108349500D01*
X78800000Y109200000D01*
X79444750Y109200000D01*
X79463669Y109056291D01*
X79502892Y108961599D01*
X79519139Y108922375D01*
X79557450Y108872448D01*
X79607378Y108807379D01*
X79657306Y108769068D01*
X79722375Y108719139D01*
X79817067Y108679917D01*
X79856290Y108663670D01*
X79875209Y108661180D01*
X80000000Y108644750D01*
X80143709Y108663670D01*
X80277625Y108719139D01*
X80392621Y108807379D01*
X80480861Y108922375D01*
X80536330Y109056291D01*
X80555250Y109200000D01*
X81244750Y109200000D01*
X81263669Y109056291D01*
X81302892Y108961599D01*
X81319139Y108922375D01*
X81357450Y108872448D01*
X81407378Y108807379D01*
X81457306Y108769068D01*
X81522375Y108719139D01*
X81617067Y108679917D01*
X81656290Y108663670D01*
X81673008Y108661469D01*
X81800000Y108644750D01*
X81943709Y108663670D01*
X82077625Y108719139D01*
X82192621Y108807379D01*
X82280861Y108922375D01*
X82336330Y109056291D01*
X82355250Y109200000D01*
X83244750Y109200000D01*
X83263669Y109056291D01*
X83302892Y108961599D01*
X83319139Y108922375D01*
X83357450Y108872448D01*
X83407378Y108807379D01*
X83457306Y108769068D01*
X83522375Y108719139D01*
X83617067Y108679917D01*
X83656290Y108663670D01*
X83673008Y108661469D01*
X83800000Y108644750D01*
X83943709Y108663670D01*
X84077625Y108719139D01*
X84192621Y108807379D01*
X84280861Y108922375D01*
X84336330Y109056291D01*
X84355250Y109200000D01*
X84336330Y109343709D01*
X84280861Y109477625D01*
X84230932Y109542694D01*
X84192621Y109592622D01*
X84127552Y109642550D01*
X84077625Y109680861D01*
X84038401Y109697108D01*
X83943709Y109736331D01*
X83816717Y109753049D01*
X83800000Y109755250D01*
X83799999Y109755250D01*
X83656290Y109736331D01*
X83522375Y109680861D01*
X83407378Y109592622D01*
X83319139Y109477625D01*
X83263669Y109343710D01*
X83244750Y109200000D01*
X82355250Y109200000D01*
X82336330Y109343709D01*
X82280861Y109477625D01*
X82230932Y109542694D01*
X82192621Y109592622D01*
X82127552Y109642550D01*
X82077625Y109680861D01*
X82038401Y109697108D01*
X81943709Y109736331D01*
X81800000Y109755250D01*
X81656290Y109736331D01*
X81522375Y109680861D01*
X81407378Y109592622D01*
X81319139Y109477625D01*
X81263669Y109343710D01*
X81244750Y109200000D01*
X80555250Y109200000D01*
X80536330Y109343709D01*
X80480861Y109477625D01*
X80430932Y109542694D01*
X80392621Y109592622D01*
X80327552Y109642550D01*
X80277625Y109680861D01*
X80238401Y109697108D01*
X80143709Y109736331D01*
X80000000Y109755250D01*
X79856290Y109736331D01*
X79722375Y109680861D01*
X79607378Y109592622D01*
X79519139Y109477625D01*
X79463669Y109343710D01*
X79444750Y109200000D01*
X78800000Y109200000D01*
X78800000Y111000000D01*
X79444750Y111000000D01*
X79463669Y110856291D01*
X79502892Y110761599D01*
X79519139Y110722375D01*
X79557450Y110672448D01*
X79607378Y110607379D01*
X79657306Y110569068D01*
X79722375Y110519139D01*
X79817067Y110479917D01*
X79856290Y110463670D01*
X79873008Y110461469D01*
X80000000Y110444750D01*
X80143709Y110463670D01*
X80277625Y110519139D01*
X80392621Y110607379D01*
X80480861Y110722375D01*
X80536330Y110856291D01*
X80555250Y111000000D01*
X80555250Y111000001D01*
X81244750Y111000001D01*
X81263669Y110856291D01*
X81302892Y110761599D01*
X81319139Y110722375D01*
X81357450Y110672448D01*
X81407378Y110607379D01*
X81457306Y110569068D01*
X81522375Y110519139D01*
X81617067Y110479917D01*
X81656290Y110463670D01*
X81673008Y110461469D01*
X81800000Y110444750D01*
X81943709Y110463670D01*
X82077625Y110519139D01*
X82192621Y110607379D01*
X82280861Y110722375D01*
X82336330Y110856291D01*
X82355250Y111000000D01*
X83244750Y111000000D01*
X83263669Y110856291D01*
X83302892Y110761599D01*
X83319139Y110722375D01*
X83357450Y110672448D01*
X83407378Y110607379D01*
X83457306Y110569068D01*
X83522375Y110519139D01*
X83617067Y110479917D01*
X83656290Y110463670D01*
X83673008Y110461469D01*
X83800000Y110444750D01*
X83943709Y110463670D01*
X84077625Y110519139D01*
X84192621Y110607379D01*
X84280861Y110722375D01*
X84336330Y110856291D01*
X84355250Y111000000D01*
X84336330Y111143709D01*
X84280861Y111277625D01*
X84230932Y111342694D01*
X84192621Y111392622D01*
X84127552Y111442550D01*
X84077625Y111480861D01*
X84038401Y111497108D01*
X83943709Y111536331D01*
X83816717Y111553049D01*
X83800000Y111555250D01*
X83799999Y111555250D01*
X83656290Y111536331D01*
X83522375Y111480861D01*
X83407378Y111392622D01*
X83319139Y111277625D01*
X83263669Y111143710D01*
X83244750Y111000000D01*
X82355250Y111000000D01*
X82336330Y111143709D01*
X82280861Y111277625D01*
X82230932Y111342694D01*
X82192621Y111392622D01*
X82127552Y111442550D01*
X82077625Y111480861D01*
X82038401Y111497108D01*
X81943709Y111536331D01*
X81816717Y111553049D01*
X81800000Y111555250D01*
X81799999Y111555250D01*
X81656290Y111536331D01*
X81522375Y111480861D01*
X81407378Y111392622D01*
X81319139Y111277625D01*
X81263669Y111143710D01*
X81244750Y111000001D01*
X80555250Y111000001D01*
X80536330Y111143709D01*
X80480861Y111277625D01*
X80430932Y111342694D01*
X80392621Y111392622D01*
X80327552Y111442550D01*
X80277625Y111480861D01*
X80238401Y111497108D01*
X80143709Y111536331D01*
X80000000Y111555250D01*
X79856290Y111536331D01*
X79722375Y111480861D01*
X79607378Y111392622D01*
X79519139Y111277625D01*
X79463669Y111143710D01*
X79444750Y111000000D01*
X78800000Y111000000D01*
X78800000Y112800000D01*
X79444750Y112800000D01*
X79463669Y112656291D01*
X79502831Y112561747D01*
X79519139Y112522375D01*
X79557450Y112472448D01*
X79607378Y112407379D01*
X79657306Y112369068D01*
X79722375Y112319139D01*
X79817067Y112279917D01*
X79856290Y112263670D01*
X79875209Y112261180D01*
X80000000Y112244750D01*
X80143709Y112263670D01*
X80277625Y112319139D01*
X80392621Y112407379D01*
X80480861Y112522375D01*
X80536330Y112656291D01*
X80555250Y112800000D01*
X81244750Y112800000D01*
X81263669Y112656291D01*
X81302831Y112561747D01*
X81319139Y112522375D01*
X81357450Y112472448D01*
X81407378Y112407379D01*
X81457306Y112369068D01*
X81522375Y112319139D01*
X81617067Y112279917D01*
X81656290Y112263670D01*
X81673008Y112261469D01*
X81800000Y112244750D01*
X81943709Y112263670D01*
X82077625Y112319139D01*
X82192621Y112407379D01*
X82280861Y112522375D01*
X82336330Y112656291D01*
X82355250Y112800000D01*
X83244750Y112800000D01*
X83263669Y112656291D01*
X83302831Y112561747D01*
X83319139Y112522375D01*
X83357450Y112472448D01*
X83407378Y112407379D01*
X83457306Y112369068D01*
X83522375Y112319139D01*
X83617067Y112279917D01*
X83656290Y112263670D01*
X83673008Y112261469D01*
X83800000Y112244750D01*
X83943709Y112263670D01*
X84077625Y112319139D01*
X84192621Y112407379D01*
X84280861Y112522375D01*
X84336330Y112656291D01*
X84355250Y112800000D01*
X84336330Y112943709D01*
X84280861Y113077625D01*
X84230932Y113142694D01*
X84192621Y113192622D01*
X84127552Y113242550D01*
X84077625Y113280861D01*
X84038401Y113297108D01*
X83943709Y113336331D01*
X83800000Y113355250D01*
X83656290Y113336331D01*
X83522375Y113280861D01*
X83407378Y113192622D01*
X83319139Y113077625D01*
X83263669Y112943710D01*
X83244750Y112800000D01*
X82355250Y112800000D01*
X82336330Y112943709D01*
X82280861Y113077625D01*
X82230932Y113142694D01*
X82192621Y113192622D01*
X82127552Y113242550D01*
X82077625Y113280861D01*
X82038401Y113297108D01*
X81943709Y113336331D01*
X81800000Y113355250D01*
X81656290Y113336331D01*
X81522375Y113280861D01*
X81407378Y113192622D01*
X81319139Y113077625D01*
X81263669Y112943710D01*
X81244750Y112800000D01*
X80555250Y112800000D01*
X80536330Y112943709D01*
X80480861Y113077625D01*
X80430932Y113142694D01*
X80392621Y113192622D01*
X80327552Y113242550D01*
X80277625Y113280861D01*
X80238401Y113297108D01*
X80143709Y113336331D01*
X80000000Y113355250D01*
X79856290Y113336331D01*
X79722375Y113280861D01*
X79607378Y113192622D01*
X79519139Y113077625D01*
X79463669Y112943710D01*
X79444750Y112800000D01*
X78800000Y112800000D01*
X78800000Y113515355D01*
X78818907Y113573546D01*
X78832021Y113587262D01*
X78866442Y113637749D01*
X78868559Y113640735D01*
X78902793Y113687118D01*
X78902793Y113687121D01*
X78904857Y113689916D01*
X78909450Y113699015D01*
X78910471Y113702326D01*
X78910472Y113702327D01*
X78927482Y113757478D01*
X78928590Y113760846D01*
X78947646Y113815301D01*
X78947646Y113815307D01*
X78948790Y113818575D01*
X78950500Y113828636D01*
X78950500Y113889716D01*
X78950569Y113893418D01*
X78952853Y113954466D01*
X78950500Y113972343D01*
X78950500Y114100500D01*
X78969407Y114158691D01*
X79018907Y114194655D01*
X79049500Y114199500D01*
X81979747Y114199500D01*
X81979748Y114199500D01*
X82038231Y114211133D01*
X82071428Y114233316D01*
X82126430Y114250000D01*
X85105054Y114250000D01*
X85134233Y114245603D01*
G37*
G04 #@! TD.AperFunction*
G04 #@! TD*
M02*
