G04 #@! TF.GenerationSoftware,KiCad,Pcbnew,7.0.2-6a45011f42~172~ubuntu20.04.1*
G04 #@! TF.CreationDate,2023-05-22T19:25:16+03:00*
G04 #@! TF.ProjectId,BLDC_4,424c4443-5f34-42e6-9b69-6361645f7063,rev?*
G04 #@! TF.SameCoordinates,PX40d9900PYa21fe80*
G04 #@! TF.FileFunction,Copper,L4,Bot*
G04 #@! TF.FilePolarity,Positive*
%FSLAX46Y46*%
G04 Gerber Fmt 4.6, Leading zero omitted, Abs format (unit mm)*
G04 Created by KiCad (PCBNEW 7.0.2-6a45011f42~172~ubuntu20.04.1) date 2023-05-22 19:25:16*
%MOMM*%
%LPD*%
G01*
G04 APERTURE LIST*
G04 Aperture macros list*
%AMRoundRect*
0 Rectangle with rounded corners*
0 $1 Rounding radius*
0 $2 $3 $4 $5 $6 $7 $8 $9 X,Y pos of 4 corners*
0 Add a 4 corners polygon primitive as box body*
4,1,4,$2,$3,$4,$5,$6,$7,$8,$9,$2,$3,0*
0 Add four circle primitives for the rounded corners*
1,1,$1+$1,$2,$3*
1,1,$1+$1,$4,$5*
1,1,$1+$1,$6,$7*
1,1,$1+$1,$8,$9*
0 Add four rect primitives between the rounded corners*
20,1,$1+$1,$2,$3,$4,$5,0*
20,1,$1+$1,$4,$5,$6,$7,0*
20,1,$1+$1,$6,$7,$8,$9,0*
20,1,$1+$1,$8,$9,$2,$3,0*%
G04 Aperture macros list end*
G04 #@! TA.AperFunction,ComponentPad*
%ADD10C,6.400000*%
G04 #@! TD*
G04 #@! TA.AperFunction,ComponentPad*
%ADD11O,1.000000X2.100000*%
G04 #@! TD*
G04 #@! TA.AperFunction,ComponentPad*
%ADD12O,1.000000X1.600000*%
G04 #@! TD*
G04 #@! TA.AperFunction,SMDPad,CuDef*
%ADD13RoundRect,0.218750X0.218750X0.256250X-0.218750X0.256250X-0.218750X-0.256250X0.218750X-0.256250X0*%
G04 #@! TD*
G04 #@! TA.AperFunction,ComponentPad*
%ADD14R,1.700000X1.700000*%
G04 #@! TD*
G04 #@! TA.AperFunction,ComponentPad*
%ADD15O,1.700000X1.700000*%
G04 #@! TD*
G04 #@! TA.AperFunction,SMDPad,CuDef*
%ADD16RoundRect,0.200000X0.200000X0.275000X-0.200000X0.275000X-0.200000X-0.275000X0.200000X-0.275000X0*%
G04 #@! TD*
G04 #@! TA.AperFunction,SMDPad,CuDef*
%ADD17R,0.850000X1.100000*%
G04 #@! TD*
G04 #@! TA.AperFunction,SMDPad,CuDef*
%ADD18R,0.750000X1.100000*%
G04 #@! TD*
G04 #@! TA.AperFunction,SMDPad,CuDef*
%ADD19R,1.200000X1.000000*%
G04 #@! TD*
G04 #@! TA.AperFunction,SMDPad,CuDef*
%ADD20R,1.550000X1.350000*%
G04 #@! TD*
G04 #@! TA.AperFunction,SMDPad,CuDef*
%ADD21R,1.900000X1.350000*%
G04 #@! TD*
G04 #@! TA.AperFunction,SMDPad,CuDef*
%ADD22R,1.170000X1.800000*%
G04 #@! TD*
G04 #@! TA.AperFunction,SMDPad,CuDef*
%ADD23RoundRect,0.250000X1.950000X1.000000X-1.950000X1.000000X-1.950000X-1.000000X1.950000X-1.000000X0*%
G04 #@! TD*
G04 #@! TA.AperFunction,SMDPad,CuDef*
%ADD24RoundRect,0.250000X-0.650000X0.325000X-0.650000X-0.325000X0.650000X-0.325000X0.650000X0.325000X0*%
G04 #@! TD*
G04 #@! TA.AperFunction,SMDPad,CuDef*
%ADD25RoundRect,0.250000X-1.950000X-1.000000X1.950000X-1.000000X1.950000X1.000000X-1.950000X1.000000X0*%
G04 #@! TD*
G04 #@! TA.AperFunction,ComponentPad*
%ADD26R,3.000000X3.000000*%
G04 #@! TD*
G04 #@! TA.AperFunction,ComponentPad*
%ADD27C,3.000000*%
G04 #@! TD*
G04 #@! TA.AperFunction,SMDPad,CuDef*
%ADD28RoundRect,0.250000X0.325000X0.650000X-0.325000X0.650000X-0.325000X-0.650000X0.325000X-0.650000X0*%
G04 #@! TD*
G04 #@! TA.AperFunction,SMDPad,CuDef*
%ADD29RoundRect,0.250000X0.650000X-0.325000X0.650000X0.325000X-0.650000X0.325000X-0.650000X-0.325000X0*%
G04 #@! TD*
G04 #@! TA.AperFunction,ViaPad*
%ADD30C,0.700000*%
G04 #@! TD*
G04 #@! TA.AperFunction,Conductor*
%ADD31C,1.000000*%
G04 #@! TD*
G04 #@! TA.AperFunction,Conductor*
%ADD32C,0.300000*%
G04 #@! TD*
G04 #@! TA.AperFunction,Conductor*
%ADD33C,0.500000*%
G04 #@! TD*
G04 #@! TA.AperFunction,Conductor*
%ADD34C,0.200000*%
G04 #@! TD*
G04 APERTURE END LIST*
D10*
G04 #@! TO.P,H1,1,1*
G04 #@! TO.N,GND*
X103500000Y116500000D03*
G04 #@! TD*
G04 #@! TO.P,H5,1,1*
G04 #@! TO.N,GND*
X33500000Y116500000D03*
G04 #@! TD*
G04 #@! TO.P,H2,1,1*
G04 #@! TO.N,GND*
X103500000Y93500000D03*
G04 #@! TD*
G04 #@! TO.P,H4,1,1*
G04 #@! TO.N,GND*
X73500000Y116500000D03*
G04 #@! TD*
D11*
G04 #@! TO.P,J401,S1,SHIELD*
G04 #@! TO.N,GND*
X48620000Y113895000D03*
D12*
X48620000Y118075000D03*
D11*
X39980000Y113895000D03*
D12*
X39980000Y118075000D03*
G04 #@! TD*
D10*
G04 #@! TO.P,H3,1,1*
G04 #@! TO.N,GND*
X73500000Y93500000D03*
G04 #@! TD*
D13*
G04 #@! TO.P,D1,1,K*
G04 #@! TO.N,GND*
X62175000Y101800000D03*
G04 #@! TO.P,D1,2,A*
G04 #@! TO.N,Net-(D1-A)*
X60600000Y101800000D03*
G04 #@! TD*
G04 #@! TO.P,D2,1,K*
G04 #@! TO.N,GND*
X62187500Y103400000D03*
G04 #@! TO.P,D2,2,A*
G04 #@! TO.N,Net-(D2-A)*
X60612500Y103400000D03*
G04 #@! TD*
G04 #@! TO.P,D3,1,K*
G04 #@! TO.N,GND*
X62187500Y99800000D03*
G04 #@! TO.P,D3,2,A*
G04 #@! TO.N,Net-(D3-A)*
X60612500Y99800000D03*
G04 #@! TD*
D14*
G04 #@! TO.P,P1,1,Pin_1*
G04 #@! TO.N,+5V*
X68060000Y92800000D03*
D15*
G04 #@! TO.P,P1,2,Pin_2*
G04 #@! TO.N,/Filters/WHEEL_IN*
X65520000Y92800000D03*
G04 #@! TO.P,P1,3,Pin_3*
G04 #@! TO.N,/Filters/HALL1_IN*
X62980000Y92800000D03*
G04 #@! TO.P,P1,4,Pin_4*
G04 #@! TO.N,/Filters/HALL2_IN*
X60440000Y92800000D03*
G04 #@! TO.P,P1,5,Pin_5*
G04 #@! TO.N,/Filters/HALL3_IN*
X57900000Y92800000D03*
G04 #@! TO.P,P1,6,Pin_6*
G04 #@! TO.N,GND*
X55360000Y92800000D03*
G04 #@! TD*
D14*
G04 #@! TO.P,P2,1,Pin_1*
G04 #@! TO.N,VCC*
X35600000Y110585000D03*
D15*
G04 #@! TO.P,P2,2,Pin_2*
G04 #@! TO.N,SWCLK*
X35600000Y108045000D03*
G04 #@! TO.P,P2,3,Pin_3*
G04 #@! TO.N,GND*
X35600000Y105505000D03*
G04 #@! TO.P,P2,4,Pin_4*
G04 #@! TO.N,SWDIO*
X35600000Y102965000D03*
G04 #@! TO.P,P2,5,Pin_5*
G04 #@! TO.N,NRST*
X35600000Y100425000D03*
G04 #@! TO.P,P2,6,Pin_6*
G04 #@! TO.N,TRACESWO*
X35600000Y97885000D03*
G04 #@! TD*
D14*
G04 #@! TO.P,P11,1,Pin_1*
G04 #@! TO.N,GND*
X45500000Y92800000D03*
D15*
G04 #@! TO.P,P11,2,Pin_2*
G04 #@! TO.N,+5V*
X42960000Y92800000D03*
G04 #@! TO.P,P11,3,Pin_3*
G04 #@! TO.N,/MCU/OLED_I2C_SDA*
X40420000Y92800000D03*
G04 #@! TO.P,P11,4,Pin_4*
G04 #@! TO.N,/MCU/OLED_I2C_SCL*
X37880000Y92800000D03*
G04 #@! TD*
D14*
G04 #@! TO.P,P12,1,Pin_1*
G04 #@! TO.N,/MCU/BRAKE_IN*
X51700000Y92800000D03*
D15*
G04 #@! TO.P,P12,2,Pin_2*
G04 #@! TO.N,VCC*
X49160000Y92800000D03*
G04 #@! TD*
D14*
G04 #@! TO.P,P13,1,Pin_1*
G04 #@! TO.N,/MCU/BUTTONS_IN*
X31750000Y92800000D03*
D15*
G04 #@! TO.P,P13,2,Pin_2*
G04 #@! TO.N,VCC*
X34290000Y92800000D03*
G04 #@! TD*
D14*
G04 #@! TO.P,P14,1,Pin_1*
G04 #@! TO.N,+5V*
X32000000Y110575000D03*
D15*
G04 #@! TO.P,P14,2,Pin_2*
G04 #@! TO.N,VCC*
X32000000Y108035000D03*
G04 #@! TO.P,P14,3,Pin_3*
G04 #@! TO.N,/MCU/PC3*
X32000000Y105495000D03*
G04 #@! TO.P,P14,4,Pin_4*
G04 #@! TO.N,/MCU/PC8*
X32000000Y102955000D03*
G04 #@! TO.P,P14,5,Pin_5*
G04 #@! TO.N,/MCU/PC9*
X32000000Y100415000D03*
G04 #@! TO.P,P14,6,Pin_6*
G04 #@! TO.N,GND*
X32000000Y97875000D03*
G04 #@! TD*
D16*
G04 #@! TO.P,R22,1*
G04 #@! TO.N,Net-(D3-A)*
X59225000Y99800000D03*
G04 #@! TO.P,R22,2*
G04 #@! TO.N,VCC*
X57575000Y99800000D03*
G04 #@! TD*
G04 #@! TO.P,R37,1*
G04 #@! TO.N,Net-(D1-A)*
X59250000Y101800000D03*
G04 #@! TO.P,R37,2*
G04 #@! TO.N,/MCU/LED_GREEN*
X57600000Y101800000D03*
G04 #@! TD*
G04 #@! TO.P,R38,1*
G04 #@! TO.N,Net-(D2-A)*
X59250000Y103400000D03*
G04 #@! TO.P,R38,2*
G04 #@! TO.N,/MCU/LED_RED*
X57600000Y103400000D03*
G04 #@! TD*
D17*
G04 #@! TO.P,U5,1*
G04 #@! TO.N,N/C*
X65640000Y116225000D03*
G04 #@! TO.P,U5,2,CS*
G04 #@! TO.N,SPI3_SDCARD_CS*
X64540000Y116225000D03*
G04 #@! TO.P,U5,3,MOSI*
G04 #@! TO.N,SPI3_MOSI*
X63440000Y116225000D03*
G04 #@! TO.P,U5,4,VDD*
G04 #@! TO.N,VCC*
X62340000Y116225000D03*
G04 #@! TO.P,U5,5,SCK*
G04 #@! TO.N,SPI3_SCK*
X61240000Y116225000D03*
G04 #@! TO.P,U5,6,GND*
G04 #@! TO.N,GND*
X60140000Y116225000D03*
G04 #@! TO.P,U5,7,MISO*
G04 #@! TO.N,SPI3_MISO*
X59040000Y116225000D03*
D18*
G04 #@! TO.P,U5,8*
G04 #@! TO.N,N/C*
X57990000Y116225000D03*
D19*
G04 #@! TO.P,U5,9*
X68275000Y110075000D03*
G04 #@! TO.P,U5,10*
X68275000Y106375000D03*
D20*
G04 #@! TO.P,U5,11*
X68100000Y116100000D03*
D21*
X64775000Y105400000D03*
X58805000Y105400000D03*
D22*
X56780000Y115875000D03*
G04 #@! TD*
D23*
G04 #@! TO.P,C33,1*
G04 #@! TO.N,+5V*
X51100000Y105400000D03*
G04 #@! TO.P,C33,2*
G04 #@! TO.N,GND*
X42700000Y105400000D03*
G04 #@! TD*
D24*
G04 #@! TO.P,C9,1*
G04 #@! TO.N,V_SUPPLY*
X97600000Y101000000D03*
G04 #@! TO.P,C9,2*
G04 #@! TO.N,GND*
X97600000Y98050000D03*
G04 #@! TD*
G04 #@! TO.P,C56,1*
G04 #@! TO.N,V_SUPPLY*
X79500000Y95175000D03*
G04 #@! TO.P,C56,2*
G04 #@! TO.N,GND*
X79500000Y92225000D03*
G04 #@! TD*
D25*
G04 #@! TO.P,C57,1*
G04 #@! TO.N,V_SUPPLY*
X85500000Y95400000D03*
G04 #@! TO.P,C57,2*
G04 #@! TO.N,GND*
X93900000Y95400000D03*
G04 #@! TD*
D26*
G04 #@! TO.P,J2,1,Pin_1*
G04 #@! TO.N,+5V*
X91020000Y115900000D03*
D27*
G04 #@! TO.P,J2,2,Pin_2*
G04 #@! TO.N,GND*
X96100000Y115900000D03*
G04 #@! TD*
D26*
G04 #@! TO.P,J3,1,Pin_1*
G04 #@! TO.N,V_SUPPLY*
X80460000Y115900000D03*
D27*
G04 #@! TO.P,J3,2,Pin_2*
G04 #@! TO.N,GND*
X85540000Y115900000D03*
G04 #@! TD*
D25*
G04 #@! TO.P,C59,1*
G04 #@! TO.N,V_SUPPLY*
X85500000Y106400000D03*
G04 #@! TO.P,C59,2*
G04 #@! TO.N,GND*
X93900000Y106400000D03*
G04 #@! TD*
D28*
G04 #@! TO.P,C49,1*
G04 #@! TO.N,V_SUPPLY*
X78475000Y99500000D03*
G04 #@! TO.P,C49,2*
G04 #@! TO.N,GND*
X75525000Y99500000D03*
G04 #@! TD*
D29*
G04 #@! TO.P,C50,1*
G04 #@! TO.N,V_SUPPLY*
X97600000Y93400000D03*
G04 #@! TO.P,C50,2*
G04 #@! TO.N,GND*
X97600000Y96350000D03*
G04 #@! TD*
G04 #@! TO.P,C44,1*
G04 #@! TO.N,V_SUPPLY*
X97600000Y102725000D03*
G04 #@! TO.P,C44,2*
G04 #@! TO.N,GND*
X97600000Y105675000D03*
G04 #@! TD*
D24*
G04 #@! TO.P,C54,1*
G04 #@! TO.N,V_SUPPLY*
X97600000Y110475000D03*
G04 #@! TO.P,C54,2*
G04 #@! TO.N,GND*
X97600000Y107525000D03*
G04 #@! TD*
D26*
G04 #@! TO.P,J1,1,Pin_1*
G04 #@! TO.N,/Mosfet driver/H1_VS*
X103000000Y110160000D03*
D27*
G04 #@! TO.P,J1,2,Pin_2*
G04 #@! TO.N,/Mosfet driver/H2_VS*
X103000000Y105080000D03*
G04 #@! TO.P,J1,3,Pin_3*
G04 #@! TO.N,/Mosfet driver/H3_VS*
X103000000Y100000000D03*
G04 #@! TD*
D24*
G04 #@! TO.P,C55,1*
G04 #@! TO.N,V_SUPPLY*
X81800000Y95175000D03*
G04 #@! TO.P,C55,2*
G04 #@! TO.N,GND*
X81800000Y92225000D03*
G04 #@! TD*
D23*
G04 #@! TO.P,C58,1*
G04 #@! TO.N,V_SUPPLY*
X80600000Y106400000D03*
G04 #@! TO.P,C58,2*
G04 #@! TO.N,GND*
X72200000Y106400000D03*
G04 #@! TD*
D30*
G04 #@! TO.N,GND*
X95100000Y104400000D03*
X53700000Y99800000D03*
X67100000Y105400000D03*
X99500000Y103000000D03*
X66300000Y98459500D03*
X51400000Y116600000D03*
X62900000Y109800000D03*
X65800000Y112800000D03*
X35700000Y92000000D03*
X99500000Y105800000D03*
X88200000Y119200000D03*
X60341606Y112358394D03*
X68500000Y118400000D03*
X59800000Y115100000D03*
X69500000Y105400000D03*
X60079001Y100712970D03*
X69500000Y101500000D03*
X95100000Y103100000D03*
X67100000Y111300000D03*
X31800000Y91100000D03*
X92100000Y119200000D03*
X96700000Y104400000D03*
X66600000Y90600000D03*
X64200000Y93500000D03*
X33900000Y94800000D03*
X98200000Y104400000D03*
X99600000Y118700000D03*
X57340500Y100790498D03*
X89100000Y95200000D03*
X30900000Y112200000D03*
X68000000Y101500000D03*
X44800000Y105900000D03*
X37180000Y119200000D03*
X37896837Y109700000D03*
X56000000Y112000000D03*
X106400000Y96100000D03*
X69500000Y107300000D03*
X59100000Y93600000D03*
X69500000Y104400000D03*
X61036335Y108871061D03*
X49900000Y94100000D03*
X69500000Y102900000D03*
X55329674Y106640500D03*
X75200000Y111534500D03*
X63600000Y106900000D03*
X98826706Y96673295D03*
X71100000Y102600000D03*
X79500000Y92225000D03*
X68000000Y102900000D03*
X58500000Y98459500D03*
X67100000Y107300000D03*
X68000000Y104400000D03*
X56200000Y114300000D03*
X91500000Y94000000D03*
X81800000Y92225000D03*
X50200000Y112759500D03*
X42700000Y100000000D03*
X99500000Y104400000D03*
X76788013Y99285017D03*
G04 #@! TO.N,V_SUPPLY*
X81800000Y103100000D03*
X83800000Y106600000D03*
X85000000Y95500000D03*
X83800000Y111000000D03*
X80000000Y106600000D03*
X83800000Y98800000D03*
X83800000Y103100000D03*
X73700000Y97300000D03*
X81800000Y97000000D03*
X83800000Y109200000D03*
X80000000Y97000000D03*
X80000000Y103100000D03*
X81800000Y100700000D03*
X70600000Y111200000D03*
X80000000Y100700000D03*
X78496464Y96465500D03*
X70500000Y110600000D03*
X83800000Y100700000D03*
X80000000Y98800000D03*
X81800000Y111000000D03*
X81800000Y104500000D03*
X96800000Y118700000D03*
X81800000Y112800000D03*
X83800000Y112800000D03*
X92800000Y118500000D03*
X80000000Y112800000D03*
X83800000Y104500000D03*
X80000000Y111000000D03*
X81800000Y98800000D03*
X81800000Y106600000D03*
X80000000Y104500000D03*
X80000000Y109200000D03*
X81800000Y109200000D03*
X87400000Y117500000D03*
X83800000Y97500000D03*
G04 #@! TO.N,/MCU/AN_IN*
X76762952Y113237048D03*
X47600000Y96500000D03*
G04 #@! TO.N,VCC*
X39918472Y109684887D03*
X37841951Y103274625D03*
X76580982Y98380982D03*
X49061696Y99438304D03*
X52400000Y112425000D03*
X57695223Y98761291D03*
X64700000Y118400000D03*
X69701134Y100124067D03*
X43000000Y96900000D03*
G04 #@! TO.N,/Mosfet driver/H1_VS*
X75400000Y107850168D03*
X88000000Y112750000D03*
X88000000Y111000000D03*
X92000000Y109000000D03*
X92000000Y111000000D03*
X90000000Y112750000D03*
X90000000Y111000000D03*
X88000000Y109000000D03*
X92000000Y112750000D03*
X90000000Y109000000D03*
G04 #@! TO.N,/Mosfet driver/H2_VS*
X89800000Y107200000D03*
X91200000Y103100000D03*
X91100000Y107200000D03*
X75350000Y103800000D03*
X89800000Y105100000D03*
X91200000Y105100000D03*
X88300000Y103100000D03*
X88300000Y107200000D03*
X88300000Y105100000D03*
X89800000Y103100000D03*
G04 #@! TO.N,/Mosfet driver/H3_VS*
X91600000Y97300000D03*
X88000000Y98900000D03*
X89900000Y100700000D03*
X89955000Y98905000D03*
X88000000Y97100000D03*
X91900000Y100700000D03*
X91900000Y98900000D03*
X74550000Y100700000D03*
X88000000Y100700000D03*
X89900000Y97100000D03*
G04 #@! TO.N,NRST*
X45840585Y99568290D03*
G04 #@! TO.N,+5V*
X64013806Y113481131D03*
X53308309Y114400000D03*
X67400000Y98500000D03*
X64750000Y113600000D03*
G04 #@! TO.N,/Filters/WHEEL_OUT*
X46700000Y99580500D03*
X67362500Y94980500D03*
G04 #@! TO.N,/MCU/BRAKE_IN*
X48100000Y104659500D03*
X54600000Y94980500D03*
G04 #@! TO.N,/MCU/BUTTONS_IN*
X47000000Y92300000D03*
G04 #@! TO.N,SWDIO*
X41936427Y108536427D03*
G04 #@! TO.N,/MCU/OLED_I2C_SDA*
X46059500Y104000000D03*
X39400000Y97800000D03*
G04 #@! TO.N,/MCU/OLED_I2C_SCL*
X39400000Y96900000D03*
X46719000Y103340500D03*
G04 #@! TO.N,/Mosfet driver/H1_LOW*
X71100000Y104500000D03*
X93523837Y108159500D03*
G04 #@! TO.N,/Mosfet driver/H3_LOW*
X71100000Y100100000D03*
X96200000Y101800000D03*
G04 #@! TO.N,/MCU/SENS1*
X104780997Y98572546D03*
X52100000Y96575000D03*
G04 #@! TO.N,/MCU/SENS2*
X50600000Y96575000D03*
X105440497Y99300000D03*
G04 #@! TO.N,/MCU/SENS3*
X49100000Y96575000D03*
X105500000Y100500000D03*
G04 #@! TO.N,/MCU/LED_GREEN*
X54935295Y104069500D03*
G04 #@! TO.N,/MCU/LED_RED*
X54216337Y104540500D03*
G04 #@! TO.N,SPI3_SDCARD_CS*
X48264023Y106664958D03*
G04 #@! TO.N,SPI3_MOSI*
X47423488Y106844530D03*
G04 #@! TO.N,SPI3_MISO*
X45773913Y106539343D03*
G04 #@! TO.N,SPI1_SENSOR_CS*
X50433496Y102573889D03*
X56535424Y102294949D03*
G04 #@! TO.N,SPI1_SCK*
X51119222Y103092080D03*
X55684994Y102419500D03*
G04 #@! TO.N,/MCU/L3*
X50108659Y107159500D03*
X63429857Y100975597D03*
G04 #@! TO.N,/MCU/L2*
X49550820Y107840500D03*
X63686283Y101795957D03*
G04 #@! TO.N,/MCU/L1*
X63483663Y102783663D03*
X48891320Y108440500D03*
G04 #@! TO.N,/MCU/DC_CAL*
X62800000Y105800000D03*
X43119500Y107470500D03*
G04 #@! TO.N,SPI3_SCK*
X46632442Y106498455D03*
G04 #@! TO.N,/MCU/EN_GATE*
X66234451Y103932875D03*
X50300000Y103500000D03*
G04 #@! TO.N,/MCU/H3*
X66102374Y101097683D03*
X46212099Y107867292D03*
G04 #@! TO.N,/MCU/H2*
X45352638Y107858843D03*
X66095286Y102090028D03*
G04 #@! TO.N,/MCU/H1*
X66165364Y102996264D03*
X44512172Y108038733D03*
G04 #@! TO.N,SENSOR_IRQ*
X49900000Y101900000D03*
X54800000Y100900000D03*
G04 #@! TO.N,/MCU/FAULT*
X43500000Y100500000D03*
X62900000Y108400000D03*
G04 #@! TO.N,/MCU/PC3*
X48061696Y99438304D03*
G04 #@! TO.N,/MCU/PC8*
X46393785Y111759500D03*
G04 #@! TO.N,/MCU/PC9*
X45709440Y111100000D03*
G04 #@! TO.N,/MCU/BOOT0*
X37180000Y111344500D03*
X42841854Y102090820D03*
G04 #@! TO.N,/Mosfet driver/DVDD*
X60700000Y106755500D03*
X67152235Y100119561D03*
G04 #@! TO.N,TEMPERATURE*
X52850000Y99450000D03*
X77370241Y97670241D03*
X69660690Y99265517D03*
G04 #@! TD*
D31*
G04 #@! TO.N,GND*
X81800000Y92225000D02*
X79500000Y92225000D01*
X97600000Y96350000D02*
X98503411Y96350000D01*
X97600000Y98050000D02*
X94550000Y98050000D01*
X97600000Y105675000D02*
X97600000Y104400000D01*
D32*
X62187500Y99800000D02*
X62187500Y99312500D01*
D31*
X92900000Y95400000D02*
X91500000Y94000000D01*
D32*
X44300000Y105400000D02*
X44800000Y105900000D01*
D31*
X95100000Y105200000D02*
X93900000Y106400000D01*
X95100000Y104400000D02*
X95100000Y105200000D01*
X97600000Y105675000D02*
X97600000Y107525000D01*
X97625000Y107500000D02*
X97600000Y107525000D01*
X99300000Y104400000D02*
X99500000Y104400000D01*
X99500000Y99500000D02*
X99500000Y102500000D01*
X97600000Y96350000D02*
X97600000Y98050000D01*
X96400000Y104400000D02*
X95100000Y103100000D01*
X94625000Y105675000D02*
X93900000Y106400000D01*
D33*
X75525000Y99500000D02*
X76573030Y99500000D01*
D32*
X42700000Y105400000D02*
X44300000Y105400000D01*
X63040500Y98459500D02*
X66300000Y98459500D01*
D31*
X99500000Y103100000D02*
X99500000Y102500000D01*
X97600000Y105675000D02*
X94625000Y105675000D01*
X97600000Y107525000D02*
X95025000Y107525000D01*
X93900000Y97400000D02*
X93900000Y95400000D01*
X98200000Y104400000D02*
X99500000Y103100000D01*
X97600000Y98050000D02*
X98050000Y98050000D01*
X93900000Y95400000D02*
X94300000Y95000000D01*
D33*
X69500000Y106400000D02*
X69500000Y107000000D01*
D31*
X99500000Y107500000D02*
X97625000Y107500000D01*
X97600000Y95000000D02*
X97600000Y96350000D01*
X93900000Y95400000D02*
X92900000Y95400000D01*
X94550000Y98050000D02*
X93900000Y97400000D01*
X98050000Y98050000D02*
X98750000Y98750000D01*
X94300000Y95000000D02*
X97600000Y95000000D01*
X98750000Y98750000D02*
X99500000Y99500000D01*
D32*
X60140000Y116225000D02*
X60140000Y115440000D01*
D31*
X95025000Y107525000D02*
X93900000Y106400000D01*
D32*
X62187500Y99800000D02*
X62187500Y103400000D01*
D31*
X99500000Y104400000D02*
X97600000Y104400000D01*
D33*
X76573030Y99500000D02*
X76788013Y99285017D01*
D32*
X60140000Y115440000D02*
X59800000Y115100000D01*
X62187500Y99312500D02*
X63040500Y98459500D01*
D31*
X95100000Y104400000D02*
X95100000Y103100000D01*
X98826706Y96673295D02*
X98826706Y98673294D01*
X98503411Y96350000D02*
X98826706Y96673295D01*
X99500000Y104400000D02*
X99500000Y105800000D01*
X99500000Y102500000D02*
X99500000Y103000000D01*
X99500000Y105800000D02*
X97725000Y105800000D01*
X97600000Y104400000D02*
X95100000Y104400000D01*
D33*
X69500000Y107000000D02*
X69500000Y105700000D01*
D31*
X98826706Y98673294D02*
X98750000Y98750000D01*
X96700000Y104400000D02*
X96400000Y104400000D01*
X99500000Y103000000D02*
X99500000Y104400000D01*
D33*
X72200000Y106400000D02*
X69500000Y106400000D01*
D31*
X99500000Y105800000D02*
X99500000Y107500000D01*
D33*
G04 #@! TO.N,V_SUPPLY*
X71300000Y110600000D02*
X71200000Y110600000D01*
X78900000Y112800000D02*
X80000000Y112800000D01*
X71200000Y110600000D02*
X70600000Y111200000D01*
X77700000Y114000000D02*
X78900000Y112800000D01*
X73051101Y110600000D02*
X76451101Y114000000D01*
X77548013Y99599820D02*
X77102816Y100045017D01*
X78475000Y99500000D02*
X77548013Y99500000D01*
X78600000Y103100000D02*
X80000000Y103100000D01*
D31*
X97600000Y102725000D02*
X97600000Y101000000D01*
D33*
X70500000Y110600000D02*
X71300000Y110600000D01*
X71300000Y110600000D02*
X73051101Y110600000D01*
X77102816Y100045017D02*
X77000000Y100045017D01*
D31*
X94025000Y110475000D02*
X94000000Y110500000D01*
D33*
X94200000Y93400000D02*
X94000000Y93200000D01*
X77000000Y101500000D02*
X78600000Y103100000D01*
X76451101Y114000000D02*
X77700000Y114000000D01*
X77548013Y99500000D02*
X77548013Y99599820D01*
X97600000Y93400000D02*
X94200000Y93400000D01*
X77000000Y100045017D02*
X77000000Y101500000D01*
D32*
G04 #@! TO.N,/MCU/AN_IN*
X69905517Y98605517D02*
X68550000Y97250000D01*
X69934071Y98605517D02*
X69905517Y98605517D01*
X71900000Y99400000D02*
X70728554Y99400000D01*
X76762952Y113237048D02*
X76600000Y113074096D01*
X76600000Y104100000D02*
X71900000Y99400000D01*
X68550000Y97250000D02*
X48350000Y97250000D01*
X48350000Y97250000D02*
X47600000Y96500000D01*
X70728554Y99400000D02*
X69934071Y98605517D01*
X76600000Y113074096D02*
X76600000Y104100000D01*
G04 #@! TO.N,VCC*
X56100000Y117700000D02*
X62200000Y117700000D01*
D33*
X38656337Y102900000D02*
X38656337Y102043663D01*
D32*
X57575000Y98881514D02*
X57575000Y99800000D01*
D33*
X46500000Y98000000D02*
X48900000Y98000000D01*
X35600000Y110585000D02*
X35385000Y110585000D01*
D32*
X43000000Y97700000D02*
X42700000Y98000000D01*
X62800000Y118400000D02*
X64700000Y118400000D01*
D33*
X57695223Y98761291D02*
X55863906Y98761291D01*
D32*
X38656337Y102043663D02*
X37200000Y100587326D01*
D33*
X48100000Y112000000D02*
X47580500Y112519500D01*
X47580500Y112519500D02*
X40581534Y112519500D01*
D32*
X52400000Y112425000D02*
X52475000Y112425000D01*
D33*
X35385000Y110585000D02*
X32835000Y108035000D01*
X42700000Y98000000D02*
X46500000Y98000000D01*
D32*
X34300000Y92800000D02*
X34290000Y92800000D01*
D33*
X38647034Y110585000D02*
X38656337Y110575697D01*
D32*
X55500000Y115450000D02*
X55500000Y117100000D01*
X43000000Y96900000D02*
X43000000Y97700000D01*
X57695223Y98761291D02*
X57575000Y98881514D01*
D33*
X49600000Y98000000D02*
X48900000Y98000000D01*
D32*
X39918472Y109684887D02*
X38671450Y109684887D01*
D33*
X38656337Y109700000D02*
X38656337Y102900000D01*
X38656337Y102043663D02*
X42700000Y98000000D01*
X46500000Y95460000D02*
X46500000Y98000000D01*
D32*
X37841951Y103274625D02*
X38581712Y103274625D01*
D33*
X54025197Y100600000D02*
X52200000Y100600000D01*
D32*
X62340000Y117300000D02*
X62340000Y116225000D01*
D33*
X51975000Y112000000D02*
X48100000Y112000000D01*
X38647034Y110585000D02*
X35600000Y110585000D01*
D32*
X37200000Y100587326D02*
X37200000Y95700000D01*
X38581712Y103274625D02*
X38656337Y103200000D01*
X62340000Y117300000D02*
X62340000Y117940000D01*
D33*
X40581534Y112519500D02*
X38647034Y110585000D01*
D32*
X62340000Y117940000D02*
X62800000Y118400000D01*
X49061696Y99438304D02*
X49061696Y98161696D01*
X62200000Y117700000D02*
X62340000Y117560000D01*
D33*
X49160000Y92800000D02*
X46500000Y95460000D01*
D32*
X37200000Y95700000D02*
X34300000Y92800000D01*
X49061696Y98161696D02*
X48900000Y98000000D01*
D33*
X52400000Y112425000D02*
X51975000Y112000000D01*
X32835000Y108035000D02*
X32000000Y108035000D01*
X52200000Y100600000D02*
X49600000Y98000000D01*
D32*
X38656337Y103200000D02*
X38656337Y102900000D01*
X62340000Y117560000D02*
X62340000Y117300000D01*
D33*
X38656337Y110575697D02*
X38656337Y109700000D01*
D32*
X38671450Y109684887D02*
X38656337Y109700000D01*
X52475000Y112425000D02*
X55500000Y115450000D01*
X55500000Y117100000D02*
X56100000Y117700000D01*
D33*
X55863906Y98761291D02*
X54025197Y100600000D01*
G04 #@! TO.N,+5V*
X64694937Y112800000D02*
X64013806Y113481131D01*
X64750000Y112800000D02*
X64694937Y112800000D01*
X68060000Y92800000D02*
X67600000Y92800000D01*
X64750000Y113600000D02*
X64132675Y113600000D01*
X64500000Y100950000D02*
X64500000Y103025197D01*
X61600000Y105925197D02*
X61600000Y107640000D01*
X67600000Y92800000D02*
X66000000Y91200000D01*
X64750000Y109150000D02*
X63240000Y107640000D01*
X66230500Y99219500D02*
X64500000Y100950000D01*
X39200000Y115900000D02*
X35600000Y112300000D01*
X64132675Y113600000D02*
X64013806Y113481131D01*
X33725000Y112300000D02*
X32000000Y110575000D01*
X66680500Y99219500D02*
X66230500Y99219500D01*
X35600000Y112300000D02*
X33725000Y112300000D01*
X64750000Y112800000D02*
X64750000Y109150000D01*
X64500000Y103025197D02*
X61600000Y105925197D01*
X51100000Y105400000D02*
X52000000Y105400000D01*
X54240000Y107640000D02*
X61600000Y107640000D01*
X66000000Y91200000D02*
X44560000Y91200000D01*
X53308309Y114400000D02*
X51700000Y114400000D01*
X67400000Y98500000D02*
X66680500Y99219500D01*
X64750000Y113600000D02*
X64750000Y112800000D01*
X44560000Y91200000D02*
X42960000Y92800000D01*
X51700000Y114400000D02*
X50200000Y115900000D01*
X63240000Y107640000D02*
X61600000Y107640000D01*
X52000000Y105400000D02*
X54240000Y107640000D01*
X50200000Y115900000D02*
X39200000Y115900000D01*
D32*
G04 #@! TO.N,/MCU/OLED_I2C_SDA*
X40420000Y92800000D02*
X40420000Y96813381D01*
X39433381Y97800000D02*
X39400000Y97800000D01*
X40420000Y96813381D02*
X39433381Y97800000D01*
G04 #@! TO.N,/MCU/OLED_I2C_SCL*
X37880000Y95380000D02*
X39400000Y96900000D01*
X37880000Y92800000D02*
X37880000Y95380000D01*
G04 #@! TO.N,/MCU/SENS1*
X74358040Y98900000D02*
X71000000Y98900000D01*
X74968040Y98290000D02*
X74358040Y98900000D01*
X104780997Y98572546D02*
X104398451Y98190000D01*
X98880000Y92780000D02*
X98320000Y92220000D01*
X104398451Y98190000D02*
X101488924Y98190000D01*
X98320000Y92220000D02*
X84880000Y92220000D01*
X71000000Y98900000D02*
X68675000Y96575000D01*
X84880000Y92220000D02*
X82810000Y94290000D01*
X68675000Y96575000D02*
X52100000Y96575000D01*
X78290000Y94618040D02*
X78290000Y95710000D01*
X78290000Y95710000D02*
X75710000Y98290000D01*
X75710000Y98290000D02*
X74968040Y98290000D01*
X98880000Y95581076D02*
X98880000Y92780000D01*
X101488924Y98190000D02*
X98880000Y95581076D01*
X78618040Y94290000D02*
X78290000Y94618040D01*
X82810000Y94290000D02*
X78618040Y94290000D01*
G04 #@! TO.N,/MCU/SENS2*
X52558381Y96100000D02*
X52373381Y95915000D01*
X52373381Y95915000D02*
X51260000Y95915000D01*
X69000000Y96100000D02*
X52558381Y96100000D01*
X75519462Y97830000D02*
X74777502Y97830000D01*
X82619462Y93830000D02*
X78427502Y93830000D01*
X78427502Y93830000D02*
X77824731Y94432771D01*
X99440000Y92590538D02*
X98609462Y91760000D01*
X77824731Y95524731D02*
X75519462Y97830000D01*
X84689462Y91760000D02*
X82619462Y93830000D01*
X77824731Y94432771D02*
X77824731Y95524731D01*
X74777502Y97830000D02*
X74167502Y98440000D01*
X74167502Y98440000D02*
X71340000Y98440000D01*
X105130000Y97730000D02*
X101679462Y97730000D01*
X71340000Y98440000D02*
X69000000Y96100000D01*
X101679462Y97730000D02*
X99440000Y95490538D01*
X98609462Y91760000D02*
X84689462Y91760000D01*
X51260000Y95915000D02*
X50600000Y96575000D01*
X105440497Y99300000D02*
X105440497Y98040497D01*
X105440497Y98040497D02*
X105130000Y97730000D01*
X99440000Y95490538D02*
X99440000Y92590538D01*
G04 #@! TO.N,/MCU/SENS3*
X74586964Y97370000D02*
X73976964Y97980000D01*
X99900000Y95300000D02*
X99900000Y92400000D01*
X84491960Y91300000D02*
X82421960Y93370000D01*
X52748919Y95640000D02*
X52563919Y95455000D01*
X78236964Y93370000D02*
X77349462Y94257502D01*
X77349462Y94257502D02*
X77349462Y95349462D01*
X50220000Y95455000D02*
X49100000Y96575000D01*
X52563919Y95455000D02*
X50220000Y95455000D01*
X73976964Y97980000D02*
X71680000Y97980000D01*
X77349462Y95349462D02*
X75328924Y97370000D01*
X71680000Y97980000D02*
X69340000Y95640000D01*
X106100497Y99899503D02*
X106100497Y98000497D01*
X69340000Y95640000D02*
X52748919Y95640000D01*
X98800000Y91300000D02*
X84491960Y91300000D01*
X106100497Y98000497D02*
X105370000Y97270000D01*
X105500000Y100500000D02*
X106100497Y99899503D01*
X99900000Y92400000D02*
X98800000Y91300000D01*
X75328924Y97370000D02*
X74586964Y97370000D01*
X101870000Y97270000D02*
X99900000Y95300000D01*
X105370000Y97270000D02*
X101870000Y97270000D01*
X82421960Y93370000D02*
X78236964Y93370000D01*
G04 #@! TO.N,/MCU/LED_GREEN*
X57600000Y101800000D02*
X57600000Y102163754D01*
X55694254Y104069500D02*
X54935295Y104069500D01*
X57600000Y102163754D02*
X55694254Y104069500D01*
G04 #@! TO.N,/MCU/LED_RED*
X54405337Y104729500D02*
X54216337Y104540500D01*
X56270500Y104729500D02*
X54405337Y104729500D01*
X57600000Y103400000D02*
X56270500Y104729500D01*
G04 #@! TO.N,SPI3_SDCARD_CS*
X56650538Y109600000D02*
X60850538Y113800000D01*
D34*
X48281320Y108781320D02*
X48281320Y106682255D01*
D32*
X60850538Y113800000D02*
X63400000Y113800000D01*
D34*
X48281320Y106682255D02*
X48264023Y106664958D01*
D32*
X63400000Y113800000D02*
X64540000Y114940000D01*
X49100000Y109600000D02*
X56650538Y109600000D01*
X64540000Y114940000D02*
X64540000Y116225000D01*
X48500000Y109000000D02*
X49100000Y109600000D01*
D34*
X48500000Y109000000D02*
X48281320Y108781320D01*
G04 #@! TO.N,SPI3_MOSI*
X48100000Y109400000D02*
X47921320Y109221320D01*
X47921320Y109221320D02*
X47921320Y107342362D01*
D32*
X56500000Y110100000D02*
X60900000Y114500000D01*
X62900000Y114500000D02*
X63440000Y115040000D01*
X60900000Y114500000D02*
X62900000Y114500000D01*
X48800000Y110100000D02*
X56500000Y110100000D01*
X63440000Y115040000D02*
X63440000Y116225000D01*
X48100000Y109400000D02*
X48800000Y110100000D01*
D34*
X47921320Y107342362D02*
X47423488Y106844530D01*
D32*
G04 #@! TO.N,SPI3_MISO*
X48278924Y111020000D02*
X56020000Y111020000D01*
D34*
X47000000Y109741076D02*
X47000000Y107792522D01*
D32*
X47200000Y109941076D02*
X48278924Y111020000D01*
X59040000Y114040000D02*
X59040000Y116225000D01*
D34*
X47200000Y109941076D02*
X47000000Y109741076D01*
X47000000Y107792522D02*
X45773913Y106566435D01*
D32*
X56020000Y111020000D02*
X59040000Y114040000D01*
D34*
G04 #@! TO.N,SPI3_SCK*
X47600000Y109600000D02*
X47500000Y109500000D01*
D32*
X47649462Y109600000D02*
X48609462Y110560000D01*
X48609462Y110560000D02*
X56309462Y110560000D01*
X47600000Y109600000D02*
X47649462Y109600000D01*
D34*
X47500000Y109500000D02*
X47500000Y107783006D01*
X46632442Y106915448D02*
X46632442Y106498455D01*
D32*
X61240000Y115490538D02*
X61240000Y116225000D01*
D34*
X47500000Y107783006D02*
X46632442Y106915448D01*
D32*
X56309462Y110560000D02*
X61240000Y115490538D01*
G04 #@! TO.N,Net-(D1-A)*
X59250000Y101800000D02*
X60600000Y101800000D01*
G04 #@! TO.N,Net-(D2-A)*
X60612500Y103400000D02*
X59250000Y103400000D01*
G04 #@! TO.N,Net-(D3-A)*
X60612500Y99800000D02*
X59225000Y99800000D01*
G04 #@! TO.N,TEMPERATURE*
X68300000Y97800000D02*
X69700000Y99200000D01*
X54500000Y97800000D02*
X67200000Y97800000D01*
X67200000Y97800000D02*
X68300000Y97800000D01*
X52850000Y99450000D02*
X54500000Y97800000D01*
G04 #@! TD*
G04 #@! TA.AperFunction,Conductor*
G04 #@! TO.N,V_SUPPLY*
G36*
X87685107Y118982687D02*
G01*
X87705908Y118954318D01*
X87719137Y118922378D01*
X87719138Y118922376D01*
X87719139Y118922375D01*
X87807379Y118807379D01*
X87922375Y118719139D01*
X88056291Y118663670D01*
X88200000Y118644750D01*
X88343709Y118663670D01*
X88477625Y118719139D01*
X88592621Y118807379D01*
X88680861Y118922375D01*
X88694092Y118954319D01*
X88728289Y118991638D01*
X88762459Y119000000D01*
X91537541Y119000000D01*
X91585107Y118982687D01*
X91605908Y118954318D01*
X91619137Y118922378D01*
X91619138Y118922376D01*
X91619139Y118922375D01*
X91707379Y118807379D01*
X91822375Y118719139D01*
X91956291Y118663670D01*
X92100000Y118644750D01*
X92243709Y118663670D01*
X92377625Y118719139D01*
X92492621Y118807379D01*
X92580861Y118922375D01*
X92594092Y118954319D01*
X92628289Y118991638D01*
X92662459Y119000000D01*
X99017659Y119000000D01*
X99065225Y118982687D01*
X99090535Y118938850D01*
X99086026Y118897682D01*
X99063670Y118843711D01*
X99044749Y118700000D01*
X99063670Y118556290D01*
X99119137Y118422378D01*
X99119138Y118422376D01*
X99119139Y118422375D01*
X99207379Y118307379D01*
X99322375Y118219139D01*
X99454317Y118164488D01*
X99491637Y118130291D01*
X99499999Y118096121D01*
X99500000Y108274500D01*
X99482687Y108226934D01*
X99438850Y108201624D01*
X99426000Y108200500D01*
X98558087Y108200500D01*
X98514144Y108214960D01*
X98462882Y108252793D01*
X98462880Y108252794D01*
X98334701Y108297646D01*
X98305979Y108300340D01*
X98305965Y108300341D01*
X98304266Y108300500D01*
X96895734Y108300500D01*
X96894035Y108300341D01*
X96894020Y108300340D01*
X96865298Y108297646D01*
X96737119Y108252794D01*
X96719730Y108239960D01*
X96675787Y108225500D01*
X95048395Y108225500D01*
X95043928Y108225635D01*
X95022452Y108226934D01*
X94982394Y108229357D01*
X94982393Y108229357D01*
X94982392Y108229357D01*
X94921745Y108218245D01*
X94917331Y108217573D01*
X94856127Y108210140D01*
X94842403Y108204936D01*
X94829510Y108201342D01*
X94815068Y108198695D01*
X94758846Y108173392D01*
X94754719Y108171682D01*
X94697068Y108149818D01*
X94684985Y108141477D01*
X94673322Y108134899D01*
X94659941Y108128877D01*
X94611412Y108090857D01*
X94607824Y108088217D01*
X94596985Y108080734D01*
X94557070Y108053183D01*
X94516191Y108007041D01*
X94513128Y108003787D01*
X94381517Y107872174D01*
X94335641Y107850782D01*
X94329191Y107850500D01*
X94102450Y107850500D01*
X94054884Y107867813D01*
X94029574Y107911650D01*
X94034083Y107952818D01*
X94048041Y107986517D01*
X94060167Y108015791D01*
X94079087Y108159500D01*
X94060167Y108303209D01*
X94004698Y108437125D01*
X93916458Y108552121D01*
X93801462Y108640361D01*
X93801461Y108640362D01*
X93801459Y108640363D01*
X93667547Y108695830D01*
X93523837Y108714751D01*
X93380126Y108695830D01*
X93246214Y108640363D01*
X93131216Y108552121D01*
X93042974Y108437123D01*
X92987507Y108303211D01*
X92968586Y108159500D01*
X92987507Y108015790D01*
X93013591Y107952818D01*
X93015799Y107902248D01*
X92984984Y107862089D01*
X92945224Y107850500D01*
X91895734Y107850500D01*
X91894035Y107850341D01*
X91894020Y107850340D01*
X91865298Y107847646D01*
X91737118Y107802794D01*
X91627849Y107722150D01*
X91562696Y107633870D01*
X91520521Y107605879D01*
X91470220Y107611547D01*
X91458108Y107619105D01*
X91377625Y107680862D01*
X91243710Y107736330D01*
X91099999Y107755251D01*
X90956289Y107736330D01*
X90822377Y107680863D01*
X90707379Y107592621D01*
X90619137Y107477623D01*
X90563670Y107343711D01*
X90544749Y107200000D01*
X90563670Y107056290D01*
X90619137Y106922378D01*
X90619138Y106922376D01*
X90619139Y106922375D01*
X90707379Y106807379D01*
X90822375Y106719139D01*
X90956291Y106663670D01*
X91100000Y106644750D01*
X91243709Y106663670D01*
X91377625Y106719139D01*
X91380452Y106721309D01*
X91428727Y106736530D01*
X91475493Y106717159D01*
X91498867Y106672259D01*
X91499500Y106662600D01*
X91499500Y105682549D01*
X91482187Y105634983D01*
X91438350Y105609673D01*
X91397183Y105614181D01*
X91373581Y105623957D01*
X91343709Y105636330D01*
X91326989Y105638532D01*
X91200000Y105655251D01*
X91056289Y105636330D01*
X90922377Y105580863D01*
X90807379Y105492621D01*
X90719137Y105377623D01*
X90663670Y105243711D01*
X90644749Y105100000D01*
X90663670Y104956290D01*
X90719137Y104822378D01*
X90719138Y104822376D01*
X90719139Y104822375D01*
X90807379Y104707379D01*
X90922375Y104619139D01*
X90922376Y104619139D01*
X90922377Y104619138D01*
X90989333Y104591405D01*
X91056291Y104563670D01*
X91200000Y104544750D01*
X91343709Y104563670D01*
X91477625Y104619139D01*
X91592621Y104707379D01*
X91680861Y104822375D01*
X91724460Y104927635D01*
X91758656Y104964953D01*
X91808842Y104971561D01*
X91817264Y104969163D01*
X91865301Y104952354D01*
X91895734Y104949500D01*
X94325500Y104949500D01*
X94373066Y104932187D01*
X94398376Y104888350D01*
X94399500Y104875500D01*
X94399500Y103170385D01*
X94398288Y103157046D01*
X94395641Y103142606D01*
X94399365Y103081065D01*
X94399500Y103076596D01*
X94399500Y103057628D01*
X94401352Y103042372D01*
X94401786Y103038803D01*
X94402190Y103034355D01*
X94405914Y102972804D01*
X94410281Y102958788D01*
X94413090Y102945700D01*
X94414859Y102931130D01*
X94436726Y102873469D01*
X94438183Y102869245D01*
X94456521Y102810396D01*
X94464114Y102797835D01*
X94469975Y102785797D01*
X94475180Y102772074D01*
X94475182Y102772070D01*
X94510217Y102721312D01*
X94512622Y102717593D01*
X94544528Y102664816D01*
X94544528Y102664815D01*
X94554905Y102654438D01*
X94563479Y102644150D01*
X94571817Y102632071D01*
X94617949Y102591202D01*
X94617959Y102591193D01*
X94621214Y102588129D01*
X94664816Y102544527D01*
X94677374Y102536936D01*
X94688163Y102528998D01*
X94699148Y102519266D01*
X94699150Y102519265D01*
X94753735Y102490615D01*
X94757628Y102488420D01*
X94810394Y102456522D01*
X94824405Y102452157D01*
X94836777Y102447033D01*
X94849775Y102440210D01*
X94909654Y102425452D01*
X94913952Y102424253D01*
X94972804Y102405914D01*
X94987456Y102405028D01*
X95000689Y102403014D01*
X95014944Y102399500D01*
X95076594Y102399500D01*
X95081063Y102399365D01*
X95142605Y102395642D01*
X95142605Y102395643D01*
X95142606Y102395642D01*
X95157045Y102398289D01*
X95170384Y102399500D01*
X95185054Y102399500D01*
X95185056Y102399500D01*
X95244931Y102414259D01*
X95249265Y102415189D01*
X95309932Y102426305D01*
X95323315Y102432329D01*
X95335976Y102436699D01*
X95350225Y102440210D01*
X95404838Y102468876D01*
X95408817Y102470812D01*
X95465057Y102496122D01*
X95476617Y102505181D01*
X95487851Y102512444D01*
X95500852Y102519266D01*
X95547017Y102560166D01*
X95550403Y102562988D01*
X95565367Y102574710D01*
X95578806Y102588151D01*
X95582011Y102591168D01*
X95628183Y102632071D01*
X95636523Y102644156D01*
X95645087Y102654432D01*
X96073674Y103083019D01*
X96119551Y103104410D01*
X96168445Y103091309D01*
X96197479Y103049845D01*
X96200000Y103030692D01*
X96200000Y102975000D01*
X97776000Y102975000D01*
X97823566Y102957687D01*
X97848876Y102913850D01*
X97850000Y102901000D01*
X97849999Y99925002D01*
X97850000Y99925001D01*
X98298099Y99925001D01*
X98301846Y99925192D01*
X98402696Y99935495D01*
X98569121Y99990642D01*
X98686652Y100063136D01*
X98736225Y100073372D01*
X98780780Y100049348D01*
X98799469Y100002305D01*
X98799500Y100000153D01*
X98799500Y99820811D01*
X98782187Y99773245D01*
X98777826Y99768485D01*
X98293140Y99283799D01*
X98293139Y99283797D01*
X98194528Y99185185D01*
X97856517Y98847174D01*
X97810641Y98825782D01*
X97804191Y98825500D01*
X96895734Y98825500D01*
X96894035Y98825341D01*
X96894020Y98825340D01*
X96865298Y98822646D01*
X96737119Y98777794D01*
X96719730Y98764960D01*
X96675787Y98750500D01*
X94573406Y98750500D01*
X94568937Y98750635D01*
X94507393Y98754359D01*
X94446730Y98743242D01*
X94442313Y98742570D01*
X94381126Y98735140D01*
X94367405Y98729937D01*
X94354512Y98726343D01*
X94340070Y98723696D01*
X94283839Y98698389D01*
X94279711Y98696679D01*
X94222067Y98674817D01*
X94209985Y98666478D01*
X94198331Y98659905D01*
X94184948Y98653881D01*
X94136407Y98615854D01*
X94132811Y98613209D01*
X94082071Y98578184D01*
X94041191Y98532041D01*
X94038128Y98528787D01*
X93421213Y97911872D01*
X93417959Y97908809D01*
X93371819Y97867931D01*
X93371817Y97867929D01*
X93347562Y97832792D01*
X93336788Y97817183D01*
X93334140Y97813586D01*
X93296121Y97765058D01*
X93290096Y97751671D01*
X93283520Y97740011D01*
X93275180Y97727929D01*
X93253319Y97670289D01*
X93251611Y97666164D01*
X93226304Y97609931D01*
X93223656Y97595483D01*
X93220063Y97582594D01*
X93216697Y97573717D01*
X93214859Y97568870D01*
X93207429Y97507686D01*
X93206757Y97503271D01*
X93195641Y97442608D01*
X93199365Y97381065D01*
X93199500Y97376596D01*
X93199500Y96924500D01*
X93182187Y96876934D01*
X93138350Y96851624D01*
X93125500Y96850500D01*
X92099033Y96850500D01*
X92051467Y96867813D01*
X92026157Y96911650D01*
X92034947Y96961500D01*
X92040318Y96969540D01*
X92080861Y97022375D01*
X92136330Y97156291D01*
X92155250Y97300000D01*
X92136330Y97443709D01*
X92102024Y97526532D01*
X92080862Y97577623D01*
X92080861Y97577624D01*
X92080861Y97577625D01*
X91992621Y97692621D01*
X91877625Y97780861D01*
X91877624Y97780862D01*
X91877622Y97780863D01*
X91743710Y97836330D01*
X91600000Y97855251D01*
X91456289Y97836330D01*
X91322377Y97780863D01*
X91207379Y97692621D01*
X91119137Y97577623D01*
X91063670Y97443711D01*
X91044749Y97300000D01*
X91063670Y97156290D01*
X91119137Y97022378D01*
X91119138Y97022376D01*
X91119139Y97022375D01*
X91207379Y96907379D01*
X91322375Y96819139D01*
X91456291Y96763670D01*
X91516212Y96755781D01*
X91561110Y96732409D01*
X91580482Y96685643D01*
X91566093Y96638474D01*
X91547206Y96612883D01*
X91502354Y96484702D01*
X91499660Y96455980D01*
X91499659Y96455965D01*
X91499500Y96454266D01*
X91499500Y96452543D01*
X91499500Y95020810D01*
X91482187Y94973244D01*
X91477826Y94968484D01*
X90976290Y94466948D01*
X90976282Y94466940D01*
X90974710Y94465367D01*
X90973338Y94463617D01*
X90973331Y94463608D01*
X90896120Y94365055D01*
X90826305Y94209934D01*
X90795641Y94042607D01*
X90805914Y93872803D01*
X90854886Y93715642D01*
X90856522Y93710394D01*
X90944528Y93564815D01*
X91064815Y93444528D01*
X91210394Y93356522D01*
X91372804Y93305914D01*
X91542606Y93295642D01*
X91709932Y93326305D01*
X91865057Y93396122D01*
X91965367Y93474710D01*
X92418483Y93927826D01*
X92464359Y93949218D01*
X92470809Y93949500D01*
X95902543Y93949500D01*
X95904266Y93949500D01*
X95934699Y93952354D01*
X96062882Y93997207D01*
X96123224Y94041742D01*
X96171775Y94056057D01*
X96218171Y94035815D01*
X96240701Y93990487D01*
X96237410Y93958925D01*
X96210494Y93877697D01*
X96200190Y93776847D01*
X96200000Y93773101D01*
X96200000Y93650000D01*
X97776000Y93650000D01*
X97823566Y93632687D01*
X97848876Y93588850D01*
X97850000Y93576000D01*
X97850000Y93224000D01*
X97832687Y93176434D01*
X97788850Y93151124D01*
X97776000Y93150000D01*
X96200001Y93150000D01*
X96200001Y93026902D01*
X96200191Y93023154D01*
X96210494Y92922304D01*
X96265641Y92755879D01*
X96310379Y92683348D01*
X96320615Y92633775D01*
X96296591Y92589220D01*
X96249548Y92570531D01*
X96247396Y92570500D01*
X85055834Y92570500D01*
X85008268Y92587813D01*
X85003508Y92592174D01*
X84072007Y93523675D01*
X84050615Y93569551D01*
X84063716Y93618446D01*
X84105180Y93647480D01*
X84124333Y93650001D01*
X85250000Y93650001D01*
X85250000Y95150000D01*
X85750000Y95150000D01*
X85750000Y93650001D01*
X87498099Y93650001D01*
X87501846Y93650192D01*
X87602696Y93660495D01*
X87769121Y93715642D01*
X87918344Y93807684D01*
X88042316Y93931656D01*
X88134358Y94080879D01*
X88189505Y94247304D01*
X88199809Y94348154D01*
X88200000Y94351900D01*
X88200000Y95150000D01*
X85750000Y95150000D01*
X85250000Y95150000D01*
X83240000Y95150000D01*
X83240000Y94999000D01*
X83222687Y94951434D01*
X83178850Y94926124D01*
X83166000Y94925000D01*
X79324000Y94925000D01*
X79276434Y94942313D01*
X79251124Y94986150D01*
X79250000Y94999000D01*
X79250000Y95200000D01*
X88544749Y95200000D01*
X88563670Y95056290D01*
X88619137Y94922378D01*
X88619138Y94922376D01*
X88619139Y94922375D01*
X88707379Y94807379D01*
X88822375Y94719139D01*
X88822376Y94719139D01*
X88822377Y94719138D01*
X88849745Y94707802D01*
X88956291Y94663670D01*
X89100000Y94644750D01*
X89243709Y94663670D01*
X89377625Y94719139D01*
X89492621Y94807379D01*
X89580861Y94922375D01*
X89636330Y95056291D01*
X89655250Y95200000D01*
X89636330Y95343709D01*
X89580861Y95477625D01*
X89492621Y95592621D01*
X89377625Y95680861D01*
X89377624Y95680862D01*
X89377622Y95680863D01*
X89243710Y95736330D01*
X89100000Y95755251D01*
X88956289Y95736330D01*
X88822377Y95680863D01*
X88707379Y95592621D01*
X88619137Y95477623D01*
X88563670Y95343711D01*
X88544749Y95200000D01*
X79250000Y95200000D01*
X79250000Y96250000D01*
X79750000Y96250000D01*
X79750000Y95425000D01*
X81550000Y95425000D01*
X82050000Y95425000D01*
X82760000Y95425000D01*
X82760000Y95576000D01*
X82777313Y95623566D01*
X82821150Y95648876D01*
X82834000Y95650000D01*
X85250000Y95650000D01*
X85750000Y95650000D01*
X88199999Y95650000D01*
X88199999Y96448099D01*
X88199808Y96451845D01*
X88192169Y96526619D01*
X88204558Y96575699D01*
X88237466Y96602505D01*
X88277625Y96619139D01*
X88392621Y96707379D01*
X88480861Y96822375D01*
X88536330Y96956291D01*
X88555250Y97100000D01*
X89344749Y97100000D01*
X89363670Y96956290D01*
X89419137Y96822378D01*
X89419138Y96822376D01*
X89419139Y96822375D01*
X89507379Y96707379D01*
X89622375Y96619139D01*
X89622376Y96619139D01*
X89622377Y96619138D01*
X89637481Y96612882D01*
X89756291Y96563670D01*
X89878210Y96547619D01*
X89899999Y96544750D01*
X89899999Y96544751D01*
X89900000Y96544750D01*
X90043709Y96563670D01*
X90177625Y96619139D01*
X90292621Y96707379D01*
X90380861Y96822375D01*
X90436330Y96956291D01*
X90455250Y97100000D01*
X90436330Y97243709D01*
X90380861Y97377625D01*
X90292621Y97492621D01*
X90177625Y97580861D01*
X90177624Y97580862D01*
X90177622Y97580863D01*
X90043710Y97636330D01*
X89900000Y97655251D01*
X89756289Y97636330D01*
X89622377Y97580863D01*
X89507379Y97492621D01*
X89419137Y97377623D01*
X89363670Y97243711D01*
X89344749Y97100000D01*
X88555250Y97100000D01*
X88536330Y97243709D01*
X88480861Y97377625D01*
X88392621Y97492621D01*
X88277625Y97580861D01*
X88277624Y97580862D01*
X88277622Y97580863D01*
X88143710Y97636330D01*
X88000000Y97655251D01*
X87856289Y97636330D01*
X87722377Y97580863D01*
X87607379Y97492621D01*
X87519137Y97377623D01*
X87463670Y97243711D01*
X87459803Y97214339D01*
X87436428Y97169440D01*
X87389662Y97150070D01*
X87386436Y97150000D01*
X85750000Y97150000D01*
X85750000Y95650000D01*
X85250000Y95650000D01*
X85250000Y97150000D01*
X83501901Y97150000D01*
X83498153Y97149809D01*
X83397303Y97139506D01*
X83230878Y97084359D01*
X83081655Y96992317D01*
X82957683Y96868345D01*
X82865641Y96719122D01*
X82810494Y96552697D01*
X82800190Y96451847D01*
X82800000Y96448101D01*
X82800000Y96276605D01*
X82782687Y96229039D01*
X82738850Y96203729D01*
X82702724Y96206361D01*
X82602696Y96239506D01*
X82501846Y96249810D01*
X82498100Y96250000D01*
X82050000Y96250000D01*
X82050000Y95425000D01*
X81550000Y95425000D01*
X81550000Y96250000D01*
X81101901Y96250000D01*
X81098153Y96249809D01*
X80997303Y96239506D01*
X80830878Y96184358D01*
X80688847Y96096753D01*
X80639274Y96086517D01*
X80611151Y96096753D01*
X80469121Y96184359D01*
X80302696Y96239506D01*
X80201846Y96249810D01*
X80198100Y96250000D01*
X79750000Y96250000D01*
X79250000Y96250000D01*
X78801901Y96250000D01*
X78798153Y96249809D01*
X78697303Y96239506D01*
X78530878Y96184358D01*
X78444883Y96131316D01*
X78395310Y96121080D01*
X78353709Y96141973D01*
X77484654Y97011028D01*
X77463262Y97056904D01*
X77476363Y97105799D01*
X77508662Y97131721D01*
X77513948Y97133911D01*
X77513950Y97133911D01*
X77647866Y97189380D01*
X77762862Y97277620D01*
X77851102Y97392616D01*
X77906571Y97526532D01*
X77925491Y97670241D01*
X77906571Y97813950D01*
X77867280Y97908809D01*
X77851103Y97947864D01*
X77851102Y97947865D01*
X77851102Y97947866D01*
X77780497Y98039880D01*
X77765276Y98088153D01*
X77784647Y98134919D01*
X77829547Y98158293D01*
X77862483Y98155170D01*
X77997304Y98110495D01*
X78098154Y98100191D01*
X78101899Y98100001D01*
X78225000Y98100001D01*
X78225000Y99250000D01*
X78725000Y99250000D01*
X78725000Y98100001D01*
X78848099Y98100001D01*
X78851846Y98100192D01*
X78952696Y98110495D01*
X79119121Y98165642D01*
X79268344Y98257684D01*
X79392316Y98381656D01*
X79484358Y98530879D01*
X79539505Y98697304D01*
X79549809Y98798154D01*
X79550000Y98801900D01*
X79550000Y98900000D01*
X87444749Y98900000D01*
X87463670Y98756290D01*
X87519137Y98622378D01*
X87519138Y98622376D01*
X87519139Y98622375D01*
X87607379Y98507379D01*
X87722375Y98419139D01*
X87856291Y98363670D01*
X87978210Y98347619D01*
X87999999Y98344750D01*
X87999999Y98344751D01*
X88000000Y98344750D01*
X88143709Y98363670D01*
X88277625Y98419139D01*
X88392621Y98507379D01*
X88480861Y98622375D01*
X88536330Y98756291D01*
X88555250Y98900000D01*
X88554592Y98905000D01*
X89399749Y98905000D01*
X89418670Y98761290D01*
X89474137Y98627378D01*
X89474138Y98627376D01*
X89474139Y98627375D01*
X89562379Y98512379D01*
X89677375Y98424139D01*
X89677376Y98424139D01*
X89677377Y98424138D01*
X89744332Y98396405D01*
X89811291Y98368670D01*
X89955000Y98349750D01*
X90098709Y98368670D01*
X90232625Y98424139D01*
X90347621Y98512379D01*
X90435861Y98627375D01*
X90491330Y98761291D01*
X90509592Y98900000D01*
X91344749Y98900000D01*
X91363670Y98756290D01*
X91419137Y98622378D01*
X91419138Y98622376D01*
X91419139Y98622375D01*
X91507379Y98507379D01*
X91622375Y98419139D01*
X91756291Y98363670D01*
X91900000Y98344750D01*
X92043709Y98363670D01*
X92177625Y98419139D01*
X92292621Y98507379D01*
X92380861Y98622375D01*
X92436330Y98756291D01*
X92455250Y98900000D01*
X92436330Y99043709D01*
X92380861Y99177625D01*
X92292621Y99292621D01*
X92177625Y99380861D01*
X92177624Y99380862D01*
X92177622Y99380863D01*
X92043710Y99436330D01*
X91900000Y99455251D01*
X91756289Y99436330D01*
X91622377Y99380863D01*
X91507379Y99292621D01*
X91419137Y99177623D01*
X91363670Y99043711D01*
X91344749Y98900000D01*
X90509592Y98900000D01*
X90510250Y98905000D01*
X90491330Y99048709D01*
X90435861Y99182625D01*
X90347621Y99297621D01*
X90232625Y99385861D01*
X90232624Y99385862D01*
X90232622Y99385863D01*
X90098710Y99441330D01*
X89955000Y99460251D01*
X89811289Y99441330D01*
X89677377Y99385863D01*
X89562379Y99297621D01*
X89474137Y99182623D01*
X89418670Y99048711D01*
X89399749Y98905000D01*
X88554592Y98905000D01*
X88536330Y99043709D01*
X88480861Y99177625D01*
X88392621Y99292621D01*
X88277625Y99380861D01*
X88277624Y99380862D01*
X88277622Y99380863D01*
X88143710Y99436330D01*
X88000000Y99455251D01*
X87856289Y99436330D01*
X87722377Y99380863D01*
X87607379Y99292621D01*
X87519137Y99177623D01*
X87463670Y99043711D01*
X87444749Y98900000D01*
X79550000Y98900000D01*
X79550000Y99250000D01*
X78725000Y99250000D01*
X78225000Y99250000D01*
X78225000Y100900000D01*
X78725000Y100900000D01*
X78725000Y99750000D01*
X79549999Y99750000D01*
X79549999Y100198099D01*
X79549808Y100201847D01*
X79539505Y100302697D01*
X79484358Y100469122D01*
X79392316Y100618345D01*
X79310661Y100700000D01*
X87444749Y100700000D01*
X87463670Y100556290D01*
X87519137Y100422378D01*
X87519138Y100422376D01*
X87519139Y100422375D01*
X87607379Y100307379D01*
X87722375Y100219139D01*
X87722376Y100219139D01*
X87722377Y100219138D01*
X87745344Y100209625D01*
X87856291Y100163670D01*
X88000000Y100144750D01*
X88143709Y100163670D01*
X88277625Y100219139D01*
X88392621Y100307379D01*
X88480861Y100422375D01*
X88536330Y100556291D01*
X88555250Y100700000D01*
X89344749Y100700000D01*
X89363670Y100556290D01*
X89419137Y100422378D01*
X89419138Y100422376D01*
X89419139Y100422375D01*
X89507379Y100307379D01*
X89622375Y100219139D01*
X89622376Y100219139D01*
X89622377Y100219138D01*
X89645344Y100209625D01*
X89756291Y100163670D01*
X89900000Y100144750D01*
X90043709Y100163670D01*
X90177625Y100219139D01*
X90292621Y100307379D01*
X90380861Y100422375D01*
X90436330Y100556291D01*
X90455250Y100700000D01*
X91344749Y100700000D01*
X91363670Y100556290D01*
X91419137Y100422378D01*
X91419138Y100422376D01*
X91419139Y100422375D01*
X91507379Y100307379D01*
X91622375Y100219139D01*
X91622376Y100219139D01*
X91622377Y100219138D01*
X91645344Y100209625D01*
X91756291Y100163670D01*
X91900000Y100144750D01*
X92043709Y100163670D01*
X92177625Y100219139D01*
X92292621Y100307379D01*
X92380861Y100422375D01*
X92436330Y100556291D01*
X92455250Y100700000D01*
X92448667Y100750000D01*
X96200001Y100750000D01*
X96200001Y100626902D01*
X96200191Y100623154D01*
X96210494Y100522304D01*
X96265641Y100355879D01*
X96357683Y100206656D01*
X96481655Y100082684D01*
X96630878Y99990642D01*
X96797303Y99935495D01*
X96898153Y99925191D01*
X96901899Y99925001D01*
X97350000Y99925001D01*
X97350000Y100750000D01*
X96200001Y100750000D01*
X92448667Y100750000D01*
X92436330Y100843709D01*
X92380861Y100977625D01*
X92292621Y101092621D01*
X92177625Y101180861D01*
X92177624Y101180862D01*
X92177622Y101180863D01*
X92043710Y101236330D01*
X91900000Y101255251D01*
X91756289Y101236330D01*
X91622377Y101180863D01*
X91507379Y101092621D01*
X91419137Y100977623D01*
X91363670Y100843711D01*
X91344749Y100700000D01*
X90455250Y100700000D01*
X90436330Y100843709D01*
X90380861Y100977625D01*
X90292621Y101092621D01*
X90177625Y101180861D01*
X90177624Y101180862D01*
X90177622Y101180863D01*
X90043710Y101236330D01*
X89900000Y101255251D01*
X89756289Y101236330D01*
X89622377Y101180863D01*
X89507379Y101092621D01*
X89419137Y100977623D01*
X89363670Y100843711D01*
X89344749Y100700000D01*
X88555250Y100700000D01*
X88536330Y100843709D01*
X88480861Y100977625D01*
X88392621Y101092621D01*
X88277625Y101180861D01*
X88277624Y101180862D01*
X88277622Y101180863D01*
X88143710Y101236330D01*
X87999999Y101255251D01*
X87856289Y101236330D01*
X87722377Y101180863D01*
X87607379Y101092621D01*
X87519137Y100977623D01*
X87463670Y100843711D01*
X87444749Y100700000D01*
X79310661Y100700000D01*
X79268344Y100742317D01*
X79119121Y100834359D01*
X78952696Y100889506D01*
X78851846Y100899810D01*
X78848100Y100900000D01*
X78725000Y100900000D01*
X78225000Y100900000D01*
X78101901Y100900000D01*
X78098152Y100899809D01*
X77997303Y100889506D01*
X77830878Y100834359D01*
X77681655Y100742317D01*
X77557683Y100618345D01*
X77465641Y100469122D01*
X77410494Y100302697D01*
X77400190Y100201847D01*
X77400000Y100198101D01*
X77400000Y99609752D01*
X77382687Y99562186D01*
X77338850Y99536876D01*
X77289000Y99545666D01*
X77267293Y99564702D01*
X77180634Y99677638D01*
X77065638Y99765878D01*
X77065637Y99765879D01*
X77065635Y99765880D01*
X76931723Y99821347D01*
X76923962Y99822369D01*
X76911638Y99823992D01*
X76879615Y99836216D01*
X76834874Y99866720D01*
X76832651Y99868298D01*
X76785191Y99903325D01*
X76771552Y99910211D01*
X76715168Y99927603D01*
X76712540Y99928467D01*
X76656887Y99947941D01*
X76641826Y99950500D01*
X76640932Y99950500D01*
X76582833Y99950500D01*
X76580070Y99950552D01*
X76577114Y99950663D01*
X76571229Y99950883D01*
X76524344Y99969965D01*
X76500694Y100014719D01*
X76500000Y100024831D01*
X76500000Y101800000D01*
X95644749Y101800000D01*
X95663670Y101656290D01*
X95719137Y101522378D01*
X95719138Y101522376D01*
X95719139Y101522375D01*
X95807379Y101407379D01*
X95922375Y101319139D01*
X96056291Y101263670D01*
X96178210Y101247619D01*
X96199999Y101244750D01*
X96199999Y101244751D01*
X96200000Y101244750D01*
X96235069Y101249368D01*
X96244728Y101250000D01*
X97350000Y101250000D01*
X97350000Y102475000D01*
X96200001Y102475000D01*
X96200000Y102420146D01*
X96182687Y102372580D01*
X96138849Y102347271D01*
X96135660Y102346780D01*
X96056289Y102336330D01*
X95922377Y102280863D01*
X95807379Y102192621D01*
X95719137Y102077623D01*
X95663670Y101943711D01*
X95644749Y101800000D01*
X76500000Y101800000D01*
X76500000Y103100000D01*
X87744749Y103100000D01*
X87763670Y102956290D01*
X87819137Y102822378D01*
X87819138Y102822376D01*
X87819139Y102822375D01*
X87907379Y102707379D01*
X88022375Y102619139D01*
X88156291Y102563670D01*
X88300000Y102544750D01*
X88443709Y102563670D01*
X88577625Y102619139D01*
X88692621Y102707379D01*
X88780861Y102822375D01*
X88836330Y102956291D01*
X88855250Y103100000D01*
X89244749Y103100000D01*
X89263670Y102956290D01*
X89319137Y102822378D01*
X89319138Y102822376D01*
X89319139Y102822375D01*
X89407379Y102707379D01*
X89522375Y102619139D01*
X89656291Y102563670D01*
X89800000Y102544750D01*
X89943709Y102563670D01*
X90077625Y102619139D01*
X90192621Y102707379D01*
X90280861Y102822375D01*
X90336330Y102956291D01*
X90355250Y103100000D01*
X90644749Y103100000D01*
X90663670Y102956290D01*
X90719137Y102822378D01*
X90719138Y102822376D01*
X90719139Y102822375D01*
X90807379Y102707379D01*
X90922375Y102619139D01*
X91056291Y102563670D01*
X91200000Y102544750D01*
X91343709Y102563670D01*
X91477625Y102619139D01*
X91592621Y102707379D01*
X91680861Y102822375D01*
X91736330Y102956291D01*
X91755250Y103100000D01*
X91736330Y103243709D01*
X91680861Y103377625D01*
X91592621Y103492621D01*
X91477625Y103580861D01*
X91477624Y103580862D01*
X91477622Y103580863D01*
X91343710Y103636330D01*
X91200000Y103655251D01*
X91056289Y103636330D01*
X90922377Y103580863D01*
X90807379Y103492621D01*
X90719137Y103377623D01*
X90663670Y103243711D01*
X90644749Y103100000D01*
X90355250Y103100000D01*
X90336330Y103243709D01*
X90280861Y103377625D01*
X90192621Y103492621D01*
X90077625Y103580861D01*
X90077624Y103580862D01*
X90077622Y103580863D01*
X89943710Y103636330D01*
X89800000Y103655251D01*
X89656289Y103636330D01*
X89522377Y103580863D01*
X89407379Y103492621D01*
X89319137Y103377623D01*
X89263670Y103243711D01*
X89244749Y103100000D01*
X88855250Y103100000D01*
X88836330Y103243709D01*
X88780861Y103377625D01*
X88692621Y103492621D01*
X88577625Y103580861D01*
X88577624Y103580862D01*
X88577622Y103580863D01*
X88443710Y103636330D01*
X88299999Y103655251D01*
X88156289Y103636330D01*
X88022377Y103580863D01*
X87907379Y103492621D01*
X87819137Y103377623D01*
X87763670Y103243711D01*
X87744749Y103100000D01*
X76500000Y103100000D01*
X76500000Y103473668D01*
X76517313Y103521234D01*
X76521674Y103525994D01*
X76667376Y103671696D01*
X76816712Y103821033D01*
X76828558Y103830652D01*
X76840669Y103838563D01*
X76860406Y103863924D01*
X76866477Y103870797D01*
X76868375Y103872694D01*
X76880149Y103889187D01*
X76881964Y103891620D01*
X76914129Y103932945D01*
X76918490Y103941419D01*
X76919237Y103943932D01*
X76919240Y103943934D01*
X76933434Y103991614D01*
X76934353Y103994480D01*
X76950500Y104041512D01*
X76950500Y104041513D01*
X76951350Y104043988D01*
X76952725Y104053426D01*
X76950563Y104105719D01*
X76950500Y104108776D01*
X76950500Y106150000D01*
X77900001Y106150000D01*
X77900001Y105351902D01*
X77900191Y105348154D01*
X77910494Y105247304D01*
X77965641Y105080879D01*
X78057683Y104931656D01*
X78181655Y104807684D01*
X78330878Y104715642D01*
X78497303Y104660495D01*
X78598153Y104650191D01*
X78601899Y104650001D01*
X80350000Y104650001D01*
X80350000Y106150000D01*
X80850000Y106150000D01*
X80850000Y104650001D01*
X82598099Y104650001D01*
X82601846Y104650192D01*
X82702696Y104660495D01*
X82869121Y104715642D01*
X83011152Y104803248D01*
X83060725Y104813484D01*
X83088848Y104803248D01*
X83230878Y104715642D01*
X83397303Y104660495D01*
X83498153Y104650191D01*
X83501899Y104650001D01*
X85250000Y104650001D01*
X85250000Y106150000D01*
X85750000Y106150000D01*
X85750000Y104650001D01*
X87498099Y104650001D01*
X87501846Y104650192D01*
X87602696Y104660495D01*
X87769122Y104715643D01*
X87801784Y104735789D01*
X87851357Y104746026D01*
X87895912Y104722003D01*
X87899333Y104717865D01*
X87907379Y104707379D01*
X88022375Y104619139D01*
X88022376Y104619139D01*
X88022377Y104619138D01*
X88089333Y104591405D01*
X88156291Y104563670D01*
X88300000Y104544750D01*
X88443709Y104563670D01*
X88577625Y104619139D01*
X88692621Y104707379D01*
X88780861Y104822375D01*
X88836330Y104956291D01*
X88855250Y105100000D01*
X89244749Y105100000D01*
X89263670Y104956290D01*
X89319137Y104822378D01*
X89319138Y104822376D01*
X89319139Y104822375D01*
X89407379Y104707379D01*
X89522375Y104619139D01*
X89522376Y104619139D01*
X89522377Y104619138D01*
X89589333Y104591405D01*
X89656291Y104563670D01*
X89800000Y104544750D01*
X89943709Y104563670D01*
X90077625Y104619139D01*
X90192621Y104707379D01*
X90280861Y104822375D01*
X90336330Y104956291D01*
X90355250Y105100000D01*
X90336330Y105243709D01*
X90280861Y105377625D01*
X90192621Y105492621D01*
X90077625Y105580861D01*
X90077624Y105580862D01*
X90077622Y105580863D01*
X89943710Y105636330D01*
X89800000Y105655251D01*
X89656289Y105636330D01*
X89522377Y105580863D01*
X89407379Y105492621D01*
X89319137Y105377623D01*
X89263670Y105243711D01*
X89244749Y105100000D01*
X88855250Y105100000D01*
X88836330Y105243709D01*
X88780861Y105377625D01*
X88692621Y105492621D01*
X88577625Y105580861D01*
X88577624Y105580862D01*
X88577622Y105580863D01*
X88443710Y105636330D01*
X88299999Y105655251D01*
X88283658Y105653099D01*
X88234239Y105664055D01*
X88203424Y105704214D01*
X88199999Y105726466D01*
X88200000Y106150000D01*
X85750000Y106150000D01*
X85250000Y106150000D01*
X80850000Y106150000D01*
X80350000Y106150000D01*
X77900001Y106150000D01*
X76950500Y106150000D01*
X76950500Y106650000D01*
X77900000Y106650000D01*
X80350000Y106650000D01*
X80350000Y108150000D01*
X80850000Y108150000D01*
X80850000Y106650000D01*
X85250000Y106650000D01*
X85250000Y108150000D01*
X85750000Y108150000D01*
X85750000Y106650000D01*
X88221518Y106650000D01*
X88227053Y106652582D01*
X88243168Y106652233D01*
X88300000Y106644750D01*
X88443709Y106663670D01*
X88577625Y106719139D01*
X88692621Y106807379D01*
X88780861Y106922375D01*
X88836330Y107056291D01*
X88855250Y107200000D01*
X89244749Y107200000D01*
X89263670Y107056290D01*
X89319137Y106922378D01*
X89319138Y106922376D01*
X89319139Y106922375D01*
X89407379Y106807379D01*
X89522375Y106719139D01*
X89656291Y106663670D01*
X89800000Y106644750D01*
X89943709Y106663670D01*
X90077625Y106719139D01*
X90192621Y106807379D01*
X90280861Y106922375D01*
X90336330Y107056291D01*
X90355250Y107200000D01*
X90336330Y107343709D01*
X90308595Y107410667D01*
X90280862Y107477623D01*
X90280861Y107477624D01*
X90280861Y107477625D01*
X90192621Y107592621D01*
X90077625Y107680861D01*
X90077624Y107680862D01*
X90077622Y107680863D01*
X89943710Y107736330D01*
X89799999Y107755251D01*
X89656289Y107736330D01*
X89522377Y107680863D01*
X89407379Y107592621D01*
X89319137Y107477623D01*
X89263670Y107343711D01*
X89244749Y107200000D01*
X88855250Y107200000D01*
X88836330Y107343709D01*
X88808595Y107410667D01*
X88780862Y107477623D01*
X88780861Y107477624D01*
X88780861Y107477625D01*
X88692621Y107592621D01*
X88577625Y107680861D01*
X88577624Y107680862D01*
X88577622Y107680863D01*
X88443710Y107736330D01*
X88299999Y107755251D01*
X88173682Y107738620D01*
X88124263Y107749576D01*
X88101040Y107773139D01*
X88042316Y107868345D01*
X87918344Y107992317D01*
X87769121Y108084359D01*
X87602696Y108139506D01*
X87501846Y108149810D01*
X87498100Y108150000D01*
X85750000Y108150000D01*
X85250000Y108150000D01*
X83501901Y108150000D01*
X83498153Y108149809D01*
X83397303Y108139506D01*
X83230878Y108084359D01*
X83088848Y107996753D01*
X83039275Y107986517D01*
X83011152Y107996753D01*
X82869121Y108084359D01*
X82702696Y108139506D01*
X82601846Y108149810D01*
X82598100Y108150000D01*
X80850000Y108150000D01*
X80350000Y108150000D01*
X78601901Y108150000D01*
X78598153Y108149809D01*
X78497303Y108139506D01*
X78330878Y108084359D01*
X78181655Y107992317D01*
X78057683Y107868345D01*
X77965641Y107719122D01*
X77910494Y107552697D01*
X77900190Y107451847D01*
X77900000Y107448101D01*
X77900000Y106650000D01*
X76950500Y106650000D01*
X76950500Y109000000D01*
X87444749Y109000000D01*
X87463670Y108856290D01*
X87519137Y108722378D01*
X87519138Y108722376D01*
X87519139Y108722375D01*
X87607379Y108607379D01*
X87722375Y108519139D01*
X87856291Y108463670D01*
X87978210Y108447619D01*
X87999999Y108444750D01*
X87999999Y108444751D01*
X88000000Y108444750D01*
X88143709Y108463670D01*
X88277625Y108519139D01*
X88392621Y108607379D01*
X88480861Y108722375D01*
X88536330Y108856291D01*
X88555250Y109000000D01*
X89444749Y109000000D01*
X89463670Y108856290D01*
X89519137Y108722378D01*
X89519138Y108722376D01*
X89519139Y108722375D01*
X89607379Y108607379D01*
X89722375Y108519139D01*
X89856291Y108463670D01*
X89978210Y108447619D01*
X89999999Y108444750D01*
X89999999Y108444751D01*
X90000000Y108444750D01*
X90143709Y108463670D01*
X90277625Y108519139D01*
X90392621Y108607379D01*
X90480861Y108722375D01*
X90536330Y108856291D01*
X90555250Y109000000D01*
X91444749Y109000000D01*
X91463670Y108856290D01*
X91519137Y108722378D01*
X91519138Y108722376D01*
X91519139Y108722375D01*
X91607379Y108607379D01*
X91722375Y108519139D01*
X91856291Y108463670D01*
X91978210Y108447619D01*
X91999999Y108444750D01*
X91999999Y108444751D01*
X92000000Y108444750D01*
X92143709Y108463670D01*
X92277625Y108519139D01*
X92392621Y108607379D01*
X92480861Y108722375D01*
X92536330Y108856291D01*
X92555250Y109000000D01*
X92536330Y109143709D01*
X92480861Y109277625D01*
X92392621Y109392621D01*
X92277625Y109480861D01*
X92277624Y109480862D01*
X92277622Y109480863D01*
X92143710Y109536330D01*
X92000000Y109555251D01*
X91856289Y109536330D01*
X91722377Y109480863D01*
X91607379Y109392621D01*
X91519137Y109277623D01*
X91463670Y109143711D01*
X91444749Y109000000D01*
X90555250Y109000000D01*
X90536330Y109143709D01*
X90480861Y109277625D01*
X90392621Y109392621D01*
X90277625Y109480861D01*
X90277624Y109480862D01*
X90277622Y109480863D01*
X90143710Y109536330D01*
X90000000Y109555251D01*
X89856289Y109536330D01*
X89722377Y109480863D01*
X89607379Y109392621D01*
X89519137Y109277623D01*
X89463670Y109143711D01*
X89444749Y109000000D01*
X88555250Y109000000D01*
X88536330Y109143709D01*
X88480861Y109277625D01*
X88392621Y109392621D01*
X88277625Y109480861D01*
X88277624Y109480862D01*
X88277622Y109480863D01*
X88143710Y109536330D01*
X88000000Y109555251D01*
X87856289Y109536330D01*
X87722377Y109480863D01*
X87607379Y109392621D01*
X87519137Y109277623D01*
X87463670Y109143711D01*
X87444749Y109000000D01*
X76950500Y109000000D01*
X76950500Y110225000D01*
X96200001Y110225000D01*
X96200001Y110101902D01*
X96200191Y110098154D01*
X96210494Y109997304D01*
X96265641Y109830879D01*
X96357683Y109681656D01*
X96481655Y109557684D01*
X96630878Y109465642D01*
X96797303Y109410495D01*
X96898153Y109400191D01*
X96901899Y109400001D01*
X97350000Y109400001D01*
X97350000Y110225000D01*
X97850000Y110225000D01*
X97850000Y109400001D01*
X98298099Y109400001D01*
X98301846Y109400192D01*
X98402696Y109410495D01*
X98569121Y109465642D01*
X98718344Y109557684D01*
X98842316Y109681656D01*
X98934358Y109830879D01*
X98989505Y109997304D01*
X98999809Y110098154D01*
X99000000Y110101900D01*
X99000000Y110225000D01*
X97850000Y110225000D01*
X97350000Y110225000D01*
X96200001Y110225000D01*
X76950500Y110225000D01*
X76950500Y111000000D01*
X87444749Y111000000D01*
X87463670Y110856290D01*
X87519137Y110722378D01*
X87519138Y110722376D01*
X87519139Y110722375D01*
X87607379Y110607379D01*
X87722375Y110519139D01*
X87722376Y110519139D01*
X87722377Y110519138D01*
X87789332Y110491405D01*
X87856291Y110463670D01*
X88000000Y110444750D01*
X88143709Y110463670D01*
X88277625Y110519139D01*
X88392621Y110607379D01*
X88480861Y110722375D01*
X88536330Y110856291D01*
X88555250Y111000000D01*
X89444749Y111000000D01*
X89463670Y110856290D01*
X89519137Y110722378D01*
X89519138Y110722376D01*
X89519139Y110722375D01*
X89607379Y110607379D01*
X89722375Y110519139D01*
X89722376Y110519139D01*
X89722377Y110519138D01*
X89789332Y110491405D01*
X89856291Y110463670D01*
X90000000Y110444750D01*
X90143709Y110463670D01*
X90277625Y110519139D01*
X90392621Y110607379D01*
X90480861Y110722375D01*
X90536330Y110856291D01*
X90555250Y111000000D01*
X91444749Y111000000D01*
X91463670Y110856290D01*
X91519137Y110722378D01*
X91519138Y110722376D01*
X91519139Y110722375D01*
X91607379Y110607379D01*
X91722375Y110519139D01*
X91722376Y110519139D01*
X91722377Y110519138D01*
X91789332Y110491405D01*
X91856291Y110463670D01*
X92000000Y110444750D01*
X92143709Y110463670D01*
X92277625Y110519139D01*
X92392621Y110607379D01*
X92480861Y110722375D01*
X92481948Y110725000D01*
X96200000Y110725000D01*
X97350000Y110725000D01*
X97350000Y111550000D01*
X97850000Y111550000D01*
X97850000Y110725000D01*
X98999999Y110725000D01*
X98999999Y110848099D01*
X98999808Y110851847D01*
X98989505Y110952697D01*
X98934358Y111119122D01*
X98842316Y111268345D01*
X98718344Y111392317D01*
X98569121Y111484359D01*
X98402696Y111539506D01*
X98301846Y111549810D01*
X98298100Y111550000D01*
X97850000Y111550000D01*
X97350000Y111550000D01*
X96901901Y111550000D01*
X96898153Y111549809D01*
X96797303Y111539506D01*
X96630878Y111484359D01*
X96481655Y111392317D01*
X96357683Y111268345D01*
X96265641Y111119122D01*
X96210494Y110952697D01*
X96200190Y110851847D01*
X96200000Y110848101D01*
X96200000Y110725000D01*
X92481948Y110725000D01*
X92536330Y110856291D01*
X92555250Y111000000D01*
X92536330Y111143709D01*
X92480861Y111277625D01*
X92392621Y111392621D01*
X92277625Y111480861D01*
X92277624Y111480862D01*
X92277622Y111480863D01*
X92143710Y111536330D01*
X92000000Y111555251D01*
X91856289Y111536330D01*
X91722377Y111480863D01*
X91607379Y111392621D01*
X91519137Y111277623D01*
X91463670Y111143711D01*
X91444749Y111000000D01*
X90555250Y111000000D01*
X90536330Y111143709D01*
X90480861Y111277625D01*
X90392621Y111392621D01*
X90277625Y111480861D01*
X90277624Y111480862D01*
X90277622Y111480863D01*
X90143710Y111536330D01*
X90000000Y111555251D01*
X89856289Y111536330D01*
X89722377Y111480863D01*
X89607379Y111392621D01*
X89519137Y111277623D01*
X89463670Y111143711D01*
X89444749Y111000000D01*
X88555250Y111000000D01*
X88536330Y111143709D01*
X88480861Y111277625D01*
X88392621Y111392621D01*
X88277625Y111480861D01*
X88277624Y111480862D01*
X88277622Y111480863D01*
X88143710Y111536330D01*
X88000000Y111555251D01*
X87856289Y111536330D01*
X87722377Y111480863D01*
X87607379Y111392621D01*
X87519137Y111277623D01*
X87463670Y111143711D01*
X87444749Y111000000D01*
X76950500Y111000000D01*
X76950500Y112669432D01*
X76967813Y112716998D01*
X76996179Y112737798D01*
X77025642Y112750001D01*
X87444749Y112750001D01*
X87463670Y112606290D01*
X87519137Y112472378D01*
X87519138Y112472376D01*
X87519139Y112472375D01*
X87607379Y112357379D01*
X87722375Y112269139D01*
X87856291Y112213670D01*
X87978210Y112197619D01*
X87999999Y112194750D01*
X87999999Y112194751D01*
X88000000Y112194750D01*
X88143709Y112213670D01*
X88277625Y112269139D01*
X88392621Y112357379D01*
X88480861Y112472375D01*
X88536330Y112606291D01*
X88555250Y112750000D01*
X88555250Y112750001D01*
X89444749Y112750001D01*
X89463670Y112606290D01*
X89519137Y112472378D01*
X89519138Y112472376D01*
X89519139Y112472375D01*
X89607379Y112357379D01*
X89722375Y112269139D01*
X89856291Y112213670D01*
X89978210Y112197619D01*
X89999999Y112194750D01*
X89999999Y112194751D01*
X90000000Y112194750D01*
X90143709Y112213670D01*
X90277625Y112269139D01*
X90392621Y112357379D01*
X90480861Y112472375D01*
X90536330Y112606291D01*
X90555250Y112750000D01*
X91444749Y112750000D01*
X91463670Y112606290D01*
X91519137Y112472378D01*
X91519138Y112472376D01*
X91519139Y112472375D01*
X91607379Y112357379D01*
X91722375Y112269139D01*
X91856291Y112213670D01*
X91978210Y112197619D01*
X91999999Y112194750D01*
X91999999Y112194751D01*
X92000000Y112194750D01*
X92143709Y112213670D01*
X92277625Y112269139D01*
X92392621Y112357379D01*
X92480861Y112472375D01*
X92536330Y112606291D01*
X92555250Y112750000D01*
X92536330Y112893709D01*
X92480861Y113027625D01*
X92392621Y113142621D01*
X92277625Y113230861D01*
X92277624Y113230862D01*
X92277622Y113230863D01*
X92143710Y113286330D01*
X92000000Y113305251D01*
X91856289Y113286330D01*
X91722377Y113230863D01*
X91607379Y113142621D01*
X91519137Y113027623D01*
X91463670Y112893711D01*
X91444749Y112750000D01*
X90555250Y112750000D01*
X90536330Y112893709D01*
X90480861Y113027625D01*
X90392621Y113142621D01*
X90277625Y113230861D01*
X90277624Y113230862D01*
X90277622Y113230863D01*
X90143710Y113286330D01*
X90000000Y113305251D01*
X89856289Y113286330D01*
X89722377Y113230863D01*
X89607379Y113142621D01*
X89519137Y113027623D01*
X89463670Y112893711D01*
X89444749Y112750001D01*
X88555250Y112750001D01*
X88554435Y112756187D01*
X88542818Y112844428D01*
X88536330Y112893709D01*
X88480861Y113027625D01*
X88392621Y113142621D01*
X88277625Y113230861D01*
X88277624Y113230862D01*
X88277622Y113230863D01*
X88143710Y113286330D01*
X88000000Y113305251D01*
X87856289Y113286330D01*
X87722377Y113230863D01*
X87607379Y113142621D01*
X87519137Y113027623D01*
X87463670Y112893711D01*
X87444749Y112750001D01*
X77025642Y112750001D01*
X77040577Y112756187D01*
X77155573Y112844427D01*
X77243813Y112959423D01*
X77299282Y113093339D01*
X77318202Y113237048D01*
X77299282Y113380757D01*
X77243813Y113514673D01*
X77155573Y113629669D01*
X77040577Y113717909D01*
X77040576Y113717910D01*
X77040574Y113717911D01*
X76906662Y113773378D01*
X76762952Y113792299D01*
X76619243Y113773378D01*
X76602317Y113766367D01*
X76551747Y113764160D01*
X76511588Y113794976D01*
X76500000Y113834735D01*
X76500000Y114354156D01*
X78460000Y114354156D01*
X78460211Y114350202D01*
X78466402Y114292622D01*
X78516646Y114157914D01*
X78602811Y114042812D01*
X78717913Y113956647D01*
X78852621Y113906403D01*
X78910201Y113900212D01*
X78914155Y113900000D01*
X80210000Y113900000D01*
X80210000Y115178198D01*
X80371169Y115140000D01*
X80504267Y115140000D01*
X80636461Y115155451D01*
X80710000Y115182218D01*
X80710000Y113900000D01*
X82005845Y113900000D01*
X82009798Y113900212D01*
X82067378Y113906403D01*
X82202086Y113956647D01*
X82317188Y114042812D01*
X82403353Y114157914D01*
X82453597Y114292622D01*
X82459788Y114350202D01*
X82460000Y114354156D01*
X82460000Y115650000D01*
X81178483Y115650000D01*
X81213549Y115767129D01*
X81221288Y115900001D01*
X83834732Y115900001D01*
X83853777Y115645847D01*
X83910492Y115397363D01*
X84003607Y115160112D01*
X84131043Y114939384D01*
X84289945Y114740127D01*
X84476781Y114566769D01*
X84687367Y114423194D01*
X84916998Y114312610D01*
X85160542Y114237487D01*
X85412561Y114199500D01*
X85412565Y114199500D01*
X85667439Y114199500D01*
X85869053Y114229890D01*
X85919458Y114237487D01*
X86163004Y114312611D01*
X86303464Y114380253D01*
X89319500Y114380253D01*
X89331132Y114321771D01*
X89331132Y114321770D01*
X89331133Y114321769D01*
X89375448Y114255448D01*
X89441769Y114211133D01*
X89500252Y114199500D01*
X92539748Y114199500D01*
X92598231Y114211133D01*
X92664552Y114255448D01*
X92708867Y114321769D01*
X92720500Y114380252D01*
X92720500Y115900001D01*
X94394732Y115900001D01*
X94413777Y115645847D01*
X94470492Y115397363D01*
X94563607Y115160112D01*
X94691043Y114939384D01*
X94849945Y114740127D01*
X95036781Y114566769D01*
X95247367Y114423194D01*
X95476998Y114312610D01*
X95720542Y114237487D01*
X95972561Y114199500D01*
X95972565Y114199500D01*
X96227439Y114199500D01*
X96429053Y114229890D01*
X96479458Y114237487D01*
X96723004Y114312611D01*
X96952634Y114423195D01*
X97163217Y114566768D01*
X97350050Y114740123D01*
X97350050Y114740125D01*
X97350054Y114740127D01*
X97508956Y114939384D01*
X97508956Y114939385D01*
X97508959Y114939388D01*
X97636393Y115160112D01*
X97729508Y115397363D01*
X97786222Y115645843D01*
X97805268Y115900000D01*
X97786222Y116154157D01*
X97729508Y116402637D01*
X97636393Y116639888D01*
X97508959Y116860612D01*
X97508958Y116860613D01*
X97508956Y116860617D01*
X97350054Y117059874D01*
X97163218Y117233232D01*
X96952632Y117376807D01*
X96723001Y117487391D01*
X96479457Y117562514D01*
X96227439Y117600500D01*
X96227435Y117600500D01*
X95972565Y117600500D01*
X95972561Y117600500D01*
X95720542Y117562514D01*
X95476998Y117487391D01*
X95247367Y117376807D01*
X95036781Y117233232D01*
X94849945Y117059874D01*
X94691043Y116860617D01*
X94563607Y116639889D01*
X94470492Y116402638D01*
X94413777Y116154154D01*
X94394732Y115900001D01*
X92720500Y115900001D01*
X92720500Y117419748D01*
X92708867Y117478231D01*
X92664552Y117544552D01*
X92598231Y117588867D01*
X92598230Y117588868D01*
X92598229Y117588868D01*
X92539748Y117600500D01*
X89500252Y117600500D01*
X89441770Y117588868D01*
X89375448Y117544552D01*
X89331132Y117478230D01*
X89319500Y117419748D01*
X89319500Y114380253D01*
X86303464Y114380253D01*
X86392634Y114423195D01*
X86603217Y114566768D01*
X86790050Y114740123D01*
X86790050Y114740125D01*
X86790054Y114740127D01*
X86948956Y114939384D01*
X86948956Y114939385D01*
X86948959Y114939388D01*
X87076393Y115160112D01*
X87169508Y115397363D01*
X87226222Y115645843D01*
X87245268Y115900000D01*
X87226222Y116154157D01*
X87169508Y116402637D01*
X87076393Y116639888D01*
X86948959Y116860612D01*
X86948958Y116860613D01*
X86948956Y116860617D01*
X86790054Y117059874D01*
X86603218Y117233232D01*
X86392632Y117376807D01*
X86163001Y117487391D01*
X85919457Y117562514D01*
X85667439Y117600500D01*
X85667435Y117600500D01*
X85412565Y117600500D01*
X85412561Y117600500D01*
X85160542Y117562514D01*
X84916998Y117487391D01*
X84687367Y117376807D01*
X84476781Y117233232D01*
X84289945Y117059874D01*
X84131043Y116860617D01*
X84003607Y116639889D01*
X83910492Y116402638D01*
X83853777Y116154154D01*
X83834732Y115900001D01*
X81221288Y115900001D01*
X81223879Y115944491D01*
X81193029Y116119454D01*
X81179853Y116150000D01*
X82460000Y116150000D01*
X82460000Y117445845D01*
X82459788Y117449799D01*
X82453597Y117507379D01*
X82403353Y117642087D01*
X82317188Y117757189D01*
X82202086Y117843354D01*
X82067378Y117893598D01*
X82009798Y117899789D01*
X82005845Y117900000D01*
X80710000Y117900000D01*
X80710000Y116621803D01*
X80548831Y116660000D01*
X80415733Y116660000D01*
X80283539Y116644549D01*
X80210000Y116617783D01*
X80210000Y117900000D01*
X78914155Y117900000D01*
X78910201Y117899789D01*
X78852621Y117893598D01*
X78717913Y117843354D01*
X78602811Y117757189D01*
X78516646Y117642087D01*
X78466402Y117507379D01*
X78460211Y117449799D01*
X78460000Y117445845D01*
X78460000Y116150000D01*
X79741517Y116150000D01*
X79706451Y116032871D01*
X79696121Y115855509D01*
X79726971Y115680546D01*
X79740147Y115650000D01*
X78460000Y115650000D01*
X78460000Y114354156D01*
X76500000Y114354156D01*
X76500000Y114880509D01*
X76508619Y114915169D01*
X76590743Y115070070D01*
X76727227Y115412621D01*
X76825875Y115767919D01*
X76885531Y116131801D01*
X76905494Y116500000D01*
X76885531Y116868199D01*
X76825875Y117232081D01*
X76727227Y117587379D01*
X76590743Y117929930D01*
X76508620Y118084831D01*
X76500000Y118119493D01*
X76500000Y118926000D01*
X76517313Y118973566D01*
X76561150Y118998876D01*
X76574000Y119000000D01*
X87637541Y119000000D01*
X87685107Y118982687D01*
G37*
G04 #@! TD.AperFunction*
G04 #@! TD*
G04 #@! TA.AperFunction,Conductor*
G04 #@! TO.N,GND*
G36*
X69517183Y114981093D02*
G01*
X69528996Y114971004D01*
X72000000Y112500000D01*
X74074990Y112500000D01*
X74133181Y112481093D01*
X74169145Y112431593D01*
X74169145Y112370407D01*
X74144994Y112330996D01*
X72893494Y111079496D01*
X72838977Y111051719D01*
X72823490Y111050500D01*
X71427611Y111050500D01*
X71369420Y111069407D01*
X71357607Y111079496D01*
X71166601Y111270502D01*
X71138824Y111325019D01*
X71138452Y111327587D01*
X71136330Y111343710D01*
X71120083Y111382933D01*
X71080861Y111477625D01*
X71030932Y111542694D01*
X70992621Y111592622D01*
X70927552Y111642550D01*
X70877625Y111680861D01*
X70838401Y111697108D01*
X70743709Y111736331D01*
X70600000Y111755250D01*
X70456290Y111736331D01*
X70322375Y111680861D01*
X70207378Y111592622D01*
X70119139Y111477625D01*
X70063669Y111343710D01*
X70044750Y111200000D01*
X70063669Y111056290D01*
X70074246Y111030756D01*
X70079046Y110969759D01*
X70061325Y110932604D01*
X70019137Y110877623D01*
X69963669Y110743711D01*
X69944750Y110600000D01*
X69963669Y110456291D01*
X70002892Y110361599D01*
X70019139Y110322375D01*
X70054142Y110276758D01*
X70107378Y110207379D01*
X70156122Y110169977D01*
X70222375Y110119139D01*
X70317067Y110079917D01*
X70356290Y110063670D01*
X70375209Y110061180D01*
X70500000Y110044750D01*
X70643709Y110063670D01*
X70777625Y110119139D01*
X70790530Y110129042D01*
X70848207Y110149466D01*
X70850798Y110149500D01*
X71132098Y110149500D01*
X71189716Y110149500D01*
X71193418Y110149431D01*
X71251010Y110147276D01*
X71251011Y110147277D01*
X71254467Y110147147D01*
X71272345Y110149500D01*
X73020237Y110149500D01*
X73031320Y110148878D01*
X73033696Y110148611D01*
X73068136Y110144730D01*
X73124794Y110155452D01*
X73128368Y110156059D01*
X73185388Y110164652D01*
X73185391Y110164654D01*
X73188825Y110165171D01*
X73198505Y110168356D01*
X73201571Y110169977D01*
X73201573Y110169977D01*
X73252545Y110196918D01*
X73255829Y110198576D01*
X73307743Y110223575D01*
X73307744Y110223577D01*
X73310863Y110225078D01*
X73319189Y110230986D01*
X73321634Y110233432D01*
X73321639Y110233434D01*
X73362417Y110274214D01*
X73365028Y110276729D01*
X73407295Y110315945D01*
X73407296Y110315948D01*
X73409833Y110318301D01*
X73420804Y110332601D01*
X75559207Y112471005D01*
X75613724Y112498781D01*
X75629211Y112500000D01*
X76150500Y112500000D01*
X76208691Y112481093D01*
X76244655Y112431593D01*
X76249500Y112401000D01*
X76249500Y104286191D01*
X76230593Y104228000D01*
X76220504Y104216187D01*
X76009168Y104004851D01*
X75954651Y103977074D01*
X75894219Y103986645D01*
X75850954Y104029910D01*
X75847710Y104036946D01*
X75830861Y104077625D01*
X75797548Y104121039D01*
X75742621Y104192622D01*
X75677552Y104242550D01*
X75627625Y104280861D01*
X75588401Y104297108D01*
X75493709Y104336331D01*
X75350000Y104355250D01*
X75206290Y104336331D01*
X75072375Y104280861D01*
X74957378Y104192622D01*
X74869139Y104077625D01*
X74813669Y103943710D01*
X74794750Y103800000D01*
X74813669Y103656291D01*
X74823191Y103633304D01*
X74869139Y103522375D01*
X74903861Y103477125D01*
X74957378Y103407379D01*
X75045618Y103339671D01*
X75072375Y103319139D01*
X75113029Y103302300D01*
X75159555Y103262564D01*
X75173839Y103203069D01*
X75150425Y103146541D01*
X75145148Y103140832D01*
X71783814Y99779496D01*
X71729297Y99751719D01*
X71713810Y99750500D01*
X71699253Y99750500D01*
X71641062Y99769407D01*
X71605098Y99818907D01*
X71605098Y99880093D01*
X71607789Y99887385D01*
X71636330Y99956290D01*
X71638905Y99975852D01*
X71655250Y100100000D01*
X71636330Y100243709D01*
X71580861Y100377625D01*
X71530932Y100442694D01*
X71492621Y100492622D01*
X71403048Y100561353D01*
X71377625Y100580861D01*
X71330400Y100600422D01*
X71243709Y100636331D01*
X71116717Y100653049D01*
X71100000Y100655250D01*
X71099999Y100655250D01*
X70956290Y100636331D01*
X70822375Y100580861D01*
X70707378Y100492622D01*
X70619139Y100377625D01*
X70563669Y100243710D01*
X70544750Y100100000D01*
X70563669Y99956290D01*
X70613060Y99837048D01*
X70617860Y99776051D01*
X70585891Y99723882D01*
X70565077Y99710222D01*
X70517175Y99686805D01*
X70513985Y99684426D01*
X70476964Y99644213D01*
X70474134Y99641264D01*
X70314991Y99482120D01*
X70260474Y99454342D01*
X70200042Y99463913D01*
X70156777Y99507178D01*
X70153523Y99514238D01*
X70151070Y99520161D01*
X70141551Y99543142D01*
X70091649Y99608174D01*
X70071227Y99665847D01*
X70088604Y99724513D01*
X70091652Y99728707D01*
X70093751Y99731444D01*
X70093755Y99731446D01*
X70181995Y99846442D01*
X70237464Y99980358D01*
X70256384Y100124067D01*
X70237464Y100267776D01*
X70235378Y100272811D01*
X70211035Y100331582D01*
X70181995Y100401692D01*
X70132066Y100466761D01*
X70093755Y100516689D01*
X70028686Y100566617D01*
X69978759Y100604928D01*
X69939535Y100621175D01*
X69844843Y100660398D01*
X69717851Y100677116D01*
X69701134Y100679317D01*
X69701133Y100679317D01*
X69557424Y100660398D01*
X69423509Y100604928D01*
X69308512Y100516689D01*
X69220273Y100401692D01*
X69164803Y100267777D01*
X69145884Y100124068D01*
X69164803Y99980358D01*
X69180013Y99943639D01*
X69220273Y99846442D01*
X69242694Y99817223D01*
X69270171Y99781413D01*
X69290595Y99723737D01*
X69273217Y99665071D01*
X69270171Y99660879D01*
X69179829Y99543142D01*
X69124359Y99409227D01*
X69105440Y99265518D01*
X69105440Y99265517D01*
X69118192Y99168653D01*
X69107043Y99108494D01*
X69090044Y99085729D01*
X69033313Y99028997D01*
X68978797Y99001219D01*
X68963309Y99000000D01*
X67651110Y99000000D01*
X67613225Y99007536D01*
X67585772Y99018907D01*
X67543708Y99036331D01*
X67527580Y99038454D01*
X67472355Y99064796D01*
X67470500Y99066603D01*
X67135621Y99401482D01*
X67107844Y99455999D01*
X67117415Y99516431D01*
X67160680Y99559696D01*
X67192701Y99569639D01*
X67295944Y99583231D01*
X67429860Y99638700D01*
X67544856Y99726940D01*
X67633096Y99841936D01*
X67688565Y99975852D01*
X67707485Y100119561D01*
X67688565Y100263270D01*
X67686698Y100267777D01*
X67670295Y100307379D01*
X67633096Y100397186D01*
X67559865Y100492622D01*
X67544856Y100512183D01*
X67455352Y100580861D01*
X67429860Y100600422D01*
X67390264Y100616823D01*
X67295944Y100655892D01*
X67168952Y100672610D01*
X67152235Y100674811D01*
X67152234Y100674811D01*
X67008525Y100655892D01*
X66874610Y100600422D01*
X66759613Y100512183D01*
X66671374Y100397186D01*
X66615904Y100263271D01*
X66596985Y100119561D01*
X66615904Y99975852D01*
X66671373Y99841937D01*
X66681096Y99829266D01*
X66701519Y99771590D01*
X66684141Y99712925D01*
X66635599Y99675678D01*
X66602553Y99670000D01*
X66458111Y99670000D01*
X66399920Y99688907D01*
X66388107Y99698996D01*
X64979496Y101107607D01*
X64951719Y101162124D01*
X64950500Y101177611D01*
X64950500Y102090028D01*
X65540036Y102090028D01*
X65558955Y101946319D01*
X65598178Y101851627D01*
X65614425Y101812403D01*
X65616362Y101809879D01*
X65702664Y101697407D01*
X65738800Y101669679D01*
X65773456Y101619255D01*
X65771855Y101558090D01*
X65738802Y101512596D01*
X65709752Y101490305D01*
X65621513Y101375308D01*
X65566043Y101241393D01*
X65547124Y101097683D01*
X65566043Y100953974D01*
X65598954Y100874521D01*
X65621513Y100820058D01*
X65659824Y100770131D01*
X65709752Y100705062D01*
X65759680Y100666751D01*
X65824749Y100616822D01*
X65911568Y100580861D01*
X65958664Y100561353D01*
X65975382Y100559152D01*
X66102374Y100542433D01*
X66246083Y100561353D01*
X66379999Y100616822D01*
X66494995Y100705062D01*
X66583235Y100820058D01*
X66638704Y100953974D01*
X66657624Y101097683D01*
X66640905Y101224675D01*
X66638704Y101241393D01*
X66608879Y101313397D01*
X66583235Y101375308D01*
X66494995Y101490304D01*
X66458856Y101518035D01*
X66424202Y101568456D01*
X66425803Y101629621D01*
X66458858Y101675118D01*
X66487907Y101697407D01*
X66493562Y101704776D01*
X66499781Y101712882D01*
X66576147Y101812403D01*
X66631616Y101946319D01*
X66650536Y102090028D01*
X66631616Y102233737D01*
X66576147Y102367653D01*
X66515707Y102446420D01*
X66495284Y102504093D01*
X66512661Y102562759D01*
X66533978Y102585223D01*
X66557985Y102603643D01*
X66646225Y102718639D01*
X66701694Y102852555D01*
X66720614Y102996264D01*
X66701694Y103139973D01*
X66701338Y103140832D01*
X66646225Y103273889D01*
X66570750Y103372250D01*
X66550326Y103429926D01*
X66567704Y103488591D01*
X66589025Y103511059D01*
X66627072Y103540254D01*
X66638594Y103555270D01*
X66715312Y103655250D01*
X66770781Y103789166D01*
X66789701Y103932875D01*
X66770781Y104076584D01*
X66758025Y104107379D01*
X66754534Y104115808D01*
X66715312Y104210500D01*
X66657232Y104286191D01*
X66627072Y104325497D01*
X66562003Y104375425D01*
X66512076Y104413736D01*
X66472852Y104429983D01*
X66378160Y104469206D01*
X66234451Y104488125D01*
X66090740Y104469206D01*
X65983647Y104424846D01*
X65923159Y104420087D01*
X65901488Y104373077D01*
X65889058Y104361736D01*
X65841828Y104325495D01*
X65753590Y104210500D01*
X65698120Y104076585D01*
X65679201Y103932875D01*
X65698120Y103789166D01*
X65753590Y103655250D01*
X65829064Y103556889D01*
X65849488Y103499213D01*
X65832110Y103440547D01*
X65810790Y103418080D01*
X65772741Y103388884D01*
X65684503Y103273889D01*
X65629033Y103139974D01*
X65610114Y102996264D01*
X65629033Y102852555D01*
X65684503Y102718639D01*
X65744940Y102639875D01*
X65765364Y102582199D01*
X65747986Y102523533D01*
X65726667Y102501067D01*
X65702664Y102482649D01*
X65614424Y102367653D01*
X65558955Y102233738D01*
X65540036Y102090028D01*
X64950500Y102090028D01*
X64950500Y102994335D01*
X64951122Y103005418D01*
X64955270Y103042232D01*
X64944553Y103098870D01*
X64943933Y103102522D01*
X64941704Y103117311D01*
X64935348Y103159484D01*
X64935347Y103159485D01*
X64934831Y103162913D01*
X64931644Y103172601D01*
X64930023Y103175668D01*
X64930023Y103175669D01*
X64903077Y103226651D01*
X64901436Y103229901D01*
X64876425Y103281839D01*
X64876423Y103281841D01*
X64874921Y103284961D01*
X64869015Y103293285D01*
X64825811Y103336490D01*
X64823242Y103339157D01*
X64781706Y103383924D01*
X64767396Y103394904D01*
X64528996Y103633304D01*
X64501219Y103687821D01*
X64500000Y103703308D01*
X64500000Y104425500D01*
X64518907Y104483691D01*
X64568407Y104519655D01*
X64599000Y104524500D01*
X65744746Y104524500D01*
X65744748Y104524500D01*
X65803231Y104536133D01*
X65803232Y104536135D01*
X65809475Y104537376D01*
X65852759Y104532253D01*
X65861351Y104568038D01*
X65863447Y104571312D01*
X65869552Y104580448D01*
X65913867Y104646769D01*
X65925500Y104705252D01*
X65925500Y105352553D01*
X69500001Y105352553D01*
X69500257Y105347518D01*
X69510494Y105247303D01*
X69565642Y105080878D01*
X69657681Y104931659D01*
X69781658Y104807682D01*
X69930878Y104715643D01*
X70097305Y104660494D01*
X70197500Y104650258D01*
X70202551Y104650001D01*
X70451610Y104650001D01*
X70509800Y104631094D01*
X70545764Y104581594D01*
X70549763Y104538080D01*
X70544750Y104500001D01*
X70563669Y104356291D01*
X70602892Y104261599D01*
X70619139Y104222375D01*
X70641970Y104192621D01*
X70707378Y104107379D01*
X70757306Y104069068D01*
X70822375Y104019139D01*
X70900824Y103986645D01*
X70956290Y103963670D01*
X70973008Y103961469D01*
X71100000Y103944750D01*
X71243709Y103963670D01*
X71377625Y104019139D01*
X71492621Y104107379D01*
X71580861Y104222375D01*
X71636330Y104356291D01*
X71655250Y104500000D01*
X71650493Y104536133D01*
X71650237Y104538080D01*
X71661387Y104598240D01*
X71705770Y104640357D01*
X71748390Y104650001D01*
X71949999Y104650001D01*
X71950000Y104650003D01*
X71950000Y106149999D01*
X71949999Y106150000D01*
X72450000Y106150000D01*
X72450000Y104650002D01*
X72450001Y104650001D01*
X74197447Y104650001D01*
X74202482Y104650258D01*
X74302697Y104660495D01*
X74469122Y104715643D01*
X74618341Y104807682D01*
X74742318Y104931659D01*
X74834357Y105080879D01*
X74889506Y105247306D01*
X74899742Y105347501D01*
X74900000Y105352552D01*
X74900000Y106149999D01*
X74899999Y106150000D01*
X72450000Y106150000D01*
X71949999Y106150000D01*
X69500002Y106150000D01*
X69500001Y106149999D01*
X69500001Y105352553D01*
X65925500Y105352553D01*
X65925500Y105855254D01*
X67474500Y105855254D01*
X67486133Y105796769D01*
X67530447Y105730448D01*
X67574762Y105700838D01*
X67596769Y105686133D01*
X67655252Y105674500D01*
X67655253Y105674500D01*
X68894747Y105674500D01*
X68894748Y105674500D01*
X68953231Y105686133D01*
X69019552Y105730448D01*
X69063867Y105796769D01*
X69075500Y105855252D01*
X69075500Y106650002D01*
X69500000Y106650002D01*
X69500001Y106650000D01*
X71949999Y106650000D01*
X71950000Y106650001D01*
X72450000Y106650001D01*
X72450001Y106650000D01*
X74899998Y106650000D01*
X74899999Y106650001D01*
X74899999Y107339191D01*
X74918906Y107397382D01*
X74968406Y107433346D01*
X75029592Y107433346D01*
X75059261Y107417736D01*
X75122375Y107369307D01*
X75122376Y107369307D01*
X75122377Y107369306D01*
X75256290Y107313838D01*
X75273008Y107311637D01*
X75400000Y107294918D01*
X75543709Y107313838D01*
X75677625Y107369307D01*
X75792621Y107457547D01*
X75880861Y107572543D01*
X75936330Y107706459D01*
X75955250Y107850168D01*
X75936330Y107993877D01*
X75880861Y108127793D01*
X75830932Y108192862D01*
X75792621Y108242790D01*
X75727552Y108292718D01*
X75677625Y108331029D01*
X75638401Y108347276D01*
X75543709Y108386499D01*
X75400000Y108405418D01*
X75256290Y108386499D01*
X75122375Y108331029D01*
X75007378Y108242790D01*
X74919139Y108127793D01*
X74863669Y107993878D01*
X74861151Y107974747D01*
X74834809Y107919522D01*
X74781038Y107890328D01*
X74720376Y107898315D01*
X74692994Y107917666D01*
X74618341Y107992319D01*
X74469121Y108084358D01*
X74302694Y108139507D01*
X74202499Y108149743D01*
X74197449Y108150000D01*
X72450001Y108150000D01*
X72450000Y108149999D01*
X72450000Y106650001D01*
X71950000Y106650001D01*
X71950000Y108149999D01*
X71949999Y108150000D01*
X70202552Y108150000D01*
X70197517Y108149743D01*
X70097302Y108139506D01*
X69930877Y108084358D01*
X69781658Y107992319D01*
X69657681Y107868342D01*
X69565642Y107719122D01*
X69510493Y107552695D01*
X69500257Y107452500D01*
X69500000Y107447449D01*
X69500000Y106650002D01*
X69075500Y106650002D01*
X69075500Y106894748D01*
X69063867Y106953231D01*
X69049162Y106975239D01*
X69019552Y107019553D01*
X68953231Y107063867D01*
X68953231Y107063868D01*
X68894748Y107075500D01*
X67655252Y107075500D01*
X67626010Y107069684D01*
X67596768Y107063867D01*
X67530447Y107019553D01*
X67486133Y106953232D01*
X67474500Y106894747D01*
X67474500Y105855254D01*
X65925500Y105855254D01*
X65925500Y106094748D01*
X65913867Y106153231D01*
X65899162Y106175238D01*
X65869552Y106219553D01*
X65803231Y106263867D01*
X65769784Y106270520D01*
X65744748Y106275500D01*
X64599000Y106275500D01*
X64540809Y106294407D01*
X64504845Y106343907D01*
X64500000Y106374500D01*
X64500000Y107294919D01*
X64500000Y108221893D01*
X64518906Y108280080D01*
X64528987Y108291884D01*
X65046748Y108809646D01*
X65055007Y108817025D01*
X65083970Y108840121D01*
X65116452Y108887765D01*
X65118531Y108890697D01*
X65152792Y108937117D01*
X65152794Y108937123D01*
X65154854Y108939914D01*
X65159452Y108949021D01*
X65177462Y109007410D01*
X65178620Y109010930D01*
X65197646Y109065300D01*
X65197646Y109065303D01*
X65198790Y109068572D01*
X65200500Y109078633D01*
X65200500Y109139717D01*
X65200569Y109143419D01*
X65202853Y109204470D01*
X65200500Y109222338D01*
X65200500Y109555254D01*
X67474500Y109555254D01*
X67486133Y109496769D01*
X67530447Y109430448D01*
X67574762Y109400838D01*
X67596769Y109386133D01*
X67655252Y109374500D01*
X67655253Y109374500D01*
X68894747Y109374500D01*
X68894748Y109374500D01*
X68953231Y109386133D01*
X69019552Y109430448D01*
X69063867Y109496769D01*
X69075500Y109555252D01*
X69075500Y110594748D01*
X69063867Y110653231D01*
X69049162Y110675239D01*
X69019552Y110719553D01*
X68953231Y110763867D01*
X68953231Y110763868D01*
X68894748Y110775500D01*
X67655252Y110775500D01*
X67626010Y110769684D01*
X67596768Y110763867D01*
X67530447Y110719553D01*
X67486133Y110653232D01*
X67474500Y110594747D01*
X67474500Y109555254D01*
X65200500Y109555254D01*
X65200500Y112738086D01*
X65202982Y112760114D01*
X65204315Y112765954D01*
X65200777Y112813165D01*
X65200500Y112820563D01*
X65200500Y113249202D01*
X65219407Y113307393D01*
X65220958Y113309469D01*
X65222458Y113311425D01*
X65230861Y113322375D01*
X65286330Y113456291D01*
X65305250Y113600000D01*
X65286330Y113743709D01*
X65230861Y113877625D01*
X65170671Y113956066D01*
X65142621Y113992622D01*
X65067192Y114050500D01*
X65027625Y114080861D01*
X64978092Y114101378D01*
X64893709Y114136331D01*
X64766717Y114153049D01*
X64750000Y114155250D01*
X64749999Y114155250D01*
X64611922Y114137072D01*
X64551761Y114148222D01*
X64509644Y114192605D01*
X64500000Y114235225D01*
X64500000Y114363312D01*
X64518907Y114421503D01*
X64528990Y114433310D01*
X64754884Y114659204D01*
X64770734Y114672074D01*
X64780669Y114678563D01*
X64799450Y114702695D01*
X64807570Y114711889D01*
X64808375Y114712693D01*
X64819874Y114728800D01*
X64822291Y114732040D01*
X64855880Y114775195D01*
X64857675Y114778682D01*
X64859237Y114783932D01*
X64859239Y114783933D01*
X64873286Y114831118D01*
X64874512Y114834945D01*
X64890500Y114881512D01*
X64890500Y114881516D01*
X64892272Y114886677D01*
X64892842Y114890586D01*
X64892581Y114896906D01*
X64909065Y114955829D01*
X64957036Y114993809D01*
X64991496Y115000000D01*
X69458992Y115000000D01*
X69517183Y114981093D01*
G37*
G04 #@! TD.AperFunction*
G04 #@! TD*
M02*
