G04 #@! TF.GenerationSoftware,KiCad,Pcbnew,7.0.2-6a45011f42~172~ubuntu20.04.1*
G04 #@! TF.CreationDate,2023-05-22T19:25:16+03:00*
G04 #@! TF.ProjectId,BLDC_4,424c4443-5f34-42e6-9b69-6361645f7063,rev?*
G04 #@! TF.SameCoordinates,PX40d9900PYa21fe80*
G04 #@! TF.FileFunction,Legend,Bot*
G04 #@! TF.FilePolarity,Positive*
%FSLAX46Y46*%
G04 Gerber Fmt 4.6, Leading zero omitted, Abs format (unit mm)*
G04 Created by KiCad (PCBNEW 7.0.2-6a45011f42~172~ubuntu20.04.1) date 2023-05-22 19:25:16*
%MOMM*%
%LPD*%
G01*
G04 APERTURE LIST*
%ADD10C,0.150000*%
%ADD11C,0.200000*%
%ADD12C,0.120000*%
G04 APERTURE END LIST*
D10*
X40661904Y99922381D02*
X40661904Y100922381D01*
X40661904Y100922381D02*
X40090476Y99922381D01*
X40090476Y99922381D02*
X40090476Y100922381D01*
X39042857Y99922381D02*
X39376190Y100398572D01*
X39614285Y99922381D02*
X39614285Y100922381D01*
X39614285Y100922381D02*
X39233333Y100922381D01*
X39233333Y100922381D02*
X39138095Y100874762D01*
X39138095Y100874762D02*
X39090476Y100827143D01*
X39090476Y100827143D02*
X39042857Y100731905D01*
X39042857Y100731905D02*
X39042857Y100589048D01*
X39042857Y100589048D02*
X39090476Y100493810D01*
X39090476Y100493810D02*
X39138095Y100446191D01*
X39138095Y100446191D02*
X39233333Y100398572D01*
X39233333Y100398572D02*
X39614285Y100398572D01*
X38661904Y99970000D02*
X38519047Y99922381D01*
X38519047Y99922381D02*
X38280952Y99922381D01*
X38280952Y99922381D02*
X38185714Y99970000D01*
X38185714Y99970000D02*
X38138095Y100017620D01*
X38138095Y100017620D02*
X38090476Y100112858D01*
X38090476Y100112858D02*
X38090476Y100208096D01*
X38090476Y100208096D02*
X38138095Y100303334D01*
X38138095Y100303334D02*
X38185714Y100350953D01*
X38185714Y100350953D02*
X38280952Y100398572D01*
X38280952Y100398572D02*
X38471428Y100446191D01*
X38471428Y100446191D02*
X38566666Y100493810D01*
X38566666Y100493810D02*
X38614285Y100541429D01*
X38614285Y100541429D02*
X38661904Y100636667D01*
X38661904Y100636667D02*
X38661904Y100731905D01*
X38661904Y100731905D02*
X38614285Y100827143D01*
X38614285Y100827143D02*
X38566666Y100874762D01*
X38566666Y100874762D02*
X38471428Y100922381D01*
X38471428Y100922381D02*
X38233333Y100922381D01*
X38233333Y100922381D02*
X38090476Y100874762D01*
X37804761Y100922381D02*
X37233333Y100922381D01*
X37519047Y99922381D02*
X37519047Y100922381D01*
X77010952Y115033334D02*
X77677619Y115033334D01*
X76630000Y115271429D02*
X77344285Y115509524D01*
X77344285Y115509524D02*
X77344285Y114890477D01*
X77106190Y114366667D02*
X77058571Y114461905D01*
X77058571Y114461905D02*
X77010952Y114509524D01*
X77010952Y114509524D02*
X76915714Y114557143D01*
X76915714Y114557143D02*
X76868095Y114557143D01*
X76868095Y114557143D02*
X76772857Y114509524D01*
X76772857Y114509524D02*
X76725238Y114461905D01*
X76725238Y114461905D02*
X76677619Y114366667D01*
X76677619Y114366667D02*
X76677619Y114176191D01*
X76677619Y114176191D02*
X76725238Y114080953D01*
X76725238Y114080953D02*
X76772857Y114033334D01*
X76772857Y114033334D02*
X76868095Y113985715D01*
X76868095Y113985715D02*
X76915714Y113985715D01*
X76915714Y113985715D02*
X77010952Y114033334D01*
X77010952Y114033334D02*
X77058571Y114080953D01*
X77058571Y114080953D02*
X77106190Y114176191D01*
X77106190Y114176191D02*
X77106190Y114366667D01*
X77106190Y114366667D02*
X77153809Y114461905D01*
X77153809Y114461905D02*
X77201428Y114509524D01*
X77201428Y114509524D02*
X77296666Y114557143D01*
X77296666Y114557143D02*
X77487142Y114557143D01*
X77487142Y114557143D02*
X77582380Y114509524D01*
X77582380Y114509524D02*
X77630000Y114461905D01*
X77630000Y114461905D02*
X77677619Y114366667D01*
X77677619Y114366667D02*
X77677619Y114176191D01*
X77677619Y114176191D02*
X77630000Y114080953D01*
X77630000Y114080953D02*
X77582380Y114033334D01*
X77582380Y114033334D02*
X77487142Y113985715D01*
X77487142Y113985715D02*
X77296666Y113985715D01*
X77296666Y113985715D02*
X77201428Y114033334D01*
X77201428Y114033334D02*
X77153809Y114080953D01*
X77153809Y114080953D02*
X77106190Y114176191D01*
X76677619Y113700000D02*
X77677619Y113366667D01*
X77677619Y113366667D02*
X76677619Y113033334D01*
X77296666Y112700000D02*
X77296666Y111938095D01*
X77677619Y112319048D02*
X76915714Y112319048D01*
X60877619Y98461905D02*
X59877619Y98461905D01*
X60353809Y98461905D02*
X60353809Y97890477D01*
X60877619Y97890477D02*
X59877619Y97890477D01*
X60591904Y97461905D02*
X60591904Y96985715D01*
X60877619Y97557143D02*
X59877619Y97223810D01*
X59877619Y97223810D02*
X60877619Y96890477D01*
X60877619Y96080953D02*
X60877619Y96557143D01*
X60877619Y96557143D02*
X59877619Y96557143D01*
X60877619Y95271429D02*
X60877619Y95747619D01*
X60877619Y95747619D02*
X59877619Y95747619D01*
X59972857Y94985714D02*
X59925238Y94938095D01*
X59925238Y94938095D02*
X59877619Y94842857D01*
X59877619Y94842857D02*
X59877619Y94604762D01*
X59877619Y94604762D02*
X59925238Y94509524D01*
X59925238Y94509524D02*
X59972857Y94461905D01*
X59972857Y94461905D02*
X60068095Y94414286D01*
X60068095Y94414286D02*
X60163333Y94414286D01*
X60163333Y94414286D02*
X60306190Y94461905D01*
X60306190Y94461905D02*
X60877619Y95033333D01*
X60877619Y95033333D02*
X60877619Y94414286D01*
X40830000Y97109524D02*
X40877619Y96966667D01*
X40877619Y96966667D02*
X40877619Y96728572D01*
X40877619Y96728572D02*
X40830000Y96633334D01*
X40830000Y96633334D02*
X40782380Y96585715D01*
X40782380Y96585715D02*
X40687142Y96538096D01*
X40687142Y96538096D02*
X40591904Y96538096D01*
X40591904Y96538096D02*
X40496666Y96585715D01*
X40496666Y96585715D02*
X40449047Y96633334D01*
X40449047Y96633334D02*
X40401428Y96728572D01*
X40401428Y96728572D02*
X40353809Y96919048D01*
X40353809Y96919048D02*
X40306190Y97014286D01*
X40306190Y97014286D02*
X40258571Y97061905D01*
X40258571Y97061905D02*
X40163333Y97109524D01*
X40163333Y97109524D02*
X40068095Y97109524D01*
X40068095Y97109524D02*
X39972857Y97061905D01*
X39972857Y97061905D02*
X39925238Y97014286D01*
X39925238Y97014286D02*
X39877619Y96919048D01*
X39877619Y96919048D02*
X39877619Y96680953D01*
X39877619Y96680953D02*
X39925238Y96538096D01*
X40877619Y96109524D02*
X39877619Y96109524D01*
X39877619Y96109524D02*
X39877619Y95871429D01*
X39877619Y95871429D02*
X39925238Y95728572D01*
X39925238Y95728572D02*
X40020476Y95633334D01*
X40020476Y95633334D02*
X40115714Y95585715D01*
X40115714Y95585715D02*
X40306190Y95538096D01*
X40306190Y95538096D02*
X40449047Y95538096D01*
X40449047Y95538096D02*
X40639523Y95585715D01*
X40639523Y95585715D02*
X40734761Y95633334D01*
X40734761Y95633334D02*
X40830000Y95728572D01*
X40830000Y95728572D02*
X40877619Y95871429D01*
X40877619Y95871429D02*
X40877619Y96109524D01*
X40591904Y95157143D02*
X40591904Y94680953D01*
X40877619Y95252381D02*
X39877619Y94919048D01*
X39877619Y94919048D02*
X40877619Y94585715D01*
X92461904Y113303334D02*
X91700000Y113303334D01*
X92080952Y112922381D02*
X92080952Y113684286D01*
X90747619Y113922381D02*
X91223809Y113922381D01*
X91223809Y113922381D02*
X91271428Y113446191D01*
X91271428Y113446191D02*
X91223809Y113493810D01*
X91223809Y113493810D02*
X91128571Y113541429D01*
X91128571Y113541429D02*
X90890476Y113541429D01*
X90890476Y113541429D02*
X90795238Y113493810D01*
X90795238Y113493810D02*
X90747619Y113446191D01*
X90747619Y113446191D02*
X90700000Y113350953D01*
X90700000Y113350953D02*
X90700000Y113112858D01*
X90700000Y113112858D02*
X90747619Y113017620D01*
X90747619Y113017620D02*
X90795238Y112970000D01*
X90795238Y112970000D02*
X90890476Y112922381D01*
X90890476Y112922381D02*
X91128571Y112922381D01*
X91128571Y112922381D02*
X91223809Y112970000D01*
X91223809Y112970000D02*
X91271428Y113017620D01*
X90414285Y113922381D02*
X90080952Y112922381D01*
X90080952Y112922381D02*
X89747619Y113922381D01*
X63377619Y98461905D02*
X62377619Y98461905D01*
X62853809Y98461905D02*
X62853809Y97890477D01*
X63377619Y97890477D02*
X62377619Y97890477D01*
X63091904Y97461905D02*
X63091904Y96985715D01*
X63377619Y97557143D02*
X62377619Y97223810D01*
X62377619Y97223810D02*
X63377619Y96890477D01*
X63377619Y96080953D02*
X63377619Y96557143D01*
X63377619Y96557143D02*
X62377619Y96557143D01*
X63377619Y95271429D02*
X63377619Y95747619D01*
X63377619Y95747619D02*
X62377619Y95747619D01*
X63377619Y94414286D02*
X63377619Y94985714D01*
X63377619Y94700000D02*
X62377619Y94700000D01*
X62377619Y94700000D02*
X62520476Y94795238D01*
X62520476Y94795238D02*
X62615714Y94890476D01*
X62615714Y94890476D02*
X62663333Y94985714D01*
X39338095Y106074762D02*
X39433333Y106122381D01*
X39433333Y106122381D02*
X39576190Y106122381D01*
X39576190Y106122381D02*
X39719047Y106074762D01*
X39719047Y106074762D02*
X39814285Y105979524D01*
X39814285Y105979524D02*
X39861904Y105884286D01*
X39861904Y105884286D02*
X39909523Y105693810D01*
X39909523Y105693810D02*
X39909523Y105550953D01*
X39909523Y105550953D02*
X39861904Y105360477D01*
X39861904Y105360477D02*
X39814285Y105265239D01*
X39814285Y105265239D02*
X39719047Y105170000D01*
X39719047Y105170000D02*
X39576190Y105122381D01*
X39576190Y105122381D02*
X39480952Y105122381D01*
X39480952Y105122381D02*
X39338095Y105170000D01*
X39338095Y105170000D02*
X39290476Y105217620D01*
X39290476Y105217620D02*
X39290476Y105550953D01*
X39290476Y105550953D02*
X39480952Y105550953D01*
X38861904Y105122381D02*
X38861904Y106122381D01*
X38861904Y106122381D02*
X38290476Y105122381D01*
X38290476Y105122381D02*
X38290476Y106122381D01*
X37814285Y105122381D02*
X37814285Y106122381D01*
X37814285Y106122381D02*
X37576190Y106122381D01*
X37576190Y106122381D02*
X37433333Y106074762D01*
X37433333Y106074762D02*
X37338095Y105979524D01*
X37338095Y105979524D02*
X37290476Y105884286D01*
X37290476Y105884286D02*
X37242857Y105693810D01*
X37242857Y105693810D02*
X37242857Y105550953D01*
X37242857Y105550953D02*
X37290476Y105360477D01*
X37290476Y105360477D02*
X37338095Y105265239D01*
X37338095Y105265239D02*
X37433333Y105170000D01*
X37433333Y105170000D02*
X37576190Y105122381D01*
X37576190Y105122381D02*
X37814285Y105122381D01*
X43096666Y97361905D02*
X43096666Y96600000D01*
X43477619Y96980953D02*
X42715714Y96980953D01*
X42477619Y95647620D02*
X42477619Y96123810D01*
X42477619Y96123810D02*
X42953809Y96171429D01*
X42953809Y96171429D02*
X42906190Y96123810D01*
X42906190Y96123810D02*
X42858571Y96028572D01*
X42858571Y96028572D02*
X42858571Y95790477D01*
X42858571Y95790477D02*
X42906190Y95695239D01*
X42906190Y95695239D02*
X42953809Y95647620D01*
X42953809Y95647620D02*
X43049047Y95600001D01*
X43049047Y95600001D02*
X43287142Y95600001D01*
X43287142Y95600001D02*
X43382380Y95647620D01*
X43382380Y95647620D02*
X43430000Y95695239D01*
X43430000Y95695239D02*
X43477619Y95790477D01*
X43477619Y95790477D02*
X43477619Y96028572D01*
X43477619Y96028572D02*
X43430000Y96123810D01*
X43430000Y96123810D02*
X43382380Y96171429D01*
X42477619Y95314286D02*
X43477619Y94980953D01*
X43477619Y94980953D02*
X42477619Y94647620D01*
X45025238Y96638096D02*
X44977619Y96733334D01*
X44977619Y96733334D02*
X44977619Y96876191D01*
X44977619Y96876191D02*
X45025238Y97019048D01*
X45025238Y97019048D02*
X45120476Y97114286D01*
X45120476Y97114286D02*
X45215714Y97161905D01*
X45215714Y97161905D02*
X45406190Y97209524D01*
X45406190Y97209524D02*
X45549047Y97209524D01*
X45549047Y97209524D02*
X45739523Y97161905D01*
X45739523Y97161905D02*
X45834761Y97114286D01*
X45834761Y97114286D02*
X45930000Y97019048D01*
X45930000Y97019048D02*
X45977619Y96876191D01*
X45977619Y96876191D02*
X45977619Y96780953D01*
X45977619Y96780953D02*
X45930000Y96638096D01*
X45930000Y96638096D02*
X45882380Y96590477D01*
X45882380Y96590477D02*
X45549047Y96590477D01*
X45549047Y96590477D02*
X45549047Y96780953D01*
X45977619Y96161905D02*
X44977619Y96161905D01*
X44977619Y96161905D02*
X45977619Y95590477D01*
X45977619Y95590477D02*
X44977619Y95590477D01*
X45977619Y95114286D02*
X44977619Y95114286D01*
X44977619Y95114286D02*
X44977619Y94876191D01*
X44977619Y94876191D02*
X45025238Y94733334D01*
X45025238Y94733334D02*
X45120476Y94638096D01*
X45120476Y94638096D02*
X45215714Y94590477D01*
X45215714Y94590477D02*
X45406190Y94542858D01*
X45406190Y94542858D02*
X45549047Y94542858D01*
X45549047Y94542858D02*
X45739523Y94590477D01*
X45739523Y94590477D02*
X45834761Y94638096D01*
X45834761Y94638096D02*
X45930000Y94733334D01*
X45930000Y94733334D02*
X45977619Y94876191D01*
X45977619Y94876191D02*
X45977619Y95114286D01*
X65077619Y98957143D02*
X66077619Y98719048D01*
X66077619Y98719048D02*
X65363333Y98528572D01*
X65363333Y98528572D02*
X66077619Y98338096D01*
X66077619Y98338096D02*
X65077619Y98100000D01*
X66077619Y97719048D02*
X65077619Y97719048D01*
X65553809Y97719048D02*
X65553809Y97147620D01*
X66077619Y97147620D02*
X65077619Y97147620D01*
X65553809Y96671429D02*
X65553809Y96338096D01*
X66077619Y96195239D02*
X66077619Y96671429D01*
X66077619Y96671429D02*
X65077619Y96671429D01*
X65077619Y96671429D02*
X65077619Y96195239D01*
X65553809Y95766667D02*
X65553809Y95433334D01*
X66077619Y95290477D02*
X66077619Y95766667D01*
X66077619Y95766667D02*
X65077619Y95766667D01*
X65077619Y95766667D02*
X65077619Y95290477D01*
X66077619Y94385715D02*
X66077619Y94861905D01*
X66077619Y94861905D02*
X65077619Y94861905D01*
X54925238Y96438096D02*
X54877619Y96533334D01*
X54877619Y96533334D02*
X54877619Y96676191D01*
X54877619Y96676191D02*
X54925238Y96819048D01*
X54925238Y96819048D02*
X55020476Y96914286D01*
X55020476Y96914286D02*
X55115714Y96961905D01*
X55115714Y96961905D02*
X55306190Y97009524D01*
X55306190Y97009524D02*
X55449047Y97009524D01*
X55449047Y97009524D02*
X55639523Y96961905D01*
X55639523Y96961905D02*
X55734761Y96914286D01*
X55734761Y96914286D02*
X55830000Y96819048D01*
X55830000Y96819048D02*
X55877619Y96676191D01*
X55877619Y96676191D02*
X55877619Y96580953D01*
X55877619Y96580953D02*
X55830000Y96438096D01*
X55830000Y96438096D02*
X55782380Y96390477D01*
X55782380Y96390477D02*
X55449047Y96390477D01*
X55449047Y96390477D02*
X55449047Y96580953D01*
X55877619Y95961905D02*
X54877619Y95961905D01*
X54877619Y95961905D02*
X55877619Y95390477D01*
X55877619Y95390477D02*
X54877619Y95390477D01*
X55877619Y94914286D02*
X54877619Y94914286D01*
X54877619Y94914286D02*
X54877619Y94676191D01*
X54877619Y94676191D02*
X54925238Y94533334D01*
X54925238Y94533334D02*
X55020476Y94438096D01*
X55020476Y94438096D02*
X55115714Y94390477D01*
X55115714Y94390477D02*
X55306190Y94342858D01*
X55306190Y94342858D02*
X55449047Y94342858D01*
X55449047Y94342858D02*
X55639523Y94390477D01*
X55639523Y94390477D02*
X55734761Y94438096D01*
X55734761Y94438096D02*
X55830000Y94533334D01*
X55830000Y94533334D02*
X55877619Y94676191D01*
X55877619Y94676191D02*
X55877619Y94914286D01*
X39909523Y107570000D02*
X39766666Y107522381D01*
X39766666Y107522381D02*
X39528571Y107522381D01*
X39528571Y107522381D02*
X39433333Y107570000D01*
X39433333Y107570000D02*
X39385714Y107617620D01*
X39385714Y107617620D02*
X39338095Y107712858D01*
X39338095Y107712858D02*
X39338095Y107808096D01*
X39338095Y107808096D02*
X39385714Y107903334D01*
X39385714Y107903334D02*
X39433333Y107950953D01*
X39433333Y107950953D02*
X39528571Y107998572D01*
X39528571Y107998572D02*
X39719047Y108046191D01*
X39719047Y108046191D02*
X39814285Y108093810D01*
X39814285Y108093810D02*
X39861904Y108141429D01*
X39861904Y108141429D02*
X39909523Y108236667D01*
X39909523Y108236667D02*
X39909523Y108331905D01*
X39909523Y108331905D02*
X39861904Y108427143D01*
X39861904Y108427143D02*
X39814285Y108474762D01*
X39814285Y108474762D02*
X39719047Y108522381D01*
X39719047Y108522381D02*
X39480952Y108522381D01*
X39480952Y108522381D02*
X39338095Y108474762D01*
X39004761Y108522381D02*
X38766666Y107522381D01*
X38766666Y107522381D02*
X38576190Y108236667D01*
X38576190Y108236667D02*
X38385714Y107522381D01*
X38385714Y107522381D02*
X38147619Y108522381D01*
X37195238Y107617620D02*
X37242857Y107570000D01*
X37242857Y107570000D02*
X37385714Y107522381D01*
X37385714Y107522381D02*
X37480952Y107522381D01*
X37480952Y107522381D02*
X37623809Y107570000D01*
X37623809Y107570000D02*
X37719047Y107665239D01*
X37719047Y107665239D02*
X37766666Y107760477D01*
X37766666Y107760477D02*
X37814285Y107950953D01*
X37814285Y107950953D02*
X37814285Y108093810D01*
X37814285Y108093810D02*
X37766666Y108284286D01*
X37766666Y108284286D02*
X37719047Y108379524D01*
X37719047Y108379524D02*
X37623809Y108474762D01*
X37623809Y108474762D02*
X37480952Y108522381D01*
X37480952Y108522381D02*
X37385714Y108522381D01*
X37385714Y108522381D02*
X37242857Y108474762D01*
X37242857Y108474762D02*
X37195238Y108427143D01*
X105677619Y96857143D02*
X105677619Y96238096D01*
X105677619Y96238096D02*
X106058571Y96571429D01*
X106058571Y96571429D02*
X106058571Y96428572D01*
X106058571Y96428572D02*
X106106190Y96333334D01*
X106106190Y96333334D02*
X106153809Y96285715D01*
X106153809Y96285715D02*
X106249047Y96238096D01*
X106249047Y96238096D02*
X106487142Y96238096D01*
X106487142Y96238096D02*
X106582380Y96285715D01*
X106582380Y96285715D02*
X106630000Y96333334D01*
X106630000Y96333334D02*
X106677619Y96428572D01*
X106677619Y96428572D02*
X106677619Y96714286D01*
X106677619Y96714286D02*
X106630000Y96809524D01*
X106630000Y96809524D02*
X106582380Y96857143D01*
X68196666Y97661905D02*
X68196666Y96900000D01*
X68577619Y97280953D02*
X67815714Y97280953D01*
X67577619Y95947620D02*
X67577619Y96423810D01*
X67577619Y96423810D02*
X68053809Y96471429D01*
X68053809Y96471429D02*
X68006190Y96423810D01*
X68006190Y96423810D02*
X67958571Y96328572D01*
X67958571Y96328572D02*
X67958571Y96090477D01*
X67958571Y96090477D02*
X68006190Y95995239D01*
X68006190Y95995239D02*
X68053809Y95947620D01*
X68053809Y95947620D02*
X68149047Y95900001D01*
X68149047Y95900001D02*
X68387142Y95900001D01*
X68387142Y95900001D02*
X68482380Y95947620D01*
X68482380Y95947620D02*
X68530000Y95995239D01*
X68530000Y95995239D02*
X68577619Y96090477D01*
X68577619Y96090477D02*
X68577619Y96328572D01*
X68577619Y96328572D02*
X68530000Y96423810D01*
X68530000Y96423810D02*
X68482380Y96471429D01*
X67577619Y95614286D02*
X68577619Y95280953D01*
X68577619Y95280953D02*
X67577619Y94947620D01*
D11*
X42718809Y119061905D02*
X42718809Y118728572D01*
X43242619Y118585715D02*
X43242619Y119061905D01*
X43242619Y119061905D02*
X42242619Y119061905D01*
X42242619Y119061905D02*
X42242619Y118585715D01*
X42861666Y118157143D02*
X42861666Y117395238D01*
X43242619Y116919048D02*
X42242619Y116919048D01*
X42623571Y116919048D02*
X42575952Y116823810D01*
X42575952Y116823810D02*
X42575952Y116633334D01*
X42575952Y116633334D02*
X42623571Y116538096D01*
X42623571Y116538096D02*
X42671190Y116490477D01*
X42671190Y116490477D02*
X42766428Y116442858D01*
X42766428Y116442858D02*
X43052142Y116442858D01*
X43052142Y116442858D02*
X43147380Y116490477D01*
X43147380Y116490477D02*
X43195000Y116538096D01*
X43195000Y116538096D02*
X43242619Y116633334D01*
X43242619Y116633334D02*
X43242619Y116823810D01*
X43242619Y116823810D02*
X43195000Y116919048D01*
X43242619Y116014286D02*
X42575952Y116014286D01*
X42242619Y116014286D02*
X42290238Y116061905D01*
X42290238Y116061905D02*
X42337857Y116014286D01*
X42337857Y116014286D02*
X42290238Y115966667D01*
X42290238Y115966667D02*
X42242619Y116014286D01*
X42242619Y116014286D02*
X42337857Y116014286D01*
X43242619Y115538096D02*
X42242619Y115538096D01*
X42861666Y115442858D02*
X43242619Y115157144D01*
X42575952Y115157144D02*
X42956904Y115538096D01*
X43195000Y114347620D02*
X43242619Y114442858D01*
X43242619Y114442858D02*
X43242619Y114633334D01*
X43242619Y114633334D02*
X43195000Y114728572D01*
X43195000Y114728572D02*
X43099761Y114776191D01*
X43099761Y114776191D02*
X42718809Y114776191D01*
X42718809Y114776191D02*
X42623571Y114728572D01*
X42623571Y114728572D02*
X42575952Y114633334D01*
X42575952Y114633334D02*
X42575952Y114442858D01*
X42575952Y114442858D02*
X42623571Y114347620D01*
X42623571Y114347620D02*
X42718809Y114300001D01*
X42718809Y114300001D02*
X42814047Y114300001D01*
X42814047Y114300001D02*
X42909285Y114776191D01*
X44767380Y118490477D02*
X44815000Y118538096D01*
X44815000Y118538096D02*
X44862619Y118680953D01*
X44862619Y118680953D02*
X44862619Y118776191D01*
X44862619Y118776191D02*
X44815000Y118919048D01*
X44815000Y118919048D02*
X44719761Y119014286D01*
X44719761Y119014286D02*
X44624523Y119061905D01*
X44624523Y119061905D02*
X44434047Y119109524D01*
X44434047Y119109524D02*
X44291190Y119109524D01*
X44291190Y119109524D02*
X44100714Y119061905D01*
X44100714Y119061905D02*
X44005476Y119014286D01*
X44005476Y119014286D02*
X43910238Y118919048D01*
X43910238Y118919048D02*
X43862619Y118776191D01*
X43862619Y118776191D02*
X43862619Y118680953D01*
X43862619Y118680953D02*
X43910238Y118538096D01*
X43910238Y118538096D02*
X43957857Y118490477D01*
X44862619Y117919048D02*
X44815000Y118014286D01*
X44815000Y118014286D02*
X44767380Y118061905D01*
X44767380Y118061905D02*
X44672142Y118109524D01*
X44672142Y118109524D02*
X44386428Y118109524D01*
X44386428Y118109524D02*
X44291190Y118061905D01*
X44291190Y118061905D02*
X44243571Y118014286D01*
X44243571Y118014286D02*
X44195952Y117919048D01*
X44195952Y117919048D02*
X44195952Y117776191D01*
X44195952Y117776191D02*
X44243571Y117680953D01*
X44243571Y117680953D02*
X44291190Y117633334D01*
X44291190Y117633334D02*
X44386428Y117585715D01*
X44386428Y117585715D02*
X44672142Y117585715D01*
X44672142Y117585715D02*
X44767380Y117633334D01*
X44767380Y117633334D02*
X44815000Y117680953D01*
X44815000Y117680953D02*
X44862619Y117776191D01*
X44862619Y117776191D02*
X44862619Y117919048D01*
X44195952Y117157143D02*
X44862619Y117157143D01*
X44291190Y117157143D02*
X44243571Y117109524D01*
X44243571Y117109524D02*
X44195952Y117014286D01*
X44195952Y117014286D02*
X44195952Y116871429D01*
X44195952Y116871429D02*
X44243571Y116776191D01*
X44243571Y116776191D02*
X44338809Y116728572D01*
X44338809Y116728572D02*
X44862619Y116728572D01*
X44195952Y116395238D02*
X44195952Y116014286D01*
X43862619Y116252381D02*
X44719761Y116252381D01*
X44719761Y116252381D02*
X44815000Y116204762D01*
X44815000Y116204762D02*
X44862619Y116109524D01*
X44862619Y116109524D02*
X44862619Y116014286D01*
X44862619Y115680952D02*
X44195952Y115680952D01*
X44386428Y115680952D02*
X44291190Y115633333D01*
X44291190Y115633333D02*
X44243571Y115585714D01*
X44243571Y115585714D02*
X44195952Y115490476D01*
X44195952Y115490476D02*
X44195952Y115395238D01*
X44862619Y114919047D02*
X44815000Y115014285D01*
X44815000Y115014285D02*
X44767380Y115061904D01*
X44767380Y115061904D02*
X44672142Y115109523D01*
X44672142Y115109523D02*
X44386428Y115109523D01*
X44386428Y115109523D02*
X44291190Y115061904D01*
X44291190Y115061904D02*
X44243571Y115014285D01*
X44243571Y115014285D02*
X44195952Y114919047D01*
X44195952Y114919047D02*
X44195952Y114776190D01*
X44195952Y114776190D02*
X44243571Y114680952D01*
X44243571Y114680952D02*
X44291190Y114633333D01*
X44291190Y114633333D02*
X44386428Y114585714D01*
X44386428Y114585714D02*
X44672142Y114585714D01*
X44672142Y114585714D02*
X44767380Y114633333D01*
X44767380Y114633333D02*
X44815000Y114680952D01*
X44815000Y114680952D02*
X44862619Y114776190D01*
X44862619Y114776190D02*
X44862619Y114919047D01*
X44862619Y114014285D02*
X44815000Y114109523D01*
X44815000Y114109523D02*
X44719761Y114157142D01*
X44719761Y114157142D02*
X43862619Y114157142D01*
X44862619Y113490475D02*
X44815000Y113585713D01*
X44815000Y113585713D02*
X44719761Y113633332D01*
X44719761Y113633332D02*
X43862619Y113633332D01*
X44815000Y112728570D02*
X44862619Y112823808D01*
X44862619Y112823808D02*
X44862619Y113014284D01*
X44862619Y113014284D02*
X44815000Y113109522D01*
X44815000Y113109522D02*
X44719761Y113157141D01*
X44719761Y113157141D02*
X44338809Y113157141D01*
X44338809Y113157141D02*
X44243571Y113109522D01*
X44243571Y113109522D02*
X44195952Y113014284D01*
X44195952Y113014284D02*
X44195952Y112823808D01*
X44195952Y112823808D02*
X44243571Y112728570D01*
X44243571Y112728570D02*
X44338809Y112680951D01*
X44338809Y112680951D02*
X44434047Y112680951D01*
X44434047Y112680951D02*
X44529285Y113157141D01*
X44862619Y112252379D02*
X44195952Y112252379D01*
X44386428Y112252379D02*
X44291190Y112204760D01*
X44291190Y112204760D02*
X44243571Y112157141D01*
X44243571Y112157141D02*
X44195952Y112061903D01*
X44195952Y112061903D02*
X44195952Y111966665D01*
X45482619Y118776191D02*
X46196904Y118776191D01*
X46196904Y118776191D02*
X46339761Y118823810D01*
X46339761Y118823810D02*
X46435000Y118919048D01*
X46435000Y118919048D02*
X46482619Y119061905D01*
X46482619Y119061905D02*
X46482619Y119157143D01*
X46482619Y118300000D02*
X45482619Y118300000D01*
X45482619Y118300000D02*
X45482619Y117919048D01*
X45482619Y117919048D02*
X45530238Y117823810D01*
X45530238Y117823810D02*
X45577857Y117776191D01*
X45577857Y117776191D02*
X45673095Y117728572D01*
X45673095Y117728572D02*
X45815952Y117728572D01*
X45815952Y117728572D02*
X45911190Y117776191D01*
X45911190Y117776191D02*
X45958809Y117823810D01*
X45958809Y117823810D02*
X46006428Y117919048D01*
X46006428Y117919048D02*
X46006428Y118300000D01*
X46196904Y117347619D02*
X46196904Y116871429D01*
X46482619Y117442857D02*
X45482619Y117109524D01*
X45482619Y117109524D02*
X46482619Y116776191D01*
X45577857Y115728571D02*
X45530238Y115680952D01*
X45530238Y115680952D02*
X45482619Y115585714D01*
X45482619Y115585714D02*
X45482619Y115347619D01*
X45482619Y115347619D02*
X45530238Y115252381D01*
X45530238Y115252381D02*
X45577857Y115204762D01*
X45577857Y115204762D02*
X45673095Y115157143D01*
X45673095Y115157143D02*
X45768333Y115157143D01*
X45768333Y115157143D02*
X45911190Y115204762D01*
X45911190Y115204762D02*
X46482619Y115776190D01*
X46482619Y115776190D02*
X46482619Y115157143D01*
X45482619Y114538095D02*
X45482619Y114442857D01*
X45482619Y114442857D02*
X45530238Y114347619D01*
X45530238Y114347619D02*
X45577857Y114300000D01*
X45577857Y114300000D02*
X45673095Y114252381D01*
X45673095Y114252381D02*
X45863571Y114204762D01*
X45863571Y114204762D02*
X46101666Y114204762D01*
X46101666Y114204762D02*
X46292142Y114252381D01*
X46292142Y114252381D02*
X46387380Y114300000D01*
X46387380Y114300000D02*
X46435000Y114347619D01*
X46435000Y114347619D02*
X46482619Y114442857D01*
X46482619Y114442857D02*
X46482619Y114538095D01*
X46482619Y114538095D02*
X46435000Y114633333D01*
X46435000Y114633333D02*
X46387380Y114680952D01*
X46387380Y114680952D02*
X46292142Y114728571D01*
X46292142Y114728571D02*
X46101666Y114776190D01*
X46101666Y114776190D02*
X45863571Y114776190D01*
X45863571Y114776190D02*
X45673095Y114728571D01*
X45673095Y114728571D02*
X45577857Y114680952D01*
X45577857Y114680952D02*
X45530238Y114633333D01*
X45530238Y114633333D02*
X45482619Y114538095D01*
X45577857Y113823809D02*
X45530238Y113776190D01*
X45530238Y113776190D02*
X45482619Y113680952D01*
X45482619Y113680952D02*
X45482619Y113442857D01*
X45482619Y113442857D02*
X45530238Y113347619D01*
X45530238Y113347619D02*
X45577857Y113300000D01*
X45577857Y113300000D02*
X45673095Y113252381D01*
X45673095Y113252381D02*
X45768333Y113252381D01*
X45768333Y113252381D02*
X45911190Y113300000D01*
X45911190Y113300000D02*
X46482619Y113871428D01*
X46482619Y113871428D02*
X46482619Y113252381D01*
X45482619Y112919047D02*
X45482619Y112300000D01*
X45482619Y112300000D02*
X45863571Y112633333D01*
X45863571Y112633333D02*
X45863571Y112490476D01*
X45863571Y112490476D02*
X45911190Y112395238D01*
X45911190Y112395238D02*
X45958809Y112347619D01*
X45958809Y112347619D02*
X46054047Y112300000D01*
X46054047Y112300000D02*
X46292142Y112300000D01*
X46292142Y112300000D02*
X46387380Y112347619D01*
X46387380Y112347619D02*
X46435000Y112395238D01*
X46435000Y112395238D02*
X46482619Y112490476D01*
X46482619Y112490476D02*
X46482619Y112776190D01*
X46482619Y112776190D02*
X46435000Y112871428D01*
X46435000Y112871428D02*
X46387380Y112919047D01*
X50628809Y118452382D02*
X50676428Y118309525D01*
X50676428Y118309525D02*
X50724047Y118261906D01*
X50724047Y118261906D02*
X50819285Y118214287D01*
X50819285Y118214287D02*
X50962142Y118214287D01*
X50962142Y118214287D02*
X51057380Y118261906D01*
X51057380Y118261906D02*
X51105000Y118309525D01*
X51105000Y118309525D02*
X51152619Y118404763D01*
X51152619Y118404763D02*
X51152619Y118785715D01*
X51152619Y118785715D02*
X50152619Y118785715D01*
X50152619Y118785715D02*
X50152619Y118452382D01*
X50152619Y118452382D02*
X50200238Y118357144D01*
X50200238Y118357144D02*
X50247857Y118309525D01*
X50247857Y118309525D02*
X50343095Y118261906D01*
X50343095Y118261906D02*
X50438333Y118261906D01*
X50438333Y118261906D02*
X50533571Y118309525D01*
X50533571Y118309525D02*
X50581190Y118357144D01*
X50581190Y118357144D02*
X50628809Y118452382D01*
X50628809Y118452382D02*
X50628809Y118785715D01*
X51152619Y117357144D02*
X50628809Y117357144D01*
X50628809Y117357144D02*
X50533571Y117404763D01*
X50533571Y117404763D02*
X50485952Y117500001D01*
X50485952Y117500001D02*
X50485952Y117690477D01*
X50485952Y117690477D02*
X50533571Y117785715D01*
X51105000Y117357144D02*
X51152619Y117452382D01*
X51152619Y117452382D02*
X51152619Y117690477D01*
X51152619Y117690477D02*
X51105000Y117785715D01*
X51105000Y117785715D02*
X51009761Y117833334D01*
X51009761Y117833334D02*
X50914523Y117833334D01*
X50914523Y117833334D02*
X50819285Y117785715D01*
X50819285Y117785715D02*
X50771666Y117690477D01*
X50771666Y117690477D02*
X50771666Y117452382D01*
X50771666Y117452382D02*
X50724047Y117357144D01*
X51105000Y116928572D02*
X51152619Y116833334D01*
X51152619Y116833334D02*
X51152619Y116642858D01*
X51152619Y116642858D02*
X51105000Y116547620D01*
X51105000Y116547620D02*
X51009761Y116500001D01*
X51009761Y116500001D02*
X50962142Y116500001D01*
X50962142Y116500001D02*
X50866904Y116547620D01*
X50866904Y116547620D02*
X50819285Y116642858D01*
X50819285Y116642858D02*
X50819285Y116785715D01*
X50819285Y116785715D02*
X50771666Y116880953D01*
X50771666Y116880953D02*
X50676428Y116928572D01*
X50676428Y116928572D02*
X50628809Y116928572D01*
X50628809Y116928572D02*
X50533571Y116880953D01*
X50533571Y116880953D02*
X50485952Y116785715D01*
X50485952Y116785715D02*
X50485952Y116642858D01*
X50485952Y116642858D02*
X50533571Y116547620D01*
X51105000Y115690477D02*
X51152619Y115785715D01*
X51152619Y115785715D02*
X51152619Y115976191D01*
X51152619Y115976191D02*
X51105000Y116071429D01*
X51105000Y116071429D02*
X51009761Y116119048D01*
X51009761Y116119048D02*
X50628809Y116119048D01*
X50628809Y116119048D02*
X50533571Y116071429D01*
X50533571Y116071429D02*
X50485952Y115976191D01*
X50485952Y115976191D02*
X50485952Y115785715D01*
X50485952Y115785715D02*
X50533571Y115690477D01*
X50533571Y115690477D02*
X50628809Y115642858D01*
X50628809Y115642858D02*
X50724047Y115642858D01*
X50724047Y115642858D02*
X50819285Y116119048D01*
X51152619Y114785715D02*
X50152619Y114785715D01*
X51105000Y114785715D02*
X51152619Y114880953D01*
X51152619Y114880953D02*
X51152619Y115071429D01*
X51152619Y115071429D02*
X51105000Y115166667D01*
X51105000Y115166667D02*
X51057380Y115214286D01*
X51057380Y115214286D02*
X50962142Y115261905D01*
X50962142Y115261905D02*
X50676428Y115261905D01*
X50676428Y115261905D02*
X50581190Y115214286D01*
X50581190Y115214286D02*
X50533571Y115166667D01*
X50533571Y115166667D02*
X50485952Y115071429D01*
X50485952Y115071429D02*
X50485952Y114880953D01*
X50485952Y114880953D02*
X50533571Y114785715D01*
X51152619Y113404762D02*
X51105000Y113500000D01*
X51105000Y113500000D02*
X51057380Y113547619D01*
X51057380Y113547619D02*
X50962142Y113595238D01*
X50962142Y113595238D02*
X50676428Y113595238D01*
X50676428Y113595238D02*
X50581190Y113547619D01*
X50581190Y113547619D02*
X50533571Y113500000D01*
X50533571Y113500000D02*
X50485952Y113404762D01*
X50485952Y113404762D02*
X50485952Y113261905D01*
X50485952Y113261905D02*
X50533571Y113166667D01*
X50533571Y113166667D02*
X50581190Y113119048D01*
X50581190Y113119048D02*
X50676428Y113071429D01*
X50676428Y113071429D02*
X50962142Y113071429D01*
X50962142Y113071429D02*
X51057380Y113119048D01*
X51057380Y113119048D02*
X51105000Y113166667D01*
X51105000Y113166667D02*
X51152619Y113261905D01*
X51152619Y113261905D02*
X51152619Y113404762D01*
X50485952Y112642857D02*
X51152619Y112642857D01*
X50581190Y112642857D02*
X50533571Y112595238D01*
X50533571Y112595238D02*
X50485952Y112500000D01*
X50485952Y112500000D02*
X50485952Y112357143D01*
X50485952Y112357143D02*
X50533571Y112261905D01*
X50533571Y112261905D02*
X50628809Y112214286D01*
X50628809Y112214286D02*
X51152619Y112214286D01*
X51772619Y119309524D02*
X52772619Y118976191D01*
X52772619Y118976191D02*
X51772619Y118642858D01*
X52248809Y118309524D02*
X52248809Y117976191D01*
X52772619Y117833334D02*
X52772619Y118309524D01*
X52772619Y118309524D02*
X51772619Y118309524D01*
X51772619Y118309524D02*
X51772619Y117833334D01*
X52725000Y117452381D02*
X52772619Y117309524D01*
X52772619Y117309524D02*
X52772619Y117071429D01*
X52772619Y117071429D02*
X52725000Y116976191D01*
X52725000Y116976191D02*
X52677380Y116928572D01*
X52677380Y116928572D02*
X52582142Y116880953D01*
X52582142Y116880953D02*
X52486904Y116880953D01*
X52486904Y116880953D02*
X52391666Y116928572D01*
X52391666Y116928572D02*
X52344047Y116976191D01*
X52344047Y116976191D02*
X52296428Y117071429D01*
X52296428Y117071429D02*
X52248809Y117261905D01*
X52248809Y117261905D02*
X52201190Y117357143D01*
X52201190Y117357143D02*
X52153571Y117404762D01*
X52153571Y117404762D02*
X52058333Y117452381D01*
X52058333Y117452381D02*
X51963095Y117452381D01*
X51963095Y117452381D02*
X51867857Y117404762D01*
X51867857Y117404762D02*
X51820238Y117357143D01*
X51820238Y117357143D02*
X51772619Y117261905D01*
X51772619Y117261905D02*
X51772619Y117023810D01*
X51772619Y117023810D02*
X51820238Y116880953D01*
X52677380Y115880953D02*
X52725000Y115928572D01*
X52725000Y115928572D02*
X52772619Y116071429D01*
X52772619Y116071429D02*
X52772619Y116166667D01*
X52772619Y116166667D02*
X52725000Y116309524D01*
X52725000Y116309524D02*
X52629761Y116404762D01*
X52629761Y116404762D02*
X52534523Y116452381D01*
X52534523Y116452381D02*
X52344047Y116500000D01*
X52344047Y116500000D02*
X52201190Y116500000D01*
X52201190Y116500000D02*
X52010714Y116452381D01*
X52010714Y116452381D02*
X51915476Y116404762D01*
X51915476Y116404762D02*
X51820238Y116309524D01*
X51820238Y116309524D02*
X51772619Y116166667D01*
X51772619Y116166667D02*
X51772619Y116071429D01*
X51772619Y116071429D02*
X51820238Y115928572D01*
X51820238Y115928572D02*
X51867857Y115880953D01*
X52105952Y114261905D02*
X52772619Y114261905D01*
X51725000Y114500000D02*
X52439285Y114738095D01*
X52439285Y114738095D02*
X52439285Y114119048D01*
X52677380Y113738095D02*
X52725000Y113690476D01*
X52725000Y113690476D02*
X52772619Y113738095D01*
X52772619Y113738095D02*
X52725000Y113785714D01*
X52725000Y113785714D02*
X52677380Y113738095D01*
X52677380Y113738095D02*
X52772619Y113738095D01*
X52772619Y112738096D02*
X52772619Y113309524D01*
X52772619Y113023810D02*
X51772619Y113023810D01*
X51772619Y113023810D02*
X51915476Y113119048D01*
X51915476Y113119048D02*
X52010714Y113214286D01*
X52010714Y113214286D02*
X52058333Y113309524D01*
X51772619Y112119048D02*
X51772619Y112023810D01*
X51772619Y112023810D02*
X51820238Y111928572D01*
X51820238Y111928572D02*
X51867857Y111880953D01*
X51867857Y111880953D02*
X51963095Y111833334D01*
X51963095Y111833334D02*
X52153571Y111785715D01*
X52153571Y111785715D02*
X52391666Y111785715D01*
X52391666Y111785715D02*
X52582142Y111833334D01*
X52582142Y111833334D02*
X52677380Y111880953D01*
X52677380Y111880953D02*
X52725000Y111928572D01*
X52725000Y111928572D02*
X52772619Y112023810D01*
X52772619Y112023810D02*
X52772619Y112119048D01*
X52772619Y112119048D02*
X52725000Y112214286D01*
X52725000Y112214286D02*
X52677380Y112261905D01*
X52677380Y112261905D02*
X52582142Y112309524D01*
X52582142Y112309524D02*
X52391666Y112357143D01*
X52391666Y112357143D02*
X52153571Y112357143D01*
X52153571Y112357143D02*
X51963095Y112309524D01*
X51963095Y112309524D02*
X51867857Y112261905D01*
X51867857Y112261905D02*
X51820238Y112214286D01*
X51820238Y112214286D02*
X51772619Y112119048D01*
D10*
X52228571Y95046191D02*
X52085714Y94998572D01*
X52085714Y94998572D02*
X52038095Y94950953D01*
X52038095Y94950953D02*
X51990476Y94855715D01*
X51990476Y94855715D02*
X51990476Y94712858D01*
X51990476Y94712858D02*
X52038095Y94617620D01*
X52038095Y94617620D02*
X52085714Y94570000D01*
X52085714Y94570000D02*
X52180952Y94522381D01*
X52180952Y94522381D02*
X52561904Y94522381D01*
X52561904Y94522381D02*
X52561904Y95522381D01*
X52561904Y95522381D02*
X52228571Y95522381D01*
X52228571Y95522381D02*
X52133333Y95474762D01*
X52133333Y95474762D02*
X52085714Y95427143D01*
X52085714Y95427143D02*
X52038095Y95331905D01*
X52038095Y95331905D02*
X52038095Y95236667D01*
X52038095Y95236667D02*
X52085714Y95141429D01*
X52085714Y95141429D02*
X52133333Y95093810D01*
X52133333Y95093810D02*
X52228571Y95046191D01*
X52228571Y95046191D02*
X52561904Y95046191D01*
X50990476Y94522381D02*
X51323809Y94998572D01*
X51561904Y94522381D02*
X51561904Y95522381D01*
X51561904Y95522381D02*
X51180952Y95522381D01*
X51180952Y95522381D02*
X51085714Y95474762D01*
X51085714Y95474762D02*
X51038095Y95427143D01*
X51038095Y95427143D02*
X50990476Y95331905D01*
X50990476Y95331905D02*
X50990476Y95189048D01*
X50990476Y95189048D02*
X51038095Y95093810D01*
X51038095Y95093810D02*
X51085714Y95046191D01*
X51085714Y95046191D02*
X51180952Y94998572D01*
X51180952Y94998572D02*
X51561904Y94998572D01*
X50609523Y94808096D02*
X50133333Y94808096D01*
X50704761Y94522381D02*
X50371428Y95522381D01*
X50371428Y95522381D02*
X50038095Y94522381D01*
X49704761Y94522381D02*
X49704761Y95522381D01*
X49133333Y94522381D02*
X49561904Y95093810D01*
X49133333Y95522381D02*
X49704761Y94950953D01*
X48704761Y95046191D02*
X48371428Y95046191D01*
X48228571Y94522381D02*
X48704761Y94522381D01*
X48704761Y94522381D02*
X48704761Y95522381D01*
X48704761Y95522381D02*
X48228571Y95522381D01*
X86338095Y113774762D02*
X86433333Y113822381D01*
X86433333Y113822381D02*
X86576190Y113822381D01*
X86576190Y113822381D02*
X86719047Y113774762D01*
X86719047Y113774762D02*
X86814285Y113679524D01*
X86814285Y113679524D02*
X86861904Y113584286D01*
X86861904Y113584286D02*
X86909523Y113393810D01*
X86909523Y113393810D02*
X86909523Y113250953D01*
X86909523Y113250953D02*
X86861904Y113060477D01*
X86861904Y113060477D02*
X86814285Y112965239D01*
X86814285Y112965239D02*
X86719047Y112870000D01*
X86719047Y112870000D02*
X86576190Y112822381D01*
X86576190Y112822381D02*
X86480952Y112822381D01*
X86480952Y112822381D02*
X86338095Y112870000D01*
X86338095Y112870000D02*
X86290476Y112917620D01*
X86290476Y112917620D02*
X86290476Y113250953D01*
X86290476Y113250953D02*
X86480952Y113250953D01*
X85861904Y112822381D02*
X85861904Y113822381D01*
X85861904Y113822381D02*
X85290476Y112822381D01*
X85290476Y112822381D02*
X85290476Y113822381D01*
X84814285Y112822381D02*
X84814285Y113822381D01*
X84814285Y113822381D02*
X84576190Y113822381D01*
X84576190Y113822381D02*
X84433333Y113774762D01*
X84433333Y113774762D02*
X84338095Y113679524D01*
X84338095Y113679524D02*
X84290476Y113584286D01*
X84290476Y113584286D02*
X84242857Y113393810D01*
X84242857Y113393810D02*
X84242857Y113250953D01*
X84242857Y113250953D02*
X84290476Y113060477D01*
X84290476Y113060477D02*
X84338095Y112965239D01*
X84338095Y112965239D02*
X84433333Y112870000D01*
X84433333Y112870000D02*
X84576190Y112822381D01*
X84576190Y112822381D02*
X84814285Y112822381D01*
X38230000Y97009524D02*
X38277619Y96866667D01*
X38277619Y96866667D02*
X38277619Y96628572D01*
X38277619Y96628572D02*
X38230000Y96533334D01*
X38230000Y96533334D02*
X38182380Y96485715D01*
X38182380Y96485715D02*
X38087142Y96438096D01*
X38087142Y96438096D02*
X37991904Y96438096D01*
X37991904Y96438096D02*
X37896666Y96485715D01*
X37896666Y96485715D02*
X37849047Y96533334D01*
X37849047Y96533334D02*
X37801428Y96628572D01*
X37801428Y96628572D02*
X37753809Y96819048D01*
X37753809Y96819048D02*
X37706190Y96914286D01*
X37706190Y96914286D02*
X37658571Y96961905D01*
X37658571Y96961905D02*
X37563333Y97009524D01*
X37563333Y97009524D02*
X37468095Y97009524D01*
X37468095Y97009524D02*
X37372857Y96961905D01*
X37372857Y96961905D02*
X37325238Y96914286D01*
X37325238Y96914286D02*
X37277619Y96819048D01*
X37277619Y96819048D02*
X37277619Y96580953D01*
X37277619Y96580953D02*
X37325238Y96438096D01*
X38182380Y95438096D02*
X38230000Y95485715D01*
X38230000Y95485715D02*
X38277619Y95628572D01*
X38277619Y95628572D02*
X38277619Y95723810D01*
X38277619Y95723810D02*
X38230000Y95866667D01*
X38230000Y95866667D02*
X38134761Y95961905D01*
X38134761Y95961905D02*
X38039523Y96009524D01*
X38039523Y96009524D02*
X37849047Y96057143D01*
X37849047Y96057143D02*
X37706190Y96057143D01*
X37706190Y96057143D02*
X37515714Y96009524D01*
X37515714Y96009524D02*
X37420476Y95961905D01*
X37420476Y95961905D02*
X37325238Y95866667D01*
X37325238Y95866667D02*
X37277619Y95723810D01*
X37277619Y95723810D02*
X37277619Y95628572D01*
X37277619Y95628572D02*
X37325238Y95485715D01*
X37325238Y95485715D02*
X37372857Y95438096D01*
X38277619Y94533334D02*
X38277619Y95009524D01*
X38277619Y95009524D02*
X37277619Y95009524D01*
X106577619Y113038096D02*
X106577619Y113609524D01*
X106577619Y113323810D02*
X105577619Y113323810D01*
X105577619Y113323810D02*
X105720476Y113419048D01*
X105720476Y113419048D02*
X105815714Y113514286D01*
X105815714Y113514286D02*
X105863333Y113609524D01*
X81804761Y113722381D02*
X81471428Y112722381D01*
X81471428Y112722381D02*
X81138095Y113722381D01*
X80804761Y112722381D02*
X80804761Y113722381D01*
X80328571Y112722381D02*
X80328571Y113722381D01*
X80328571Y113722381D02*
X79757143Y112722381D01*
X79757143Y112722381D02*
X79757143Y113722381D01*
X79280952Y113103334D02*
X78519048Y113103334D01*
X78900000Y112722381D02*
X78900000Y113484286D01*
X40109523Y97570000D02*
X39966666Y97522381D01*
X39966666Y97522381D02*
X39728571Y97522381D01*
X39728571Y97522381D02*
X39633333Y97570000D01*
X39633333Y97570000D02*
X39585714Y97617620D01*
X39585714Y97617620D02*
X39538095Y97712858D01*
X39538095Y97712858D02*
X39538095Y97808096D01*
X39538095Y97808096D02*
X39585714Y97903334D01*
X39585714Y97903334D02*
X39633333Y97950953D01*
X39633333Y97950953D02*
X39728571Y97998572D01*
X39728571Y97998572D02*
X39919047Y98046191D01*
X39919047Y98046191D02*
X40014285Y98093810D01*
X40014285Y98093810D02*
X40061904Y98141429D01*
X40061904Y98141429D02*
X40109523Y98236667D01*
X40109523Y98236667D02*
X40109523Y98331905D01*
X40109523Y98331905D02*
X40061904Y98427143D01*
X40061904Y98427143D02*
X40014285Y98474762D01*
X40014285Y98474762D02*
X39919047Y98522381D01*
X39919047Y98522381D02*
X39680952Y98522381D01*
X39680952Y98522381D02*
X39538095Y98474762D01*
X39204761Y98522381D02*
X38966666Y97522381D01*
X38966666Y97522381D02*
X38776190Y98236667D01*
X38776190Y98236667D02*
X38585714Y97522381D01*
X38585714Y97522381D02*
X38347619Y98522381D01*
X37776190Y98522381D02*
X37585714Y98522381D01*
X37585714Y98522381D02*
X37490476Y98474762D01*
X37490476Y98474762D02*
X37395238Y98379524D01*
X37395238Y98379524D02*
X37347619Y98189048D01*
X37347619Y98189048D02*
X37347619Y97855715D01*
X37347619Y97855715D02*
X37395238Y97665239D01*
X37395238Y97665239D02*
X37490476Y97570000D01*
X37490476Y97570000D02*
X37585714Y97522381D01*
X37585714Y97522381D02*
X37776190Y97522381D01*
X37776190Y97522381D02*
X37871428Y97570000D01*
X37871428Y97570000D02*
X37966666Y97665239D01*
X37966666Y97665239D02*
X38014285Y97855715D01*
X38014285Y97855715D02*
X38014285Y98189048D01*
X38014285Y98189048D02*
X37966666Y98379524D01*
X37966666Y98379524D02*
X37871428Y98474762D01*
X37871428Y98474762D02*
X37776190Y98522381D01*
X64971428Y111942381D02*
X64780952Y111942381D01*
X64780952Y111942381D02*
X64685714Y111894762D01*
X64685714Y111894762D02*
X64590476Y111799524D01*
X64590476Y111799524D02*
X64542857Y111609048D01*
X64542857Y111609048D02*
X64542857Y111275715D01*
X64542857Y111275715D02*
X64590476Y111085239D01*
X64590476Y111085239D02*
X64685714Y110990000D01*
X64685714Y110990000D02*
X64780952Y110942381D01*
X64780952Y110942381D02*
X64971428Y110942381D01*
X64971428Y110942381D02*
X65066666Y110990000D01*
X65066666Y110990000D02*
X65161904Y111085239D01*
X65161904Y111085239D02*
X65209523Y111275715D01*
X65209523Y111275715D02*
X65209523Y111609048D01*
X65209523Y111609048D02*
X65161904Y111799524D01*
X65161904Y111799524D02*
X65066666Y111894762D01*
X65066666Y111894762D02*
X64971428Y111942381D01*
X64114285Y111609048D02*
X64114285Y110609048D01*
X64114285Y111561429D02*
X64019047Y111609048D01*
X64019047Y111609048D02*
X63828571Y111609048D01*
X63828571Y111609048D02*
X63733333Y111561429D01*
X63733333Y111561429D02*
X63685714Y111513810D01*
X63685714Y111513810D02*
X63638095Y111418572D01*
X63638095Y111418572D02*
X63638095Y111132858D01*
X63638095Y111132858D02*
X63685714Y111037620D01*
X63685714Y111037620D02*
X63733333Y110990000D01*
X63733333Y110990000D02*
X63828571Y110942381D01*
X63828571Y110942381D02*
X64019047Y110942381D01*
X64019047Y110942381D02*
X64114285Y110990000D01*
X63352380Y111609048D02*
X62971428Y111609048D01*
X63209523Y111942381D02*
X63209523Y111085239D01*
X63209523Y111085239D02*
X63161904Y110990000D01*
X63161904Y110990000D02*
X63066666Y110942381D01*
X63066666Y110942381D02*
X62971428Y110942381D01*
X62638094Y110942381D02*
X62638094Y111609048D01*
X62638094Y111942381D02*
X62685713Y111894762D01*
X62685713Y111894762D02*
X62638094Y111847143D01*
X62638094Y111847143D02*
X62590475Y111894762D01*
X62590475Y111894762D02*
X62638094Y111942381D01*
X62638094Y111942381D02*
X62638094Y111847143D01*
X62019047Y110942381D02*
X62114285Y110990000D01*
X62114285Y110990000D02*
X62161904Y111037620D01*
X62161904Y111037620D02*
X62209523Y111132858D01*
X62209523Y111132858D02*
X62209523Y111418572D01*
X62209523Y111418572D02*
X62161904Y111513810D01*
X62161904Y111513810D02*
X62114285Y111561429D01*
X62114285Y111561429D02*
X62019047Y111609048D01*
X62019047Y111609048D02*
X61876190Y111609048D01*
X61876190Y111609048D02*
X61780952Y111561429D01*
X61780952Y111561429D02*
X61733333Y111513810D01*
X61733333Y111513810D02*
X61685714Y111418572D01*
X61685714Y111418572D02*
X61685714Y111132858D01*
X61685714Y111132858D02*
X61733333Y111037620D01*
X61733333Y111037620D02*
X61780952Y110990000D01*
X61780952Y110990000D02*
X61876190Y110942381D01*
X61876190Y110942381D02*
X62019047Y110942381D01*
X61257142Y111609048D02*
X61257142Y110942381D01*
X61257142Y111513810D02*
X61209523Y111561429D01*
X61209523Y111561429D02*
X61114285Y111609048D01*
X61114285Y111609048D02*
X60971428Y111609048D01*
X60971428Y111609048D02*
X60876190Y111561429D01*
X60876190Y111561429D02*
X60828571Y111466191D01*
X60828571Y111466191D02*
X60828571Y110942381D01*
X59923809Y110942381D02*
X59923809Y111466191D01*
X59923809Y111466191D02*
X59971428Y111561429D01*
X59971428Y111561429D02*
X60066666Y111609048D01*
X60066666Y111609048D02*
X60257142Y111609048D01*
X60257142Y111609048D02*
X60352380Y111561429D01*
X59923809Y110990000D02*
X60019047Y110942381D01*
X60019047Y110942381D02*
X60257142Y110942381D01*
X60257142Y110942381D02*
X60352380Y110990000D01*
X60352380Y110990000D02*
X60399999Y111085239D01*
X60399999Y111085239D02*
X60399999Y111180477D01*
X60399999Y111180477D02*
X60352380Y111275715D01*
X60352380Y111275715D02*
X60257142Y111323334D01*
X60257142Y111323334D02*
X60019047Y111323334D01*
X60019047Y111323334D02*
X59923809Y111370953D01*
X59304761Y110942381D02*
X59399999Y110990000D01*
X59399999Y110990000D02*
X59447618Y111085239D01*
X59447618Y111085239D02*
X59447618Y111942381D01*
X65161904Y109322381D02*
X65161904Y110322381D01*
X65161904Y110322381D02*
X64828571Y109608096D01*
X64828571Y109608096D02*
X64495238Y110322381D01*
X64495238Y110322381D02*
X64495238Y109322381D01*
X64019047Y109322381D02*
X64019047Y109989048D01*
X64019047Y110322381D02*
X64066666Y110274762D01*
X64066666Y110274762D02*
X64019047Y110227143D01*
X64019047Y110227143D02*
X63971428Y110274762D01*
X63971428Y110274762D02*
X64019047Y110322381D01*
X64019047Y110322381D02*
X64019047Y110227143D01*
X63114286Y109370000D02*
X63209524Y109322381D01*
X63209524Y109322381D02*
X63400000Y109322381D01*
X63400000Y109322381D02*
X63495238Y109370000D01*
X63495238Y109370000D02*
X63542857Y109417620D01*
X63542857Y109417620D02*
X63590476Y109512858D01*
X63590476Y109512858D02*
X63590476Y109798572D01*
X63590476Y109798572D02*
X63542857Y109893810D01*
X63542857Y109893810D02*
X63495238Y109941429D01*
X63495238Y109941429D02*
X63400000Y109989048D01*
X63400000Y109989048D02*
X63209524Y109989048D01*
X63209524Y109989048D02*
X63114286Y109941429D01*
X62685714Y109322381D02*
X62685714Y109989048D01*
X62685714Y109798572D02*
X62638095Y109893810D01*
X62638095Y109893810D02*
X62590476Y109941429D01*
X62590476Y109941429D02*
X62495238Y109989048D01*
X62495238Y109989048D02*
X62400000Y109989048D01*
X61923809Y109322381D02*
X62019047Y109370000D01*
X62019047Y109370000D02*
X62066666Y109417620D01*
X62066666Y109417620D02*
X62114285Y109512858D01*
X62114285Y109512858D02*
X62114285Y109798572D01*
X62114285Y109798572D02*
X62066666Y109893810D01*
X62066666Y109893810D02*
X62019047Y109941429D01*
X62019047Y109941429D02*
X61923809Y109989048D01*
X61923809Y109989048D02*
X61780952Y109989048D01*
X61780952Y109989048D02*
X61685714Y109941429D01*
X61685714Y109941429D02*
X61638095Y109893810D01*
X61638095Y109893810D02*
X61590476Y109798572D01*
X61590476Y109798572D02*
X61590476Y109512858D01*
X61590476Y109512858D02*
X61638095Y109417620D01*
X61638095Y109417620D02*
X61685714Y109370000D01*
X61685714Y109370000D02*
X61780952Y109322381D01*
X61780952Y109322381D02*
X61923809Y109322381D01*
X61209523Y109370000D02*
X61066666Y109322381D01*
X61066666Y109322381D02*
X60828571Y109322381D01*
X60828571Y109322381D02*
X60733333Y109370000D01*
X60733333Y109370000D02*
X60685714Y109417620D01*
X60685714Y109417620D02*
X60638095Y109512858D01*
X60638095Y109512858D02*
X60638095Y109608096D01*
X60638095Y109608096D02*
X60685714Y109703334D01*
X60685714Y109703334D02*
X60733333Y109750953D01*
X60733333Y109750953D02*
X60828571Y109798572D01*
X60828571Y109798572D02*
X61019047Y109846191D01*
X61019047Y109846191D02*
X61114285Y109893810D01*
X61114285Y109893810D02*
X61161904Y109941429D01*
X61161904Y109941429D02*
X61209523Y110036667D01*
X61209523Y110036667D02*
X61209523Y110131905D01*
X61209523Y110131905D02*
X61161904Y110227143D01*
X61161904Y110227143D02*
X61114285Y110274762D01*
X61114285Y110274762D02*
X61019047Y110322381D01*
X61019047Y110322381D02*
X60780952Y110322381D01*
X60780952Y110322381D02*
X60638095Y110274762D01*
X60209523Y109322381D02*
X60209523Y110322381D01*
X60209523Y110322381D02*
X59971428Y110322381D01*
X59971428Y110322381D02*
X59828571Y110274762D01*
X59828571Y110274762D02*
X59733333Y110179524D01*
X59733333Y110179524D02*
X59685714Y110084286D01*
X59685714Y110084286D02*
X59638095Y109893810D01*
X59638095Y109893810D02*
X59638095Y109750953D01*
X59638095Y109750953D02*
X59685714Y109560477D01*
X59685714Y109560477D02*
X59733333Y109465239D01*
X59733333Y109465239D02*
X59828571Y109370000D01*
X59828571Y109370000D02*
X59971428Y109322381D01*
X59971428Y109322381D02*
X60209523Y109322381D01*
X58377619Y98461905D02*
X57377619Y98461905D01*
X57853809Y98461905D02*
X57853809Y97890477D01*
X58377619Y97890477D02*
X57377619Y97890477D01*
X58091904Y97461905D02*
X58091904Y96985715D01*
X58377619Y97557143D02*
X57377619Y97223810D01*
X57377619Y97223810D02*
X58377619Y96890477D01*
X58377619Y96080953D02*
X58377619Y96557143D01*
X58377619Y96557143D02*
X57377619Y96557143D01*
X58377619Y95271429D02*
X58377619Y95747619D01*
X58377619Y95747619D02*
X57377619Y95747619D01*
X57377619Y95033333D02*
X57377619Y94414286D01*
X57377619Y94414286D02*
X57758571Y94747619D01*
X57758571Y94747619D02*
X57758571Y94604762D01*
X57758571Y94604762D02*
X57806190Y94509524D01*
X57806190Y94509524D02*
X57853809Y94461905D01*
X57853809Y94461905D02*
X57949047Y94414286D01*
X57949047Y94414286D02*
X58187142Y94414286D01*
X58187142Y94414286D02*
X58282380Y94461905D01*
X58282380Y94461905D02*
X58330000Y94509524D01*
X58330000Y94509524D02*
X58377619Y94604762D01*
X58377619Y94604762D02*
X58377619Y94890476D01*
X58377619Y94890476D02*
X58330000Y94985714D01*
X58330000Y94985714D02*
X58282380Y95033333D01*
X39909523Y102470000D02*
X39766666Y102422381D01*
X39766666Y102422381D02*
X39528571Y102422381D01*
X39528571Y102422381D02*
X39433333Y102470000D01*
X39433333Y102470000D02*
X39385714Y102517620D01*
X39385714Y102517620D02*
X39338095Y102612858D01*
X39338095Y102612858D02*
X39338095Y102708096D01*
X39338095Y102708096D02*
X39385714Y102803334D01*
X39385714Y102803334D02*
X39433333Y102850953D01*
X39433333Y102850953D02*
X39528571Y102898572D01*
X39528571Y102898572D02*
X39719047Y102946191D01*
X39719047Y102946191D02*
X39814285Y102993810D01*
X39814285Y102993810D02*
X39861904Y103041429D01*
X39861904Y103041429D02*
X39909523Y103136667D01*
X39909523Y103136667D02*
X39909523Y103231905D01*
X39909523Y103231905D02*
X39861904Y103327143D01*
X39861904Y103327143D02*
X39814285Y103374762D01*
X39814285Y103374762D02*
X39719047Y103422381D01*
X39719047Y103422381D02*
X39480952Y103422381D01*
X39480952Y103422381D02*
X39338095Y103374762D01*
X39004761Y103422381D02*
X38766666Y102422381D01*
X38766666Y102422381D02*
X38576190Y103136667D01*
X38576190Y103136667D02*
X38385714Y102422381D01*
X38385714Y102422381D02*
X38147619Y103422381D01*
X37766666Y102422381D02*
X37766666Y103422381D01*
X37766666Y103422381D02*
X37528571Y103422381D01*
X37528571Y103422381D02*
X37385714Y103374762D01*
X37385714Y103374762D02*
X37290476Y103279524D01*
X37290476Y103279524D02*
X37242857Y103184286D01*
X37242857Y103184286D02*
X37195238Y102993810D01*
X37195238Y102993810D02*
X37195238Y102850953D01*
X37195238Y102850953D02*
X37242857Y102660477D01*
X37242857Y102660477D02*
X37290476Y102565239D01*
X37290476Y102565239D02*
X37385714Y102470000D01*
X37385714Y102470000D02*
X37528571Y102422381D01*
X37528571Y102422381D02*
X37766666Y102422381D01*
X35361904Y95622381D02*
X35361904Y94812858D01*
X35361904Y94812858D02*
X35314285Y94717620D01*
X35314285Y94717620D02*
X35266666Y94670000D01*
X35266666Y94670000D02*
X35171428Y94622381D01*
X35171428Y94622381D02*
X34980952Y94622381D01*
X34980952Y94622381D02*
X34885714Y94670000D01*
X34885714Y94670000D02*
X34838095Y94717620D01*
X34838095Y94717620D02*
X34790476Y94812858D01*
X34790476Y94812858D02*
X34790476Y95622381D01*
X34314285Y94622381D02*
X34314285Y95622381D01*
X34076191Y94527143D02*
X33314286Y94527143D01*
X32742857Y95146191D02*
X32600000Y95098572D01*
X32600000Y95098572D02*
X32552381Y95050953D01*
X32552381Y95050953D02*
X32504762Y94955715D01*
X32504762Y94955715D02*
X32504762Y94812858D01*
X32504762Y94812858D02*
X32552381Y94717620D01*
X32552381Y94717620D02*
X32600000Y94670000D01*
X32600000Y94670000D02*
X32695238Y94622381D01*
X32695238Y94622381D02*
X33076190Y94622381D01*
X33076190Y94622381D02*
X33076190Y95622381D01*
X33076190Y95622381D02*
X32742857Y95622381D01*
X32742857Y95622381D02*
X32647619Y95574762D01*
X32647619Y95574762D02*
X32600000Y95527143D01*
X32600000Y95527143D02*
X32552381Y95431905D01*
X32552381Y95431905D02*
X32552381Y95336667D01*
X32552381Y95336667D02*
X32600000Y95241429D01*
X32600000Y95241429D02*
X32647619Y95193810D01*
X32647619Y95193810D02*
X32742857Y95146191D01*
X32742857Y95146191D02*
X33076190Y95146191D01*
X32219047Y95622381D02*
X31647619Y95622381D01*
X31933333Y94622381D02*
X31933333Y95622381D01*
X31314285Y94622381D02*
X31314285Y95622381D01*
X31314285Y95622381D02*
X30742857Y94622381D01*
X30742857Y94622381D02*
X30742857Y95622381D01*
X39854761Y111072381D02*
X39521428Y110072381D01*
X39521428Y110072381D02*
X39188095Y111072381D01*
X38283333Y110167620D02*
X38330952Y110120000D01*
X38330952Y110120000D02*
X38473809Y110072381D01*
X38473809Y110072381D02*
X38569047Y110072381D01*
X38569047Y110072381D02*
X38711904Y110120000D01*
X38711904Y110120000D02*
X38807142Y110215239D01*
X38807142Y110215239D02*
X38854761Y110310477D01*
X38854761Y110310477D02*
X38902380Y110500953D01*
X38902380Y110500953D02*
X38902380Y110643810D01*
X38902380Y110643810D02*
X38854761Y110834286D01*
X38854761Y110834286D02*
X38807142Y110929524D01*
X38807142Y110929524D02*
X38711904Y111024762D01*
X38711904Y111024762D02*
X38569047Y111072381D01*
X38569047Y111072381D02*
X38473809Y111072381D01*
X38473809Y111072381D02*
X38330952Y111024762D01*
X38330952Y111024762D02*
X38283333Y110977143D01*
X37283333Y110167620D02*
X37330952Y110120000D01*
X37330952Y110120000D02*
X37473809Y110072381D01*
X37473809Y110072381D02*
X37569047Y110072381D01*
X37569047Y110072381D02*
X37711904Y110120000D01*
X37711904Y110120000D02*
X37807142Y110215239D01*
X37807142Y110215239D02*
X37854761Y110310477D01*
X37854761Y110310477D02*
X37902380Y110500953D01*
X37902380Y110500953D02*
X37902380Y110643810D01*
X37902380Y110643810D02*
X37854761Y110834286D01*
X37854761Y110834286D02*
X37807142Y110929524D01*
X37807142Y110929524D02*
X37711904Y111024762D01*
X37711904Y111024762D02*
X37569047Y111072381D01*
X37569047Y111072381D02*
X37473809Y111072381D01*
X37473809Y111072381D02*
X37330952Y111024762D01*
X37330952Y111024762D02*
X37283333Y110977143D01*
X96838095Y113774762D02*
X96933333Y113822381D01*
X96933333Y113822381D02*
X97076190Y113822381D01*
X97076190Y113822381D02*
X97219047Y113774762D01*
X97219047Y113774762D02*
X97314285Y113679524D01*
X97314285Y113679524D02*
X97361904Y113584286D01*
X97361904Y113584286D02*
X97409523Y113393810D01*
X97409523Y113393810D02*
X97409523Y113250953D01*
X97409523Y113250953D02*
X97361904Y113060477D01*
X97361904Y113060477D02*
X97314285Y112965239D01*
X97314285Y112965239D02*
X97219047Y112870000D01*
X97219047Y112870000D02*
X97076190Y112822381D01*
X97076190Y112822381D02*
X96980952Y112822381D01*
X96980952Y112822381D02*
X96838095Y112870000D01*
X96838095Y112870000D02*
X96790476Y112917620D01*
X96790476Y112917620D02*
X96790476Y113250953D01*
X96790476Y113250953D02*
X96980952Y113250953D01*
X96361904Y112822381D02*
X96361904Y113822381D01*
X96361904Y113822381D02*
X95790476Y112822381D01*
X95790476Y112822381D02*
X95790476Y113822381D01*
X95314285Y112822381D02*
X95314285Y113822381D01*
X95314285Y113822381D02*
X95076190Y113822381D01*
X95076190Y113822381D02*
X94933333Y113774762D01*
X94933333Y113774762D02*
X94838095Y113679524D01*
X94838095Y113679524D02*
X94790476Y113584286D01*
X94790476Y113584286D02*
X94742857Y113393810D01*
X94742857Y113393810D02*
X94742857Y113250953D01*
X94742857Y113250953D02*
X94790476Y113060477D01*
X94790476Y113060477D02*
X94838095Y112965239D01*
X94838095Y112965239D02*
X94933333Y112870000D01*
X94933333Y112870000D02*
X95076190Y112822381D01*
X95076190Y112822381D02*
X95314285Y112822381D01*
D12*
G04 #@! TO.C,D1*
X62872500Y101065000D02*
X60587500Y101065000D01*
X62872500Y102535000D02*
X62872500Y101065000D01*
X60587500Y102535000D02*
X62872500Y102535000D01*
G04 #@! TO.C,D2*
X62885000Y102665000D02*
X60600000Y102665000D01*
X62885000Y104135000D02*
X62885000Y102665000D01*
X60600000Y104135000D02*
X62885000Y104135000D01*
G04 #@! TO.C,D3*
X62885000Y99065000D02*
X60600000Y99065000D01*
X62885000Y100535000D02*
X62885000Y99065000D01*
X60600000Y100535000D02*
X62885000Y100535000D01*
G04 #@! TO.C,P1*
X54030000Y91470000D02*
X54030000Y94130000D01*
X66790000Y91470000D02*
X54030000Y91470000D01*
X66790000Y91470000D02*
X66790000Y94130000D01*
X68060000Y91470000D02*
X69390000Y91470000D01*
X69390000Y91470000D02*
X69390000Y92800000D01*
X66790000Y94130000D02*
X54030000Y94130000D01*
G04 #@! TO.C,P2*
X36930000Y96555000D02*
X34270000Y96555000D01*
X36930000Y109315000D02*
X36930000Y96555000D01*
X36930000Y109315000D02*
X34270000Y109315000D01*
X36930000Y110585000D02*
X36930000Y111915000D01*
X36930000Y111915000D02*
X35600000Y111915000D01*
X34270000Y109315000D02*
X34270000Y96555000D01*
G04 #@! TO.C,P11*
X36550000Y91470000D02*
X36550000Y94130000D01*
X44230000Y91470000D02*
X36550000Y91470000D01*
X44230000Y91470000D02*
X44230000Y94130000D01*
X45500000Y91470000D02*
X46830000Y91470000D01*
X46830000Y91470000D02*
X46830000Y92800000D01*
X44230000Y94130000D02*
X36550000Y94130000D01*
G04 #@! TO.C,P12*
X47830000Y91470000D02*
X47830000Y94130000D01*
X50430000Y91470000D02*
X47830000Y91470000D01*
X50430000Y91470000D02*
X50430000Y94130000D01*
X51700000Y91470000D02*
X53030000Y91470000D01*
X53030000Y91470000D02*
X53030000Y92800000D01*
X50430000Y94130000D02*
X47830000Y94130000D01*
G04 #@! TO.C,P13*
X35620000Y94130000D02*
X35620000Y91470000D01*
X33020000Y94130000D02*
X35620000Y94130000D01*
X33020000Y94130000D02*
X33020000Y91470000D01*
X31750000Y94130000D02*
X30420000Y94130000D01*
X30420000Y94130000D02*
X30420000Y92800000D01*
X33020000Y91470000D02*
X35620000Y91470000D01*
G04 #@! TO.C,P14*
X33330000Y96545000D02*
X30670000Y96545000D01*
X33330000Y109305000D02*
X33330000Y96545000D01*
X33330000Y109305000D02*
X30670000Y109305000D01*
X33330000Y110575000D02*
X33330000Y111905000D01*
X33330000Y111905000D02*
X32000000Y111905000D01*
X30670000Y109305000D02*
X30670000Y96545000D01*
G04 #@! TO.C,R22*
X58637258Y99277500D02*
X58162742Y99277500D01*
X58637258Y100322500D02*
X58162742Y100322500D01*
G04 #@! TO.C,R37*
X58662258Y101277500D02*
X58187742Y101277500D01*
X58662258Y102322500D02*
X58187742Y102322500D01*
G04 #@! TO.C,R38*
X58662258Y102877500D02*
X58187742Y102877500D01*
X58662258Y103922500D02*
X58187742Y103922500D01*
G04 #@! TO.C,U5*
X68605000Y104955000D02*
X65925000Y104955000D01*
X68605000Y105675000D02*
X68605000Y104955000D01*
X68605000Y109375000D02*
X68605000Y107075000D01*
X68605000Y115225000D02*
X68605000Y110775000D01*
X67125000Y116595000D02*
X66265000Y116595000D01*
X63625000Y104955000D02*
X59955000Y104955000D01*
X57655000Y104955000D02*
X56425000Y104955000D01*
X56425000Y104955000D02*
X56425000Y114775000D01*
G04 #@! TO.C,C33*
X53750000Y108160000D02*
X52500000Y108160000D01*
X53125000Y108785000D02*
X53125000Y107535000D01*
X52260000Y101104437D02*
X52260000Y103890000D01*
X52260000Y101104437D02*
X51195563Y100040000D01*
X52260000Y109695563D02*
X52260000Y106910000D01*
X52260000Y109695563D02*
X51195563Y110760000D01*
X51195563Y100040000D02*
X41540000Y100040000D01*
X51195563Y110760000D02*
X41540000Y110760000D01*
X41540000Y100040000D02*
X41540000Y103890000D01*
X41540000Y110760000D02*
X41540000Y106910000D01*
G04 #@! TO.C,C9*
X98510000Y100236252D02*
X98510000Y98813748D01*
X96690000Y100236252D02*
X96690000Y98813748D01*
G04 #@! TO.C,C56*
X80410000Y94411252D02*
X80410000Y92988748D01*
X78590000Y94411252D02*
X78590000Y92988748D01*
G04 #@! TO.C,C57*
X82850000Y92640000D02*
X84100000Y92640000D01*
X83475000Y92015000D02*
X83475000Y93265000D01*
X84340000Y99695563D02*
X84340000Y96910000D01*
X84340000Y99695563D02*
X85404437Y100760000D01*
X84340000Y91104437D02*
X84340000Y93890000D01*
X84340000Y91104437D02*
X85404437Y90040000D01*
X85404437Y100760000D02*
X95060000Y100760000D01*
X85404437Y90040000D02*
X95060000Y90040000D01*
X95060000Y100760000D02*
X95060000Y96910000D01*
X95060000Y90040000D02*
X95060000Y93890000D01*
G04 #@! TO.C,J2*
X88480000Y119710000D02*
X98640000Y119710000D01*
X88480000Y112090000D02*
X88480000Y119710000D01*
X98640000Y119710000D02*
X98640000Y112090000D01*
X98640000Y118440000D02*
X88480000Y118440000D01*
X98640000Y112090000D02*
X88480000Y112090000D01*
G04 #@! TO.C,J3*
X77920000Y119710000D02*
X88080000Y119710000D01*
X77920000Y112090000D02*
X77920000Y119710000D01*
X88080000Y119710000D02*
X88080000Y112090000D01*
X88080000Y118440000D02*
X77920000Y118440000D01*
X88080000Y112090000D02*
X77920000Y112090000D01*
G04 #@! TO.C,C59*
X82850000Y103640000D02*
X84100000Y103640000D01*
X83475000Y103015000D02*
X83475000Y104265000D01*
X84340000Y110695563D02*
X84340000Y107910000D01*
X84340000Y110695563D02*
X85404437Y111760000D01*
X84340000Y102104437D02*
X84340000Y104890000D01*
X84340000Y102104437D02*
X85404437Y101040000D01*
X85404437Y111760000D02*
X95060000Y111760000D01*
X85404437Y101040000D02*
X95060000Y101040000D01*
X95060000Y111760000D02*
X95060000Y107910000D01*
X95060000Y101040000D02*
X95060000Y104890000D01*
G04 #@! TO.C,C49*
X77711252Y98590000D02*
X76288748Y98590000D01*
X77711252Y100410000D02*
X76288748Y100410000D01*
G04 #@! TO.C,C50*
X96690000Y94163748D02*
X96690000Y95586252D01*
X98510000Y94163748D02*
X98510000Y95586252D01*
G04 #@! TO.C,C44*
X96690000Y103488748D02*
X96690000Y104911252D01*
X98510000Y103488748D02*
X98510000Y104911252D01*
G04 #@! TO.C,C54*
X98510000Y109711252D02*
X98510000Y108288748D01*
X96690000Y109711252D02*
X96690000Y108288748D01*
G04 #@! TO.C,J1*
X106810000Y112700000D02*
X99190000Y112700000D01*
X106810000Y112700000D02*
X106810000Y97460000D01*
X105540000Y112700000D02*
X105540000Y97460000D01*
X99190000Y112700000D02*
X99190000Y97460000D01*
X106810000Y97460000D02*
X99190000Y97460000D01*
G04 #@! TO.C,C55*
X82710000Y94411252D02*
X82710000Y92988748D01*
X80890000Y94411252D02*
X80890000Y92988748D01*
G04 #@! TO.C,C58*
X83250000Y109160000D02*
X82000000Y109160000D01*
X82625000Y109785000D02*
X82625000Y108535000D01*
X81760000Y102104437D02*
X81760000Y104890000D01*
X81760000Y102104437D02*
X80695563Y101040000D01*
X81760000Y110695563D02*
X81760000Y107910000D01*
X81760000Y110695563D02*
X80695563Y111760000D01*
X80695563Y101040000D02*
X71040000Y101040000D01*
X80695563Y111760000D02*
X71040000Y111760000D01*
X71040000Y101040000D02*
X71040000Y104890000D01*
X71040000Y111760000D02*
X71040000Y107910000D01*
G04 #@! TD*
M02*
